<?xml version="1.0" encoding="utf-8" standalone="no"?>
<!DOCTYPE svg PUBLIC "-//W3C//DTD SVG 1.1//EN"
  "http://www.w3.org/Graphics/SVG/1.1/DTD/svg11.dtd">
<svg xmlns:xlink="http://www.w3.org/1999/xlink" width="864pt" height="432pt" viewBox="0 0 864 432" xmlns="http://www.w3.org/2000/svg" version="1.1">
 <metadata>
  <rdf:RDF xmlns:dc="http://purl.org/dc/elements/1.1/" xmlns:cc="http://creativecommons.org/ns#" xmlns:rdf="http://www.w3.org/1999/02/22-rdf-syntax-ns#">
   <cc:Work>
    <dc:type rdf:resource="http://purl.org/dc/dcmitype/StillImage"/>
    <dc:date>2025-05-13T12:00:01.631492</dc:date>
    <dc:format>image/svg+xml</dc:format>
    <dc:creator>
     <cc:Agent>
      <dc:title>Matplotlib v3.9.2, https://matplotlib.org/</dc:title>
     </cc:Agent>
    </dc:creator>
   </cc:Work>
  </rdf:RDF>
 </metadata>
 <defs>
  <style type="text/css">*{stroke-linejoin: round; stroke-linecap: butt}</style>
 </defs>
 <g id="figure_1">
  <g id="patch_1">
   <path d="M 0 432 
L 864 432 
L 864 0 
L 0 0 
z
" style="fill: #ffffff"/>
  </g>
  <g id="axes_1">
   <g id="patch_2">
    <path d="M 108 384.48 
L 777.6 384.48 
L 777.6 51.84 
L 108 51.84 
z
" style="fill: #ffffff"/>
   </g>
   <g id="matplotlib.axis_1">
    <g id="xtick_1">
     <g id="line2d_1">
      <path d="M 142.27288 384.48 
L 142.27288 51.84 
" clip-path="url(#p4fd9c92f23)" style="fill: none; stroke: #b0b0b0; stroke-width: 0.8; stroke-linecap: square"/>
     </g>
     <g id="line2d_2">
      <defs>
       <path id="maa32ac6edf" d="M 0 0 
L 0 3.5 
" style="stroke: #000000; stroke-width: 0.8"/>
      </defs>
      <g>
       <use xlink:href="#maa32ac6edf" x="142.27288" y="384.48" style="stroke: #000000; stroke-width: 0.8"/>
      </g>
     </g>
     <g id="text_1">
      <!-- 2024-01 -->
      <g transform="translate(124.77288 398.355) scale(0.1 -0.1)">
       <defs>
        <path id="SimHei-32" d="M 300 250 
Q 325 625 650 925 
Q 975 1225 1475 1862 
Q 1975 2500 2125 2850 
Q 2275 3200 2237 3450 
Q 2200 3700 2000 3862 
Q 1800 4025 1537 4000 
Q 1275 3975 1037 3800 
Q 800 3625 675 3275 
L 200 3350 
Q 400 3925 712 4187 
Q 1025 4450 1450 4475 
Q 1700 4500 1900 4462 
Q 2100 4425 2312 4287 
Q 2525 4150 2662 3875 
Q 2800 3600 2762 3212 
Q 2725 2825 2375 2287 
Q 2025 1750 1025 600 
L 2825 600 
L 2825 150 
L 300 150 
L 300 250 
z
" transform="scale(0.015625)"/>
        <path id="SimHei-30" d="M 225 2537 
Q 250 3200 412 3587 
Q 575 3975 875 4225 
Q 1175 4475 1612 4475 
Q 2050 4475 2375 4112 
Q 2700 3750 2800 3200 
Q 2900 2650 2862 1937 
Q 2825 1225 2612 775 
Q 2400 325 1975 150 
Q 1550 -25 1125 187 
Q 700 400 525 750 
Q 350 1100 275 1487 
Q 200 1875 225 2537 
z
M 750 2687 
Q 675 2000 800 1462 
Q 925 925 1212 700 
Q 1500 475 1800 612 
Q 2100 750 2237 1162 
Q 2375 1575 2375 2062 
Q 2375 2550 2337 2950 
Q 2300 3350 2112 3675 
Q 1925 4000 1612 4012 
Q 1300 4025 1062 3700 
Q 825 3375 750 2687 
z
" transform="scale(0.015625)"/>
        <path id="SimHei-34" d="M 2000 1100 
L 75 1100 
L 75 1525 
L 2100 4450 
L 2475 4450 
L 2475 1525 
L 3075 1525 
L 3075 1100 
L 2475 1100 
L 2475 150 
L 2000 150 
L 2000 1100 
z
M 2000 1525 
L 2000 3500 
L 600 1525 
L 2000 1525 
z
" transform="scale(0.015625)"/>
        <path id="SimHei-2d" d="M 2975 2125 
L 125 2125 
L 125 2525 
L 2975 2525 
L 2975 2125 
z
" transform="scale(0.015625)"/>
        <path id="SimHei-31" d="M 1400 3600 
Q 1075 3275 575 2975 
L 575 3450 
Q 1200 3875 1600 4450 
L 1900 4450 
L 1900 150 
L 1400 150 
L 1400 3600 
z
" transform="scale(0.015625)"/>
       </defs>
       <use xlink:href="#SimHei-32"/>
       <use xlink:href="#SimHei-30" x="50"/>
       <use xlink:href="#SimHei-32" x="100"/>
       <use xlink:href="#SimHei-34" x="150"/>
       <use xlink:href="#SimHei-2d" x="200"/>
       <use xlink:href="#SimHei-30" x="250"/>
       <use xlink:href="#SimHei-31" x="300"/>
      </g>
     </g>
    </g>
    <g id="xtick_2">
     <g id="line2d_3">
      <path d="M 219.003209 384.48 
L 219.003209 51.84 
" clip-path="url(#p4fd9c92f23)" style="fill: none; stroke: #b0b0b0; stroke-width: 0.8; stroke-linecap: square"/>
     </g>
     <g id="line2d_4">
      <g>
       <use xlink:href="#maa32ac6edf" x="219.003209" y="384.48" style="stroke: #000000; stroke-width: 0.8"/>
      </g>
     </g>
     <g id="text_2">
      <!-- 2024-03 -->
      <g transform="translate(201.503209 398.355) scale(0.1 -0.1)">
       <defs>
        <path id="SimHei-33" d="M 250 1225 
L 700 1300 
Q 800 975 1025 762 
Q 1250 550 1587 562 
Q 1925 575 2125 837 
Q 2325 1100 2300 1437 
Q 2275 1775 2037 1962 
Q 1800 2150 1275 2225 
L 1275 2550 
Q 1800 2600 2037 2825 
Q 2275 3050 2250 3412 
Q 2225 3775 1925 3937 
Q 1625 4100 1287 3975 
Q 950 3850 750 3275 
L 300 3350 
Q 450 3800 712 4100 
Q 975 4400 1425 4450 
Q 1875 4500 2212 4337 
Q 2550 4175 2687 3837 
Q 2825 3500 2725 3100 
Q 2625 2700 2150 2400 
Q 2500 2250 2687 1950 
Q 2875 1650 2812 1162 
Q 2750 675 2375 375 
Q 2000 75 1525 87 
Q 1050 100 700 387 
Q 350 675 250 1225 
z
" transform="scale(0.015625)"/>
       </defs>
       <use xlink:href="#SimHei-32"/>
       <use xlink:href="#SimHei-30" x="50"/>
       <use xlink:href="#SimHei-32" x="100"/>
       <use xlink:href="#SimHei-34" x="150"/>
       <use xlink:href="#SimHei-2d" x="200"/>
       <use xlink:href="#SimHei-30" x="250"/>
       <use xlink:href="#SimHei-33" x="300"/>
      </g>
     </g>
    </g>
    <g id="xtick_3">
     <g id="line2d_5">
      <path d="M 297.012376 384.48 
L 297.012376 51.84 
" clip-path="url(#p4fd9c92f23)" style="fill: none; stroke: #b0b0b0; stroke-width: 0.8; stroke-linecap: square"/>
     </g>
     <g id="line2d_6">
      <g>
       <use xlink:href="#maa32ac6edf" x="297.012376" y="384.48" style="stroke: #000000; stroke-width: 0.8"/>
      </g>
     </g>
     <g id="text_3">
      <!-- 2024-05 -->
      <g transform="translate(279.512376 398.355) scale(0.1 -0.1)">
       <defs>
        <path id="SimHei-35" d="M 550 1325 
Q 725 650 1150 575 
Q 1575 500 1837 662 
Q 2100 825 2212 1087 
Q 2325 1350 2312 1675 
Q 2300 2000 2137 2225 
Q 1975 2450 1725 2525 
Q 1475 2600 1162 2525 
Q 850 2450 650 2175 
L 225 2225 
Q 275 2375 700 4375 
L 2675 4375 
L 2675 3925 
L 1075 3925 
Q 950 3250 825 2850 
Q 1200 3025 1525 3012 
Q 1850 3000 2150 2862 
Q 2450 2725 2587 2487 
Q 2725 2250 2787 2012 
Q 2850 1775 2837 1500 
Q 2825 1225 2725 937 
Q 2625 650 2425 462 
Q 2225 275 1937 162 
Q 1650 50 1275 75 
Q 900 100 562 350 
Q 225 600 100 1200 
L 550 1325 
z
" transform="scale(0.015625)"/>
       </defs>
       <use xlink:href="#SimHei-32"/>
       <use xlink:href="#SimHei-30" x="50"/>
       <use xlink:href="#SimHei-32" x="100"/>
       <use xlink:href="#SimHei-34" x="150"/>
       <use xlink:href="#SimHei-2d" x="200"/>
       <use xlink:href="#SimHei-30" x="250"/>
       <use xlink:href="#SimHei-35" x="300"/>
      </g>
     </g>
    </g>
    <g id="xtick_4">
     <g id="line2d_7">
      <path d="M 375.021543 384.48 
L 375.021543 51.84 
" clip-path="url(#p4fd9c92f23)" style="fill: none; stroke: #b0b0b0; stroke-width: 0.8; stroke-linecap: square"/>
     </g>
     <g id="line2d_8">
      <g>
       <use xlink:href="#maa32ac6edf" x="375.021543" y="384.48" style="stroke: #000000; stroke-width: 0.8"/>
      </g>
     </g>
     <g id="text_4">
      <!-- 2024-07 -->
      <g transform="translate(357.521543 398.355) scale(0.1 -0.1)">
       <defs>
        <path id="SimHei-37" d="M 850 150 
Q 1300 2050 2425 3925 
L 275 3925 
L 275 4375 
L 2950 4375 
L 2950 3950 
Q 1775 2050 1400 150 
L 850 150 
z
" transform="scale(0.015625)"/>
       </defs>
       <use xlink:href="#SimHei-32"/>
       <use xlink:href="#SimHei-30" x="50"/>
       <use xlink:href="#SimHei-32" x="100"/>
       <use xlink:href="#SimHei-34" x="150"/>
       <use xlink:href="#SimHei-2d" x="200"/>
       <use xlink:href="#SimHei-30" x="250"/>
       <use xlink:href="#SimHei-37" x="300"/>
      </g>
     </g>
    </g>
    <g id="xtick_5">
     <g id="line2d_9">
      <path d="M 454.309549 384.48 
L 454.309549 51.84 
" clip-path="url(#p4fd9c92f23)" style="fill: none; stroke: #b0b0b0; stroke-width: 0.8; stroke-linecap: square"/>
     </g>
     <g id="line2d_10">
      <g>
       <use xlink:href="#maa32ac6edf" x="454.309549" y="384.48" style="stroke: #000000; stroke-width: 0.8"/>
      </g>
     </g>
     <g id="text_5">
      <!-- 2024-09 -->
      <g transform="translate(436.809549 398.355) scale(0.1 -0.1)">
       <defs>
        <path id="SimHei-39" d="M 800 75 
Q 1350 1000 1700 1750 
Q 1075 1650 662 1912 
Q 250 2175 162 2625 
Q 75 3075 175 3437 
Q 275 3800 487 4037 
Q 700 4275 1000 4375 
Q 1300 4475 1537 4475 
Q 1775 4475 2025 4375 
Q 2275 4275 2475 4075 
Q 2675 3875 2750 3662 
Q 2825 3450 2825 3112 
Q 2825 2775 2575 2250 
Q 2325 1725 1350 75 
L 800 75 
z
M 662 2875 
Q 700 2550 937 2337 
Q 1175 2125 1450 2150 
Q 1725 2175 1887 2300 
Q 2050 2425 2200 2725 
Q 2300 3100 2250 3362 
Q 2200 3625 1987 3800 
Q 1775 3975 1525 3975 
Q 1375 4000 1137 3900 
Q 900 3800 762 3500 
Q 625 3200 662 2875 
z
" transform="scale(0.015625)"/>
       </defs>
       <use xlink:href="#SimHei-32"/>
       <use xlink:href="#SimHei-30" x="50"/>
       <use xlink:href="#SimHei-32" x="100"/>
       <use xlink:href="#SimHei-34" x="150"/>
       <use xlink:href="#SimHei-2d" x="200"/>
       <use xlink:href="#SimHei-30" x="250"/>
       <use xlink:href="#SimHei-39" x="300"/>
      </g>
     </g>
    </g>
    <g id="xtick_6">
     <g id="line2d_11">
      <path d="M 532.318717 384.48 
L 532.318717 51.84 
" clip-path="url(#p4fd9c92f23)" style="fill: none; stroke: #b0b0b0; stroke-width: 0.8; stroke-linecap: square"/>
     </g>
     <g id="line2d_12">
      <g>
       <use xlink:href="#maa32ac6edf" x="532.318717" y="384.48" style="stroke: #000000; stroke-width: 0.8"/>
      </g>
     </g>
     <g id="text_6">
      <!-- 2024-11 -->
      <g transform="translate(514.818717 398.355) scale(0.1 -0.1)">
       <use xlink:href="#SimHei-32"/>
       <use xlink:href="#SimHei-30" x="50"/>
       <use xlink:href="#SimHei-32" x="100"/>
       <use xlink:href="#SimHei-34" x="150"/>
       <use xlink:href="#SimHei-2d" x="200"/>
       <use xlink:href="#SimHei-31" x="250"/>
       <use xlink:href="#SimHei-31" x="300"/>
      </g>
     </g>
    </g>
    <g id="xtick_7">
     <g id="line2d_13">
      <path d="M 610.327884 384.48 
L 610.327884 51.84 
" clip-path="url(#p4fd9c92f23)" style="fill: none; stroke: #b0b0b0; stroke-width: 0.8; stroke-linecap: square"/>
     </g>
     <g id="line2d_14">
      <g>
       <use xlink:href="#maa32ac6edf" x="610.327884" y="384.48" style="stroke: #000000; stroke-width: 0.8"/>
      </g>
     </g>
     <g id="text_7">
      <!-- 2025-01 -->
      <g transform="translate(592.827884 398.355) scale(0.1 -0.1)">
       <use xlink:href="#SimHei-32"/>
       <use xlink:href="#SimHei-30" x="50"/>
       <use xlink:href="#SimHei-32" x="100"/>
       <use xlink:href="#SimHei-35" x="150"/>
       <use xlink:href="#SimHei-2d" x="200"/>
       <use xlink:href="#SimHei-30" x="250"/>
       <use xlink:href="#SimHei-31" x="300"/>
      </g>
     </g>
    </g>
    <g id="xtick_8">
     <g id="line2d_15">
      <path d="M 685.779374 384.48 
L 685.779374 51.84 
" clip-path="url(#p4fd9c92f23)" style="fill: none; stroke: #b0b0b0; stroke-width: 0.8; stroke-linecap: square"/>
     </g>
     <g id="line2d_16">
      <g>
       <use xlink:href="#maa32ac6edf" x="685.779374" y="384.48" style="stroke: #000000; stroke-width: 0.8"/>
      </g>
     </g>
     <g id="text_8">
      <!-- 2025-03 -->
      <g transform="translate(668.279374 398.355) scale(0.1 -0.1)">
       <use xlink:href="#SimHei-32"/>
       <use xlink:href="#SimHei-30" x="50"/>
       <use xlink:href="#SimHei-32" x="100"/>
       <use xlink:href="#SimHei-35" x="150"/>
       <use xlink:href="#SimHei-2d" x="200"/>
       <use xlink:href="#SimHei-30" x="250"/>
       <use xlink:href="#SimHei-33" x="300"/>
      </g>
     </g>
    </g>
    <g id="xtick_9">
     <g id="line2d_17">
      <path d="M 763.788541 384.48 
L 763.788541 51.84 
" clip-path="url(#p4fd9c92f23)" style="fill: none; stroke: #b0b0b0; stroke-width: 0.8; stroke-linecap: square"/>
     </g>
     <g id="line2d_18">
      <g>
       <use xlink:href="#maa32ac6edf" x="763.788541" y="384.48" style="stroke: #000000; stroke-width: 0.8"/>
      </g>
     </g>
     <g id="text_9">
      <!-- 2025-05 -->
      <g transform="translate(746.288541 398.355) scale(0.1 -0.1)">
       <use xlink:href="#SimHei-32"/>
       <use xlink:href="#SimHei-30" x="50"/>
       <use xlink:href="#SimHei-32" x="100"/>
       <use xlink:href="#SimHei-35" x="150"/>
       <use xlink:href="#SimHei-2d" x="200"/>
       <use xlink:href="#SimHei-30" x="250"/>
       <use xlink:href="#SimHei-35" x="300"/>
      </g>
     </g>
    </g>
   </g>
   <g id="matplotlib.axis_2">
    <g id="ytick_1">
     <g id="line2d_19">
      <path d="M 108 364.176559 
L 777.6 364.176559 
" clip-path="url(#p4fd9c92f23)" style="fill: none; stroke: #b0b0b0; stroke-width: 0.8; stroke-linecap: square"/>
     </g>
     <g id="line2d_20">
      <defs>
       <path id="m5ee9d708bd" d="M 0 0 
L -3.5 0 
" style="stroke: #000000; stroke-width: 0.8"/>
      </defs>
      <g>
       <use xlink:href="#m5ee9d708bd" x="108" y="364.176559" style="stroke: #000000; stroke-width: 0.8"/>
      </g>
     </g>
     <g id="text_10">
      <!-- 100 -->
      <g transform="translate(86 367.614059) scale(0.1 -0.1)">
       <use xlink:href="#SimHei-31"/>
       <use xlink:href="#SimHei-30" x="50"/>
       <use xlink:href="#SimHei-30" x="100"/>
      </g>
     </g>
    </g>
    <g id="ytick_2">
     <g id="line2d_21">
      <path d="M 108 303.225724 
L 777.6 303.225724 
" clip-path="url(#p4fd9c92f23)" style="fill: none; stroke: #b0b0b0; stroke-width: 0.8; stroke-linecap: square"/>
     </g>
     <g id="line2d_22">
      <g>
       <use xlink:href="#m5ee9d708bd" x="108" y="303.225724" style="stroke: #000000; stroke-width: 0.8"/>
      </g>
     </g>
     <g id="text_11">
      <!-- 110 -->
      <g transform="translate(86 306.663224) scale(0.1 -0.1)">
       <use xlink:href="#SimHei-31"/>
       <use xlink:href="#SimHei-31" x="50"/>
       <use xlink:href="#SimHei-30" x="100"/>
      </g>
     </g>
    </g>
    <g id="ytick_3">
     <g id="line2d_23">
      <path d="M 108 242.274889 
L 777.6 242.274889 
" clip-path="url(#p4fd9c92f23)" style="fill: none; stroke: #b0b0b0; stroke-width: 0.8; stroke-linecap: square"/>
     </g>
     <g id="line2d_24">
      <g>
       <use xlink:href="#m5ee9d708bd" x="108" y="242.274889" style="stroke: #000000; stroke-width: 0.8"/>
      </g>
     </g>
     <g id="text_12">
      <!-- 120 -->
      <g transform="translate(86 245.712389) scale(0.1 -0.1)">
       <use xlink:href="#SimHei-31"/>
       <use xlink:href="#SimHei-32" x="50"/>
       <use xlink:href="#SimHei-30" x="100"/>
      </g>
     </g>
    </g>
    <g id="ytick_4">
     <g id="line2d_25">
      <path d="M 108 181.324053 
L 777.6 181.324053 
" clip-path="url(#p4fd9c92f23)" style="fill: none; stroke: #b0b0b0; stroke-width: 0.8; stroke-linecap: square"/>
     </g>
     <g id="line2d_26">
      <g>
       <use xlink:href="#m5ee9d708bd" x="108" y="181.324053" style="stroke: #000000; stroke-width: 0.8"/>
      </g>
     </g>
     <g id="text_13">
      <!-- 130 -->
      <g transform="translate(86 184.761553) scale(0.1 -0.1)">
       <use xlink:href="#SimHei-31"/>
       <use xlink:href="#SimHei-33" x="50"/>
       <use xlink:href="#SimHei-30" x="100"/>
      </g>
     </g>
    </g>
    <g id="ytick_5">
     <g id="line2d_27">
      <path d="M 108 120.373218 
L 777.6 120.373218 
" clip-path="url(#p4fd9c92f23)" style="fill: none; stroke: #b0b0b0; stroke-width: 0.8; stroke-linecap: square"/>
     </g>
     <g id="line2d_28">
      <g>
       <use xlink:href="#m5ee9d708bd" x="108" y="120.373218" style="stroke: #000000; stroke-width: 0.8"/>
      </g>
     </g>
     <g id="text_14">
      <!-- 140 -->
      <g transform="translate(86 123.810718) scale(0.1 -0.1)">
       <use xlink:href="#SimHei-31"/>
       <use xlink:href="#SimHei-34" x="50"/>
       <use xlink:href="#SimHei-30" x="100"/>
      </g>
     </g>
    </g>
    <g id="ytick_6">
     <g id="line2d_29">
      <path d="M 108 59.422382 
L 777.6 59.422382 
" clip-path="url(#p4fd9c92f23)" style="fill: none; stroke: #b0b0b0; stroke-width: 0.8; stroke-linecap: square"/>
     </g>
     <g id="line2d_30">
      <g>
       <use xlink:href="#m5ee9d708bd" x="108" y="59.422382" style="stroke: #000000; stroke-width: 0.8"/>
      </g>
     </g>
     <g id="text_15">
      <!-- 150 -->
      <g transform="translate(86 62.859882) scale(0.1 -0.1)">
       <use xlink:href="#SimHei-31"/>
       <use xlink:href="#SimHei-35" x="50"/>
       <use xlink:href="#SimHei-30" x="100"/>
      </g>
     </g>
    </g>
    <g id="text_16">
     <!-- 组合价值 -->
     <g transform="translate(80.75 238.16) rotate(-90) scale(0.1 -0.1)">
      <defs>
       <path id="SimHei-7ec4" d="M 6125 -425 
Q 5750 -400 5225 -400 
L 3275 -400 
Q 2775 -400 2400 -425 
L 2400 50 
Q 2725 25 2950 25 
L 2950 3775 
Q 2950 4375 2900 4625 
L 5525 4625 
Q 5500 4400 5500 3775 
L 5500 25 
Q 5825 25 6125 50 
L 6125 -425 
z
M 1725 4825 
Q 1500 4550 1287 4137 
Q 1075 3725 725 3050 
Q 950 3050 1550 3075 
Q 1800 3550 1900 3975 
Q 2075 3825 2450 3675 
Q 2225 3350 1937 2875 
Q 1650 2400 1150 1625 
Q 1950 1725 2425 1775 
L 2425 1350 
Q 2100 1325 1575 1250 
Q 1050 1175 575 1050 
Q 550 1300 400 1575 
Q 675 1675 912 1975 
Q 1150 2275 1375 2725 
Q 1225 2725 950 2687 
Q 675 2650 425 2525 
Q 325 2825 225 3050 
Q 450 3300 712 3862 
Q 975 4425 1150 5075 
Q 1425 4925 1725 4825 
z
M 5025 25 
L 5025 1275 
L 3425 1275 
L 3425 25 
L 5025 25 
z
M 5025 3125 
L 5025 4225 
L 3425 4225 
L 3425 3125 
L 5025 3125 
z
M 5025 1700 
L 5025 2725 
L 3425 2725 
L 3425 1700 
L 5025 1700 
z
M 2375 175 
Q 1875 100 1375 -12 
Q 875 -125 450 -300 
Q 375 -75 250 250 
Q 925 325 1162 375 
Q 1400 425 2375 600 
L 2375 175 
z
" transform="scale(0.015625)"/>
       <path id="SimHei-5408" d="M 5050 1800 
Q 5025 1550 5025 650 
Q 5025 -250 5050 -525 
L 4525 -525 
L 4525 -50 
L 1750 -50 
L 1750 -600 
L 1250 -600 
Q 1275 -300 1275 550 
Q 1275 1425 1250 1800 
L 5050 1800 
z
M 3375 4800 
Q 4100 3925 4550 3600 
Q 5000 3275 5375 3100 
Q 5750 2925 6100 2825 
Q 5850 2550 5775 2300 
Q 5275 2525 4875 2775 
Q 4475 3025 4062 3412 
Q 3650 3800 3125 4475 
Q 2650 3800 2187 3362 
Q 1725 2925 1400 2675 
Q 1075 2425 675 2175 
Q 625 2275 275 2575 
Q 800 2825 1275 3175 
Q 1750 3525 2225 4062 
Q 2700 4600 3000 5225 
Q 3275 5050 3500 4950 
L 3375 4800 
z
M 4525 350 
L 4525 1400 
L 1750 1400 
L 1750 350 
L 4525 350 
z
M 3925 2825 
Q 4325 2825 4625 2850 
L 4625 2375 
Q 4300 2400 3950 2400 
L 2550 2400 
Q 2025 2400 1700 2375 
L 1700 2850 
Q 2175 2825 2550 2825 
L 3925 2825 
z
" transform="scale(0.015625)"/>
       <path id="SimHei-4ef7" d="M 2200 4975 
Q 2050 4725 1650 3775 
L 1650 450 
Q 1650 -225 1675 -650 
L 1175 -650 
Q 1175 -225 1200 450 
L 1200 2975 
Q 900 2425 650 2100 
Q 525 2275 225 2450 
Q 750 3025 1125 3800 
Q 1500 4575 1625 5175 
Q 1950 5025 2200 4975 
z
M 4175 4700 
Q 4850 3525 6150 2950 
Q 5925 2750 5775 2500 
Q 4725 3100 3950 4300 
Q 3300 3125 2250 2350 
Q 2125 2525 1900 2725 
Q 2825 3325 3250 4050 
Q 3675 4775 3750 5150 
Q 4150 4950 4325 4900 
L 4175 4700 
z
M 3475 2650 
Q 3400 2075 3325 1087 
Q 3250 100 2325 -675 
Q 2175 -450 1925 -300 
Q 2850 350 2912 1262 
Q 2975 2175 2950 2700 
Q 3275 2650 3475 2650 
z
M 5075 2700 
Q 5050 2150 5050 1725 
L 5050 150 
Q 5050 -225 5075 -650 
L 4550 -650 
Q 4575 -225 4575 175 
L 4575 1875 
Q 4575 2150 4550 2700 
L 5075 2700 
z
" transform="scale(0.015625)"/>
       <path id="SimHei-503c" d="M 3675 4450 
L 3675 5100 
Q 3975 5075 4350 5050 
Q 4225 4875 4200 4450 
L 5125 4450 
Q 5550 4450 5875 4475 
L 5875 4025 
Q 5525 4050 5125 4050 
L 4175 4050 
L 4125 3500 
L 5400 3500 
Q 5375 3200 5375 2700 
L 5375 150 
Q 5875 150 6100 175 
L 6100 -275 
Q 5775 -250 5200 -250 
L 2850 -250 
Q 2275 -250 1900 -275 
L 1900 175 
Q 2125 150 2600 150 
L 2600 2700 
Q 2600 3175 2575 3500 
L 3600 3500 
L 3650 4050 
L 3200 4050 
Q 2575 4050 2225 4025 
L 2225 4475 
Q 2550 4450 3200 4450 
L 3675 4450 
z
M 2225 4900 
Q 2025 4675 1650 3750 
L 1650 450 
Q 1650 -75 1675 -550 
L 1150 -550 
Q 1175 -125 1175 375 
L 1175 2950 
Q 875 2450 625 2150 
Q 425 2425 250 2575 
Q 500 2825 937 3537 
Q 1375 4250 1625 5150 
Q 1975 4975 2225 4900 
z
M 4925 2650 
L 4925 3150 
L 3075 3150 
L 3075 2650 
L 4925 2650 
z
M 4925 150 
L 4925 625 
L 3075 625 
L 3075 150 
L 4925 150 
z
M 4925 1000 
L 4925 1450 
L 3075 1450 
L 3075 1000 
L 4925 1000 
z
M 4925 1825 
L 4925 2275 
L 3075 2275 
L 3075 1825 
L 4925 1825 
z
" transform="scale(0.015625)"/>
      </defs>
      <use xlink:href="#SimHei-7ec4"/>
      <use xlink:href="#SimHei-5408" x="100"/>
      <use xlink:href="#SimHei-4ef7" x="200"/>
      <use xlink:href="#SimHei-503c" x="300"/>
     </g>
    </g>
   </g>
   <g id="line2d_31">
    <path d="M 138.436364 364.176559 
L 143.551719 360.776934 
L 144.830558 361.260907 
L 146.109396 359.64816 
L 147.388235 359.962015 
L 151.224752 363.325616 
L 152.503591 356.765671 
L 153.782429 358.564837 
L 155.061268 357.908068 
L 156.340107 356.979007 
L 160.176623 352.836269 
L 161.455462 353.019816 
L 162.734301 358.782462 
L 164.01314 359.881003 
L 165.291979 356.415212 
L 169.128495 356.973058 
L 170.407334 357.402591 
L 171.686173 351.430346 
L 172.965011 346.122365 
L 174.24385 342.402362 
L 178.080367 340.470941 
L 179.359206 338.18666 
L 180.638044 343.919155 
L 181.916883 348.423196 
L 183.195722 342.36088 
L 187.032238 342.515623 
L 188.311077 338.956019 
L 189.589916 336.881137 
L 190.868755 331.993004 
L 204.935982 327.779384 
L 206.21482 326.452131 
L 207.493659 327.545123 
L 208.772498 320.57949 
L 210.051337 317.973355 
L 213.887853 326.023906 
L 215.166692 324.474739 
L 216.445531 325.920012 
L 217.72437 324.92074 
L 219.003209 321.221889 
L 222.839725 314.209058 
L 224.118564 310.989302 
L 225.397403 309.733736 
L 226.676241 306.897771 
L 227.95508 302.663956 
L 231.791597 306.735089 
L 233.070435 314.190471 
L 234.349274 313.864664 
L 235.628113 312.546383 
L 236.906952 312.870184 
L 240.743468 314.380373 
L 242.022307 316.145965 
L 243.301146 313.424092 
L 244.579985 304.692252 
L 245.858824 307.52752 
L 249.69534 307.20731 
L 250.974179 305.455148 
L 252.253018 306.111446 
L 253.531856 304.165034 
L 254.810695 296.590572 
L 258.647212 293.629679 
L 259.92605 292.187721 
L 261.204889 288.022495 
L 267.599083 282.262105 
L 268.877922 283.539207 
L 270.156761 282.282332 
L 271.4356 283.057651 
L 272.714439 274.202107 
L 276.550955 272.824285 
L 277.829794 278.290313 
L 279.108633 272.698651 
L 280.387471 273.934768 
L 281.66631 276.018504 
L 285.502827 287.066924 
L 286.781665 295.921024 
L 288.060504 289.097457 
L 289.339343 290.418826 
L 290.618182 289.361496 
L 294.454698 290.567944 
L 295.733537 289.57302 
L 303.40657 288.964699 
L 304.685409 286.569834 
L 305.964248 285.390163 
L 307.243086 284.052963 
L 308.521925 277.067099 
L 312.358442 275.512166 
L 313.63728 276.287182 
L 314.916119 273.630366 
L 316.194958 267.850506 
L 317.473797 266.507985 
L 321.310313 257.914165 
L 322.589152 258.760451 
L 323.867991 257.3811 
L 326.425668 269.086542 
L 330.262185 260.237573 
L 331.541024 261.000637 
L 332.819862 260.264263 
L 334.098701 267.298019 
L 335.37754 266.227033 
L 339.214057 270.961073 
L 340.492895 268.145696 
L 341.771734 271.701709 
L 343.050573 263.307352 
L 344.329412 260.13931 
L 349.444767 271.968597 
L 350.723606 265.306176 
L 352.002445 264.157602 
L 353.281283 263.521363 
L 357.1178 265.485023 
L 358.396639 260.362688 
L 359.675477 259.197587 
L 360.954316 255.22798 
L 362.233155 257.520536 
L 366.069672 265.002191 
L 367.34851 265.841701 
L 368.627349 261.359451 
L 369.906188 261.553701 
L 371.185027 252.403608 
L 376.300382 246.205269 
L 377.579221 243.821886 
L 378.85806 244.3907 
L 380.136898 242.837747 
L 383.973415 237.865336 
L 385.252254 231.259085 
L 386.531092 237.546494 
L 387.809931 236.347542 
L 389.08877 247.316153 
L 392.925286 235.099245 
L 394.204125 233.687796 
L 396.761803 238.70495 
L 398.040642 252.121317 
L 401.877158 257.979496 
L 403.155997 257.075264 
L 404.434836 259.499545 
L 405.713675 272.086288 
L 406.992513 271.616717 
L 410.82903 261.304622 
L 412.107869 266.439245 
L 413.386707 260.275426 
L 414.665546 256.093683 
L 415.944385 267.655877 
L 419.780901 293.021208 
L 421.05974 289.118474 
L 422.338579 288.014611 
L 423.617418 290.680675 
L 424.896257 282.838112 
L 428.732773 278.604909 
L 430.011612 273.801053 
L 431.290451 270.455986 
L 432.56929 264.24776 
L 433.848128 253.444558 
L 437.684645 251.451082 
L 438.963484 249.36236 
L 440.242322 251.837717 
L 441.521161 251.830919 
L 442.8 254.543819 
L 446.636516 254.63821 
L 447.915355 255.500484 
L 449.194194 257.45832 
L 450.473033 270.112819 
L 451.751872 270.016589 
L 455.588388 268.737204 
L 456.867227 271.277979 
L 458.146066 285.925273 
L 459.424905 284.827235 
L 460.703743 284.187043 
L 464.54026 290.149872 
L 465.819099 288.224216 
L 467.097937 291.277083 
L 468.376776 282.974646 
L 469.655615 277.472951 
L 476.049809 276.923802 
L 477.328648 273.031122 
L 478.607487 271.328857 
L 482.444003 265.050334 
L 483.722842 255.563087 
L 485.001681 252.030282 
L 486.280519 240.780456 
L 487.559358 248.538849 
L 491.395875 233.787922 
L 501.626585 231.452759 
L 502.905424 250.799874 
L 504.184263 234.395918 
L 505.463102 236.160342 
L 509.299618 225.530898 
L 510.578457 227.32199 
L 511.857296 222.064686 
L 513.136134 222.619433 
L 514.414973 221.508074 
L 518.25149 221.58901 
L 519.530328 220.722052 
L 520.809167 219.372539 
L 522.088006 225.678114 
L 523.366845 226.09358 
L 527.203361 221.779247 
L 528.4822 224.890145 
L 529.761039 216.523404 
L 531.039878 222.419278 
L 532.318717 224.030684 
L 536.155233 224.492315 
L 537.434072 222.602013 
L 539.991749 209.032173 
L 541.270588 211.902406 
L 545.107105 214.173123 
L 546.385943 220.817215 
L 547.664782 220.960114 
L 548.943621 227.172163 
L 550.22246 230.985021 
L 554.058976 223.087732 
L 555.337815 218.158972 
L 556.616654 214.146098 
L 557.895493 212.393681 
L 559.174332 215.401357 
L 563.010848 216.600395 
L 564.289687 219.142062 
L 565.568526 213.413434 
L 566.847364 216.825818 
L 568.126203 213.682628 
L 571.96272 215.179555 
L 573.241558 205.993438 
L 574.520397 203.839936 
L 577.078075 200.643029 
L 580.914591 195.244449 
L 582.19343 195.352967 
L 583.472269 192.949742 
L 584.751108 187.065987 
L 586.029947 192.441755 
L 589.866463 187.095359 
L 591.145302 183.680584 
L 592.424141 177.978624 
L 593.702979 191.32748 
L 594.981818 198.258062 
L 598.818335 184.411106 
L 600.097173 185.617327 
L 601.376012 180.733315 
L 602.654851 180.890843 
L 603.93369 181.932543 
L 607.770206 184.789482 
L 609.049045 186.58132 
L 611.606723 189.454064 
L 612.885561 192.74422 
L 616.722078 187.095619 
L 618.000917 188.789967 
L 619.279756 188.241489 
L 621.837433 193.172921 
L 625.67395 202.457189 
L 626.952788 196.837587 
L 628.231627 196.374419 
L 629.510466 187.969505 
L 630.789305 188.22229 
L 634.625821 185.394241 
L 637.183499 188.579698 
L 639.741176 184.070553 
L 643.577693 188.100306 
L 655.087242 184.839594 
L 656.366081 184.936414 
L 661.481436 182.896941 
L 662.760275 176.541047 
L 664.039114 177.210525 
L 665.317953 174.059395 
L 666.596791 171.347803 
L 670.433308 175.981291 
L 671.712147 170.98536 
L 672.990985 171.380513 
L 674.269824 173.684048 
L 675.548663 179.280361 
L 679.38518 184.301252 
L 680.664018 189.914586 
L 681.942857 189.773721 
L 683.221696 187.561792 
L 684.500535 199.883988 
L 688.337051 195.507275 
L 689.61589 197.35628 
L 690.894729 191.052711 
L 692.173568 192.834435 
L 693.452406 198.211393 
L 697.288923 200.195751 
L 698.567762 210.345802 
L 699.8466 208.986175 
L 701.125439 206.816816 
L 702.404278 198.983442 
L 706.240794 197.152431 
L 707.519633 193.413542 
L 708.798472 191.003962 
L 710.077311 187.039401 
L 711.35615 190.327134 
L 715.192666 183.782624 
L 716.471505 179.239411 
L 717.750344 179.577506 
L 719.029183 182.355236 
L 720.308021 180.018653 
L 724.144538 186.692989 
L 725.423377 180.764405 
L 726.702215 179.740785 
L 727.981054 180.848792 
L 733.096409 227.011956 
L 734.375248 211.563005 
L 735.654087 211.003354 
L 736.932926 183.912275 
L 738.211765 182.244472 
L 742.048281 175.316784 
L 743.32712 175.373339 
L 744.605959 170.920803 
L 745.884798 167.729636 
L 747.163636 167.313304 
L 747.163636 167.313304 
" clip-path="url(#p4fd9c92f23)" style="fill: none; stroke: #1f77b4; stroke-width: 1.5; stroke-linecap: square"/>
   </g>
   <g id="line2d_32">
    <path d="M 138.436364 364.176559 
L 143.551719 360.407617 
L 144.830558 359.290603 
L 146.109396 357.927949 
L 147.388235 357.079764 
L 151.224752 360.591024 
L 152.503591 357.58685 
L 153.782429 359.984172 
L 155.061268 360.941449 
L 156.340107 359.145986 
L 160.176623 355.17169 
L 161.455462 354.110789 
L 162.734301 360.633331 
L 164.01314 362.772321 
L 165.291979 360.898317 
L 169.128495 365.668643 
L 170.407334 364.49974 
L 174.24385 350.801973 
L 179.359206 349.147109 
L 180.638044 351.439529 
L 181.916883 353.37502 
L 183.195722 350.513454 
L 187.032238 352.489072 
L 188.311077 350.104596 
L 190.868755 344.690406 
L 204.935982 341.141558 
L 206.21482 339.68788 
L 207.493659 339.302733 
L 208.772498 335.568585 
L 210.051337 335.018556 
L 213.887853 340.016762 
L 215.166692 338.823902 
L 216.445531 340.499262 
L 217.72437 338.901582 
L 219.003209 336.514258 
L 222.839725 330.024371 
L 224.118564 323.768231 
L 225.397403 321.219833 
L 226.676241 316.140166 
L 227.95508 314.192573 
L 231.791597 315.372147 
L 233.070435 322.56511 
L 234.349274 323.308428 
L 236.906952 320.630022 
L 240.743468 323.359074 
L 242.022307 323.875587 
L 243.301146 321.537666 
L 244.579985 311.901307 
L 245.858824 315.48472 
L 249.69534 314.47804 
L 250.974179 313.169455 
L 252.253018 312.767618 
L 253.531856 309.466437 
L 254.810695 298.945453 
L 258.647212 296.234124 
L 259.92605 294.374975 
L 261.204889 287.185399 
L 267.599083 277.372729 
L 268.877922 277.864541 
L 270.156761 276.156164 
L 271.4356 276.973739 
L 272.714439 265.033168 
L 276.550955 266.620902 
L 277.829794 266.462277 
L 279.108633 261.110242 
L 280.387471 262.482013 
L 281.66631 261.240365 
L 285.502827 274.479448 
L 286.781665 287.701647 
L 288.060504 282.618079 
L 290.618182 280.694197 
L 294.454698 283.663151 
L 295.733537 283.264103 
L 303.40657 284.028489 
L 304.685409 282.272754 
L 305.964248 281.609103 
L 307.243086 280.706791 
L 308.521925 270.467236 
L 312.358442 271.081291 
L 313.63728 272.397389 
L 314.916119 269.332325 
L 316.194958 264.341082 
L 317.473797 262.966327 
L 321.310313 250.283392 
L 322.589152 254.508047 
L 323.867991 253.544881 
L 325.14683 264.803007 
L 326.425668 269.602298 
L 330.262185 262.907512 
L 331.541024 264.118744 
L 332.819862 261.380287 
L 334.098701 268.149863 
L 335.37754 265.922985 
L 339.214057 272.331197 
L 340.492895 267.645052 
L 341.771734 272.435759 
L 343.050573 264.38339 
L 344.329412 262.024705 
L 349.444767 278.6055 
L 350.723606 273.07828 
L 352.002445 274.194644 
L 353.281283 273.436833 
L 357.1178 275.591405 
L 359.675477 271.00892 
L 360.954316 267.080528 
L 362.233155 266.256301 
L 366.069672 275.925315 
L 367.34851 274.576409 
L 368.627349 274.359944 
L 369.906188 276.35254 
L 371.185027 268.217615 
L 375.021543 263.915831 
L 377.579221 261.580683 
L 378.85806 260.799319 
L 380.136898 260.345688 
L 383.973415 259.334456 
L 385.252254 256.737799 
L 386.531092 259.596365 
L 387.809931 257.699171 
L 389.08877 259.192773 
L 392.925286 254.17084 
L 394.204125 250.429928 
L 395.482964 247.691874 
L 396.761803 248.098054 
L 398.040642 262.568404 
L 401.877158 266.097349 
L 403.155997 268.059565 
L 404.434836 264.442506 
L 405.713675 277.601787 
L 406.992513 277.200542 
L 410.82903 270.974051 
L 412.107869 273.308743 
L 413.386707 267.197942 
L 414.665546 263.035918 
L 415.944385 265.397226 
L 419.780901 283.335401 
L 421.05974 285.391068 
L 422.338579 282.779635 
L 423.617418 283.79708 
L 424.896257 278.161648 
L 428.732773 273.87778 
L 430.011612 269.662128 
L 431.290451 270.162293 
L 432.56929 267.280766 
L 433.848128 262.709616 
L 437.684645 256.211089 
L 438.963484 256.866461 
L 440.242322 257.759214 
L 441.521161 258.183707 
L 442.8 260.346806 
L 446.636516 258.136313 
L 447.915355 257.780245 
L 449.194194 259.633123 
L 450.473033 266.495774 
L 451.751872 267.993117 
L 455.588388 269.067514 
L 456.867227 270.84321 
L 458.146066 278.04931 
L 459.424905 275.739571 
L 460.703743 275.777905 
L 464.54026 282.429213 
L 465.819099 279.464637 
L 467.097937 281.97329 
L 468.376776 279.331608 
L 469.655615 273.120664 
L 476.049809 270.747603 
L 477.328648 270.086379 
L 478.607487 265.964048 
L 482.444003 259.447776 
L 483.722842 250.954256 
L 485.001681 244.877029 
L 486.280519 236.18173 
L 487.559358 241.253846 
L 491.395875 227.264289 
L 501.626585 223.924276 
L 502.905424 247.311705 
L 504.184263 232.996479 
L 505.463102 232.572179 
L 509.299618 221.051834 
L 510.578457 225.098362 
L 511.857296 215.459136 
L 513.136134 216.082199 
L 514.414973 212.399006 
L 518.25149 209.256666 
L 519.530328 208.527934 
L 520.809167 205.910671 
L 522.088006 212.509802 
L 523.366845 212.745327 
L 527.203361 209.936797 
L 528.4822 210.091108 
L 529.761039 204.059459 
L 531.039878 208.616152 
L 532.318717 210.434136 
L 536.155233 212.042979 
L 537.434072 209.563751 
L 538.712911 208.559535 
L 539.991749 211.995841 
L 541.270588 212.730597 
L 545.107105 214.461478 
L 546.385943 224.027021 
L 547.664782 223.732247 
L 548.943621 233.981209 
L 550.22246 235.27775 
L 554.058976 225.430127 
L 555.337815 217.584759 
L 556.616654 216.102536 
L 557.895493 211.01834 
L 559.174332 211.427486 
L 563.010848 217.157208 
L 564.289687 222.096159 
L 565.568526 215.175067 
L 566.847364 218.379603 
L 568.126203 213.780544 
L 571.96272 217.24475 
L 573.241558 208.852142 
L 574.520397 208.012216 
L 575.799236 207.629495 
L 577.078075 206.581441 
L 582.19343 200.774878 
L 584.751108 191.999303 
L 586.029947 199.580854 
L 589.866463 198.622617 
L 591.145302 199.149816 
L 592.424141 196.699551 
L 593.702979 205.798198 
L 594.981818 208.548475 
L 598.818335 199.86266 
L 600.097173 200.779921 
L 601.376012 197.313418 
L 602.654851 197.552078 
L 603.93369 196.98817 
L 607.770206 198.07339 
L 609.049045 199.342036 
L 611.606723 200.562276 
L 612.885561 200.565663 
L 616.722078 201.059001 
L 618.000917 200.390877 
L 619.279756 197.790151 
L 620.558594 197.98375 
L 621.837433 198.342114 
L 625.67395 202.061083 
L 626.952788 201.184904 
L 628.231627 198.364389 
L 629.510466 193.19966 
L 630.789305 192.667164 
L 634.625821 192.377953 
L 635.90466 194.208022 
L 637.183499 193.533113 
L 638.462338 189.999255 
L 639.741176 186.794127 
L 643.577693 186.858882 
L 655.087242 174.145421 
L 656.366081 176.309856 
L 657.64492 174.902734 
L 661.481436 168.381093 
L 662.760275 160.877012 
L 664.039114 163.629464 
L 665.317953 160.238004 
L 666.596791 157.234885 
L 670.433308 165.665727 
L 671.712147 160.056795 
L 672.990985 157.676356 
L 674.269824 157.683183 
L 675.548663 163.735327 
L 679.38518 164.938359 
L 681.942857 170.467126 
L 683.221696 169.986765 
L 684.500535 177.518704 
L 688.337051 175.865885 
L 689.61589 173.340852 
L 690.894729 167.397952 
L 692.173568 169.274881 
L 693.452406 171.799191 
L 697.288923 172.181759 
L 698.567762 177.027874 
L 699.8466 175.018892 
L 701.125439 170.596109 
L 702.404278 160.804448 
L 706.240794 159.404991 
L 707.519633 155.44752 
L 708.798472 149.325824 
L 710.077311 148.092318 
L 711.35615 151.442749 
L 715.192666 148.302737 
L 716.471505 146.236435 
L 717.750344 145.484151 
L 719.029183 144.868413 
L 720.308021 136.811975 
L 724.144538 134.337399 
L 725.423377 129.339234 
L 726.702215 129.81118 
L 727.981054 125.571499 
L 733.096409 162.220555 
L 734.375248 150.951448 
L 735.654087 145.852665 
L 736.932926 127.301121 
L 738.211765 120.500882 
L 742.048281 113.848121 
L 743.32712 112.390716 
L 744.605959 98.580962 
L 745.884798 93.619354 
L 747.163636 91.944492 
L 747.163636 91.944492 
" clip-path="url(#p4fd9c92f23)" style="fill: none; stroke-dasharray: 5.55,2.4; stroke-dashoffset: 0; stroke: #ff7f0e; stroke-width: 1.5"/>
   </g>
   <g id="line2d_33">
    <path d="M 143.551719 364.176559 
L 144.830558 363.087134 
L 146.109396 361.780614 
L 147.388235 360.945384 
L 151.224752 364.382479 
L 152.503591 361.374534 
L 153.782429 363.747125 
L 155.061268 364.657671 
L 156.340107 362.87201 
L 160.176623 358.926675 
L 161.455462 357.887555 
L 162.734301 364.350467 
L 164.01314 366.464903 
L 165.291979 364.575819 
L 169.128495 369.36 
L 170.407334 368.129003 
L 174.24385 354.553454 
L 178.080367 353.395151 
L 179.359206 352.851392 
L 180.638044 354.365961 
L 181.916883 354.486196 
L 183.195722 351.144928 
L 187.032238 354.405592 
L 188.311077 354.351259 
L 189.589916 353.161329 
L 190.868755 349.429091 
L 206.21482 350.1801 
L 207.493659 350.813387 
L 208.772498 348.793573 
L 210.051337 348.644625 
L 215.166692 348.987275 
L 216.445531 349.327653 
L 217.72437 349.068316 
L 219.003209 345.852293 
L 222.839725 338.190417 
L 224.118564 331.623917 
L 225.397403 328.057409 
L 226.676241 323.590408 
L 227.95508 320.959808 
L 231.791597 322.888876 
L 233.070435 328.98751 
L 234.349274 329.215432 
L 235.628113 328.015667 
L 236.906952 327.256321 
L 242.022307 330.600246 
L 243.301146 328.317697 
L 244.579985 318.551665 
L 245.858824 321.803917 
L 249.69534 321.128785 
L 250.974179 319.583299 
L 252.253018 319.150493 
L 253.531856 316.2492 
L 254.810695 307.051091 
L 258.647212 303.980803 
L 259.92605 302.685121 
L 261.204889 296.850063 
L 267.599083 289.146202 
L 268.877922 289.747064 
L 270.156761 288.274632 
L 271.4356 290.033415 
L 272.714439 278.926022 
L 276.550955 280.077369 
L 277.829794 283.846198 
L 279.108633 279.401086 
L 281.66631 282.157381 
L 285.502827 293.341153 
L 286.781665 303.359723 
L 288.060504 296.145945 
L 289.339343 297.460402 
L 290.618182 295.24842 
L 294.454698 296.987719 
L 295.733537 296.415861 
L 303.40657 296.794326 
L 304.685409 294.464204 
L 305.964248 293.747137 
L 307.243086 292.58375 
L 308.521925 284.09813 
L 312.358442 283.602069 
L 313.63728 284.665781 
L 314.916119 281.906857 
L 316.194958 276.699986 
L 317.473797 275.283714 
L 321.310313 264.759429 
L 322.589152 267.211113 
L 323.867991 266.102491 
L 325.14683 274.536888 
L 326.425668 279.722504 
L 330.262185 272.064893 
L 331.541024 273.090001 
L 332.819862 271.291251 
L 334.098701 278.064919 
L 335.37754 276.40083 
L 339.214057 282.00188 
L 340.492895 278.237188 
L 341.771734 282.509679 
L 343.050573 274.247339 
L 344.329412 271.250048 
L 349.444767 283.536199 
L 350.723606 277.153284 
L 352.002445 276.336331 
L 353.281283 275.685099 
L 357.1178 277.662995 
L 358.396639 273.11575 
L 359.675477 271.75553 
L 360.954316 267.897004 
L 362.233155 269.571182 
L 366.069672 277.328208 
L 367.34851 277.706441 
L 368.627349 274.006562 
L 369.906188 274.52952 
L 371.185027 265.704822 
L 376.300382 259.624934 
L 377.579221 257.571296 
L 378.85806 257.894528 
L 380.136898 256.495576 
L 383.973415 253.787436 
L 385.252254 250.70658 
L 386.531092 253.259527 
L 387.809931 251.506157 
L 389.08877 255.939418 
L 392.925286 248.807185 
L 394.204125 245.06634 
L 395.482964 243.189271 
L 396.761803 244.599779 
L 398.040642 259.656206 
L 401.877158 263.581774 
L 403.155997 264.502866 
L 404.434836 262.448971 
L 405.713675 276.447913 
L 406.992513 275.356609 
L 410.82903 267.424677 
L 412.107869 270.341471 
L 413.386707 264.361498 
L 414.665546 259.826753 
L 415.944385 263.00164 
L 419.780901 278.062573 
L 421.05974 279.869335 
L 422.338579 277.17295 
L 423.617418 278.090067 
L 424.896257 273.584766 
L 428.732773 270.084355 
L 430.011612 266.534 
L 431.290451 267.028922 
L 432.56929 261.675102 
L 433.848128 256.885395 
L 437.684645 249.491542 
L 438.963484 251.80032 
L 440.242322 255.367387 
L 441.521161 254.80751 
L 442.8 256.505837 
L 446.636516 255.143809 
L 447.915355 253.54548 
L 449.194194 256.263322 
L 450.473033 267.281221 
L 451.751872 269.447583 
L 455.588388 270.372661 
L 456.867227 273.091024 
L 458.146066 277.766918 
L 459.424905 276.05555 
L 460.703743 277.266501 
L 464.54026 284.911103 
L 465.819099 282.206067 
L 467.097937 287.307694 
L 468.376776 285.503622 
L 469.655615 280.893919 
L 476.049809 276.295274 
L 477.328648 276.362912 
L 478.607487 272.93955 
L 482.444003 266.13233 
L 483.722842 253.123206 
L 485.001681 245.585189 
L 486.280519 234.896586 
L 487.559358 238.544084 
L 491.395875 219.128474 
L 501.626585 217.822223 
L 502.905424 230.065757 
L 504.184263 222.254983 
L 505.463102 216.406441 
L 509.299618 207.65799 
L 510.578457 208.226641 
L 511.857296 198.268298 
L 513.136134 196.370115 
L 514.414973 192.038246 
L 518.25149 184.608903 
L 519.530328 184.569754 
L 520.809167 180.459682 
L 522.088006 188.100226 
L 523.366845 187.915604 
L 527.203361 184.972118 
L 528.4822 180.750627 
L 529.761039 171.652671 
L 532.318717 182.166088 
L 536.155233 186.675289 
L 537.434072 184.650713 
L 538.712911 182.302734 
L 539.991749 185.359101 
L 541.270588 185.688034 
L 545.107105 187.195729 
L 546.385943 196.866344 
L 547.664782 196.922936 
L 548.943621 207.321854 
L 550.22246 208.969555 
L 554.058976 199.268472 
L 555.337815 191.008347 
L 556.616654 189.099748 
L 557.895493 183.883597 
L 559.174332 183.347732 
L 563.010848 189.05332 
L 564.289687 194.219381 
L 565.568526 187.293159 
L 566.847364 190.757337 
L 568.126203 185.980913 
L 571.96272 189.560703 
L 573.241558 180.035323 
L 574.520397 177.788301 
L 575.799236 176.140915 
L 577.078075 174.113287 
L 580.914591 168.599231 
L 582.19343 168.752428 
L 583.472269 166.343566 
L 584.751108 160.419663 
L 586.029947 166.265933 
L 589.866463 160.245227 
L 591.145302 157.103817 
L 592.424141 151.221538 
L 593.702979 164.7718 
L 594.981818 171.833145 
L 598.818335 157.96775 
L 600.097173 158.754871 
L 601.376012 153.703099 
L 602.654851 153.973516 
L 607.770206 157.328751 
L 609.049045 158.620715 
L 611.606723 159.846587 
L 612.885561 159.507902 
L 616.722078 161.127783 
L 618.000917 159.893684 
L 619.279756 156.750337 
L 620.558594 156.775984 
L 621.837433 157.100054 
L 625.67395 160.217254 
L 626.952788 159.63741 
L 628.231627 156.234302 
L 629.510466 151.311004 
L 630.789305 150.707112 
L 634.625821 150.844033 
L 635.90466 152.983652 
L 637.183499 152.347174 
L 638.462338 147.953506 
L 639.741176 144.421627 
L 643.577693 143.308159 
L 655.087242 129.263059 
L 656.366081 132.373244 
L 657.64492 130.626022 
L 661.481436 121.824569 
L 662.760275 113.725967 
L 664.039114 117.664187 
L 666.596791 110.124254 
L 670.433308 120.906142 
L 671.712147 114.179964 
L 672.990985 110.693244 
L 674.269824 109.840804 
L 675.548663 116.308862 
L 679.38518 116.829512 
L 680.664018 118.920564 
L 681.942857 123.584025 
L 683.221696 124.519822 
L 684.500535 132.438255 
L 688.337051 130.633541 
L 689.61589 127.045552 
L 690.894729 120.692407 
L 693.452406 125.535392 
L 697.288923 127.432696 
L 698.567762 129.993888 
L 699.8466 128.0952 
L 701.125439 123.836378 
L 702.404278 114.677972 
L 706.240794 112.627299 
L 707.519633 110.284813 
L 708.798472 104.690978 
L 710.077311 104.305991 
L 711.35615 107.208692 
L 715.192666 103.38774 
L 716.471505 99.925847 
L 717.750344 100.229816 
L 719.029183 99.28967 
L 720.308021 94.749837 
L 724.144538 93.835043 
L 725.423377 89.387648 
L 726.702215 88.012758 
L 727.981054 84.147 
L 733.096409 127.124449 
L 734.375248 111.898225 
L 735.654087 110.142574 
L 736.932926 97.621377 
L 738.211765 94.981434 
L 742.048281 88.301825 
L 743.32712 83.370656 
L 744.605959 72.071718 
L 745.884798 68.985411 
L 747.163636 66.96 
L 747.163636 66.96 
" clip-path="url(#p4fd9c92f23)" style="fill: none; stroke-dasharray: 5.55,2.4; stroke-dashoffset: 0; stroke: #2ca02c; stroke-width: 1.5"/>
   </g>
   <g id="patch_3">
    <path d="M 108 384.48 
L 108 51.84 
" style="fill: none; stroke: #000000; stroke-width: 0.8; stroke-linejoin: miter; stroke-linecap: square"/>
   </g>
   <g id="patch_4">
    <path d="M 777.6 384.48 
L 777.6 51.84 
" style="fill: none; stroke: #000000; stroke-width: 0.8; stroke-linejoin: miter; stroke-linecap: square"/>
   </g>
   <g id="patch_5">
    <path d="M 108 384.48 
L 777.6 384.48 
" style="fill: none; stroke: #000000; stroke-width: 0.8; stroke-linejoin: miter; stroke-linecap: square"/>
   </g>
   <g id="patch_6">
    <path d="M 108 51.84 
L 777.6 51.84 
" style="fill: none; stroke: #000000; stroke-width: 0.8; stroke-linejoin: miter; stroke-linecap: square"/>
   </g>
   <g id="text_17">
    <!-- 广义ARCH(DCC)协方差组合市值对比 -->
    <g transform="translate(349.8 45.84) scale(0.12 -0.12)">
     <defs>
      <path id="SimHei-5e7f" d="M 6000 3650 
Q 5500 3675 5075 3675 
L 1500 3675 
Q 1550 2025 1487 1375 
Q 1425 725 1250 275 
Q 1075 -175 775 -625 
Q 550 -425 225 -275 
Q 525 50 750 550 
Q 975 1050 1000 2012 
Q 1025 2975 950 4125 
L 5025 4125 
Q 5500 4125 6000 4150 
L 6000 3650 
z
M 3275 4150 
Q 3125 4700 2875 5075 
Q 3100 5150 3350 5300 
Q 3575 4925 3825 4400 
Q 3625 4350 3275 4150 
z
" transform="scale(0.015625)"/>
      <path id="SimHei-4e49" d="M 3550 1175 
Q 4450 375 6025 -25 
Q 5775 -300 5675 -625 
Q 4275 -175 3125 800 
Q 2250 0 675 -625 
Q 525 -325 350 -100 
Q 1750 250 2775 1150 
Q 1875 2175 1150 4350 
Q 1325 4350 1625 4550 
Q 2275 2500 3175 1550 
Q 4100 2625 4675 4675 
Q 5050 4500 5250 4450 
Q 5075 4025 4637 2987 
Q 4200 1950 3550 1175 
z
M 2975 5175 
Q 3425 4350 3675 3650 
Q 3375 3550 3175 3450 
Q 2925 4175 2525 4950 
Q 2750 5025 2975 5175 
z
" transform="scale(0.015625)"/>
      <path id="SimHei-41" d="M 3075 125 
L 2475 125 
L 2125 1450 
L 1025 1450 
L 675 125 
L 75 125 
L 1325 4450 
L 1825 4450 
L 3075 125 
z
M 2000 1925 
L 1600 3450 
L 1550 3450 
L 1150 1925 
L 2000 1925 
z
" transform="scale(0.015625)"/>
      <path id="SimHei-52" d="M 3000 125 
L 2400 125 
L 1500 1975 
L 850 1975 
L 850 125 
L 275 125 
L 275 4400 
L 1525 4400 
Q 2125 4400 2500 4112 
Q 2875 3825 2875 3175 
Q 2875 2675 2625 2400 
Q 2375 2125 2050 2050 
L 3000 125 
z
M 2300 3175 
Q 2300 3525 2087 3725 
Q 1875 3925 1400 3925 
L 850 3925 
L 850 2450 
L 1550 2450 
Q 1850 2450 2075 2612 
Q 2300 2775 2300 3175 
z
" transform="scale(0.015625)"/>
      <path id="SimHei-43" d="M 2975 1825 
Q 2950 875 2575 475 
Q 2200 75 1675 75 
Q 1075 75 650 562 
Q 225 1050 225 2125 
Q 225 3300 637 3875 
Q 1050 4450 1700 4450 
Q 2250 4450 2612 4037 
Q 2975 3625 2950 2875 
L 2400 2875 
Q 2400 3425 2225 3700 
Q 2050 3975 1700 3975 
Q 1300 3975 1062 3562 
Q 825 3150 825 2175 
Q 825 1275 1062 912 
Q 1300 550 1675 550 
Q 1950 550 2175 812 
Q 2400 1075 2400 1825 
L 2975 1825 
z
" transform="scale(0.015625)"/>
      <path id="SimHei-48" d="M 2850 125 
L 2275 125 
L 2275 2125 
L 850 2125 
L 850 125 
L 275 125 
L 275 4400 
L 850 4400 
L 850 2600 
L 2275 2600 
L 2275 4400 
L 2850 4400 
L 2850 125 
z
" transform="scale(0.015625)"/>
      <path id="SimHei-28" d="M 2975 -200 
L 2700 -475 
Q 2075 125 1762 775 
Q 1450 1425 1450 2250 
Q 1450 3075 1762 3725 
Q 2075 4375 2700 5000 
L 2975 4725 
Q 2400 4175 2112 3587 
Q 1825 3000 1825 2250 
Q 1825 1500 2112 912 
Q 2400 325 2975 -200 
z
" transform="scale(0.015625)"/>
      <path id="SimHei-44" d="M 2925 2250 
Q 2925 1100 2437 612 
Q 1950 125 1125 125 
L 275 125 
L 275 4400 
L 1125 4400 
Q 2050 4400 2487 3900 
Q 2925 3400 2925 2250 
z
M 2325 2250 
Q 2325 3175 2025 3550 
Q 1725 3925 1125 3925 
L 850 3925 
L 850 600 
L 1125 600 
Q 1725 600 2025 962 
Q 2325 1325 2325 2250 
z
" transform="scale(0.015625)"/>
      <path id="SimHei-29" d="M 1675 2250 
Q 1675 1425 1362 775 
Q 1050 125 425 -475 
L 150 -200 
Q 725 325 1012 912 
Q 1300 1500 1300 2250 
Q 1300 3000 1012 3587 
Q 725 4175 150 4725 
L 425 5000 
Q 1050 4375 1362 3725 
Q 1675 3075 1675 2250 
z
" transform="scale(0.015625)"/>
      <path id="SimHei-534f" d="M 3475 3825 
Q 3475 4625 3450 5150 
Q 3725 5075 4050 5050 
Q 3950 4650 3975 3825 
L 5325 3825 
Q 5275 3600 5225 3075 
L 5050 300 
Q 5000 -100 4750 -187 
Q 4500 -275 4050 -375 
Q 3950 -50 3825 175 
Q 4350 200 4462 225 
Q 4575 250 4600 575 
L 4775 3425 
L 3950 3425 
Q 3925 2300 3600 1300 
Q 3275 300 2475 -500 
Q 2325 -300 1875 -150 
Q 2450 150 2925 1075 
Q 3400 2000 3450 3425 
Q 2975 3425 2500 3400 
L 2500 3850 
Q 2975 3825 3475 3825 
z
M 1025 3475 
Q 1025 4675 1000 5075 
L 1550 5075 
Q 1525 4675 1525 3475 
Q 2000 3475 2325 3500 
L 2325 3050 
Q 2000 3075 1525 3075 
L 1525 325 
Q 1525 -25 1550 -575 
L 1000 -575 
Q 1025 -25 1025 325 
L 1025 3075 
Q 525 3075 225 3050 
L 225 3500 
Q 525 3475 1025 3475 
z
M 2975 2500 
Q 2825 2300 2500 1225 
Q 2250 1325 2025 1350 
Q 2375 2275 2425 2625 
Q 2625 2550 2975 2500 
z
M 5725 2675 
Q 6100 1875 6200 1500 
Q 5925 1450 5725 1325 
Q 5575 1850 5300 2475 
Q 5525 2550 5725 2675 
z
" transform="scale(0.015625)"/>
      <path id="SimHei-65b9" d="M 425 3975 
Q 825 3950 1300 3950 
L 5025 3950 
Q 5625 3950 6000 3975 
L 6000 3475 
Q 5675 3500 5100 3500 
L 2525 3500 
Q 2525 3225 2500 2500 
L 5300 2500 
Q 5250 2175 5200 1550 
L 5050 175 
Q 5000 -275 4625 -412 
Q 4250 -550 3525 -625 
Q 3500 -300 3325 -50 
Q 3900 -75 4200 0 
Q 4500 75 4575 425 
L 4725 2050 
L 2475 2050 
Q 2375 1350 2162 875 
Q 1950 400 1575 0 
Q 1200 -400 825 -700 
Q 725 -550 375 -350 
Q 700 -175 1062 200 
Q 1425 575 1662 1050 
Q 1900 1525 1962 2100 
Q 2025 2675 2025 3500 
L 1325 3500 
Q 775 3500 425 3475 
L 425 3975 
z
M 3075 4075 
Q 2850 4575 2575 5000 
Q 2800 5125 3025 5275 
Q 3300 4850 3575 4350 
Q 3325 4250 3075 4075 
z
" transform="scale(0.015625)"/>
      <path id="SimHei-5dee" d="M 4725 4975 
Q 4500 4725 4250 4275 
L 4850 4275 
Q 5450 4275 5825 4300 
L 5825 3850 
Q 5425 3875 4850 3875 
L 3275 3875 
Q 3225 3600 3150 3275 
L 4525 3275 
Q 5075 3275 5525 3300 
L 5525 2850 
Q 5075 2875 4500 2875 
L 3050 2875 
Q 2975 2650 2850 2325 
L 5125 2325 
Q 5675 2325 6025 2350 
L 6025 1900 
Q 5700 1925 5150 1925 
L 2650 1925 
Q 2425 1550 2250 1300 
Q 2650 1275 3100 1275 
L 4525 1275 
Q 4975 1275 5350 1300 
L 5350 850 
Q 4975 875 4575 875 
L 3925 875 
L 3925 -50 
L 5000 -50 
Q 5200 -50 5900 -25 
L 5900 -500 
Q 5275 -475 5025 -475 
L 2100 -475 
Q 1700 -475 1400 -500 
L 1400 -25 
Q 1775 -50 2125 -50 
L 3425 -50 
L 3425 875 
L 3100 875 
Q 2625 875 2175 850 
L 2175 1200 
Q 1925 875 1487 475 
Q 1050 75 625 -250 
Q 425 -25 200 150 
Q 750 475 1262 925 
Q 1775 1375 2100 1925 
L 1325 1925 
Q 750 1925 375 1900 
L 375 2350 
Q 750 2325 1350 2325 
L 2325 2325 
Q 2450 2575 2550 2875 
L 1725 2875 
Q 1375 2875 1000 2850 
L 1000 3300 
Q 1500 3275 1700 3275 
L 2650 3275 
Q 2725 3575 2775 3875 
L 1500 3875 
Q 1100 3875 650 3850 
L 650 4300 
Q 1025 4275 1425 4275 
L 2275 4275 
Q 2075 4675 1850 4950 
Q 2025 5050 2250 5225 
Q 2450 4975 2725 4550 
Q 2525 4450 2325 4275 
L 3750 4275 
Q 4000 4700 4150 5250 
Q 4400 5100 4725 4975 
z
" transform="scale(0.015625)"/>
      <path id="SimHei-5e02" d="M 4750 4200 
Q 5350 4200 6050 4225 
L 6050 3725 
Q 5350 3750 4750 3750 
L 3450 3750 
L 3450 2900 
L 5375 2900 
Q 5350 2450 5350 1975 
L 5350 750 
Q 5350 325 5062 175 
Q 4775 25 4250 -25 
Q 4200 275 4025 575 
Q 4550 575 4687 600 
Q 4825 625 4825 850 
L 4825 2450 
L 3450 2450 
L 3450 475 
Q 3450 -150 3475 -600 
L 2900 -600 
Q 2925 -150 2925 475 
L 2925 2450 
L 1525 2450 
L 1525 0 
L 975 0 
Q 1000 400 1000 950 
L 1000 1875 
Q 1000 2450 975 2900 
L 2925 2900 
L 2925 3750 
L 1625 3750 
Q 975 3750 325 3725 
L 325 4225 
Q 975 4200 1625 4200 
L 4750 4200 
z
M 2950 5275 
Q 3250 4975 3575 4475 
Q 3300 4350 3125 4225 
Q 2900 4625 2550 5000 
Q 2750 5150 2950 5275 
z
" transform="scale(0.015625)"/>
      <path id="SimHei-5bf9" d="M 525 4250 
Q 900 4225 1400 4225 
L 2825 4225 
Q 2575 2625 2200 1750 
Q 2825 875 3125 400 
Q 2950 275 2725 75 
Q 2200 975 1950 1300 
Q 1650 775 1350 425 
Q 1050 75 600 -350 
Q 425 -125 200 -25 
Q 625 275 975 675 
Q 1325 1075 1650 1700 
Q 1050 2425 550 2900 
Q 700 3025 900 3225 
Q 1625 2425 1875 2150 
Q 2200 3050 2300 3825 
L 1400 3825 
Q 900 3825 525 3800 
L 525 4250 
z
M 2925 3700 
Q 3525 3675 3750 3675 
L 4825 3675 
L 4825 4425 
Q 4825 4750 4775 5125 
L 5350 5125 
Q 5325 4825 5325 4375 
L 5325 3675 
Q 5575 3675 6150 3700 
L 6150 3250 
Q 5575 3275 5325 3275 
L 5325 125 
Q 5350 -350 5012 -475 
Q 4675 -600 4250 -650 
Q 4175 -350 4025 -100 
Q 4575 -100 4712 -37 
Q 4850 25 4825 325 
L 4825 3275 
L 3775 3275 
Q 3550 3275 2925 3225 
L 2925 3700 
z
M 3450 2725 
Q 3875 1975 4175 1325 
Q 3850 1200 3700 1075 
Q 3475 1750 3050 2475 
Q 3225 2550 3450 2725 
z
" transform="scale(0.015625)"/>
      <path id="SimHei-6bd4" d="M 3775 5100 
Q 3750 4575 3750 4100 
L 3750 3050 
Q 4925 3600 5475 4175 
Q 5675 3900 5900 3675 
Q 5600 3500 5037 3187 
Q 4475 2875 3750 2550 
L 3750 450 
Q 3750 100 4050 100 
L 5000 100 
Q 5175 100 5262 250 
Q 5350 400 5450 900 
Q 5650 775 6025 675 
Q 5850 0 5650 -175 
Q 5450 -350 5225 -350 
L 3900 -350 
Q 3250 -350 3250 275 
L 3250 4000 
Q 3250 4550 3225 5100 
L 3775 5100 
z
M 1275 4975 
Q 1250 4575 1250 4000 
L 1250 3150 
L 1850 3150 
Q 2325 3150 2875 3175 
L 2875 2650 
Q 2325 2675 1850 2675 
L 1250 2675 
L 1250 475 
Q 1650 650 1962 812 
Q 2275 975 2850 1275 
Q 2900 950 2950 750 
Q 2375 475 1762 175 
Q 1150 -125 925 -325 
Q 750 -100 575 200 
Q 700 300 750 600 
L 750 3950 
Q 750 4550 725 4975 
L 1275 4975 
z
" transform="scale(0.015625)"/>
     </defs>
     <use xlink:href="#SimHei-5e7f"/>
     <use xlink:href="#SimHei-4e49" x="100"/>
     <use xlink:href="#SimHei-41" x="200"/>
     <use xlink:href="#SimHei-52" x="250"/>
     <use xlink:href="#SimHei-43" x="300"/>
     <use xlink:href="#SimHei-48" x="350"/>
     <use xlink:href="#SimHei-28" x="400"/>
     <use xlink:href="#SimHei-44" x="450"/>
     <use xlink:href="#SimHei-43" x="500"/>
     <use xlink:href="#SimHei-43" x="550"/>
     <use xlink:href="#SimHei-29" x="600"/>
     <use xlink:href="#SimHei-534f" x="650"/>
     <use xlink:href="#SimHei-65b9" x="750"/>
     <use xlink:href="#SimHei-5dee" x="850"/>
     <use xlink:href="#SimHei-7ec4" x="950"/>
     <use xlink:href="#SimHei-5408" x="1050"/>
     <use xlink:href="#SimHei-5e02" x="1150"/>
     <use xlink:href="#SimHei-503c" x="1250"/>
     <use xlink:href="#SimHei-5bf9" x="1350"/>
     <use xlink:href="#SimHei-6bd4" x="1450"/>
    </g>
   </g>
   <g id="PathCollection_1">
    <defs>
     <path id="mb05f2035df" d="M -3 3 
L 3 -3 
M -3 -3 
L 3 3 
" style="stroke: #ff0000; stroke-width: 1.5"/>
    </defs>
    <g clip-path="url(#p4fd9c92f23)">
     <use xlink:href="#mb05f2035df" x="179.359206" y="352.851392" style="fill: #ff0000; stroke: #ff0000; stroke-width: 1.5"/>
     <use xlink:href="#mb05f2035df" x="225.397403" y="328.057409" style="fill: #ff0000; stroke: #ff0000; stroke-width: 1.5"/>
     <use xlink:href="#mb05f2035df" x="261.204889" y="296.850063" style="fill: #ff0000; stroke: #ff0000; stroke-width: 1.5"/>
     <use xlink:href="#mb05f2035df" x="305.964248" y="293.747137" style="fill: #ff0000; stroke: #ff0000; stroke-width: 1.5"/>
     <use xlink:href="#mb05f2035df" x="341.771734" y="282.509679" style="fill: #ff0000; stroke: #ff0000; stroke-width: 1.5"/>
     <use xlink:href="#mb05f2035df" x="378.85806" y="257.894528" style="fill: #ff0000; stroke: #ff0000; stroke-width: 1.5"/>
     <use xlink:href="#mb05f2035df" x="414.665546" y="259.826753" style="fill: #ff0000; stroke: #ff0000; stroke-width: 1.5"/>
     <use xlink:href="#mb05f2035df" x="450.473033" y="267.281221" style="fill: #ff0000; stroke: #ff0000; stroke-width: 1.5"/>
     <use xlink:href="#mb05f2035df" x="491.395875" y="219.128474" style="fill: #ff0000; stroke: #ff0000; stroke-width: 1.5"/>
     <use xlink:href="#mb05f2035df" x="536.155233" y="186.675289" style="fill: #ff0000; stroke: #ff0000; stroke-width: 1.5"/>
     <use xlink:href="#mb05f2035df" x="571.96272" y="189.560703" style="fill: #ff0000; stroke: #ff0000; stroke-width: 1.5"/>
     <use xlink:href="#mb05f2035df" x="607.770206" y="157.328751" style="fill: #ff0000; stroke: #ff0000; stroke-width: 1.5"/>
     <use xlink:href="#mb05f2035df" x="655.087242" y="129.263059" style="fill: #ff0000; stroke: #ff0000; stroke-width: 1.5"/>
     <use xlink:href="#mb05f2035df" x="690.894729" y="120.692407" style="fill: #ff0000; stroke: #ff0000; stroke-width: 1.5"/>
     <use xlink:href="#mb05f2035df" x="726.702215" y="88.012758" style="fill: #ff0000; stroke: #ff0000; stroke-width: 1.5"/>
    </g>
   </g>
   <g id="legend_1">
    <g id="patch_7">
     <path d="M 115 116.988437 
L 217 116.988437 
Q 219 116.988437 219 114.988437 
L 219 58.84 
Q 219 56.84 217 56.84 
L 115 56.84 
Q 113 56.84 113 58.84 
L 113 114.988437 
Q 113 116.988437 115 116.988437 
z
" style="fill: #ffffff; opacity: 0.8; stroke: #cccccc; stroke-linejoin: miter"/>
    </g>
    <g id="line2d_34">
     <path d="M 117 65.347812 
L 127 65.347812 
L 137 65.347812 
" style="fill: none; stroke: #1f77b4; stroke-width: 1.5; stroke-linecap: square"/>
    </g>
    <g id="text_18">
     <!-- 固定权重组合 -->
     <g transform="translate(145 68.847812) scale(0.1 -0.1)">
      <defs>
       <path id="SimHei-56fa" d="M 5800 5025 
Q 5775 4350 5775 3600 
L 5775 925 
Q 5775 150 5800 -575 
L 5300 -575 
L 5300 -250 
L 1075 -250 
L 1075 -625 
L 575 -625 
Q 600 150 600 950 
L 600 3600 
Q 600 4325 575 5025 
L 5800 5025 
z
M 5300 200 
L 5300 4575 
L 1075 4575 
L 1075 200 
L 5300 200 
z
M 4875 3025 
Q 4650 3050 4050 3050 
L 3475 3050 
L 3475 2325 
L 4575 2325 
Q 4550 1900 4550 1475 
Q 4550 1075 4575 650 
L 1900 650 
Q 1925 1050 1925 1450 
Q 1925 1875 1900 2325 
L 3000 2325 
L 3000 3050 
L 2350 3050 
Q 2125 3050 1550 3025 
L 1550 3500 
Q 2125 3475 2350 3475 
L 3000 3475 
Q 3000 3850 2975 4225 
L 3500 4225 
Q 3475 3800 3475 3475 
L 4025 3475 
Q 4525 3475 4875 3500 
L 4875 3025 
z
M 4075 1075 
L 4075 1900 
L 2375 1900 
L 2375 1075 
L 4075 1075 
z
" transform="scale(0.015625)"/>
       <path id="SimHei-5b9a" d="M 4200 3125 
Q 4675 3125 5175 3150 
L 5175 2675 
Q 4725 2700 4100 2700 
L 3550 2700 
L 3550 1700 
L 4600 1700 
Q 4875 1700 5375 1725 
L 5375 1250 
Q 4875 1275 4575 1275 
L 3550 1275 
L 3550 100 
Q 4600 -25 6050 125 
Q 5850 -200 5800 -475 
Q 4800 -475 4150 -450 
Q 3500 -425 3050 -300 
Q 2600 -175 2250 75 
Q 1900 325 1600 675 
Q 1200 -50 675 -575 
Q 450 -350 175 -250 
Q 875 300 1200 1050 
Q 1525 1800 1550 2200 
Q 1800 2050 2150 1975 
Q 2075 1875 1987 1662 
Q 1900 1450 1775 1125 
Q 1950 900 2300 612 
Q 2650 325 3050 200 
L 3050 2700 
L 2250 2700 
Q 1825 2700 1400 2675 
L 1400 3150 
Q 1825 3125 2400 3125 
L 4200 3125 
z
M 5750 4275 
Q 5725 3925 5725 3750 
Q 5725 3575 5750 3275 
L 5225 3275 
L 5225 3875 
L 1225 3875 
L 1225 3275 
L 700 3275 
Q 725 3475 725 3725 
Q 725 3975 700 4275 
L 5750 4275 
z
M 2650 5050 
Q 2875 5125 3100 5300 
Q 3375 4975 3600 4550 
Q 3250 4400 3100 4300 
Q 3050 4525 2650 5050 
z
" transform="scale(0.015625)"/>
       <path id="SimHei-6743" d="M 2700 4575 
Q 3250 4550 3725 4550 
L 5675 4550 
Q 5575 3500 5337 2737 
Q 5100 1975 4475 1075 
Q 4775 675 5200 425 
Q 5625 175 6175 0 
Q 5825 -275 5750 -500 
Q 5175 -225 4775 100 
Q 4375 425 4150 725 
Q 3825 350 3475 62 
Q 3125 -225 2500 -600 
Q 2400 -350 2100 -125 
Q 2475 0 2950 275 
Q 3425 550 3850 1075 
Q 3625 1375 3400 2037 
Q 3175 2700 3050 4125 
L 2700 4125 
L 2700 4575 
z
M 200 1350 
Q 575 1750 825 2275 
Q 1075 2800 1250 3450 
Q 825 3450 425 3425 
L 425 3875 
Q 875 3850 1325 3850 
Q 1325 4900 1300 5250 
L 1850 5250 
Q 1800 4950 1800 3850 
Q 2175 3850 2600 3875 
L 2600 3425 
Q 2175 3450 1800 3450 
L 1800 2525 
Q 1975 2625 2175 2775 
Q 2625 2175 2750 1875 
Q 2475 1725 2325 1575 
Q 2200 1925 1800 2375 
L 1800 525 
Q 1800 0 1825 -600 
L 1275 -600 
Q 1325 0 1325 525 
L 1325 2375 
Q 1125 1675 575 900 
Q 425 1225 200 1350 
z
M 3525 4150 
Q 3675 2850 3787 2412 
Q 3900 1975 4175 1475 
Q 4475 1925 4750 2587 
Q 5025 3250 5100 4150 
L 3525 4150 
z
" transform="scale(0.015625)"/>
       <path id="SimHei-91cd" d="M 5300 4575 
Q 3900 4450 3425 4400 
L 3425 3875 
L 5150 3875 
Q 5500 3875 6000 3900 
L 6000 3450 
Q 5500 3475 5150 3475 
L 3425 3475 
L 3425 3050 
L 5150 3050 
Q 5125 2675 5125 2125 
Q 5125 1575 5150 1175 
L 3425 1175 
L 3425 750 
L 4550 750 
Q 5000 750 5500 775 
L 5500 375 
Q 5025 400 4575 400 
L 3425 400 
L 3425 -50 
L 5050 -50 
Q 5475 -50 5975 -25 
L 5975 -450 
Q 5475 -425 5075 -425 
L 1475 -425 
Q 975 -425 450 -450 
L 450 -25 
Q 975 -50 1450 -50 
L 2925 -50 
L 2925 400 
L 2050 400 
Q 1450 400 950 375 
L 950 775 
Q 1600 750 2075 750 
L 2925 750 
L 2925 1175 
L 1250 1175 
Q 1275 1800 1275 2125 
Q 1275 2450 1250 3050 
L 2925 3050 
L 2925 3475 
L 1225 3475 
Q 875 3475 400 3450 
L 400 3900 
Q 875 3875 1225 3875 
L 2925 3875 
L 2925 4375 
Q 2425 4350 1075 4250 
Q 1000 4475 875 4675 
Q 2275 4700 3362 4812 
Q 4450 4925 4925 5075 
Q 5025 4825 5300 4575 
z
M 4650 2300 
L 4650 2650 
L 3425 2650 
L 3425 2300 
L 4650 2300 
z
M 2925 2300 
L 2925 2650 
L 1750 2650 
L 1750 2300 
L 2925 2300 
z
M 4625 1575 
L 4625 1900 
L 3425 1900 
L 3425 1575 
L 4625 1575 
z
M 2925 1575 
L 2925 1900 
L 1750 1900 
L 1750 1575 
L 2925 1575 
z
" transform="scale(0.015625)"/>
      </defs>
      <use xlink:href="#SimHei-56fa"/>
      <use xlink:href="#SimHei-5b9a" x="100"/>
      <use xlink:href="#SimHei-6743" x="200"/>
      <use xlink:href="#SimHei-91cd" x="300"/>
      <use xlink:href="#SimHei-7ec4" x="400"/>
      <use xlink:href="#SimHei-5408" x="500"/>
     </g>
    </g>
    <g id="line2d_35">
     <path d="M 117 79.644687 
L 127 79.644687 
L 137 79.644687 
" style="fill: none; stroke-dasharray: 5.55,2.4; stroke-dashoffset: 0; stroke: #ff7f0e; stroke-width: 1.5"/>
    </g>
    <g id="text_19">
     <!-- 一次调仓组合 -->
     <g transform="translate(145 83.144687) scale(0.1 -0.1)">
      <defs>
       <path id="SimHei-4e00" d="M 4875 2675 
Q 5525 2675 6050 2700 
L 6050 2050 
Q 5525 2075 4900 2075 
L 1600 2075 
Q 950 2075 350 2050 
L 350 2700 
Q 950 2675 1600 2675 
L 4875 2675 
z
" transform="scale(0.015625)"/>
       <path id="SimHei-6b21" d="M 4150 3025 
Q 4000 2550 4050 2187 
Q 4100 1825 4275 1450 
Q 4450 1075 4800 750 
Q 5150 425 5475 212 
Q 5800 0 6150 -150 
Q 5875 -350 5750 -625 
Q 5250 -325 4887 -25 
Q 4525 275 4275 612 
Q 4025 950 3825 1425 
Q 3525 625 2950 125 
Q 2375 -375 1850 -650 
Q 1675 -400 1475 -225 
Q 2025 0 2487 362 
Q 2950 725 3162 1100 
Q 3375 1475 3450 1825 
Q 3525 2175 3537 2400 
Q 3550 2625 3525 3125 
Q 3825 3050 4150 3025 
z
M 3700 4975 
Q 3625 4900 3475 4575 
Q 3325 4250 3250 4075 
L 5775 4075 
Q 5650 3725 5550 3362 
Q 5450 3000 5275 2500 
Q 5000 2575 4775 2600 
Q 5025 3350 5100 3650 
L 3100 3650 
Q 2975 3400 2812 3100 
Q 2650 2800 2425 2450 
Q 2275 2600 1975 2700 
Q 2300 3050 2625 3762 
Q 2950 4475 3125 5200 
Q 3450 5025 3700 4975 
z
M 2025 2000 
Q 1825 1675 1475 1087 
Q 1125 500 725 -200 
Q 500 -25 250 175 
Q 725 725 1037 1262 
Q 1350 1800 1575 2325 
Q 1750 2175 2025 2000 
z
M 900 4750 
Q 1725 3725 1950 3375 
Q 1750 3250 1500 3050 
Q 1250 3525 500 4425 
Q 700 4575 900 4750 
z
" transform="scale(0.015625)"/>
       <path id="SimHei-8c03" d="M 5950 200 
Q 5975 -300 5700 -437 
Q 5425 -575 4900 -650 
Q 4825 -350 4700 -50 
Q 5200 -75 5337 0 
Q 5475 75 5500 300 
L 5500 4525 
L 3075 4525 
L 3075 2275 
Q 3075 1225 2900 612 
Q 2725 0 2275 -650 
Q 2125 -450 1825 -300 
Q 2150 75 2312 437 
Q 2475 800 2550 1212 
Q 2625 1625 2625 2925 
Q 2625 4250 2600 4900 
L 5975 4900 
Q 5950 4525 5950 3900 
L 5950 200 
z
M 5125 1825 
Q 5100 1475 5100 1175 
Q 5100 875 5125 425 
L 3425 425 
Q 3450 875 3450 1175 
Q 3450 1475 3425 1825 
L 5125 1825 
z
M 2125 1600 
Q 2225 1375 2400 1200 
Q 2075 875 1875 650 
Q 1675 425 1325 50 
Q 1150 250 1000 400 
Q 1175 600 1175 825 
L 1175 2825 
L 950 2825 
Q 775 2825 300 2800 
L 300 3250 
Q 775 3225 950 3225 
L 1650 3225 
Q 1625 2775 1625 2225 
L 1625 1050 
Q 1750 1150 2125 1600 
z
M 4050 3675 
Q 4050 3975 4025 4300 
L 4500 4300 
Q 4475 4000 4475 3675 
Q 4750 3675 5125 3700 
L 5125 3275 
Q 4750 3300 4475 3300 
L 4475 2675 
Q 4925 2675 5225 2700 
L 5225 2250 
Q 4825 2275 4300 2275 
Q 3775 2275 3350 2250 
L 3350 2700 
Q 3775 2675 4050 2675 
L 4050 3300 
Q 3725 3300 3375 3275 
L 3375 3700 
Q 3750 3675 4050 3675 
z
M 4675 775 
L 4675 1475 
L 3875 1475 
L 3875 775 
L 4675 775 
z
M 1250 5025 
Q 1525 4700 1975 4100 
Q 1750 3975 1575 3775 
Q 1075 4525 875 4725 
Q 1075 4850 1250 5025 
z
" transform="scale(0.015625)"/>
       <path id="SimHei-4ed3" d="M 4650 2850 
Q 4625 2500 4625 2175 
L 4625 1550 
Q 4650 1100 4362 975 
Q 4075 850 3425 775 
Q 3275 1225 3150 1350 
Q 3925 1350 4025 1400 
Q 4125 1450 4125 1775 
L 4125 2425 
L 2200 2425 
L 2200 375 
Q 2225 50 2500 50 
L 4550 50 
Q 4850 50 4962 237 
Q 5075 425 5100 850 
Q 5350 625 5675 525 
Q 5525 25 5362 -187 
Q 5200 -400 4775 -400 
L 2325 -400 
Q 1700 -400 1700 200 
L 1700 1875 
Q 1700 2300 1675 2850 
L 4650 2850 
z
M 3450 4925 
Q 4500 3450 6175 3000 
Q 5900 2750 5800 2450 
Q 4225 3050 3200 4550 
Q 2325 3200 675 2275 
Q 575 2475 250 2725 
Q 1450 3225 2137 4000 
Q 2825 4775 2950 5300 
Q 3275 5200 3575 5125 
L 3450 4925 
z
" transform="scale(0.015625)"/>
      </defs>
      <use xlink:href="#SimHei-4e00"/>
      <use xlink:href="#SimHei-6b21" x="100"/>
      <use xlink:href="#SimHei-8c03" x="200"/>
      <use xlink:href="#SimHei-4ed3" x="300"/>
      <use xlink:href="#SimHei-7ec4" x="400"/>
      <use xlink:href="#SimHei-5408" x="500"/>
     </g>
    </g>
    <g id="line2d_36">
     <path d="M 117 93.941562 
L 127 93.941562 
L 137 93.941562 
" style="fill: none; stroke-dasharray: 5.55,2.4; stroke-dashoffset: 0; stroke: #2ca02c; stroke-width: 1.5"/>
    </g>
    <g id="text_20">
     <!-- 动态再平衡组合 -->
     <g transform="translate(145 97.441562) scale(0.1 -0.1)">
      <defs>
       <path id="SimHei-52a8" d="M 4125 5150 
Q 4425 5075 4700 5075 
Q 4650 4825 4637 4512 
Q 4625 4200 4625 3750 
L 6025 3750 
Q 6000 3425 5975 3025 
L 5850 175 
Q 5775 -325 5437 -437 
Q 5100 -550 4675 -600 
Q 4600 -300 4425 -50 
Q 4975 -75 5175 12 
Q 5375 100 5375 350 
L 5525 3325 
L 4625 3325 
Q 4575 2225 4462 1650 
Q 4350 1075 4112 587 
Q 3875 100 3150 -675 
Q 2900 -425 2700 -350 
Q 3175 25 3475 437 
Q 3775 850 3900 1287 
Q 4025 1725 4075 2200 
Q 4125 2675 4150 3325 
L 3725 3325 
Q 3450 3325 3075 3300 
L 3075 3775 
Q 3450 3750 3775 3750 
L 4150 3750 
L 4150 4450 
Q 4150 4800 4125 5150 
z
M 275 3025 
Q 650 3000 1175 3000 
L 2125 3000 
Q 2575 3000 3150 3025 
L 3150 2575 
Q 2575 2600 2150 2600 
L 1875 2600 
Q 1725 2200 1537 1750 
Q 1350 1300 1100 850 
Q 2075 950 2575 1050 
Q 2450 1350 2175 1800 
Q 2450 1950 2575 2050 
Q 2825 1600 3000 1287 
Q 3175 975 3375 525 
Q 3175 400 2925 275 
Q 2825 500 2750 650 
Q 1950 525 1462 450 
Q 975 375 625 250 
Q 525 500 375 725 
Q 700 925 962 1525 
Q 1225 2125 1350 2600 
L 1175 2600 
Q 650 2600 275 2575 
L 275 3025 
z
M 2000 4425 
Q 2425 4425 2950 4450 
L 2950 3975 
Q 2425 4000 2000 4000 
L 1400 4000 
Q 1000 4000 625 3975 
L 625 4450 
Q 975 4425 1375 4425 
L 2000 4425 
z
" transform="scale(0.015625)"/>
       <path id="SimHei-6001" d="M 2575 4325 
Q 2700 4800 2725 5250 
Q 3075 5125 3350 5100 
Q 3225 4875 3100 4325 
L 5025 4325 
Q 5375 4325 5825 4375 
L 5825 3850 
Q 5350 3875 5000 3875 
L 3975 3875 
Q 4225 3300 4575 2987 
Q 4925 2675 5250 2525 
Q 5575 2375 6100 2275 
Q 5800 2075 5675 1775 
Q 4900 2100 4525 2412 
Q 4150 2725 3900 3075 
Q 3650 3425 3500 3875 
L 2975 3875 
Q 2675 3200 2187 2687 
Q 1700 2175 725 1625 
Q 650 1850 300 2075 
Q 900 2275 1512 2750 
Q 2125 3225 2425 3875 
L 1300 3875 
Q 900 3875 450 3850 
L 450 4375 
Q 875 4325 1300 4325 
L 2575 4325 
z
M 2525 1350 
Q 2500 875 2500 575 
Q 2500 300 2512 150 
Q 2525 0 2800 0 
L 3825 0 
Q 4025 -25 4175 62 
Q 4325 150 4400 625 
Q 4650 450 4975 375 
Q 4775 -150 4625 -312 
Q 4475 -475 4000 -450 
L 2500 -450 
Q 2050 -400 2012 -162 
Q 1975 75 1975 425 
Q 1975 800 1950 1350 
L 2525 1350 
z
M 1425 1175 
Q 1175 450 825 -325 
Q 625 -175 325 -125 
Q 775 625 875 1375 
Q 1175 1250 1425 1175 
z
M 5175 1525 
Q 5600 950 6050 350 
Q 5800 175 5600 0 
Q 5225 700 4750 1250 
Q 5000 1350 5175 1525 
z
M 2700 3050 
Q 3175 2675 3500 2325 
Q 3275 2175 3100 1975 
Q 2825 2350 2350 2700 
L 2700 3050 
z
M 3375 1750 
Q 3625 1350 3825 925 
Q 3625 800 3375 675 
Q 3200 1175 2950 1525 
Q 3175 1600 3375 1750 
z
" transform="scale(0.015625)"/>
       <path id="SimHei-518d" d="M 4025 -125 
Q 4375 -150 4537 -125 
Q 4700 -100 4700 175 
L 4700 875 
L 1675 875 
L 1675 -650 
L 1125 -650 
Q 1175 -225 1175 200 
L 1175 875 
Q 600 875 225 850 
L 225 1325 
Q 575 1275 1175 1275 
L 1175 2825 
Q 1175 3375 1125 3700 
L 2950 3700 
L 2950 4475 
L 1550 4475 
Q 1050 4475 600 4450 
L 600 4925 
Q 1050 4900 1525 4900 
L 4850 4900 
Q 5425 4900 5775 4925 
L 5775 4450 
Q 5425 4475 4850 4475 
L 3450 4475 
L 3450 3700 
L 5225 3700 
Q 5200 3375 5200 2750 
L 5200 1275 
Q 5825 1275 6200 1325 
L 6200 850 
Q 5850 875 5200 875 
L 5200 -175 
Q 5200 -475 4950 -550 
Q 4700 -625 4250 -675 
Q 4175 -400 4025 -125 
z
M 2950 2475 
L 2950 3325 
L 1675 3325 
L 1675 2475 
L 2950 2475 
z
M 4700 2475 
L 4700 3325 
L 3450 3325 
L 3450 2475 
L 4700 2475 
z
M 2950 1275 
L 2950 2100 
L 1675 2100 
L 1675 1275 
L 2950 1275 
z
M 4700 1275 
L 4700 2100 
L 3450 2100 
L 3450 1275 
L 4700 1275 
z
" transform="scale(0.015625)"/>
       <path id="SimHei-5e73" d="M 4525 4825 
Q 4900 4825 5450 4850 
L 5450 4375 
Q 4925 4400 4525 4400 
L 3475 4400 
L 3475 2025 
L 5000 2025 
Q 5550 2025 6025 2050 
L 6025 1575 
Q 5550 1600 5000 1600 
L 3475 1600 
L 3475 450 
Q 3475 -100 3500 -600 
L 2925 -600 
Q 2950 -100 2950 450 
L 2950 1600 
L 1125 1600 
Q 775 1600 375 1575 
L 375 2050 
Q 775 2025 1175 2025 
L 2950 2025 
L 2950 4400 
L 1775 4400 
Q 1400 4400 875 4375 
L 875 4850 
Q 1400 4825 1750 4825 
L 4525 4825 
z
M 3925 2600 
Q 4500 3300 4900 4125 
Q 5150 3950 5400 3825 
Q 4775 2850 4350 2300 
Q 4150 2475 3925 2600 
z
M 1975 2350 
Q 1600 3100 1050 3725 
Q 1250 3875 1450 4050 
Q 2075 3300 2450 2725 
Q 2150 2500 1975 2350 
z
" transform="scale(0.015625)"/>
       <path id="SimHei-8861" d="M 3275 5025 
Q 3150 4950 2900 4575 
L 4050 4575 
Q 3800 4175 3575 3725 
L 4425 3725 
Q 4400 3400 4400 2775 
Q 4400 2175 4425 1800 
L 2050 1800 
Q 2075 2175 2075 2800 
Q 2075 3425 2050 3725 
L 3125 3725 
L 3375 4225 
L 2600 4225 
Q 2450 4050 2125 3750 
Q 1975 3900 1750 4050 
Q 2175 4375 2412 4687 
Q 2650 5000 2775 5275 
Q 3000 5150 3275 5025 
z
M 4575 3225 
Q 4775 3200 5175 3200 
L 5675 3200 
Q 5900 3200 6150 3225 
L 6150 2750 
Q 5950 2775 5650 2775 
L 5650 25 
Q 5650 -375 5487 -462 
Q 5325 -550 4800 -650 
Q 4775 -375 4600 -100 
Q 5000 -100 5112 -75 
Q 5225 -50 5225 250 
L 5225 2775 
Q 4800 2775 4575 2750 
L 4575 3225 
z
M 1925 3300 
Q 1725 3150 1400 2650 
L 1400 275 
Q 1400 -100 1425 -625 
L 950 -625 
Q 975 25 975 350 
L 975 2175 
Q 750 1925 475 1675 
Q 325 1900 175 2075 
Q 550 2350 925 2800 
Q 1300 3250 1475 3625 
Q 1650 3450 1925 3300 
z
M 1975 -525 
Q 1800 -250 1600 -50 
Q 2175 125 2475 412 
Q 2775 700 2825 925 
L 2525 925 
Q 2225 925 1800 900 
L 1800 1350 
Q 2175 1325 2525 1325 
L 2925 1325 
Q 2975 1525 2975 1725 
Q 3175 1675 3500 1625 
Q 3400 1475 3375 1325 
L 3925 1325 
Q 4250 1325 4600 1350 
L 4600 900 
Q 4300 925 3925 925 
L 3325 925 
L 3300 875 
Q 2875 -100 1975 -525 
z
M 1975 4775 
Q 1850 4675 1425 4200 
Q 1000 3725 650 3425 
Q 475 3675 300 3775 
Q 625 3975 987 4387 
Q 1350 4800 1525 5125 
Q 1700 4950 1975 4775 
z
M 3425 825 
Q 3850 550 4475 100 
Q 4275 -100 4150 -350 
Q 3625 150 3150 450 
Q 3300 600 3425 825 
z
M 4700 4600 
Q 4875 4575 5175 4575 
L 5625 4575 
Q 5800 4575 6000 4600 
L 6000 4175 
Q 5800 4200 5625 4200 
L 5225 4200 
Q 4900 4200 4700 4175 
L 4700 4600 
z
M 3975 2925 
L 3975 3375 
L 3425 3375 
L 3425 2925 
L 3975 2925 
z
M 3025 2925 
L 3025 3375 
L 2500 3375 
L 2500 2925 
L 3025 2925 
z
M 3975 2150 
L 3975 2575 
L 3425 2575 
L 3425 2150 
L 3975 2150 
z
M 3025 2150 
L 3025 2575 
L 2500 2575 
L 2500 2150 
L 3025 2150 
z
" transform="scale(0.015625)"/>
      </defs>
      <use xlink:href="#SimHei-52a8"/>
      <use xlink:href="#SimHei-6001" x="100"/>
      <use xlink:href="#SimHei-518d" x="200"/>
      <use xlink:href="#SimHei-5e73" x="300"/>
      <use xlink:href="#SimHei-8861" x="400"/>
      <use xlink:href="#SimHei-7ec4" x="500"/>
      <use xlink:href="#SimHei-5408" x="600"/>
     </g>
    </g>
    <g id="PathCollection_2">
     <g>
      <use xlink:href="#mb05f2035df" x="127" y="109.113437" style="fill: #ff0000; stroke: #ff0000; stroke-width: 1.5"/>
     </g>
    </g>
    <g id="text_21">
     <!-- 调仓日 -->
     <g transform="translate(145 111.738437) scale(0.1 -0.1)">
      <defs>
       <path id="SimHei-65e5" d="M 5375 5000 
Q 5350 3775 5350 2275 
Q 5350 775 5375 -450 
L 4800 -450 
L 4800 175 
L 1800 175 
L 1800 -575 
L 1250 -575 
Q 1275 575 1275 2125 
Q 1275 3675 1250 5000 
L 5375 5000 
z
M 4800 600 
L 4800 2375 
L 1800 2375 
L 1800 600 
L 4800 600 
z
M 4800 2800 
L 4800 4550 
L 1800 4550 
L 1800 2800 
L 4800 2800 
z
" transform="scale(0.015625)"/>
      </defs>
      <use xlink:href="#SimHei-8c03"/>
      <use xlink:href="#SimHei-4ed3" x="100"/>
      <use xlink:href="#SimHei-65e5" x="200"/>
     </g>
    </g>
   </g>
  </g>
 </g>
 <defs>
  <clipPath id="p4fd9c92f23">
   <rect x="108" y="51.84" width="669.6" height="332.64"/>
  </clipPath>
 </defs>
</svg>
