<?xml version="1.0" encoding="utf-8" standalone="no"?>
<!DOCTYPE svg PUBLIC "-//W3C//DTD SVG 1.1//EN"
  "http://www.w3.org/Graphics/SVG/1.1/DTD/svg11.dtd">
<svg xmlns:xlink="http://www.w3.org/1999/xlink" width="1080pt" height="576pt" viewBox="0 0 1080 576" xmlns="http://www.w3.org/2000/svg" version="1.1">
 <metadata>
  <rdf:RDF xmlns:dc="http://purl.org/dc/elements/1.1/" xmlns:cc="http://creativecommons.org/ns#" xmlns:rdf="http://www.w3.org/1999/02/22-rdf-syntax-ns#">
   <cc:Work>
    <dc:type rdf:resource="http://purl.org/dc/dcmitype/StillImage"/>
    <dc:date>2025-05-13T13:36:47.199325</dc:date>
    <dc:format>image/svg+xml</dc:format>
    <dc:creator>
     <cc:Agent>
      <dc:title>Matplotlib v3.9.2, https://matplotlib.org/</dc:title>
     </cc:Agent>
    </dc:creator>
   </cc:Work>
  </rdf:RDF>
 </metadata>
 <defs>
  <style type="text/css">*{stroke-linejoin: round; stroke-linecap: butt}</style>
 </defs>
 <g id="figure_1">
  <g id="patch_1">
   <path d="M 0 576 
L 1080 576 
L 1080 0 
L 0 0 
z
" style="fill: #ffffff"/>
  </g>
  <g id="axes_1">
   <g id="patch_2">
    <path d="M 135 512.64 
L 972 512.64 
L 972 69.12 
L 135 69.12 
z
" style="fill: #eaeaf2"/>
   </g>
   <g id="matplotlib.axis_1">
    <g id="xtick_1">
     <g id="line2d_1">
      <path d="M 171.433359 512.64 
L 171.433359 69.12 
" clip-path="url(#pc94c0263e7)" style="fill: none; stroke: #ffffff; stroke-linecap: round"/>
     </g>
     <g id="text_1">
      <!-- 2024-01 -->
      <g style="fill: #262626" transform="translate(147.370859 531.593125) scale(0.1375 -0.1375)">
       <defs>
        <path id="SimHei-32" d="M 300 250 
Q 325 625 650 925 
Q 975 1225 1475 1862 
Q 1975 2500 2125 2850 
Q 2275 3200 2237 3450 
Q 2200 3700 2000 3862 
Q 1800 4025 1537 4000 
Q 1275 3975 1037 3800 
Q 800 3625 675 3275 
L 200 3350 
Q 400 3925 712 4187 
Q 1025 4450 1450 4475 
Q 1700 4500 1900 4462 
Q 2100 4425 2312 4287 
Q 2525 4150 2662 3875 
Q 2800 3600 2762 3212 
Q 2725 2825 2375 2287 
Q 2025 1750 1025 600 
L 2825 600 
L 2825 150 
L 300 150 
L 300 250 
z
" transform="scale(0.015625)"/>
        <path id="SimHei-30" d="M 225 2537 
Q 250 3200 412 3587 
Q 575 3975 875 4225 
Q 1175 4475 1612 4475 
Q 2050 4475 2375 4112 
Q 2700 3750 2800 3200 
Q 2900 2650 2862 1937 
Q 2825 1225 2612 775 
Q 2400 325 1975 150 
Q 1550 -25 1125 187 
Q 700 400 525 750 
Q 350 1100 275 1487 
Q 200 1875 225 2537 
z
M 750 2687 
Q 675 2000 800 1462 
Q 925 925 1212 700 
Q 1500 475 1800 612 
Q 2100 750 2237 1162 
Q 2375 1575 2375 2062 
Q 2375 2550 2337 2950 
Q 2300 3350 2112 3675 
Q 1925 4000 1612 4012 
Q 1300 4025 1062 3700 
Q 825 3375 750 2687 
z
" transform="scale(0.015625)"/>
        <path id="SimHei-34" d="M 2000 1100 
L 75 1100 
L 75 1525 
L 2100 4450 
L 2475 4450 
L 2475 1525 
L 3075 1525 
L 3075 1100 
L 2475 1100 
L 2475 150 
L 2000 150 
L 2000 1100 
z
M 2000 1525 
L 2000 3500 
L 600 1525 
L 2000 1525 
z
" transform="scale(0.015625)"/>
        <path id="SimHei-2d" d="M 2975 2125 
L 125 2125 
L 125 2525 
L 2975 2525 
L 2975 2125 
z
" transform="scale(0.015625)"/>
        <path id="SimHei-31" d="M 1400 3600 
Q 1075 3275 575 2975 
L 575 3450 
Q 1200 3875 1600 4450 
L 1900 4450 
L 1900 150 
L 1400 150 
L 1400 3600 
z
" transform="scale(0.015625)"/>
       </defs>
       <use xlink:href="#SimHei-32"/>
       <use xlink:href="#SimHei-30" x="50"/>
       <use xlink:href="#SimHei-32" x="100"/>
       <use xlink:href="#SimHei-34" x="150"/>
       <use xlink:href="#SimHei-2d" x="200"/>
       <use xlink:href="#SimHei-30" x="250"/>
       <use xlink:href="#SimHei-31" x="300"/>
      </g>
     </g>
    </g>
    <g id="xtick_2">
     <g id="line2d_2">
      <path d="M 268.159091 512.64 
L 268.159091 69.12 
" clip-path="url(#pc94c0263e7)" style="fill: none; stroke: #ffffff; stroke-linecap: round"/>
     </g>
     <g id="text_2">
      <!-- 2024-03 -->
      <g style="fill: #262626" transform="translate(244.096591 531.593125) scale(0.1375 -0.1375)">
       <defs>
        <path id="SimHei-33" d="M 250 1225 
L 700 1300 
Q 800 975 1025 762 
Q 1250 550 1587 562 
Q 1925 575 2125 837 
Q 2325 1100 2300 1437 
Q 2275 1775 2037 1962 
Q 1800 2150 1275 2225 
L 1275 2550 
Q 1800 2600 2037 2825 
Q 2275 3050 2250 3412 
Q 2225 3775 1925 3937 
Q 1625 4100 1287 3975 
Q 950 3850 750 3275 
L 300 3350 
Q 450 3800 712 4100 
Q 975 4400 1425 4450 
Q 1875 4500 2212 4337 
Q 2550 4175 2687 3837 
Q 2825 3500 2725 3100 
Q 2625 2700 2150 2400 
Q 2500 2250 2687 1950 
Q 2875 1650 2812 1162 
Q 2750 675 2375 375 
Q 2000 75 1525 87 
Q 1050 100 700 387 
Q 350 675 250 1225 
z
" transform="scale(0.015625)"/>
       </defs>
       <use xlink:href="#SimHei-32"/>
       <use xlink:href="#SimHei-30" x="50"/>
       <use xlink:href="#SimHei-32" x="100"/>
       <use xlink:href="#SimHei-34" x="150"/>
       <use xlink:href="#SimHei-2d" x="200"/>
       <use xlink:href="#SimHei-30" x="250"/>
       <use xlink:href="#SimHei-33" x="300"/>
      </g>
     </g>
    </g>
    <g id="xtick_3">
     <g id="line2d_3">
      <path d="M 366.496918 512.64 
L 366.496918 69.12 
" clip-path="url(#pc94c0263e7)" style="fill: none; stroke: #ffffff; stroke-linecap: round"/>
     </g>
     <g id="text_3">
      <!-- 2024-05 -->
      <g style="fill: #262626" transform="translate(342.434418 531.593125) scale(0.1375 -0.1375)">
       <defs>
        <path id="SimHei-35" d="M 550 1325 
Q 725 650 1150 575 
Q 1575 500 1837 662 
Q 2100 825 2212 1087 
Q 2325 1350 2312 1675 
Q 2300 2000 2137 2225 
Q 1975 2450 1725 2525 
Q 1475 2600 1162 2525 
Q 850 2450 650 2175 
L 225 2225 
Q 275 2375 700 4375 
L 2675 4375 
L 2675 3925 
L 1075 3925 
Q 950 3250 825 2850 
Q 1200 3025 1525 3012 
Q 1850 3000 2150 2862 
Q 2450 2725 2587 2487 
Q 2725 2250 2787 2012 
Q 2850 1775 2837 1500 
Q 2825 1225 2725 937 
Q 2625 650 2425 462 
Q 2225 275 1937 162 
Q 1650 50 1275 75 
Q 900 100 562 350 
Q 225 600 100 1200 
L 550 1325 
z
" transform="scale(0.015625)"/>
       </defs>
       <use xlink:href="#SimHei-32"/>
       <use xlink:href="#SimHei-30" x="50"/>
       <use xlink:href="#SimHei-32" x="100"/>
       <use xlink:href="#SimHei-34" x="150"/>
       <use xlink:href="#SimHei-2d" x="200"/>
       <use xlink:href="#SimHei-30" x="250"/>
       <use xlink:href="#SimHei-35" x="300"/>
      </g>
     </g>
    </g>
    <g id="xtick_4">
     <g id="line2d_4">
      <path d="M 464.834746 512.64 
L 464.834746 69.12 
" clip-path="url(#pc94c0263e7)" style="fill: none; stroke: #ffffff; stroke-linecap: round"/>
     </g>
     <g id="text_4">
      <!-- 2024-07 -->
      <g style="fill: #262626" transform="translate(440.772246 531.593125) scale(0.1375 -0.1375)">
       <defs>
        <path id="SimHei-37" d="M 850 150 
Q 1300 2050 2425 3925 
L 275 3925 
L 275 4375 
L 2950 4375 
L 2950 3950 
Q 1775 2050 1400 150 
L 850 150 
z
" transform="scale(0.015625)"/>
       </defs>
       <use xlink:href="#SimHei-32"/>
       <use xlink:href="#SimHei-30" x="50"/>
       <use xlink:href="#SimHei-32" x="100"/>
       <use xlink:href="#SimHei-34" x="150"/>
       <use xlink:href="#SimHei-2d" x="200"/>
       <use xlink:href="#SimHei-30" x="250"/>
       <use xlink:href="#SimHei-37" x="300"/>
      </g>
     </g>
    </g>
    <g id="xtick_5">
     <g id="line2d_5">
      <path d="M 564.784669 512.64 
L 564.784669 69.12 
" clip-path="url(#pc94c0263e7)" style="fill: none; stroke: #ffffff; stroke-linecap: round"/>
     </g>
     <g id="text_5">
      <!-- 2024-09 -->
      <g style="fill: #262626" transform="translate(540.722169 531.593125) scale(0.1375 -0.1375)">
       <defs>
        <path id="SimHei-39" d="M 800 75 
Q 1350 1000 1700 1750 
Q 1075 1650 662 1912 
Q 250 2175 162 2625 
Q 75 3075 175 3437 
Q 275 3800 487 4037 
Q 700 4275 1000 4375 
Q 1300 4475 1537 4475 
Q 1775 4475 2025 4375 
Q 2275 4275 2475 4075 
Q 2675 3875 2750 3662 
Q 2825 3450 2825 3112 
Q 2825 2775 2575 2250 
Q 2325 1725 1350 75 
L 800 75 
z
M 662 2875 
Q 700 2550 937 2337 
Q 1175 2125 1450 2150 
Q 1725 2175 1887 2300 
Q 2050 2425 2200 2725 
Q 2300 3100 2250 3362 
Q 2200 3625 1987 3800 
Q 1775 3975 1525 3975 
Q 1375 4000 1137 3900 
Q 900 3800 762 3500 
Q 625 3200 662 2875 
z
" transform="scale(0.015625)"/>
       </defs>
       <use xlink:href="#SimHei-32"/>
       <use xlink:href="#SimHei-30" x="50"/>
       <use xlink:href="#SimHei-32" x="100"/>
       <use xlink:href="#SimHei-34" x="150"/>
       <use xlink:href="#SimHei-2d" x="200"/>
       <use xlink:href="#SimHei-30" x="250"/>
       <use xlink:href="#SimHei-39" x="300"/>
      </g>
     </g>
    </g>
    <g id="xtick_6">
     <g id="line2d_6">
      <path d="M 663.122496 512.64 
L 663.122496 69.12 
" clip-path="url(#pc94c0263e7)" style="fill: none; stroke: #ffffff; stroke-linecap: round"/>
     </g>
     <g id="text_6">
      <!-- 2024-11 -->
      <g style="fill: #262626" transform="translate(639.059996 531.593125) scale(0.1375 -0.1375)">
       <use xlink:href="#SimHei-32"/>
       <use xlink:href="#SimHei-30" x="50"/>
       <use xlink:href="#SimHei-32" x="100"/>
       <use xlink:href="#SimHei-34" x="150"/>
       <use xlink:href="#SimHei-2d" x="200"/>
       <use xlink:href="#SimHei-31" x="250"/>
       <use xlink:href="#SimHei-31" x="300"/>
      </g>
     </g>
    </g>
    <g id="xtick_7">
     <g id="line2d_7">
      <path d="M 761.460324 512.64 
L 761.460324 69.12 
" clip-path="url(#pc94c0263e7)" style="fill: none; stroke: #ffffff; stroke-linecap: round"/>
     </g>
     <g id="text_7">
      <!-- 2025-01 -->
      <g style="fill: #262626" transform="translate(737.397824 531.593125) scale(0.1375 -0.1375)">
       <use xlink:href="#SimHei-32"/>
       <use xlink:href="#SimHei-30" x="50"/>
       <use xlink:href="#SimHei-32" x="100"/>
       <use xlink:href="#SimHei-35" x="150"/>
       <use xlink:href="#SimHei-2d" x="200"/>
       <use xlink:href="#SimHei-30" x="250"/>
       <use xlink:href="#SimHei-31" x="300"/>
      </g>
     </g>
    </g>
    <g id="xtick_8">
     <g id="line2d_8">
      <path d="M 856.57396 512.64 
L 856.57396 69.12 
" clip-path="url(#pc94c0263e7)" style="fill: none; stroke: #ffffff; stroke-linecap: round"/>
     </g>
     <g id="text_8">
      <!-- 2025-03 -->
      <g style="fill: #262626" transform="translate(832.51146 531.593125) scale(0.1375 -0.1375)">
       <use xlink:href="#SimHei-32"/>
       <use xlink:href="#SimHei-30" x="50"/>
       <use xlink:href="#SimHei-32" x="100"/>
       <use xlink:href="#SimHei-35" x="150"/>
       <use xlink:href="#SimHei-2d" x="200"/>
       <use xlink:href="#SimHei-30" x="250"/>
       <use xlink:href="#SimHei-33" x="300"/>
      </g>
     </g>
    </g>
    <g id="xtick_9">
     <g id="line2d_9">
      <path d="M 954.911787 512.64 
L 954.911787 69.12 
" clip-path="url(#pc94c0263e7)" style="fill: none; stroke: #ffffff; stroke-linecap: round"/>
     </g>
     <g id="text_9">
      <!-- 2025-05 -->
      <g style="fill: #262626" transform="translate(930.849287 531.593125) scale(0.1375 -0.1375)">
       <use xlink:href="#SimHei-32"/>
       <use xlink:href="#SimHei-30" x="50"/>
       <use xlink:href="#SimHei-32" x="100"/>
       <use xlink:href="#SimHei-35" x="150"/>
       <use xlink:href="#SimHei-2d" x="200"/>
       <use xlink:href="#SimHei-30" x="250"/>
       <use xlink:href="#SimHei-35" x="300"/>
      </g>
     </g>
    </g>
    <g id="text_10">
     <!-- 日期 -->
     <g style="fill: #262626" transform="translate(538.5 548.854844) scale(0.15 -0.15)">
      <defs>
       <path id="SimHei-65e5" d="M 5375 5000 
Q 5350 3775 5350 2275 
Q 5350 775 5375 -450 
L 4800 -450 
L 4800 175 
L 1800 175 
L 1800 -575 
L 1250 -575 
Q 1275 575 1275 2125 
Q 1275 3675 1250 5000 
L 5375 5000 
z
M 4800 600 
L 4800 2375 
L 1800 2375 
L 1800 600 
L 4800 600 
z
M 4800 2800 
L 4800 4550 
L 1800 4550 
L 1800 2800 
L 4800 2800 
z
" transform="scale(0.015625)"/>
       <path id="SimHei-671f" d="M 4900 -25 
Q 5475 -100 5425 175 
L 5425 1575 
L 4325 1575 
Q 4275 975 4050 425 
Q 3825 -125 3400 -600 
Q 3225 -375 2925 -275 
Q 3350 150 3562 625 
Q 3775 1100 3812 1575 
Q 3850 2050 3850 3125 
Q 3850 4225 3825 4875 
L 5950 4875 
Q 5925 4400 5925 3725 
L 5925 50 
Q 5925 -300 5700 -425 
Q 5475 -550 5100 -600 
Q 5100 -325 4900 -25 
z
M 950 4300 
Q 950 4675 925 5125 
L 1450 5125 
Q 1425 4625 1425 4300 
L 2550 4300 
Q 2550 4775 2525 5125 
L 3075 5125 
Q 3050 4700 3050 4300 
Q 3225 4300 3500 4325 
L 3500 3900 
Q 3250 3925 3050 3925 
L 3050 1550 
Q 3250 1550 3500 1575 
L 3500 1150 
Q 3025 1175 2575 1175 
L 1225 1175 
Q 675 1175 275 1150 
L 275 1575 
Q 650 1550 950 1550 
L 950 3925 
Q 725 3925 425 3900 
L 425 4325 
Q 700 4300 950 4300 
z
M 5425 3375 
L 5425 4500 
L 4350 4500 
L 4350 3375 
L 5425 3375 
z
M 5425 1950 
L 5425 3000 
L 4350 3000 
L 4350 1950 
L 5425 1950 
z
M 1600 725 
Q 1425 650 1162 287 
Q 900 -75 650 -350 
Q 400 -175 225 -75 
Q 450 100 700 412 
Q 950 725 1100 1025 
L 1600 725 
z
M 2550 3375 
L 2550 3925 
L 1425 3925 
L 1425 3375 
L 2550 3375 
z
M 2550 1550 
L 2550 2100 
L 1425 2100 
L 1425 1550 
L 2550 1550 
z
M 2550 2475 
L 2550 3000 
L 1425 3000 
L 1425 2475 
L 2550 2475 
z
M 2850 -75 
Q 2450 525 2225 725 
Q 2375 825 2550 1025 
Q 2850 725 3250 275 
Q 3050 125 2850 -75 
z
" transform="scale(0.015625)"/>
      </defs>
      <use xlink:href="#SimHei-65e5"/>
      <use xlink:href="#SimHei-671f" x="100"/>
     </g>
    </g>
   </g>
   <g id="matplotlib.axis_2">
    <g id="ytick_1">
     <g id="line2d_10">
      <path d="M 135 481.54902 
L 972 481.54902 
" clip-path="url(#pc94c0263e7)" style="fill: none; stroke: #ffffff; stroke-linecap: round"/>
     </g>
     <g id="text_11">
      <!-- 100 -->
      <g style="fill: #262626" transform="translate(104.875 486.275582) scale(0.1375 -0.1375)">
       <use xlink:href="#SimHei-31"/>
       <use xlink:href="#SimHei-30" x="50"/>
       <use xlink:href="#SimHei-30" x="100"/>
      </g>
     </g>
    </g>
    <g id="ytick_2">
     <g id="line2d_11">
      <path d="M 135 404.799776 
L 972 404.799776 
" clip-path="url(#pc94c0263e7)" style="fill: none; stroke: #ffffff; stroke-linecap: round"/>
     </g>
     <g id="text_12">
      <!-- 110 -->
      <g style="fill: #262626" transform="translate(104.875 409.526338) scale(0.1375 -0.1375)">
       <use xlink:href="#SimHei-31"/>
       <use xlink:href="#SimHei-31" x="50"/>
       <use xlink:href="#SimHei-30" x="100"/>
      </g>
     </g>
    </g>
    <g id="ytick_3">
     <g id="line2d_12">
      <path d="M 135 328.050532 
L 972 328.050532 
" clip-path="url(#pc94c0263e7)" style="fill: none; stroke: #ffffff; stroke-linecap: round"/>
     </g>
     <g id="text_13">
      <!-- 120 -->
      <g style="fill: #262626" transform="translate(104.875 332.777094) scale(0.1375 -0.1375)">
       <use xlink:href="#SimHei-31"/>
       <use xlink:href="#SimHei-32" x="50"/>
       <use xlink:href="#SimHei-30" x="100"/>
      </g>
     </g>
    </g>
    <g id="ytick_4">
     <g id="line2d_13">
      <path d="M 135 251.301288 
L 972 251.301288 
" clip-path="url(#pc94c0263e7)" style="fill: none; stroke: #ffffff; stroke-linecap: round"/>
     </g>
     <g id="text_14">
      <!-- 130 -->
      <g style="fill: #262626" transform="translate(104.875 256.02785) scale(0.1375 -0.1375)">
       <use xlink:href="#SimHei-31"/>
       <use xlink:href="#SimHei-33" x="50"/>
       <use xlink:href="#SimHei-30" x="100"/>
      </g>
     </g>
    </g>
    <g id="ytick_5">
     <g id="line2d_14">
      <path d="M 135 174.552044 
L 972 174.552044 
" clip-path="url(#pc94c0263e7)" style="fill: none; stroke: #ffffff; stroke-linecap: round"/>
     </g>
     <g id="text_15">
      <!-- 140 -->
      <g style="fill: #262626" transform="translate(104.875 179.278606) scale(0.1375 -0.1375)">
       <use xlink:href="#SimHei-31"/>
       <use xlink:href="#SimHei-34" x="50"/>
       <use xlink:href="#SimHei-30" x="100"/>
      </g>
     </g>
    </g>
    <g id="ytick_6">
     <g id="line2d_15">
      <path d="M 135 97.8028 
L 972 97.8028 
" clip-path="url(#pc94c0263e7)" style="fill: none; stroke: #ffffff; stroke-linecap: round"/>
     </g>
     <g id="text_16">
      <!-- 150 -->
      <g style="fill: #262626" transform="translate(104.875 102.529362) scale(0.1375 -0.1375)">
       <use xlink:href="#SimHei-31"/>
       <use xlink:href="#SimHei-35" x="50"/>
       <use xlink:href="#SimHei-30" x="100"/>
      </g>
     </g>
    </g>
    <g id="text_17">
     <!-- 组合价值 -->
     <g style="fill: #262626" transform="translate(99 320.88) rotate(-90) scale(0.15 -0.15)">
      <defs>
       <path id="SimHei-7ec4" d="M 6125 -425 
Q 5750 -400 5225 -400 
L 3275 -400 
Q 2775 -400 2400 -425 
L 2400 50 
Q 2725 25 2950 25 
L 2950 3775 
Q 2950 4375 2900 4625 
L 5525 4625 
Q 5500 4400 5500 3775 
L 5500 25 
Q 5825 25 6125 50 
L 6125 -425 
z
M 1725 4825 
Q 1500 4550 1287 4137 
Q 1075 3725 725 3050 
Q 950 3050 1550 3075 
Q 1800 3550 1900 3975 
Q 2075 3825 2450 3675 
Q 2225 3350 1937 2875 
Q 1650 2400 1150 1625 
Q 1950 1725 2425 1775 
L 2425 1350 
Q 2100 1325 1575 1250 
Q 1050 1175 575 1050 
Q 550 1300 400 1575 
Q 675 1675 912 1975 
Q 1150 2275 1375 2725 
Q 1225 2725 950 2687 
Q 675 2650 425 2525 
Q 325 2825 225 3050 
Q 450 3300 712 3862 
Q 975 4425 1150 5075 
Q 1425 4925 1725 4825 
z
M 5025 25 
L 5025 1275 
L 3425 1275 
L 3425 25 
L 5025 25 
z
M 5025 3125 
L 5025 4225 
L 3425 4225 
L 3425 3125 
L 5025 3125 
z
M 5025 1700 
L 5025 2725 
L 3425 2725 
L 3425 1700 
L 5025 1700 
z
M 2375 175 
Q 1875 100 1375 -12 
Q 875 -125 450 -300 
Q 375 -75 250 250 
Q 925 325 1162 375 
Q 1400 425 2375 600 
L 2375 175 
z
" transform="scale(0.015625)"/>
       <path id="SimHei-5408" d="M 5050 1800 
Q 5025 1550 5025 650 
Q 5025 -250 5050 -525 
L 4525 -525 
L 4525 -50 
L 1750 -50 
L 1750 -600 
L 1250 -600 
Q 1275 -300 1275 550 
Q 1275 1425 1250 1800 
L 5050 1800 
z
M 3375 4800 
Q 4100 3925 4550 3600 
Q 5000 3275 5375 3100 
Q 5750 2925 6100 2825 
Q 5850 2550 5775 2300 
Q 5275 2525 4875 2775 
Q 4475 3025 4062 3412 
Q 3650 3800 3125 4475 
Q 2650 3800 2187 3362 
Q 1725 2925 1400 2675 
Q 1075 2425 675 2175 
Q 625 2275 275 2575 
Q 800 2825 1275 3175 
Q 1750 3525 2225 4062 
Q 2700 4600 3000 5225 
Q 3275 5050 3500 4950 
L 3375 4800 
z
M 4525 350 
L 4525 1400 
L 1750 1400 
L 1750 350 
L 4525 350 
z
M 3925 2825 
Q 4325 2825 4625 2850 
L 4625 2375 
Q 4300 2400 3950 2400 
L 2550 2400 
Q 2025 2400 1700 2375 
L 1700 2850 
Q 2175 2825 2550 2825 
L 3925 2825 
z
" transform="scale(0.015625)"/>
       <path id="SimHei-4ef7" d="M 2200 4975 
Q 2050 4725 1650 3775 
L 1650 450 
Q 1650 -225 1675 -650 
L 1175 -650 
Q 1175 -225 1200 450 
L 1200 2975 
Q 900 2425 650 2100 
Q 525 2275 225 2450 
Q 750 3025 1125 3800 
Q 1500 4575 1625 5175 
Q 1950 5025 2200 4975 
z
M 4175 4700 
Q 4850 3525 6150 2950 
Q 5925 2750 5775 2500 
Q 4725 3100 3950 4300 
Q 3300 3125 2250 2350 
Q 2125 2525 1900 2725 
Q 2825 3325 3250 4050 
Q 3675 4775 3750 5150 
Q 4150 4950 4325 4900 
L 4175 4700 
z
M 3475 2650 
Q 3400 2075 3325 1087 
Q 3250 100 2325 -675 
Q 2175 -450 1925 -300 
Q 2850 350 2912 1262 
Q 2975 2175 2950 2700 
Q 3275 2650 3475 2650 
z
M 5075 2700 
Q 5050 2150 5050 1725 
L 5050 150 
Q 5050 -225 5075 -650 
L 4550 -650 
Q 4575 -225 4575 175 
L 4575 1875 
Q 4575 2150 4550 2700 
L 5075 2700 
z
" transform="scale(0.015625)"/>
       <path id="SimHei-503c" d="M 3675 4450 
L 3675 5100 
Q 3975 5075 4350 5050 
Q 4225 4875 4200 4450 
L 5125 4450 
Q 5550 4450 5875 4475 
L 5875 4025 
Q 5525 4050 5125 4050 
L 4175 4050 
L 4125 3500 
L 5400 3500 
Q 5375 3200 5375 2700 
L 5375 150 
Q 5875 150 6100 175 
L 6100 -275 
Q 5775 -250 5200 -250 
L 2850 -250 
Q 2275 -250 1900 -275 
L 1900 175 
Q 2125 150 2600 150 
L 2600 2700 
Q 2600 3175 2575 3500 
L 3600 3500 
L 3650 4050 
L 3200 4050 
Q 2575 4050 2225 4025 
L 2225 4475 
Q 2550 4450 3200 4450 
L 3675 4450 
z
M 2225 4900 
Q 2025 4675 1650 3750 
L 1650 450 
Q 1650 -75 1675 -550 
L 1150 -550 
Q 1175 -125 1175 375 
L 1175 2950 
Q 875 2450 625 2150 
Q 425 2425 250 2575 
Q 500 2825 937 3537 
Q 1375 4250 1625 5150 
Q 1975 4975 2225 4900 
z
M 4925 2650 
L 4925 3150 
L 3075 3150 
L 3075 2650 
L 4925 2650 
z
M 4925 150 
L 4925 625 
L 3075 625 
L 3075 150 
L 4925 150 
z
M 4925 1000 
L 4925 1450 
L 3075 1450 
L 3075 1000 
L 4925 1000 
z
M 4925 1825 
L 4925 2275 
L 3075 2275 
L 3075 1825 
L 4925 1825 
z
" transform="scale(0.015625)"/>
      </defs>
      <use xlink:href="#SimHei-7ec4"/>
      <use xlink:href="#SimHei-5408" x="100"/>
      <use xlink:href="#SimHei-4ef7" x="200"/>
      <use xlink:href="#SimHei-503c" x="300"/>
     </g>
    </g>
   </g>
   <g id="line2d_16">
    <path d="M 173.045455 481.54902 
L 174.65755 481.344099 
L 176.269646 480.902157 
L 177.881741 479.841962 
L 182.718028 483.398973 
L 184.330123 479.85414 
L 185.942219 482.641627 
L 187.554314 482.868795 
L 189.16641 480.813207 
L 194.002696 475.977433 
L 195.614792 475.290088 
L 197.226888 482.984914 
L 198.838983 485.250151 
L 200.451079 481.644829 
L 205.287365 485.302938 
L 206.899461 484.360008 
L 208.511556 480.530949 
L 210.123652 477.894817 
L 211.735747 473.256081 
L 216.572034 471.551109 
L 218.184129 469.803007 
L 219.796225 472.309802 
L 221.40832 473.657328 
L 223.020416 469.585633 
L 227.856703 472.808012 
L 229.468798 471.305192 
L 231.080894 468.910266 
L 232.692989 464.776626 
L 250.42604 463.205403 
L 252.038136 462.367463 
L 253.650231 462.657923 
L 255.262327 459.020227 
L 256.874422 458.521214 
L 261.710709 461.565187 
L 263.322804 460.945772 
L 264.9349 462.11118 
L 266.546995 461.053644 
L 268.159091 457.43571 
L 272.995378 448.488147 
L 274.607473 440.570537 
L 276.219569 436.747136 
L 277.831664 429.709499 
L 279.44376 427.656962 
L 284.280046 428.398299 
L 285.892142 435.123528 
L 287.504237 435.864315 
L 289.116333 434.428889 
L 290.728428 432.576716 
L 295.564715 436.738208 
L 297.17681 436.931892 
L 298.788906 434.374942 
L 300.401002 420.994575 
L 302.013097 425.506778 
L 306.849384 424.354873 
L 308.461479 422.540409 
L 310.073575 421.060482 
L 311.68567 416.539333 
L 313.297766 403.399875 
L 318.134052 399.358597 
L 319.746148 397.848755 
L 321.358243 388.929413 
L 329.418721 374.72773 
L 331.030817 374.356254 
L 332.642912 371.974827 
L 334.255008 375.235635 
L 335.867103 356.939156 
L 340.70339 362.806993 
L 342.315485 362.36108 
L 343.927581 357.766155 
L 345.539676 359.827305 
L 347.151772 358.444146 
L 351.988059 374.564086 
L 353.600154 391.580174 
L 355.21225 383.348381 
L 356.824345 383.45008 
L 358.436441 379.805681 
L 363.272727 383.713319 
L 364.884823 383.753468 
L 374.557396 386.018971 
L 376.169492 383.531999 
L 377.781587 383.355193 
L 379.393683 382.924137 
L 381.005778 369.129391 
L 385.842065 370.497089 
L 387.45416 371.888336 
L 389.066256 367.347234 
L 390.678351 360.452903 
L 392.290447 359.25035 
L 397.126733 342.837624 
L 398.738829 348.77067 
L 400.350924 347.274929 
L 401.96302 361.577995 
L 403.575116 368.41605 
L 408.411402 360.909404 
L 410.023498 362.051985 
L 411.635593 358.457636 
L 413.247689 367.08579 
L 414.859784 364.196232 
L 419.696071 371.660023 
L 421.308166 365.640677 
L 422.920262 370.625546 
L 424.532357 360.007686 
L 426.144453 357.346126 
L 432.592835 377.823137 
L 434.204931 370.962742 
L 435.817026 371.349851 
L 437.429122 370.552247 
L 442.265408 372.420781 
L 443.877504 369.142787 
L 445.489599 366.486446 
L 447.101695 361.068806 
L 448.71379 360.267645 
L 453.550077 372.179571 
L 455.162173 370.985829 
L 456.774268 370.558426 
L 458.386364 373.020685 
L 459.998459 362.779971 
L 466.446841 356.674799 
L 468.058937 354.145545 
L 471.283128 351.604644 
L 476.119414 349.255437 
L 477.73151 346.026431 
L 479.343606 348.914257 
L 480.955701 346.579849 
L 482.567797 350.001598 
L 487.404083 342.598814 
L 489.016179 337.632197 
L 490.628274 334.388812 
L 492.24037 335.550889 
L 493.852465 354.345973 
L 498.688752 358.878202 
L 500.300847 360.723131 
L 501.912943 356.918162 
L 503.525039 374.240152 
L 505.137134 373.123829 
L 509.973421 364.218208 
L 511.585516 367.371174 
L 513.197612 359.814306 
L 514.809707 354.262386 
L 516.421803 358.395753 
L 521.258089 382.722325 
L 522.870185 384.025338 
L 524.48228 381.042651 
L 526.094376 382.673108 
L 527.706471 374.898647 
L 532.542758 369.37839 
L 534.154854 363.845868 
L 535.766949 363.754845 
L 537.379045 359.9347 
L 538.99114 353.218142 
L 543.827427 345.767166 
L 545.439522 345.896736 
L 547.051618 346.849862 
L 548.663713 347.452166 
L 550.275809 350.317209 
L 555.112096 347.744886 
L 556.724191 347.654625 
L 558.336287 349.874405 
L 559.948382 358.832611 
L 561.560478 360.628791 
L 566.396764 361.92932 
L 568.00886 364.116801 
L 569.620955 373.447216 
L 571.233051 370.543432 
L 572.845146 370.49302 
L 577.681433 378.808118 
L 579.293529 375.125003 
L 580.905624 378.325465 
L 582.51772 374.697659 
L 584.129815 367.013757 
L 592.190293 363.891688 
L 593.802388 362.934751 
L 595.414484 357.892962 
L 600.25077 349.666658 
L 601.862866 338.543622 
L 603.474961 331.004713 
L 605.087057 320.02673 
L 606.699153 326.634971 
L 611.535439 309.708664 
L 624.432203 306.323864 
L 626.044299 331.303462 
L 627.656394 314.631517 
L 629.26849 312.84971 
L 634.104777 299.191857 
L 635.716872 302.974207 
L 637.328968 291.328663 
L 638.941063 291.440484 
L 640.553159 287.001506 
L 645.389445 282.452334 
L 647.001541 281.672635 
L 648.613636 278.216623 
L 650.225732 286.722017 
L 651.837827 286.947966 
L 656.674114 283.150619 
L 658.28621 282.784808 
L 659.898305 274.218145 
L 661.510401 280.231237 
L 663.122496 283.154604 
L 667.958783 285.62282 
L 669.570878 283.59254 
L 671.182974 280.3367 
L 672.795069 284.878406 
L 674.407165 284.715133 
L 679.243451 286.23683 
L 680.855547 298.165427 
L 682.467643 298.542604 
L 684.079738 311.467441 
L 685.691834 313.542205 
L 690.52812 301.935162 
L 692.140216 291.443373 
L 693.752311 289.032596 
L 695.364407 282.363087 
L 696.976502 280.494255 
L 701.812789 287.870174 
L 703.424884 294.545009 
L 705.03698 286.191187 
L 706.649076 290.554964 
L 708.261171 284.538459 
L 713.097458 289.138917 
L 714.709553 278.363408 
L 716.321649 277.008202 
L 717.933744 276.130558 
L 719.54584 275.858174 
L 724.382126 269.888246 
L 725.994222 268.192434 
L 727.606317 262.977741 
L 729.218413 256.338072 
L 730.830508 264.576908 
L 735.666795 263.755717 
L 737.278891 262.743985 
L 738.890986 259.301553 
L 740.503082 271.700037 
L 742.115177 275.884286 
L 746.951464 262.862475 
L 748.563559 265.030487 
L 750.175655 260.491939 
L 753.399846 260.473593 
L 758.236133 263.180632 
L 759.848228 264.463401 
L 763.072419 264.579029 
L 769.520801 263.331062 
L 771.132897 263.298034 
L 772.744992 260.548686 
L 775.969183 260.604583 
L 780.80547 266.397823 
L 782.417565 264.893119 
L 784.029661 261.973059 
L 785.641757 254.593709 
L 787.253852 253.861826 
L 792.090139 252.824589 
L 793.702234 254.650496 
L 795.31433 253.283342 
L 796.926425 249.906231 
L 798.538521 246.053995 
L 803.374807 248.296101 
L 817.883667 232.145944 
L 819.495763 234.372761 
L 821.107858 232.854211 
L 825.944145 225.828875 
L 827.55624 216.674061 
L 829.168336 219.707449 
L 830.780431 215.378305 
L 832.392527 211.426596 
L 837.228814 221.33091 
L 838.840909 214.074935 
L 840.453005 211.815151 
L 842.0651 212.465332 
L 843.677196 220.029199 
L 848.513482 222.944576 
L 850.125578 227.456525 
L 851.737673 230.358529 
L 853.349769 229.593082 
L 854.961864 241.426565 
L 859.798151 237.957148 
L 861.410247 236.359243 
L 863.022342 228.543721 
L 864.634438 230.815248 
L 866.246533 235.29967 
L 871.08282 236.13542 
L 872.694915 245.307061 
L 874.307011 242.988589 
L 875.919106 238.311638 
L 877.531202 226.417841 
L 882.367488 224.55905 
L 883.979584 219.098917 
L 885.59168 212.88082 
L 887.203775 209.650018 
L 888.815871 214.0678 
L 893.652157 208.468394 
L 895.264253 204.942217 
L 896.876348 204.221342 
L 898.488444 205.104848 
L 900.100539 196.598894 
L 904.936826 197.706721 
L 906.548921 190.548061 
L 908.161017 190.781083 
L 909.773112 188.003316 
L 916.221495 239.575702 
L 917.83359 223.055726 
L 919.445686 218.506959 
L 921.057781 188.248411 
L 922.669877 181.664598 
L 927.506163 172.906022 
L 929.118259 172.245115 
L 930.730354 159.258367 
L 932.34245 153.625472 
L 933.954545 152.256267 
L 933.954545 152.256267 
" clip-path="url(#pc94c0263e7)" style="fill: none; stroke: #9355b0; stroke-width: 1.5; stroke-linecap: round"/>
   </g>
   <g id="line2d_17">
    <path d="M 173.045455 481.54902 
L 176.269646 475.327602 
L 177.881741 474.180598 
L 182.718028 479.532209 
L 184.330123 475.753015 
L 185.942219 479.055432 
L 187.554314 481.545602 
L 189.16641 478.970193 
L 194.002696 473.845623 
L 195.614792 471.618784 
L 197.226888 480.402729 
L 198.838983 483.67501 
L 200.451079 483.031074 
L 205.287365 492.48 
L 206.899461 490.019712 
L 208.511556 481.94788 
L 210.123652 472.8026 
L 211.735747 465.303562 
L 216.572034 464.235961 
L 218.184129 465.097864 
L 219.796225 467.126635 
L 221.40832 467.510444 
L 223.020416 463.316835 
L 227.856703 467.265228 
L 229.468798 466.917362 
L 231.080894 465.238836 
L 232.692989 460.63439 
L 250.42604 461.126286 
L 252.038136 460.930737 
L 253.650231 461.631763 
L 255.262327 458.869102 
L 256.874422 458.621622 
L 261.710709 459.452431 
L 263.322804 459.438805 
L 264.9349 460.011995 
L 266.546995 459.542039 
L 268.159091 455.562956 
L 272.995378 446.018186 
L 274.607473 437.78786 
L 276.219569 433.410555 
L 277.831664 426.083544 
L 279.44376 424.194962 
L 284.280046 424.658205 
L 285.892142 430.797093 
L 287.504237 431.522813 
L 289.116333 430.127032 
L 290.728428 428.182096 
L 295.564715 432.620154 
L 297.17681 432.648946 
L 298.788906 430.193398 
L 300.401002 416.333818 
L 302.013097 420.90578 
L 306.849384 419.755797 
L 310.073575 416.089861 
L 311.68567 411.38172 
L 313.297766 398.068501 
L 319.746148 392.530912 
L 321.358243 383.464681 
L 329.418721 376.593922 
L 331.030817 377.678181 
L 332.642912 376.107087 
L 334.255008 379.258263 
L 335.867103 366.514264 
L 340.70339 366.949117 
L 342.315485 376.871624 
L 343.927581 371.856775 
L 345.539676 373.695682 
L 347.151772 378.56409 
L 351.988059 390.64479 
L 353.600154 399.598529 
L 355.21225 387.987643 
L 356.824345 392.31187 
L 358.436441 388.399954 
L 363.272727 389.075832 
L 364.884823 388.015756 
L 374.557396 387.763882 
L 376.169492 384.072465 
L 377.781587 382.937854 
L 379.393683 380.611481 
L 381.005778 373.674067 
L 385.842065 370.451788 
L 387.45416 371.386647 
L 389.066256 368.669706 
L 390.678351 361.560515 
L 392.290447 359.475106 
L 397.126733 350.540105 
L 398.738829 349.804189 
L 400.350924 348.119921 
L 401.96302 352.962597 
L 403.575116 360.400331 
L 408.411402 347.886698 
L 410.023498 348.952867 
L 411.635593 348.79514 
L 413.247689 357.642386 
L 414.859784 356.761535 
L 419.696071 362.512587 
L 421.308166 359.700112 
L 422.920262 364.484453 
L 424.532357 353.748326 
L 426.144453 349.039982 
L 432.592835 360.25175 
L 434.204931 350.971274 
L 435.817026 348.09987 
L 437.429122 347.321213 
L 442.265408 350.002182 
L 443.877504 341.684219 
L 445.489599 340.894328 
L 447.101695 336.148774 
L 448.71379 341.138385 
L 453.550077 349.067981 
L 455.162173 351.392142 
L 456.774268 342.653852 
L 458.386364 341.627311 
L 459.998459 329.396168 
L 464.834746 322.950908 
L 466.446841 320.577135 
L 468.058937 317.243003 
L 469.671032 319.065368 
L 471.283128 317.324033 
L 476.119414 311.278403 
L 477.73151 302.626883 
L 479.343606 311.169883 
L 480.955701 309.639034 
L 482.567797 322.980107 
L 487.404083 307.244789 
L 489.016179 305.776498 
L 490.628274 309.213729 
L 492.24037 312.267381 
L 493.852465 328.821245 
L 498.688752 336.502909 
L 500.300847 335.309121 
L 501.912943 338.656191 
L 503.525039 354.176924 
L 505.137134 353.813284 
L 509.973421 340.623942 
L 511.585516 347.389002 
L 513.197612 339.446089 
L 514.809707 334.306504 
L 516.421803 334.834321 
L 521.258089 349.29513 
L 522.870185 354.474787 
L 524.48228 350.253903 
L 526.094376 350.580615 
L 527.706471 346.491021 
L 532.542758 342.385262 
L 534.154854 338.454439 
L 535.766949 340.891922 
L 537.379045 334.298182 
L 538.99114 330.837123 
L 543.827427 319.002091 
L 547.051618 329.202775 
L 548.663713 328.197973 
L 550.275809 329.915978 
L 555.112096 327.583688 
L 556.724191 324.393403 
L 558.336287 328.26143 
L 559.948382 341.865755 
L 561.560478 345.174539 
L 566.396764 347.15039 
L 568.00886 350.363849 
L 569.620955 353.943062 
L 571.233051 351.332467 
L 572.845146 353.120578 
L 577.681433 363.156109 
L 579.293529 359.335035 
L 580.905624 365.684082 
L 582.51772 365.253694 
L 584.129815 359.08131 
L 592.190293 352.635283 
L 593.802388 353.778922 
L 595.414484 348.587111 
L 600.25077 339.785125 
L 601.862866 323.499319 
L 603.474961 312.998849 
L 605.087057 300.170344 
L 606.699153 303.939181 
L 611.535439 279.295204 
L 624.432203 277.473157 
L 626.044299 293.703133 
L 627.656394 284.364371 
L 629.26849 276.219627 
L 634.104777 264.924307 
L 635.716872 265.989908 
L 637.328968 252.324751 
L 638.941063 249.808723 
L 640.553159 243.699469 
L 645.389445 233.333874 
L 647.001541 233.339925 
L 648.613636 227.74275 
L 650.225732 237.646105 
L 651.837827 237.354882 
L 656.674114 233.892917 
L 658.28621 227.683994 
L 659.898305 216.381417 
L 661.510401 222.675659 
L 663.122496 229.813979 
L 667.958783 235.958135 
L 669.570878 235.38025 
L 671.182974 231.144094 
L 672.795069 239.69217 
L 674.407165 237.305268 
L 679.243451 237.692114 
L 680.855547 250.803546 
L 682.467643 252.26977 
L 684.079738 266.899646 
L 685.691834 269.068206 
L 690.52812 257.670015 
L 692.140216 245.031557 
L 693.752311 242.456912 
L 695.364407 234.138451 
L 696.976502 227.585956 
L 701.812789 237.149603 
L 703.424884 245.637362 
L 705.03698 237.209838 
L 706.649076 242.218638 
L 708.261171 235.161587 
L 713.097458 240.952998 
L 714.709553 228.825711 
L 716.321649 225.9868 
L 717.933744 223.675866 
L 719.54584 223.358079 
L 724.382126 215.790313 
L 725.994222 215.699267 
L 727.606317 212.15651 
L 729.218413 203.425904 
L 730.830508 209.267872 
L 735.666795 204.322081 
L 737.278891 198.666451 
L 738.890986 191.731393 
L 740.503082 209.24478 
L 742.115177 218.027238 
L 746.951464 198.448073 
L 748.563559 201.424901 
L 750.175655 195.216765 
L 751.78775 195.060657 
L 753.399846 196.856312 
L 759.848228 203.623001 
L 763.072419 205.161073 
L 764.684515 204.507717 
L 769.520801 207.141589 
L 771.132897 205.33007 
L 772.744992 201.106983 
L 774.357088 200.996617 
L 775.969183 201.289447 
L 780.80547 204.819417 
L 782.417565 204.430523 
L 784.029661 199.843295 
L 785.641757 193.815436 
L 787.253852 192.989038 
L 792.090139 193.395947 
L 793.702234 196.192955 
L 795.31433 195.265052 
L 796.926425 189.438389 
L 798.538521 184.822454 
L 803.374807 182.939143 
L 817.883667 164.241081 
L 819.495763 165.787103 
L 821.107858 164.361528 
L 825.944145 158.732696 
L 827.55624 148.995641 
L 829.168336 151.034669 
L 830.780431 146.742932 
L 832.392527 143.368089 
L 837.228814 151.758032 
L 838.840909 145.172467 
L 840.453005 143.657947 
L 842.0651 145.196164 
L 843.677196 153.231317 
L 848.513482 156.649484 
L 850.125578 162.335764 
L 851.737673 163.012195 
L 853.349769 160.250875 
L 854.961864 171.836057 
L 859.798151 168.792985 
L 861.410247 167.60022 
L 863.022342 159.470242 
L 864.634438 162.523308 
L 866.246533 165.039065 
L 871.08282 167.262199 
L 872.694915 169.026651 
L 874.307011 166.488902 
L 875.919106 160.596393 
L 877.531202 148.643718 
L 882.367488 146.069701 
L 883.979584 143.27566 
L 885.59168 135.394304 
L 887.203775 135.685397 
L 888.815871 139.309084 
L 893.652157 135.202585 
L 895.264253 131.227147 
L 896.876348 131.492873 
L 898.488444 129.478563 
L 900.100539 122.84946 
L 904.936826 119.703797 
L 906.548921 114.404636 
L 908.161017 112.7849 
L 909.773112 108.3336 
L 916.221495 164.896201 
L 917.83359 144.65532 
L 919.445686 143.073118 
L 921.057781 126.636824 
L 922.669877 124.013877 
L 927.506163 115.407954 
L 929.118259 108.954162 
L 930.730354 95.463903 
L 932.34245 91.792352 
L 933.954545 89.28 
L 933.954545 89.28 
" clip-path="url(#pc94c0263e7)" style="fill: none; stroke: #85a8d3; stroke-width: 1.5; stroke-linecap: round"/>
   </g>
   <g id="line2d_18">
    <path d="M 173.045455 481.54902 
L 174.65755 480.726538 
L 176.269646 479.536159 
L 177.881741 478.551603 
L 182.718028 482.568747 
L 184.330123 478.660065 
L 185.942219 481.533952 
L 187.554314 482.226203 
L 189.16641 480.103466 
L 194.002696 475.176794 
L 195.614792 474.183382 
L 197.226888 482.103675 
L 198.838983 484.549981 
L 200.451079 481.600815 
L 205.287365 486.464688 
L 206.899461 485.237537 
L 208.511556 480.152494 
L 210.123652 475.701703 
L 211.735747 470.382443 
L 216.572034 468.782895 
L 218.184129 467.58145 
L 219.796225 469.679866 
L 221.40832 470.001898 
L 223.020416 465.637768 
L 227.856703 469.617634 
L 229.468798 469.442018 
L 231.080894 467.951842 
L 232.692989 463.160015 
L 250.42604 464.026525 
L 252.038136 463.96635 
L 253.650231 464.821145 
L 255.262327 462.080538 
L 256.874422 461.779719 
L 263.322804 462.409515 
L 264.9349 462.850259 
L 266.546995 462.529807 
L 268.159091 458.432267 
L 272.995378 448.790675 
L 274.607473 440.692354 
L 276.219569 436.2928 
L 277.831664 430.53243 
L 279.44376 427.302407 
L 284.280046 429.587303 
L 285.892142 436.876842 
L 287.504237 437.138738 
L 289.116333 435.656997 
L 290.728428 434.669045 
L 295.564715 438.040695 
L 297.17681 438.937219 
L 298.788906 436.130268 
L 300.401002 423.581247 
L 302.013097 427.691145 
L 306.849384 426.854326 
L 308.461479 424.87859 
L 310.073575 424.145998 
L 311.68567 420.405478 
L 313.297766 408.790987 
L 318.134052 404.804285 
L 319.746148 403.320756 
L 321.358243 395.946707 
L 329.418721 385.19137 
L 331.030817 385.721107 
L 332.642912 383.747579 
L 334.255008 386.062167 
L 335.867103 371.196839 
L 340.70339 373.51153 
L 342.315485 376.880771 
L 343.927581 371.4007 
L 345.539676 373.237673 
L 347.151772 374.089837 
L 351.988059 388.722955 
L 353.600154 402.452321 
L 355.21225 393.74129 
L 356.824345 394.882855 
L 358.436441 392.047683 
L 363.272727 394.677935 
L 364.884823 394.121378 
L 374.557396 394.978108 
L 376.169492 392.188971 
L 377.781587 391.433895 
L 379.393683 390.267674 
L 381.005778 378.577157 
L 385.842065 378.612121 
L 387.45416 379.998933 
L 389.066256 376.226752 
L 390.678351 369.644423 
L 392.290447 368.012371 
L 397.126733 353.693002 
L 398.738829 357.733536 
L 400.350924 356.341165 
L 401.96302 368.269971 
L 403.575116 374.788437 
L 408.411402 365.857121 
L 410.023498 367.135876 
L 411.635593 364.398095 
L 413.247689 372.923362 
L 414.859784 370.548979 
L 419.696071 377.807155 
L 421.308166 372.619614 
L 422.920262 377.968208 
L 424.532357 367.501257 
L 426.144453 364.096101 
L 432.592835 381.107068 
L 434.204931 373.461227 
L 435.817026 372.850602 
L 437.429122 372.044595 
L 442.265408 374.304531 
L 443.877504 369.354468 
L 445.489599 367.351202 
L 447.101695 362.307301 
L 448.71379 363.496779 
L 453.550077 373.916003 
L 455.162173 373.880343 
L 456.774268 370.566479 
L 458.386364 371.794977 
L 459.998459 360.981082 
L 466.446841 353.864597 
L 468.058937 351.262515 
L 469.671032 351.137869 
L 471.283128 349.634732 
L 476.119414 347.094898 
L 477.73151 344.052631 
L 479.343606 346.566239 
L 480.955701 344.212108 
L 482.567797 347.784636 
L 487.404083 340.371619 
L 489.016179 335.180313 
L 490.628274 331.723574 
L 492.24037 333.01818 
L 493.852465 352.172152 
L 498.688752 356.616656 
L 500.300847 358.414756 
L 501.912943 354.519817 
L 503.525039 372.227167 
L 505.137134 370.899362 
L 509.973421 361.837145 
L 511.585516 364.908386 
L 513.197612 357.383384 
L 514.809707 351.693405 
L 516.421803 355.902956 
L 521.258089 375.95503 
L 522.870185 377.91888 
L 524.48228 374.633753 
L 526.094376 375.908654 
L 527.706471 369.818114 
L 532.542758 365.218914 
L 534.154854 360.551988 
L 535.766949 360.963848 
L 538.99114 348.393551 
L 543.827427 339.514715 
L 545.439522 341.86905 
L 547.051618 345.765697 
L 548.663713 345.282084 
L 550.275809 347.557665 
L 555.112096 345.741934 
L 556.724191 344.095588 
L 558.336287 347.304399 
L 559.948382 360.420873 
L 561.560478 363.018936 
L 566.396764 364.223282 
L 568.00886 367.449253 
L 569.620955 373.785548 
L 571.233051 371.509355 
L 572.845146 372.800979 
L 577.681433 382.224631 
L 579.293529 378.771636 
L 580.905624 384.698707 
L 582.51772 382.274988 
L 584.129815 376.189105 
L 592.190293 370.789515 
L 593.802388 370.745808 
L 595.414484 366.30991 
L 600.25077 357.79779 
L 601.862866 342.232143 
L 603.474961 333.023181 
L 605.087057 319.975829 
L 606.699153 324.844277 
L 611.535439 301.568204 
L 624.432203 299.870615 
L 626.044299 315.640516 
L 627.656394 305.266532 
L 629.26849 298.388723 
L 634.104777 287.26611 
L 635.716872 288.058654 
L 637.328968 275.825762 
L 638.941063 273.597898 
L 640.553159 268.354659 
L 645.389445 259.500481 
L 647.001541 259.39612 
L 648.613636 254.41006 
L 650.225732 263.926498 
L 651.837827 263.734071 
L 656.674114 259.945614 
L 658.28621 255.121834 
L 659.898305 243.747095 
L 663.122496 256.739398 
L 667.958783 262.135261 
L 669.570878 259.487549 
L 671.182974 256.613864 
L 672.795069 260.209027 
L 674.407165 260.770513 
L 679.243451 262.74386 
L 680.855547 274.837793 
L 682.467643 274.83383 
L 684.079738 287.810827 
L 685.691834 289.872228 
L 690.52812 277.647078 
L 692.140216 267.394167 
L 693.752311 265.009436 
L 695.364407 258.551461 
L 696.976502 258.190845 
L 701.812789 265.231577 
L 703.424884 271.613893 
L 705.03698 262.901441 
L 706.649076 267.215898 
L 708.261171 261.273639 
L 713.097458 265.701178 
L 714.709553 253.774327 
L 716.321649 251.003877 
L 717.933744 249.007622 
L 719.54584 246.248368 
L 724.382126 239.427146 
L 725.994222 239.584018 
L 727.606317 236.534053 
L 729.218413 229.276239 
L 730.830508 236.870883 
L 735.666795 229.206536 
L 737.278891 225.591523 
L 738.890986 218.279304 
L 740.503082 235.095211 
L 742.115177 243.814888 
L 746.951464 226.812457 
L 748.563559 227.58785 
L 750.175655 221.279285 
L 751.78775 221.673178 
L 758.236133 225.479288 
L 759.848228 227.18099 
L 763.072419 228.994118 
L 764.684515 229.062177 
L 769.520801 230.229965 
L 771.132897 228.99847 
L 772.744992 225.346274 
L 774.357088 225.710889 
L 775.969183 226.448711 
L 780.80547 231.138944 
L 782.417565 229.714781 
L 784.029661 225.786498 
L 785.641757 219.163157 
L 787.253852 218.525356 
L 792.090139 218.339872 
L 793.702234 221.010784 
L 795.31433 220.555145 
L 796.926425 215.207788 
L 798.538521 210.917118 
L 803.374807 210.047679 
L 817.883667 193.887575 
L 819.495763 197.664968 
L 821.107858 195.547171 
L 825.944145 184.82219 
L 827.55624 174.801055 
L 829.168336 179.64904 
L 832.392527 170.14818 
L 837.228814 183.492775 
L 838.840909 175.019453 
L 840.453005 170.832075 
L 842.0651 169.90026 
L 843.677196 177.949608 
L 848.513482 178.940363 
L 850.125578 181.73641 
L 851.737673 187.546539 
L 853.349769 188.750774 
L 854.961864 199.239982 
L 859.798151 196.635197 
L 861.410247 192.531417 
L 863.022342 184.525081 
L 864.634438 187.368025 
L 866.246533 191.056194 
L 871.08282 193.37509 
L 872.694915 198.204243 
L 874.307011 195.89686 
L 875.919106 190.904072 
L 877.531202 179.516159 
L 882.367488 177.000259 
L 883.979584 173.641973 
L 885.59168 167.160229 
L 887.203775 165.880728 
L 888.815871 169.665665 
L 893.652157 164.309472 
L 895.264253 159.792798 
L 896.876348 160.117587 
L 898.488444 159.67243 
L 900.100539 154.142438 
L 904.936826 154.450481 
L 906.548921 148.454086 
L 908.161017 146.878032 
L 909.773112 142.445165 
L 916.221495 196.232439 
L 917.83359 177.405902 
L 919.445686 174.972984 
L 921.057781 156.981778 
L 922.669877 153.324201 
L 927.506163 144.887579 
L 929.118259 139.513775 
L 930.730354 125.721926 
L 932.34245 121.641951 
L 933.954545 119.296448 
L 933.954545 119.296448 
" clip-path="url(#pc94c0263e7)" style="fill: none; stroke: #ebacca; stroke-width: 1.5; stroke-linecap: round"/>
   </g>
   <g id="line2d_19">
    <path d="M 173.045455 481.54902 
L 174.65755 480.177216 
L 176.269646 478.532048 
L 177.881741 477.480326 
L 182.718028 481.808313 
L 184.330123 478.020711 
L 185.942219 481.008276 
L 187.554314 482.154835 
L 189.16641 479.906333 
L 194.002696 474.93837 
L 195.614792 473.62991 
L 197.226888 481.768004 
L 198.838983 484.4305 
L 200.451079 482.051768 
L 205.287365 488.076004 
L 206.899461 486.525934 
L 211.735747 469.431613 
L 216.572034 467.973079 
L 218.184129 467.288378 
L 219.796225 469.195521 
L 221.40832 469.346921 
L 223.020416 465.1396 
L 227.856703 469.245425 
L 229.468798 469.177009 
L 231.080894 467.67865 
L 232.692989 462.979019 
L 250.42604 463.965152 
L 252.038136 463.924689 
L 253.650231 464.722124 
L 255.262327 462.178775 
L 256.874422 461.99122 
L 263.322804 462.422685 
L 264.9349 462.851289 
L 266.546995 462.524731 
L 268.159091 458.475118 
L 272.995378 448.82729 
L 274.607473 440.558758 
L 276.219569 436.067815 
L 277.831664 430.44297 
L 279.44376 427.13052 
L 284.280046 429.559602 
L 285.892142 437.238996 
L 287.504237 437.525995 
L 289.116333 436.015252 
L 290.728428 435.059085 
L 297.17681 439.269753 
L 298.788906 436.395569 
L 300.401002 424.098188 
L 302.013097 428.193422 
L 306.849384 427.343296 
L 308.461479 425.397221 
L 310.073575 424.852233 
L 311.68567 421.198926 
L 313.297766 409.616674 
L 318.134052 405.75057 
L 319.746148 404.119049 
L 321.358243 396.771548 
L 329.418721 387.070853 
L 331.030817 387.827458 
L 332.642912 385.973372 
L 334.255008 388.188031 
L 335.867103 374.20161 
L 340.70339 375.651386 
L 342.315485 380.397092 
L 343.927581 374.799811 
L 347.151772 378.270535 
L 351.988059 392.353132 
L 353.600154 404.968507 
L 355.21225 395.884924 
L 356.824345 397.540087 
L 358.436441 394.754761 
L 363.272727 396.944885 
L 364.884823 396.224801 
L 374.557396 396.701365 
L 376.169492 393.767277 
L 377.781587 392.864346 
L 379.393683 391.39941 
L 381.005778 380.714324 
L 385.842065 380.089685 
L 387.45416 381.42911 
L 389.066256 377.955075 
L 390.678351 371.398588 
L 392.290447 369.615218 
L 397.126733 356.363048 
L 398.738829 359.450206 
L 400.350924 358.05423 
L 401.96302 368.674816 
L 403.575116 375.20454 
L 408.411402 365.562082 
L 410.023498 366.852897 
L 411.635593 364.587912 
L 413.247689 373.11731 
L 414.859784 371.02189 
L 419.696071 378.074728 
L 421.308166 373.334231 
L 422.920262 378.714148 
L 424.532357 368.310216 
L 426.144453 364.53603 
L 432.592835 380.006742 
L 434.204931 371.96938 
L 435.817026 370.940673 
L 437.429122 370.120643 
L 442.265408 372.611208 
L 443.877504 366.885321 
L 445.489599 365.172532 
L 447.101695 360.313879 
L 448.71379 362.422003 
L 453.550077 372.189643 
L 455.162173 372.665915 
L 456.774268 368.00703 
L 458.386364 368.665538 
L 459.998459 357.553486 
L 466.446841 349.897695 
L 468.058937 347.311756 
L 469.671032 347.71877 
L 471.283128 345.95721 
L 476.119414 342.547123 
L 477.73151 338.667711 
L 479.343606 341.882379 
L 480.955701 339.674538 
L 482.567797 345.256897 
L 487.404083 336.275994 
L 489.016179 331.565525 
L 490.628274 329.201921 
L 492.24037 330.978033 
L 493.852465 349.937073 
L 498.688752 354.880145 
L 500.300847 356.039983 
L 501.912943 353.45372 
L 503.525039 371.081178 
L 505.137134 369.707009 
L 509.973421 359.719125 
L 511.585516 363.39195 
L 513.197612 355.861973 
L 514.809707 350.151826 
L 516.421803 354.149641 
L 521.258089 373.114356 
L 522.870185 375.389429 
L 524.48228 371.994143 
L 526.094376 373.148976 
L 527.706471 367.475905 
L 532.542758 363.06819 
L 534.154854 358.597586 
L 535.766949 359.220791 
L 537.379045 352.479265 
L 538.99114 346.44807 
L 543.827427 337.137737 
L 545.439522 340.044948 
L 547.051618 344.536596 
L 548.663713 343.831598 
L 550.275809 345.970131 
L 555.112096 344.255067 
L 556.724191 342.242451 
L 558.336287 345.664756 
L 559.948382 359.538486 
L 561.560478 362.266367 
L 566.396764 363.431225 
L 568.00886 366.854185 
L 569.620955 372.742067 
L 571.233051 370.587113 
L 572.845146 372.111942 
L 577.681433 381.73802 
L 579.293529 378.331841 
L 580.905624 384.755805 
L 582.51772 382.484119 
L 584.129815 376.679584 
L 592.190293 370.888975 
L 593.802388 370.974144 
L 595.414484 366.663449 
L 600.25077 358.091803 
L 601.862866 341.710724 
L 603.474961 332.218859 
L 605.087057 318.759779 
L 606.699153 323.352706 
L 611.535439 298.904585 
L 624.432203 297.259755 
L 626.044299 312.676803 
L 627.656394 302.841482 
L 629.26849 295.477003 
L 634.104777 284.460961 
L 635.716872 285.177006 
L 637.328968 272.637467 
L 638.941063 270.247277 
L 640.553159 264.792591 
L 645.389445 255.437568 
L 647.001541 255.388272 
L 648.613636 250.212872 
L 650.225732 259.833839 
L 651.837827 259.601363 
L 656.674114 255.894928 
L 658.28621 250.57923 
L 659.898305 239.123091 
L 663.122496 252.361578 
L 667.958783 258.039559 
L 669.570878 255.490216 
L 671.182974 252.533641 
L 672.795069 256.382217 
L 674.407165 256.796409 
L 679.243451 258.694897 
L 680.855547 270.872128 
L 682.467643 270.943389 
L 684.079738 284.037699 
L 685.691834 286.112482 
L 690.52812 273.896886 
L 692.140216 263.495743 
L 693.752311 261.092437 
L 695.364407 254.524264 
L 696.976502 253.849502 
L 701.812789 261.033975 
L 703.424884 267.539075 
L 705.03698 258.817581 
L 706.649076 263.179672 
L 708.261171 257.165202 
L 713.097458 261.67287 
L 714.709553 249.678519 
L 716.321649 246.849072 
L 717.933744 244.774684 
L 719.54584 242.221497 
L 724.382126 235.278202 
L 725.994222 235.471108 
L 727.606317 232.437871 
L 729.218413 224.978496 
L 730.830508 232.340114 
L 735.666795 224.758847 
L 737.278891 220.803186 
L 738.890986 213.396225 
L 740.503082 230.458703 
L 742.115177 239.350344 
L 746.951464 221.891049 
L 748.563559 222.882192 
L 750.175655 216.521005 
L 751.78775 216.861513 
L 758.236133 221.086423 
L 759.848228 222.713262 
L 763.072419 224.256879 
L 764.684515 223.830407 
L 769.520801 225.87016 
L 771.132897 224.316184 
L 772.744992 220.358084 
L 774.357088 220.390378 
L 775.969183 220.798447 
L 780.80547 224.723623 
L 782.417565 223.993484 
L 784.029661 219.708293 
L 785.641757 213.508879 
L 787.253852 212.748459 
L 792.090139 212.92087 
L 793.702234 215.615077 
L 795.31433 214.813624 
L 796.926425 209.281121 
L 798.538521 204.833782 
L 803.374807 203.431704 
L 817.883667 185.746124 
L 819.495763 189.662467 
L 821.107858 187.462367 
L 825.944145 176.379584 
L 827.55624 166.181831 
L 829.168336 171.140834 
L 832.392527 161.646556 
L 837.228814 175.223102 
L 838.840909 166.753503 
L 840.453005 162.363028 
L 842.0651 161.289637 
L 843.677196 169.43421 
L 848.513482 170.089813 
L 850.125578 172.722864 
L 851.737673 178.59509 
L 853.349769 179.773445 
L 854.961864 189.744329 
L 859.798151 187.471835 
L 861.410247 182.953842 
L 863.022342 174.953967 
L 866.246533 181.05225 
L 871.08282 183.441333 
L 872.694915 186.666384 
L 874.307011 184.275557 
L 875.919106 178.912852 
L 877.531202 167.380594 
L 882.367488 164.798389 
L 883.979584 161.848732 
L 885.59168 154.80498 
L 887.203775 154.320205 
L 888.815871 157.975283 
L 893.652157 153.163943 
L 895.264253 148.804731 
L 896.876348 149.187488 
L 898.488444 148.003657 
L 900.100539 142.287103 
L 904.936826 141.135195 
L 906.548921 135.535039 
L 908.161017 133.803779 
L 909.773112 128.936019 
L 916.221495 183.053189 
L 917.83359 163.88034 
L 919.445686 161.669625 
L 921.057781 145.902943 
L 922.669877 142.57873 
L 927.506163 134.167772 
L 929.118259 127.958447 
L 930.730354 113.730833 
L 932.34245 109.844558 
L 933.954545 107.294162 
L 933.954545 107.294162 
" clip-path="url(#pc94c0263e7)" style="fill: none; stroke: #f3c0b4; stroke-width: 1.5; stroke-linecap: round"/>
   </g>
   <g id="patch_3">
    <path d="M 135 512.64 
L 135 69.12 
" style="fill: none; stroke: #ffffff; stroke-width: 1.25; stroke-linejoin: miter; stroke-linecap: square"/>
   </g>
   <g id="patch_4">
    <path d="M 972 512.64 
L 972 69.12 
" style="fill: none; stroke: #ffffff; stroke-width: 1.25; stroke-linejoin: miter; stroke-linecap: square"/>
   </g>
   <g id="patch_5">
    <path d="M 135 512.64 
L 972 512.64 
" style="fill: none; stroke: #ffffff; stroke-width: 1.25; stroke-linejoin: miter; stroke-linecap: square"/>
   </g>
   <g id="patch_6">
    <path d="M 135 69.12 
L 972 69.12 
" style="fill: none; stroke: #ffffff; stroke-width: 1.25; stroke-linejoin: miter; stroke-linecap: square"/>
   </g>
   <g id="legend_1">
    <g id="patch_7">
     <path d="M 144.625 154.541875 
L 250.5 154.541875 
Q 253.25 154.541875 253.25 151.791875 
L 253.25 78.745 
Q 253.25 75.995 250.5 75.995 
L 144.625 75.995 
Q 141.875 75.995 141.875 78.745 
L 141.875 151.791875 
Q 141.875 154.541875 144.625 154.541875 
z
" style="fill: #eaeaf2; opacity: 0.8; stroke: #cccccc; stroke-linejoin: miter"/>
    </g>
    <g id="line2d_20">
     <path d="M 147.375 87.854375 
L 161.125 87.854375 
L 174.875 87.854375 
" style="fill: none; stroke: #9355b0; stroke-width: 1.5; stroke-linecap: round"/>
    </g>
    <g id="text_18">
     <!-- 传统等权 -->
     <g style="fill: #262626" transform="translate(185.875 92.666875) scale(0.1375 -0.1375)">
      <defs>
       <path id="SimHei-4f20" d="M 5500 1975 
Q 5025 925 4700 250 
Q 4975 100 5450 -200 
Q 5300 -375 5125 -675 
Q 4700 -375 4012 12 
Q 3325 400 3050 525 
Q 3175 750 3275 950 
Q 3600 800 4275 475 
Q 4525 975 4750 1550 
L 2800 1550 
Q 2950 2000 3125 2650 
L 2575 2650 
Q 2200 2650 1925 2625 
L 1925 3075 
Q 2250 3050 2600 3050 
L 3200 3050 
Q 3300 3525 3350 3825 
L 2975 3825 
Q 2525 3825 2250 3800 
L 2250 4250 
Q 2550 4225 2950 4225 
L 3425 4225 
Q 3525 4950 3525 5225 
Q 3850 5150 4100 5125 
Q 4025 5000 3875 4225 
L 4950 4225 
Q 5350 4225 5700 4250 
L 5700 3800 
Q 5375 3825 4925 3825 
L 3825 3825 
Q 3775 3550 3675 3050 
L 5250 3050 
Q 5750 3050 6025 3075 
L 6025 2625 
Q 5725 2650 5250 2650 
L 3600 2650 
Q 3500 2250 3425 1975 
L 5500 1975 
z
M 2225 4875 
Q 2025 4675 1650 3750 
L 1650 550 
Q 1650 -25 1675 -525 
L 1125 -525 
Q 1175 -125 1175 525 
L 1175 3000 
Q 800 2400 550 2050 
Q 450 2250 200 2450 
Q 500 2800 925 3525 
Q 1350 4250 1625 5175 
Q 1850 5050 2225 4875 
z
" transform="scale(0.015625)"/>
       <path id="SimHei-7edf" d="M 5150 4300 
Q 5525 4300 5950 4325 
L 5950 3875 
Q 5550 3900 5175 3900 
L 3775 3900 
Q 3975 3750 4250 3600 
Q 4050 3450 3837 3162 
Q 3625 2875 3225 2375 
Q 3800 2375 5025 2500 
Q 4925 2625 4625 2975 
Q 4850 3100 5025 3250 
Q 5450 2800 5950 2100 
Q 5700 1950 5525 1775 
Q 5375 1975 5275 2125 
Q 4925 2100 4825 2075 
L 4825 200 
Q 4825 -100 5075 -100 
L 5325 -100 
Q 5550 -100 5625 575 
Q 5850 400 6150 325 
Q 5925 -525 5525 -525 
L 4850 -525 
Q 4350 -525 4350 0 
L 4350 2025 
Q 4000 2000 3875 1975 
Q 3900 1050 3637 462 
Q 3375 -125 2625 -700 
Q 2500 -500 2175 -375 
Q 2575 -125 2850 175 
Q 3125 475 3275 850 
Q 3425 1225 3400 1925 
Q 3025 1900 2725 1825 
Q 2650 2200 2525 2475 
Q 2825 2500 3187 2975 
Q 3550 3450 3675 3900 
L 3275 3900 
Q 2950 3900 2475 3875 
L 2475 4325 
Q 2875 4300 3250 4300 
L 5150 4300 
z
M 1875 4825 
Q 1700 4600 1500 4250 
Q 1300 3900 900 3250 
Q 1375 3275 1650 3275 
Q 1850 3625 1975 3975 
Q 2250 3800 2550 3675 
Q 2375 3500 2075 3037 
Q 1775 2575 1225 1725 
Q 1950 1800 2500 1900 
Q 2375 1600 2375 1425 
Q 2150 1400 1587 1325 
Q 1025 1250 600 1125 
Q 525 1375 425 1625 
Q 700 1700 950 2075 
Q 1200 2450 1450 2900 
Q 1225 2875 925 2837 
Q 625 2800 425 2750 
Q 325 3000 200 3225 
Q 500 3300 862 4025 
Q 1225 4750 1275 5075 
Q 1575 4925 1875 4825 
z
M 2550 825 
Q 2525 575 2550 350 
Q 1975 200 1412 37 
Q 850 -125 550 -250 
Q 450 0 275 275 
Q 900 375 1450 500 
Q 2000 625 2550 825 
z
M 4100 5275 
Q 4375 4825 4500 4575 
Q 4325 4500 4025 4350 
Q 3825 4825 3650 5075 
Q 3950 5175 4100 5275 
z
" transform="scale(0.015625)"/>
       <path id="SimHei-7b49" d="M 2925 3450 
Q 2925 3625 2900 3950 
L 3450 3950 
Q 3425 3625 3425 3450 
L 4475 3450 
Q 4850 3450 5350 3475 
L 5350 3050 
Q 4875 3075 4500 3075 
L 3425 3075 
L 3425 2400 
L 5225 2400 
Q 5625 2400 6125 2425 
L 6125 1975 
Q 5650 2000 5225 2000 
L 4700 2000 
L 4700 1350 
Q 5325 1350 5750 1375 
L 5750 925 
Q 5250 950 4700 950 
L 4700 125 
Q 4725 -325 4437 -437 
Q 4150 -550 3550 -625 
Q 3500 -325 3350 -75 
Q 3775 -100 3975 -75 
Q 4175 -50 4175 275 
L 4175 950 
L 1550 950 
Q 1225 950 700 925 
L 700 1375 
Q 1200 1350 1650 1350 
L 4175 1350 
L 4175 2000 
L 1075 2000 
Q 750 2000 200 1975 
L 200 2425 
Q 750 2400 1075 2400 
L 2925 2400 
L 2925 3075 
L 1925 3075 
Q 1575 3075 1050 3050 
L 1050 3475 
Q 1725 3450 1925 3450 
L 2925 3450 
z
M 1825 5100 
Q 1675 5000 1500 4725 
L 2400 4725 
Q 2925 4725 3275 4750 
L 3275 4350 
Q 3000 4375 2575 4375 
L 2275 4375 
Q 2400 4175 2575 3850 
Q 2275 3750 2025 3675 
Q 2025 3725 1775 4375 
L 1325 4375 
Q 1125 4075 750 3625 
Q 525 3800 275 3900 
Q 625 4175 850 4525 
Q 1075 4875 1250 5300 
Q 1550 5175 1825 5100 
z
M 3700 3875 
Q 3500 4000 3225 4075 
Q 3475 4275 3650 4575 
Q 3825 4875 3975 5250 
Q 4250 5150 4550 5050 
Q 4350 4875 4250 4700 
L 5275 4700 
Q 5450 4700 6125 4725 
L 6125 4325 
Q 5650 4350 5200 4350 
Q 5475 3900 5600 3725 
Q 5250 3650 5025 3575 
Q 4975 3800 4700 4350 
L 4050 4350 
Q 3925 4150 3700 3875 
z
M 2575 75 
Q 2350 -50 2125 -200 
Q 1900 225 1525 625 
Q 1700 725 1925 900 
Q 2300 500 2575 75 
z
" transform="scale(0.015625)"/>
       <path id="SimHei-6743" d="M 2700 4575 
Q 3250 4550 3725 4550 
L 5675 4550 
Q 5575 3500 5337 2737 
Q 5100 1975 4475 1075 
Q 4775 675 5200 425 
Q 5625 175 6175 0 
Q 5825 -275 5750 -500 
Q 5175 -225 4775 100 
Q 4375 425 4150 725 
Q 3825 350 3475 62 
Q 3125 -225 2500 -600 
Q 2400 -350 2100 -125 
Q 2475 0 2950 275 
Q 3425 550 3850 1075 
Q 3625 1375 3400 2037 
Q 3175 2700 3050 4125 
L 2700 4125 
L 2700 4575 
z
M 200 1350 
Q 575 1750 825 2275 
Q 1075 2800 1250 3450 
Q 825 3450 425 3425 
L 425 3875 
Q 875 3850 1325 3850 
Q 1325 4900 1300 5250 
L 1850 5250 
Q 1800 4950 1800 3850 
Q 2175 3850 2600 3875 
L 2600 3425 
Q 2175 3450 1800 3450 
L 1800 2525 
Q 1975 2625 2175 2775 
Q 2625 2175 2750 1875 
Q 2475 1725 2325 1575 
Q 2200 1925 1800 2375 
L 1800 525 
Q 1800 0 1825 -600 
L 1275 -600 
Q 1325 0 1325 525 
L 1325 2375 
Q 1125 1675 575 900 
Q 425 1225 200 1350 
z
M 3525 4150 
Q 3675 2850 3787 2412 
Q 3900 1975 4175 1475 
Q 4475 1925 4750 2587 
Q 5025 3250 5100 4150 
L 3525 4150 
z
" transform="scale(0.015625)"/>
      </defs>
      <use xlink:href="#SimHei-4f20"/>
      <use xlink:href="#SimHei-7edf" x="100"/>
      <use xlink:href="#SimHei-7b49" x="200"/>
      <use xlink:href="#SimHei-6743" x="300"/>
     </g>
    </g>
    <g id="line2d_21">
     <path d="M 147.375 106.073125 
L 161.125 106.073125 
L 174.875 106.073125 
" style="fill: none; stroke: #85a8d3; stroke-width: 1.5; stroke-linecap: round"/>
    </g>
    <g id="text_19">
     <!-- EWMA -->
     <g style="fill: #262626" transform="translate(185.875 110.885625) scale(0.1375 -0.1375)">
      <defs>
       <path id="SimHei-45" d="M 2900 125 
L 350 125 
L 350 4400 
L 2775 4400 
L 2775 3925 
L 925 3925 
L 925 2600 
L 2625 2600 
L 2625 2125 
L 925 2125 
L 925 600 
L 2900 600 
L 2900 125 
z
" transform="scale(0.015625)"/>
       <path id="SimHei-57" d="M 3075 4400 
L 2525 75 
L 2025 75 
L 1575 3275 
L 1525 3275 
L 1075 75 
L 575 75 
L 25 4400 
L 575 4400 
L 850 1675 
L 900 1675 
L 1275 4400 
L 1825 4400 
L 2200 1675 
L 2250 1675 
L 2525 4400 
L 3075 4400 
z
" transform="scale(0.015625)"/>
       <path id="SimHei-4d" d="M 2925 125 
L 2425 125 
L 2425 3175 
L 2375 3175 
L 1775 125 
L 1375 125 
L 775 3175 
L 725 3175 
L 725 125 
L 225 125 
L 225 4400 
L 1000 4400 
L 1550 1575 
L 1600 1575 
L 2150 4400 
L 2925 4400 
L 2925 125 
z
" transform="scale(0.015625)"/>
       <path id="SimHei-41" d="M 3075 125 
L 2475 125 
L 2125 1450 
L 1025 1450 
L 675 125 
L 75 125 
L 1325 4450 
L 1825 4450 
L 3075 125 
z
M 2000 1925 
L 1600 3450 
L 1550 3450 
L 1150 1925 
L 2000 1925 
z
" transform="scale(0.015625)"/>
      </defs>
      <use xlink:href="#SimHei-45"/>
      <use xlink:href="#SimHei-57" x="50"/>
      <use xlink:href="#SimHei-4d" x="100"/>
      <use xlink:href="#SimHei-41" x="150"/>
     </g>
    </g>
    <g id="line2d_22">
     <path d="M 147.375 124.291875 
L 161.125 124.291875 
L 174.875 124.291875 
" style="fill: none; stroke: #ebacca; stroke-width: 1.5; stroke-linecap: round"/>
    </g>
    <g id="text_20">
     <!-- GARCH -->
     <g style="fill: #262626" transform="translate(185.875 129.104375) scale(0.1375 -0.1375)">
      <defs>
       <path id="SimHei-47" d="M 2850 75 
L 2425 75 
L 2350 425 
Q 2250 275 2037 175 
Q 1825 75 1575 75 
Q 1050 75 637 562 
Q 225 1050 225 2125 
Q 225 3300 600 3875 
Q 975 4450 1625 4450 
Q 2200 4450 2525 4025 
Q 2850 3600 2850 2925 
L 2300 2925 
Q 2300 3450 2125 3712 
Q 1950 3975 1625 3975 
Q 1225 3975 1025 3562 
Q 825 3150 825 2175 
Q 825 1250 1075 900 
Q 1325 550 1650 550 
Q 1975 550 2162 787 
Q 2350 1025 2350 1525 
L 2350 1800 
L 1575 1800 
L 1575 2275 
L 2850 2275 
L 2850 75 
z
" transform="scale(0.015625)"/>
       <path id="SimHei-52" d="M 3000 125 
L 2400 125 
L 1500 1975 
L 850 1975 
L 850 125 
L 275 125 
L 275 4400 
L 1525 4400 
Q 2125 4400 2500 4112 
Q 2875 3825 2875 3175 
Q 2875 2675 2625 2400 
Q 2375 2125 2050 2050 
L 3000 125 
z
M 2300 3175 
Q 2300 3525 2087 3725 
Q 1875 3925 1400 3925 
L 850 3925 
L 850 2450 
L 1550 2450 
Q 1850 2450 2075 2612 
Q 2300 2775 2300 3175 
z
" transform="scale(0.015625)"/>
       <path id="SimHei-43" d="M 2975 1825 
Q 2950 875 2575 475 
Q 2200 75 1675 75 
Q 1075 75 650 562 
Q 225 1050 225 2125 
Q 225 3300 637 3875 
Q 1050 4450 1700 4450 
Q 2250 4450 2612 4037 
Q 2975 3625 2950 2875 
L 2400 2875 
Q 2400 3425 2225 3700 
Q 2050 3975 1700 3975 
Q 1300 3975 1062 3562 
Q 825 3150 825 2175 
Q 825 1275 1062 912 
Q 1300 550 1675 550 
Q 1950 550 2175 812 
Q 2400 1075 2400 1825 
L 2975 1825 
z
" transform="scale(0.015625)"/>
       <path id="SimHei-48" d="M 2850 125 
L 2275 125 
L 2275 2125 
L 850 2125 
L 850 125 
L 275 125 
L 275 4400 
L 850 4400 
L 850 2600 
L 2275 2600 
L 2275 4400 
L 2850 4400 
L 2850 125 
z
" transform="scale(0.015625)"/>
      </defs>
      <use xlink:href="#SimHei-47"/>
      <use xlink:href="#SimHei-41" x="50"/>
      <use xlink:href="#SimHei-52" x="100"/>
      <use xlink:href="#SimHei-43" x="150"/>
      <use xlink:href="#SimHei-48" x="200"/>
     </g>
    </g>
    <g id="line2d_23">
     <path d="M 147.375 142.510625 
L 161.125 142.510625 
L 174.875 142.510625 
" style="fill: none; stroke: #f3c0b4; stroke-width: 1.5; stroke-linecap: round"/>
    </g>
    <g id="text_21">
     <!-- GARCH-DCC -->
     <g style="fill: #262626" transform="translate(185.875 147.323125) scale(0.1375 -0.1375)">
      <defs>
       <path id="SimHei-44" d="M 2925 2250 
Q 2925 1100 2437 612 
Q 1950 125 1125 125 
L 275 125 
L 275 4400 
L 1125 4400 
Q 2050 4400 2487 3900 
Q 2925 3400 2925 2250 
z
M 2325 2250 
Q 2325 3175 2025 3550 
Q 1725 3925 1125 3925 
L 850 3925 
L 850 600 
L 1125 600 
Q 1725 600 2025 962 
Q 2325 1325 2325 2250 
z
" transform="scale(0.015625)"/>
      </defs>
      <use xlink:href="#SimHei-47"/>
      <use xlink:href="#SimHei-41" x="50"/>
      <use xlink:href="#SimHei-52" x="100"/>
      <use xlink:href="#SimHei-43" x="150"/>
      <use xlink:href="#SimHei-48" x="200"/>
      <use xlink:href="#SimHei-2d" x="250"/>
      <use xlink:href="#SimHei-44" x="300"/>
      <use xlink:href="#SimHei-43" x="350"/>
      <use xlink:href="#SimHei-43" x="400"/>
     </g>
    </g>
   </g>
  </g>
 </g>
 <defs>
  <clipPath id="pc94c0263e7">
   <rect x="135" y="69.12" width="837" height="443.52"/>
  </clipPath>
 </defs>
</svg>
