<?xml version="1.0" encoding="utf-8" standalone="no"?>
<!DOCTYPE svg PUBLIC "-//W3C//DTD SVG 1.1//EN"
  "http://www.w3.org/Graphics/SVG/1.1/DTD/svg11.dtd">
<svg xmlns:xlink="http://www.w3.org/1999/xlink" width="1008pt" height="720pt" viewBox="0 0 1008 720" xmlns="http://www.w3.org/2000/svg" version="1.1">
 <metadata>
  <rdf:RDF xmlns:dc="http://purl.org/dc/elements/1.1/" xmlns:cc="http://creativecommons.org/ns#" xmlns:rdf="http://www.w3.org/1999/02/22-rdf-syntax-ns#">
   <cc:Work>
    <dc:type rdf:resource="http://purl.org/dc/dcmitype/StillImage"/>
    <dc:date>2025-05-13T13:28:35.113970</dc:date>
    <dc:format>image/svg+xml</dc:format>
    <dc:creator>
     <cc:Agent>
      <dc:title>Matplotlib v3.9.2, https://matplotlib.org/</dc:title>
     </cc:Agent>
    </dc:creator>
   </cc:Work>
  </rdf:RDF>
 </metadata>
 <defs>
  <style type="text/css">*{stroke-linejoin: round; stroke-linecap: butt}</style>
 </defs>
 <g id="figure_1">
  <g id="patch_1">
   <path d="M 0 720 
L 1008 720 
L 1008 0 
L 0 0 
z
" style="fill: #ffffff"/>
  </g>
  <g id="axes_1">
   <g id="patch_2">
    <path d="M 59.355 327.212838 
L 991.8 327.212838 
L 991.8 32.235 
L 59.355 32.235 
z
" style="fill: #eaeaf2"/>
   </g>
   <g id="matplotlib.axis_1">
    <g id="xtick_1">
     <g id="line2d_1">
      <path d="M 163.136049 327.212838 
L 163.136049 32.235 
" clip-path="url(#p607263ac1b)" style="fill: none; stroke: #ffffff; stroke-linecap: round"/>
     </g>
    </g>
    <g id="xtick_2">
     <g id="line2d_2">
      <path d="M 283.949866 327.212838 
L 283.949866 32.235 
" clip-path="url(#p607263ac1b)" style="fill: none; stroke: #ffffff; stroke-linecap: round"/>
     </g>
    </g>
    <g id="xtick_3">
     <g id="line2d_3">
      <path d="M 404.763683 327.212838 
L 404.763683 32.235 
" clip-path="url(#p607263ac1b)" style="fill: none; stroke: #ffffff; stroke-linecap: round"/>
     </g>
    </g>
    <g id="xtick_4">
     <g id="line2d_4">
      <path d="M 527.558054 327.212838 
L 527.558054 32.235 
" clip-path="url(#p607263ac1b)" style="fill: none; stroke: #ffffff; stroke-linecap: round"/>
     </g>
    </g>
    <g id="xtick_5">
     <g id="line2d_5">
      <path d="M 648.371871 327.212838 
L 648.371871 32.235 
" clip-path="url(#p607263ac1b)" style="fill: none; stroke: #ffffff; stroke-linecap: round"/>
     </g>
    </g>
    <g id="xtick_6">
     <g id="line2d_6">
      <path d="M 769.185688 327.212838 
L 769.185688 32.235 
" clip-path="url(#p607263ac1b)" style="fill: none; stroke: #ffffff; stroke-linecap: round"/>
     </g>
    </g>
    <g id="xtick_7">
     <g id="line2d_7">
      <path d="M 886.038396 327.212838 
L 886.038396 32.235 
" clip-path="url(#p607263ac1b)" style="fill: none; stroke: #ffffff; stroke-linecap: round"/>
     </g>
    </g>
   </g>
   <g id="matplotlib.axis_2">
    <g id="ytick_1">
     <g id="line2d_8">
      <path d="M 59.355 327.212838 
L 991.8 327.212838 
" clip-path="url(#p607263ac1b)" style="fill: none; stroke: #ffffff; stroke-linecap: round"/>
     </g>
     <g id="text_1">
      <!-- 0.0 -->
      <g style="fill: #262626" transform="translate(29.23 331.9394) scale(0.1375 -0.1375)">
       <defs>
        <path id="SimHei-30" d="M 225 2537 
Q 250 3200 412 3587 
Q 575 3975 875 4225 
Q 1175 4475 1612 4475 
Q 2050 4475 2375 4112 
Q 2700 3750 2800 3200 
Q 2900 2650 2862 1937 
Q 2825 1225 2612 775 
Q 2400 325 1975 150 
Q 1550 -25 1125 187 
Q 700 400 525 750 
Q 350 1100 275 1487 
Q 200 1875 225 2537 
z
M 750 2687 
Q 675 2000 800 1462 
Q 925 925 1212 700 
Q 1500 475 1800 612 
Q 2100 750 2237 1162 
Q 2375 1575 2375 2062 
Q 2375 2550 2337 2950 
Q 2300 3350 2112 3675 
Q 1925 4000 1612 4012 
Q 1300 4025 1062 3700 
Q 825 3375 750 2687 
z
" transform="scale(0.015625)"/>
        <path id="SimHei-2e" d="M 1075 125 
L 500 125 
L 500 675 
L 1075 675 
L 1075 125 
z
" transform="scale(0.015625)"/>
       </defs>
       <use xlink:href="#SimHei-30"/>
       <use xlink:href="#SimHei-2e" x="50"/>
       <use xlink:href="#SimHei-30" x="100"/>
      </g>
     </g>
    </g>
    <g id="ytick_2">
     <g id="line2d_9">
      <path d="M 59.355 271.955926 
L 991.8 271.955926 
" clip-path="url(#p607263ac1b)" style="fill: none; stroke: #ffffff; stroke-linecap: round"/>
     </g>
     <g id="text_2">
      <!-- 0.2 -->
      <g style="fill: #262626" transform="translate(29.23 276.682488) scale(0.1375 -0.1375)">
       <defs>
        <path id="SimHei-32" d="M 300 250 
Q 325 625 650 925 
Q 975 1225 1475 1862 
Q 1975 2500 2125 2850 
Q 2275 3200 2237 3450 
Q 2200 3700 2000 3862 
Q 1800 4025 1537 4000 
Q 1275 3975 1037 3800 
Q 800 3625 675 3275 
L 200 3350 
Q 400 3925 712 4187 
Q 1025 4450 1450 4475 
Q 1700 4500 1900 4462 
Q 2100 4425 2312 4287 
Q 2525 4150 2662 3875 
Q 2800 3600 2762 3212 
Q 2725 2825 2375 2287 
Q 2025 1750 1025 600 
L 2825 600 
L 2825 150 
L 300 150 
L 300 250 
z
" transform="scale(0.015625)"/>
       </defs>
       <use xlink:href="#SimHei-30"/>
       <use xlink:href="#SimHei-2e" x="50"/>
       <use xlink:href="#SimHei-32" x="100"/>
      </g>
     </g>
    </g>
    <g id="ytick_3">
     <g id="line2d_10">
      <path d="M 59.355 216.699014 
L 991.8 216.699014 
" clip-path="url(#p607263ac1b)" style="fill: none; stroke: #ffffff; stroke-linecap: round"/>
     </g>
     <g id="text_3">
      <!-- 0.4 -->
      <g style="fill: #262626" transform="translate(29.23 221.425576) scale(0.1375 -0.1375)">
       <defs>
        <path id="SimHei-34" d="M 2000 1100 
L 75 1100 
L 75 1525 
L 2100 4450 
L 2475 4450 
L 2475 1525 
L 3075 1525 
L 3075 1100 
L 2475 1100 
L 2475 150 
L 2000 150 
L 2000 1100 
z
M 2000 1525 
L 2000 3500 
L 600 1525 
L 2000 1525 
z
" transform="scale(0.015625)"/>
       </defs>
       <use xlink:href="#SimHei-30"/>
       <use xlink:href="#SimHei-2e" x="50"/>
       <use xlink:href="#SimHei-34" x="100"/>
      </g>
     </g>
    </g>
    <g id="ytick_4">
     <g id="line2d_11">
      <path d="M 59.355 161.442102 
L 991.8 161.442102 
" clip-path="url(#p607263ac1b)" style="fill: none; stroke: #ffffff; stroke-linecap: round"/>
     </g>
     <g id="text_4">
      <!-- 0.6 -->
      <g style="fill: #262626" transform="translate(29.23 166.168664) scale(0.1375 -0.1375)">
       <defs>
        <path id="SimHei-36" d="M 250 1612 
Q 275 1975 387 2225 
Q 500 2475 725 2850 
L 1750 4450 
L 2325 4450 
L 1275 2800 
Q 1950 2975 2350 2750 
Q 2750 2525 2887 2237 
Q 3025 1950 3037 1612 
Q 3050 1275 2937 950 
Q 2825 625 2537 362 
Q 2250 100 1737 75 
Q 1225 50 862 262 
Q 500 475 362 862 
Q 225 1250 250 1612 
z
M 1025 787 
Q 1250 550 1625 525 
Q 2000 500 2250 775 
Q 2500 1050 2500 1575 
Q 2500 2100 2187 2300 
Q 1875 2500 1487 2450 
Q 1100 2400 925 2075 
Q 750 1750 775 1387 
Q 800 1025 1025 787 
z
" transform="scale(0.015625)"/>
       </defs>
       <use xlink:href="#SimHei-30"/>
       <use xlink:href="#SimHei-2e" x="50"/>
       <use xlink:href="#SimHei-36" x="100"/>
      </g>
     </g>
    </g>
    <g id="ytick_5">
     <g id="line2d_12">
      <path d="M 59.355 106.18519 
L 991.8 106.18519 
" clip-path="url(#p607263ac1b)" style="fill: none; stroke: #ffffff; stroke-linecap: round"/>
     </g>
     <g id="text_5">
      <!-- 0.8 -->
      <g style="fill: #262626" transform="translate(29.23 110.911752) scale(0.1375 -0.1375)">
       <defs>
        <path id="SimHei-38" d="M 175 1375 
Q 175 1675 325 1962 
Q 475 2250 825 2425 
Q 525 2600 425 2812 
Q 325 3025 312 3300 
Q 300 3575 387 3775 
Q 475 3975 650 4150 
Q 825 4325 1037 4387 
Q 1250 4450 1500 4450 
Q 1750 4450 1950 4400 
Q 2150 4350 2375 4187 
Q 2600 4025 2700 3725 
Q 2800 3425 2687 3025 
Q 2575 2625 2100 2400 
Q 2525 2275 2700 2012 
Q 2875 1750 2875 1375 
Q 2875 1000 2762 775 
Q 2650 550 2512 400 
Q 2375 250 2137 162 
Q 1900 75 1537 75 
Q 1175 75 912 162 
Q 650 250 475 425 
Q 300 600 237 837 
Q 175 1075 175 1375 
z
M 687 1400 
Q 675 1100 787 875 
Q 900 650 1200 587 
Q 1500 525 1825 600 
Q 2150 675 2275 950 
Q 2400 1225 2362 1500 
Q 2325 1775 2050 1962 
Q 1775 2150 1450 2125 
Q 1125 2100 912 1900 
Q 700 1700 687 1400 
z
M 775 3350 
Q 775 3100 950 2875 
Q 1125 2650 1500 2650 
Q 1875 2650 2062 2875 
Q 2250 3100 2237 3412 
Q 2225 3725 2012 3875 
Q 1800 4025 1437 4000 
Q 1075 3975 925 3787 
Q 775 3600 775 3350 
z
" transform="scale(0.015625)"/>
       </defs>
       <use xlink:href="#SimHei-30"/>
       <use xlink:href="#SimHei-2e" x="50"/>
       <use xlink:href="#SimHei-38" x="100"/>
      </g>
     </g>
    </g>
    <g id="ytick_6">
     <g id="line2d_13">
      <path d="M 59.355 50.928278 
L 991.8 50.928278 
" clip-path="url(#p607263ac1b)" style="fill: none; stroke: #ffffff; stroke-linecap: round"/>
     </g>
     <g id="text_6">
      <!-- 1.0 -->
      <g style="fill: #262626" transform="translate(29.23 55.654841) scale(0.1375 -0.1375)">
       <defs>
        <path id="SimHei-31" d="M 1400 3600 
Q 1075 3275 575 2975 
L 575 3450 
Q 1200 3875 1600 4450 
L 1900 4450 
L 1900 150 
L 1400 150 
L 1400 3600 
z
" transform="scale(0.015625)"/>
       </defs>
       <use xlink:href="#SimHei-31"/>
       <use xlink:href="#SimHei-2e" x="50"/>
       <use xlink:href="#SimHei-30" x="100"/>
      </g>
     </g>
    </g>
    <g id="text_7">
     <!-- 权重比例 -->
     <g style="fill: #262626" transform="translate(23.98 199.723919) rotate(-90) scale(0.1 -0.1)">
      <defs>
       <path id="SimHei-6743" d="M 2700 4575 
Q 3250 4550 3725 4550 
L 5675 4550 
Q 5575 3500 5337 2737 
Q 5100 1975 4475 1075 
Q 4775 675 5200 425 
Q 5625 175 6175 0 
Q 5825 -275 5750 -500 
Q 5175 -225 4775 100 
Q 4375 425 4150 725 
Q 3825 350 3475 62 
Q 3125 -225 2500 -600 
Q 2400 -350 2100 -125 
Q 2475 0 2950 275 
Q 3425 550 3850 1075 
Q 3625 1375 3400 2037 
Q 3175 2700 3050 4125 
L 2700 4125 
L 2700 4575 
z
M 200 1350 
Q 575 1750 825 2275 
Q 1075 2800 1250 3450 
Q 825 3450 425 3425 
L 425 3875 
Q 875 3850 1325 3850 
Q 1325 4900 1300 5250 
L 1850 5250 
Q 1800 4950 1800 3850 
Q 2175 3850 2600 3875 
L 2600 3425 
Q 2175 3450 1800 3450 
L 1800 2525 
Q 1975 2625 2175 2775 
Q 2625 2175 2750 1875 
Q 2475 1725 2325 1575 
Q 2200 1925 1800 2375 
L 1800 525 
Q 1800 0 1825 -600 
L 1275 -600 
Q 1325 0 1325 525 
L 1325 2375 
Q 1125 1675 575 900 
Q 425 1225 200 1350 
z
M 3525 4150 
Q 3675 2850 3787 2412 
Q 3900 1975 4175 1475 
Q 4475 1925 4750 2587 
Q 5025 3250 5100 4150 
L 3525 4150 
z
" transform="scale(0.015625)"/>
       <path id="SimHei-91cd" d="M 5300 4575 
Q 3900 4450 3425 4400 
L 3425 3875 
L 5150 3875 
Q 5500 3875 6000 3900 
L 6000 3450 
Q 5500 3475 5150 3475 
L 3425 3475 
L 3425 3050 
L 5150 3050 
Q 5125 2675 5125 2125 
Q 5125 1575 5150 1175 
L 3425 1175 
L 3425 750 
L 4550 750 
Q 5000 750 5500 775 
L 5500 375 
Q 5025 400 4575 400 
L 3425 400 
L 3425 -50 
L 5050 -50 
Q 5475 -50 5975 -25 
L 5975 -450 
Q 5475 -425 5075 -425 
L 1475 -425 
Q 975 -425 450 -450 
L 450 -25 
Q 975 -50 1450 -50 
L 2925 -50 
L 2925 400 
L 2050 400 
Q 1450 400 950 375 
L 950 775 
Q 1600 750 2075 750 
L 2925 750 
L 2925 1175 
L 1250 1175 
Q 1275 1800 1275 2125 
Q 1275 2450 1250 3050 
L 2925 3050 
L 2925 3475 
L 1225 3475 
Q 875 3475 400 3450 
L 400 3900 
Q 875 3875 1225 3875 
L 2925 3875 
L 2925 4375 
Q 2425 4350 1075 4250 
Q 1000 4475 875 4675 
Q 2275 4700 3362 4812 
Q 4450 4925 4925 5075 
Q 5025 4825 5300 4575 
z
M 4650 2300 
L 4650 2650 
L 3425 2650 
L 3425 2300 
L 4650 2300 
z
M 2925 2300 
L 2925 2650 
L 1750 2650 
L 1750 2300 
L 2925 2300 
z
M 4625 1575 
L 4625 1900 
L 3425 1900 
L 3425 1575 
L 4625 1575 
z
M 2925 1575 
L 2925 1900 
L 1750 1900 
L 1750 1575 
L 2925 1575 
z
" transform="scale(0.015625)"/>
       <path id="SimHei-6bd4" d="M 3775 5100 
Q 3750 4575 3750 4100 
L 3750 3050 
Q 4925 3600 5475 4175 
Q 5675 3900 5900 3675 
Q 5600 3500 5037 3187 
Q 4475 2875 3750 2550 
L 3750 450 
Q 3750 100 4050 100 
L 5000 100 
Q 5175 100 5262 250 
Q 5350 400 5450 900 
Q 5650 775 6025 675 
Q 5850 0 5650 -175 
Q 5450 -350 5225 -350 
L 3900 -350 
Q 3250 -350 3250 275 
L 3250 4000 
Q 3250 4550 3225 5100 
L 3775 5100 
z
M 1275 4975 
Q 1250 4575 1250 4000 
L 1250 3150 
L 1850 3150 
Q 2325 3150 2875 3175 
L 2875 2650 
Q 2325 2675 1850 2675 
L 1250 2675 
L 1250 475 
Q 1650 650 1962 812 
Q 2275 975 2850 1275 
Q 2900 950 2950 750 
Q 2375 475 1762 175 
Q 1150 -125 925 -325 
Q 750 -100 575 200 
Q 700 300 750 600 
L 750 3950 
Q 750 4550 725 4975 
L 1275 4975 
z
" transform="scale(0.015625)"/>
       <path id="SimHei-4f8b" d="M 3450 4725 
Q 3825 4725 4100 4750 
L 4100 4300 
Q 3825 4325 3500 4325 
L 3150 4325 
Q 3125 4025 3025 3350 
L 4050 3350 
Q 4000 2050 3612 1050 
Q 3225 50 2300 -600 
Q 2200 -400 1900 -150 
Q 2750 250 3200 1325 
Q 2975 1525 2550 1800 
Q 2700 2000 2825 2175 
Q 3200 1875 3350 1775 
Q 3500 2250 3575 2950 
L 2925 2950 
Q 2800 2425 2225 1575 
Q 2025 1775 1775 1925 
Q 2125 2275 2375 2837 
Q 2625 3400 2675 4325 
Q 2300 4325 2150 4300 
L 2150 4750 
Q 2400 4725 2800 4725 
L 3450 4725 
z
M 2050 4975 
Q 1875 4775 1550 3850 
L 1550 475 
Q 1550 -25 1575 -600 
L 1075 -600 
Q 1100 -75 1100 425 
L 1100 3000 
Q 950 2700 650 2250 
Q 550 2375 200 2625 
Q 525 2925 937 3762 
Q 1350 4600 1450 5200 
Q 1650 5075 2050 4975 
z
M 5950 5075 
Q 5900 4775 5900 4300 
L 5900 250 
Q 5900 -275 5700 -400 
Q 5500 -525 4850 -575 
Q 4825 -300 4650 50 
Q 5175 0 5300 25 
Q 5425 50 5450 300 
L 5450 4275 
Q 5450 4750 5400 5075 
L 5950 5075 
z
M 4925 4225 
Q 4875 3875 4875 3250 
L 4875 1800 
Q 4875 1200 4900 925 
L 4375 925 
Q 4425 1200 4425 1775 
L 4425 3275 
Q 4400 3850 4375 4225 
L 4925 4225 
z
" transform="scale(0.015625)"/>
      </defs>
      <use xlink:href="#SimHei-6743"/>
      <use xlink:href="#SimHei-91cd" x="100"/>
      <use xlink:href="#SimHei-6bd4" x="200"/>
      <use xlink:href="#SimHei-4f8b" x="300"/>
     </g>
    </g>
   </g>
   <g id="PolyCollection_1">
    <defs>
     <path id="m63ec6c5fc0" d="M 101.738864 -599.565158 
L 101.738864 -392.787162 
L 173.038821 -392.787162 
L 228.494344 -392.787162 
L 297.813747 -392.787162 
L 353.269269 -392.787162 
L 410.705346 -392.787162 
L 466.160869 -392.787162 
L 521.616391 -392.787162 
L 584.994131 -392.787162 
L 654.313534 -392.787162 
L 709.769057 -392.787162 
L 765.224579 -392.787162 
L 838.505091 -392.787162 
L 893.960614 -392.787162 
L 949.416136 -392.787162 
L 949.416136 -475.690324 
L 949.416136 -475.690324 
L 893.960614 -507.777161 
L 838.505091 -511.13508 
L 765.224579 -564.589896 
L 709.769057 -497.797868 
L 654.313534 -585.527634 
L 584.994131 -636.413785 
L 521.616391 -556.43389 
L 466.160869 -482.459182 
L 410.705346 -467.262399 
L 353.269269 -428.234287 
L 297.813747 -442.478708 
L 228.494344 -472.845445 
L 173.038821 -581.784523 
L 101.738864 -599.565158 
z
" style="stroke: #ffffff; stroke-opacity: 0.8"/>
    </defs>
    <g clip-path="url(#p607263ac1b)">
     <use xlink:href="#m63ec6c5fc0" x="0" y="720" style="fill: #ffa07a; fill-opacity: 0.8; stroke: #ffffff; stroke-opacity: 0.8"/>
    </g>
   </g>
   <g id="PolyCollection_2">
    <defs>
     <path id="m1473ee714b" d="M 101.738864 -634.878447 
L 101.738864 -599.565158 
L 173.038821 -581.784523 
L 228.494344 -472.845445 
L 297.813747 -442.478708 
L 353.269269 -428.234287 
L 410.705346 -467.262399 
L 466.160869 -482.459182 
L 521.616391 -556.43389 
L 584.994131 -636.413785 
L 654.313534 -585.527634 
L 709.769057 -497.797868 
L 765.224579 -564.589896 
L 838.505091 -511.13508 
L 893.960614 -507.777161 
L 949.416136 -475.690324 
L 949.416136 -654.238213 
L 949.416136 -654.238213 
L 893.960614 -658.439605 
L 838.505091 -628.828115 
L 765.224579 -656.962686 
L 709.769057 -574.761795 
L 654.313534 -624.77395 
L 584.994131 -659.479373 
L 521.616391 -673.718436 
L 466.160869 -665.032187 
L 410.705346 -581.269245 
L 353.269269 -552.51731 
L 297.813747 -576.065187 
L 228.494344 -556.8584 
L 173.038821 -634.245861 
L 101.738864 -634.878447 
z
" style="stroke: #ffffff; stroke-opacity: 0.8"/>
    </defs>
    <g clip-path="url(#p607263ac1b)">
     <use xlink:href="#m1473ee714b" x="0" y="720" style="fill: #20b2aa; fill-opacity: 0.8; stroke: #ffffff; stroke-opacity: 0.8"/>
    </g>
   </g>
   <g id="PolyCollection_3">
    <defs>
     <path id="mf98aa14b0e" d="M 101.738864 -669.071722 
L 101.738864 -634.878447 
L 173.038821 -634.245861 
L 228.494344 -556.8584 
L 297.813747 -576.065187 
L 353.269269 -552.51731 
L 410.705346 -581.269245 
L 466.160869 -665.032187 
L 521.616391 -673.718436 
L 584.994131 -659.479373 
L 654.313534 -624.77395 
L 709.769057 -574.761795 
L 765.224579 -656.962686 
L 838.505091 -628.828115 
L 893.960614 -658.439605 
L 949.416136 -654.238213 
L 949.416136 -669.071722 
L 949.416136 -669.071722 
L 893.960614 -669.071722 
L 838.505091 -669.071722 
L 765.224579 -669.071722 
L 709.769057 -669.071722 
L 654.313534 -669.071722 
L 584.994131 -669.071722 
L 521.616391 -669.071722 
L 466.160869 -669.071722 
L 410.705346 -669.071722 
L 353.269269 -669.071722 
L 297.813747 -669.071722 
L 228.494344 -669.071722 
L 173.038821 -669.071722 
L 101.738864 -669.071722 
z
" style="stroke: #ffffff; stroke-opacity: 0.8"/>
    </defs>
    <g clip-path="url(#p607263ac1b)">
     <use xlink:href="#mf98aa14b0e" x="0" y="720" style="fill: #9370db; fill-opacity: 0.8; stroke: #ffffff; stroke-opacity: 0.8"/>
    </g>
   </g>
   <g id="patch_3">
    <path d="M 59.355 327.212838 
L 59.355 32.235 
" style="fill: none; stroke: #ffffff; stroke-width: 1.25; stroke-linejoin: miter; stroke-linecap: square"/>
   </g>
   <g id="patch_4">
    <path d="M 991.8 327.212838 
L 991.8 32.235 
" style="fill: none; stroke: #ffffff; stroke-width: 1.25; stroke-linejoin: miter; stroke-linecap: square"/>
   </g>
   <g id="patch_5">
    <path d="M 59.355 327.212838 
L 991.8 327.212838 
" style="fill: none; stroke: #ffffff; stroke-width: 1.25; stroke-linejoin: miter; stroke-linecap: square"/>
   </g>
   <g id="patch_6">
    <path d="M 59.355 32.235 
L 991.8 32.235 
" style="fill: none; stroke: #ffffff; stroke-width: 1.25; stroke-linejoin: miter; stroke-linecap: square"/>
   </g>
   <g id="text_8">
    <!-- EWMA优化权重动态 -->
    <g style="fill: #262626" transform="translate(477.5775 26.235) scale(0.12 -0.12)">
     <defs>
      <path id="SimHei-45" d="M 2900 125 
L 350 125 
L 350 4400 
L 2775 4400 
L 2775 3925 
L 925 3925 
L 925 2600 
L 2625 2600 
L 2625 2125 
L 925 2125 
L 925 600 
L 2900 600 
L 2900 125 
z
" transform="scale(0.015625)"/>
      <path id="SimHei-57" d="M 3075 4400 
L 2525 75 
L 2025 75 
L 1575 3275 
L 1525 3275 
L 1075 75 
L 575 75 
L 25 4400 
L 575 4400 
L 850 1675 
L 900 1675 
L 1275 4400 
L 1825 4400 
L 2200 1675 
L 2250 1675 
L 2525 4400 
L 3075 4400 
z
" transform="scale(0.015625)"/>
      <path id="SimHei-4d" d="M 2925 125 
L 2425 125 
L 2425 3175 
L 2375 3175 
L 1775 125 
L 1375 125 
L 775 3175 
L 725 3175 
L 725 125 
L 225 125 
L 225 4400 
L 1000 4400 
L 1550 1575 
L 1600 1575 
L 2150 4400 
L 2925 4400 
L 2925 125 
z
" transform="scale(0.015625)"/>
      <path id="SimHei-41" d="M 3075 125 
L 2475 125 
L 2125 1450 
L 1025 1450 
L 675 125 
L 75 125 
L 1325 4450 
L 1825 4450 
L 3075 125 
z
M 2000 1925 
L 1600 3450 
L 1550 3450 
L 1150 1925 
L 2000 1925 
z
" transform="scale(0.015625)"/>
      <path id="SimHei-4f18" d="M 4650 350 
Q 4625 100 4825 50 
Q 5025 0 5200 12 
Q 5375 25 5462 125 
Q 5550 225 5650 800 
Q 5825 625 6200 525 
Q 6050 -25 5912 -200 
Q 5775 -375 5475 -400 
L 4700 -400 
Q 4175 -400 4175 200 
L 4175 3050 
L 3850 3050 
Q 3725 600 2375 -550 
Q 2200 -325 1875 -225 
Q 3175 675 3350 3050 
L 2900 3050 
Q 2350 3050 1975 3025 
L 1975 3475 
Q 2350 3450 2900 3450 
L 3375 3450 
Q 3375 4700 3350 5150 
Q 3525 5100 3925 5075 
Q 3850 4700 3850 3450 
L 5200 3450 
Q 5475 3450 5925 3475 
L 5925 3025 
Q 5500 3050 5225 3050 
L 4650 3050 
L 4650 350 
z
M 200 2375 
Q 525 2700 1000 3612 
Q 1475 4525 1600 5200 
Q 1850 5050 2225 4925 
Q 2000 4700 1700 3825 
L 1700 600 
Q 1700 -150 1725 -525 
L 1200 -525 
Q 1225 -175 1225 575 
L 1225 2975 
Q 900 2425 550 1975 
Q 425 2200 200 2375 
z
M 4850 5025 
Q 5000 4800 5150 4587 
Q 5300 4375 5450 4200 
Q 5250 4075 5025 3875 
Q 4875 4175 4450 4725 
Q 4625 4850 4850 5025 
z
" transform="scale(0.015625)"/>
      <path id="SimHei-5316" d="M 3925 5025 
Q 3900 4900 3900 4400 
L 3900 2625 
Q 4375 3025 4775 3450 
Q 5175 3875 5400 4300 
Q 5600 4100 5900 3925 
Q 5700 3700 5225 3212 
Q 4750 2725 4487 2512 
Q 4225 2300 3900 2025 
L 3900 450 
Q 3900 50 4225 50 
L 5200 50 
Q 5400 75 5462 262 
Q 5525 450 5575 850 
Q 5800 650 6150 600 
Q 6000 -100 5825 -250 
Q 5650 -400 5350 -400 
L 3950 -400 
Q 3425 -400 3400 200 
L 3400 1675 
Q 3225 1525 2962 1350 
Q 2700 1175 2375 975 
Q 2225 1225 2025 1400 
Q 2350 1550 2737 1787 
Q 3125 2025 3400 2250 
L 3400 4500 
Q 3400 4800 3375 5025 
L 3925 5025 
z
M 2400 4850 
Q 2175 4550 2075 4337 
Q 1975 4125 1825 3775 
L 1825 675 
Q 1825 -75 1850 -550 
L 1325 -550 
Q 1350 -125 1350 650 
L 1350 3050 
Q 1125 2725 962 2525 
Q 800 2325 675 2175 
Q 500 2375 275 2525 
Q 625 2850 875 3212 
Q 1125 3575 1312 3912 
Q 1500 4250 1625 4575 
Q 1750 4900 1825 5100 
Q 1975 4975 2400 4850 
z
" transform="scale(0.015625)"/>
      <path id="SimHei-52a8" d="M 4125 5150 
Q 4425 5075 4700 5075 
Q 4650 4825 4637 4512 
Q 4625 4200 4625 3750 
L 6025 3750 
Q 6000 3425 5975 3025 
L 5850 175 
Q 5775 -325 5437 -437 
Q 5100 -550 4675 -600 
Q 4600 -300 4425 -50 
Q 4975 -75 5175 12 
Q 5375 100 5375 350 
L 5525 3325 
L 4625 3325 
Q 4575 2225 4462 1650 
Q 4350 1075 4112 587 
Q 3875 100 3150 -675 
Q 2900 -425 2700 -350 
Q 3175 25 3475 437 
Q 3775 850 3900 1287 
Q 4025 1725 4075 2200 
Q 4125 2675 4150 3325 
L 3725 3325 
Q 3450 3325 3075 3300 
L 3075 3775 
Q 3450 3750 3775 3750 
L 4150 3750 
L 4150 4450 
Q 4150 4800 4125 5150 
z
M 275 3025 
Q 650 3000 1175 3000 
L 2125 3000 
Q 2575 3000 3150 3025 
L 3150 2575 
Q 2575 2600 2150 2600 
L 1875 2600 
Q 1725 2200 1537 1750 
Q 1350 1300 1100 850 
Q 2075 950 2575 1050 
Q 2450 1350 2175 1800 
Q 2450 1950 2575 2050 
Q 2825 1600 3000 1287 
Q 3175 975 3375 525 
Q 3175 400 2925 275 
Q 2825 500 2750 650 
Q 1950 525 1462 450 
Q 975 375 625 250 
Q 525 500 375 725 
Q 700 925 962 1525 
Q 1225 2125 1350 2600 
L 1175 2600 
Q 650 2600 275 2575 
L 275 3025 
z
M 2000 4425 
Q 2425 4425 2950 4450 
L 2950 3975 
Q 2425 4000 2000 4000 
L 1400 4000 
Q 1000 4000 625 3975 
L 625 4450 
Q 975 4425 1375 4425 
L 2000 4425 
z
" transform="scale(0.015625)"/>
      <path id="SimHei-6001" d="M 2575 4325 
Q 2700 4800 2725 5250 
Q 3075 5125 3350 5100 
Q 3225 4875 3100 4325 
L 5025 4325 
Q 5375 4325 5825 4375 
L 5825 3850 
Q 5350 3875 5000 3875 
L 3975 3875 
Q 4225 3300 4575 2987 
Q 4925 2675 5250 2525 
Q 5575 2375 6100 2275 
Q 5800 2075 5675 1775 
Q 4900 2100 4525 2412 
Q 4150 2725 3900 3075 
Q 3650 3425 3500 3875 
L 2975 3875 
Q 2675 3200 2187 2687 
Q 1700 2175 725 1625 
Q 650 1850 300 2075 
Q 900 2275 1512 2750 
Q 2125 3225 2425 3875 
L 1300 3875 
Q 900 3875 450 3850 
L 450 4375 
Q 875 4325 1300 4325 
L 2575 4325 
z
M 2525 1350 
Q 2500 875 2500 575 
Q 2500 300 2512 150 
Q 2525 0 2800 0 
L 3825 0 
Q 4025 -25 4175 62 
Q 4325 150 4400 625 
Q 4650 450 4975 375 
Q 4775 -150 4625 -312 
Q 4475 -475 4000 -450 
L 2500 -450 
Q 2050 -400 2012 -162 
Q 1975 75 1975 425 
Q 1975 800 1950 1350 
L 2525 1350 
z
M 1425 1175 
Q 1175 450 825 -325 
Q 625 -175 325 -125 
Q 775 625 875 1375 
Q 1175 1250 1425 1175 
z
M 5175 1525 
Q 5600 950 6050 350 
Q 5800 175 5600 0 
Q 5225 700 4750 1250 
Q 5000 1350 5175 1525 
z
M 2700 3050 
Q 3175 2675 3500 2325 
Q 3275 2175 3100 1975 
Q 2825 2350 2350 2700 
L 2700 3050 
z
M 3375 1750 
Q 3625 1350 3825 925 
Q 3625 800 3375 675 
Q 3200 1175 2950 1525 
Q 3175 1600 3375 1750 
z
" transform="scale(0.015625)"/>
     </defs>
     <use xlink:href="#SimHei-45"/>
     <use xlink:href="#SimHei-57" x="50"/>
     <use xlink:href="#SimHei-4d" x="100"/>
     <use xlink:href="#SimHei-41" x="150"/>
     <use xlink:href="#SimHei-4f18" x="200"/>
     <use xlink:href="#SimHei-5316" x="300"/>
     <use xlink:href="#SimHei-6743" x="400"/>
     <use xlink:href="#SimHei-91cd" x="500"/>
     <use xlink:href="#SimHei-52a8" x="600"/>
     <use xlink:href="#SimHei-6001" x="700"/>
    </g>
   </g>
   <g id="legend_1">
    <g id="patch_7">
     <path d="M 64.955 72.8225 
L 134.555 72.8225 
Q 136.155 72.8225 136.155 71.2225 
L 136.155 37.835 
Q 136.155 36.235 134.555 36.235 
L 64.955 36.235 
Q 63.355 36.235 63.355 37.835 
L 63.355 71.2225 
Q 63.355 72.8225 64.955 72.8225 
z
" style="fill: #eaeaf2; opacity: 0.8; stroke: #cccccc; stroke-linejoin: miter"/>
    </g>
    <g id="patch_8">
     <path d="M 66.555 45.84125 
L 82.555 45.84125 
L 82.555 40.24125 
L 66.555 40.24125 
z
" style="fill: #ffa07a; fill-opacity: 0.8; stroke: #ffffff; stroke-opacity: 0.8; stroke-linejoin: miter"/>
    </g>
    <g id="text_9">
     <!-- 黄金ETF -->
     <g style="fill: #262626" transform="translate(88.955 45.84125) scale(0.08 -0.08)">
      <defs>
       <path id="SimHei-9ec4" d="M 2700 350 
Q 2425 225 1837 -125 
Q 1250 -475 900 -675 
L 525 -300 
Q 1100 -75 1475 162 
Q 1850 400 2200 675 
L 1100 675 
Q 1125 900 1150 1400 
L 1150 2175 
Q 1150 2450 1125 2800 
L 3000 2800 
L 3000 3250 
L 1250 3250 
Q 675 3250 275 3225 
L 275 3650 
Q 650 3625 1225 3625 
L 2125 3625 
L 2125 4300 
L 1525 4300 
Q 1050 4300 725 4275 
L 725 4700 
Q 1000 4675 1475 4675 
L 2125 4675 
Q 2125 4975 2100 5250 
L 2650 5250 
Q 2600 4975 2600 4675 
L 3975 4675 
Q 3975 4975 3950 5250 
L 4475 5250 
Q 4450 4950 4450 4675 
L 4950 4675 
Q 5425 4675 5800 4700 
L 5800 4275 
Q 5450 4300 4975 4300 
L 4450 4300 
L 4450 3625 
L 5225 3625 
Q 5750 3625 6175 3650 
L 6175 3225 
Q 5775 3250 5250 3250 
L 3475 3250 
L 3475 2800 
L 5350 2800 
Q 5325 2425 5325 2200 
L 5325 1400 
Q 5325 950 5350 675 
L 4350 675 
Q 4650 500 5125 225 
Q 5625 -50 6025 -275 
Q 5825 -475 5675 -675 
Q 5150 -325 4787 -112 
Q 4425 100 4000 300 
Q 4125 425 4275 675 
L 2300 675 
Q 2525 475 2700 350 
z
M 3975 3625 
L 3975 4300 
L 2600 4300 
L 2600 3625 
L 3975 3625 
z
M 4875 1050 
L 4875 1550 
L 3475 1550 
L 3475 1050 
L 4875 1050 
z
M 3000 1050 
L 3000 1550 
L 1625 1550 
L 1625 1050 
L 3000 1050 
z
M 4875 1925 
L 4875 2400 
L 3475 2400 
L 3475 1925 
L 4875 1925 
z
M 3000 1925 
L 3000 2400 
L 1625 2400 
L 1625 1925 
L 3000 1925 
z
" transform="scale(0.015625)"/>
       <path id="SimHei-91d1" d="M 1800 1250 
Q 2200 700 2500 225 
Q 2325 125 2150 -50 
L 2925 -50 
L 2925 1400 
L 2075 1400 
Q 1725 1400 1100 1375 
L 1100 1850 
Q 1725 1825 2050 1825 
L 2925 1825 
L 2925 2600 
Q 2100 2600 1625 2575 
L 1625 2975 
Q 1225 2675 650 2350 
Q 500 2575 275 2775 
Q 750 2950 1250 3300 
Q 1750 3650 2225 4162 
Q 2700 4675 3000 5250 
Q 3050 5200 3525 4975 
L 3375 4825 
Q 3650 4525 4050 4150 
Q 4450 3775 5000 3487 
Q 5550 3200 6150 3025 
Q 5950 2825 5825 2550 
Q 5325 2725 4800 3000 
L 4800 2575 
Q 4300 2600 4000 2600 
L 3400 2600 
L 3400 1825 
L 4275 1825 
Q 4700 1825 5325 1850 
L 5325 1375 
Q 4725 1400 4275 1400 
L 3400 1400 
L 3400 -50 
L 3875 -50 
Q 4450 950 4500 1300 
Q 4725 1150 5050 1000 
Q 4875 775 4375 -50 
Q 5150 -50 5875 -25 
L 5875 -500 
Q 5150 -475 4700 -475 
L 1725 -475 
Q 1200 -475 700 -500 
L 700 -25 
Q 1225 -50 1725 -50 
L 2025 -50 
Q 1850 350 1400 950 
Q 1625 1100 1800 1250 
z
M 1700 3050 
Q 2075 3025 2400 3025 
L 3900 3025 
Q 4275 3050 4700 3050 
Q 4275 3350 3837 3762 
Q 3400 4175 3125 4525 
Q 2850 4150 2462 3762 
Q 2075 3375 1700 3050 
z
" transform="scale(0.015625)"/>
       <path id="SimHei-54" d="M 2850 3925 
L 1850 3925 
L 1850 125 
L 1275 125 
L 1275 3925 
L 275 3925 
L 275 4400 
L 2850 4400 
L 2850 3925 
z
" transform="scale(0.015625)"/>
       <path id="SimHei-46" d="M 2925 3925 
L 875 3925 
L 875 2525 
L 2425 2525 
L 2425 2050 
L 875 2050 
L 875 125 
L 300 125 
L 300 4400 
L 2925 4400 
L 2925 3925 
z
" transform="scale(0.015625)"/>
      </defs>
      <use xlink:href="#SimHei-9ec4"/>
      <use xlink:href="#SimHei-91d1" x="100"/>
      <use xlink:href="#SimHei-45" x="200"/>
      <use xlink:href="#SimHei-54" x="250"/>
      <use xlink:href="#SimHei-46" x="300"/>
     </g>
    </g>
    <g id="patch_9">
     <path d="M 66.555 57.27875 
L 82.555 57.27875 
L 82.555 51.67875 
L 66.555 51.67875 
z
" style="fill: #20b2aa; fill-opacity: 0.8; stroke: #ffffff; stroke-opacity: 0.8; stroke-linejoin: miter"/>
    </g>
    <g id="text_10">
     <!-- 红利低波ETF -->
     <g style="fill: #262626" transform="translate(88.955 57.27875) scale(0.08 -0.08)">
      <defs>
       <path id="SimHei-7ea2" d="M 4975 4375 
Q 5400 4375 5850 4400 
L 5850 3950 
Q 5400 3975 4975 3975 
L 4600 3975 
L 4600 175 
L 5125 175 
Q 5550 175 6025 200 
L 6025 -275 
Q 5550 -250 5125 -250 
L 3600 -250 
Q 3225 -250 2750 -275 
L 2750 200 
Q 3225 175 3625 175 
L 4125 175 
L 4125 3975 
L 3850 3975 
Q 3375 3975 2950 3950 
L 2950 4400 
Q 3400 4375 3800 4375 
L 4975 4375 
z
M 2775 1775 
Q 2725 1525 2725 1350 
Q 1475 1175 1200 1112 
Q 925 1050 675 975 
Q 575 1250 475 1425 
Q 775 1550 1062 1887 
Q 1350 2225 1700 2750 
Q 1450 2725 1125 2700 
Q 800 2675 475 2575 
Q 375 2825 275 3050 
Q 500 3075 900 3737 
Q 1300 4400 1525 5100 
Q 1825 4925 2050 4850 
Q 1850 4600 1625 4187 
Q 1400 3775 925 3075 
Q 1525 3100 1950 3125 
Q 2275 3700 2375 3975 
Q 2550 3825 2850 3650 
Q 2700 3475 2412 3037 
Q 2125 2600 1300 1550 
Q 2025 1650 2775 1775 
z
M 2825 750 
Q 2825 550 2850 300 
Q 1500 -50 1187 -162 
Q 875 -275 625 -375 
Q 525 -50 400 175 
Q 825 250 1337 362 
Q 1850 475 2825 750 
z
" transform="scale(0.015625)"/>
       <path id="SimHei-5229" d="M 2400 2650 
Q 2950 2150 3500 1525 
Q 3325 1375 3125 1150 
Q 2775 1675 2400 2075 
L 2400 225 
Q 2400 -375 2425 -675 
L 1875 -675 
Q 1900 -350 1900 225 
L 1900 1975 
Q 1625 1450 1375 1100 
Q 1125 750 725 275 
Q 575 525 300 700 
Q 850 1150 1287 1837 
Q 1725 2525 1850 2950 
L 1375 2950 
Q 775 2950 500 2925 
L 500 3400 
Q 800 3375 1375 3375 
L 1900 3375 
L 1900 4350 
Q 1400 4250 825 4150 
Q 750 4400 625 4625 
Q 1050 4650 1800 4800 
Q 2550 4950 3225 5175 
Q 3350 4875 3550 4650 
Q 3050 4575 2400 4450 
L 2400 3375 
L 2825 3375 
Q 3350 3375 3750 3400 
L 3750 2925 
Q 3350 2950 2850 2950 
L 2400 2950 
L 2400 2650 
z
M 5775 5125 
Q 5750 4875 5750 4275 
L 5750 -100 
Q 5750 -400 5512 -487 
Q 5275 -575 4675 -675 
Q 4600 -300 4500 -75 
Q 5025 -100 5137 -50 
Q 5250 0 5250 150 
L 5250 4300 
Q 5250 4650 5225 5125 
L 5775 5125 
z
M 4625 4100 
Q 4600 3800 4600 3300 
L 4600 1725 
Q 4600 1200 4625 825 
L 4075 825 
Q 4100 1275 4100 1725 
L 4100 3300 
Q 4100 3700 4075 4100 
L 4625 4100 
z
" transform="scale(0.015625)"/>
       <path id="SimHei-4f4e" d="M 2300 4550 
Q 2750 4525 3750 4637 
Q 4750 4750 5275 5000 
Q 5425 4725 5600 4475 
Q 5125 4400 4350 4300 
Q 4350 3825 4400 2850 
L 5000 2850 
Q 5425 2850 5850 2875 
L 5850 2425 
Q 5425 2450 5025 2450 
L 4450 2450 
Q 4575 1325 4862 762 
Q 5150 200 5325 75 
Q 5500 -50 5562 125 
Q 5625 300 5675 775 
Q 5925 575 6150 525 
Q 6000 -100 5850 -337 
Q 5700 -575 5350 -500 
Q 5000 -425 4587 262 
Q 4175 950 4000 2450 
L 2775 2450 
L 2775 500 
Q 3275 950 3575 1275 
Q 3675 975 3775 800 
Q 2775 -50 2500 -350 
Q 2325 -175 2175 25 
Q 2300 150 2325 500 
L 2325 3725 
Q 2325 4075 2300 4550 
z
M 2050 5075 
Q 1900 4900 1600 3950 
L 1600 425 
Q 1600 -75 1625 -625 
L 1100 -625 
Q 1125 -75 1125 450 
L 1125 3025 
Q 875 2500 625 2125 
Q 400 2350 225 2425 
Q 600 2900 962 3687 
Q 1325 4475 1500 5275 
Q 1575 5200 2050 5075 
z
M 3950 2850 
Q 3900 3775 3900 4225 
Q 3125 4175 2775 4150 
L 2775 2850 
L 3950 2850 
z
M 3850 -625 
Q 3450 -75 3250 100 
Q 3450 275 3575 425 
Q 3925 50 4225 -300 
Q 4025 -450 3850 -625 
z
" transform="scale(0.015625)"/>
       <path id="SimHei-6ce2" d="M 5075 3275 
Q 5175 3600 5225 3850 
L 4325 3850 
L 4325 2750 
L 5550 2750 
Q 5400 2100 5125 1512 
Q 4850 925 4525 550 
Q 4775 350 5200 175 
Q 5625 0 6175 -100 
Q 5900 -300 5775 -600 
Q 5250 -425 4800 -175 
Q 4350 75 4200 225 
Q 3950 25 3537 -212 
Q 3125 -450 2500 -675 
Q 2375 -500 2050 -375 
Q 2525 -250 3062 25 
Q 3600 300 3850 550 
Q 3325 1300 3075 2325 
L 2825 2325 
Q 2800 1400 2487 725 
Q 2175 50 1875 -300 
Q 1700 -150 1375 -50 
Q 1750 325 1950 712 
Q 2150 1100 2262 1475 
Q 2375 1850 2387 2825 
Q 2400 3800 2350 4275 
L 3875 4275 
Q 3875 4850 3850 5200 
L 4350 5200 
Q 4325 4900 4325 4275 
L 5850 4275 
Q 5825 4125 5750 3837 
Q 5675 3550 5600 3200 
Q 5300 3250 5075 3275 
z
M 3525 2325 
Q 3800 1400 4200 925 
Q 4650 1475 4925 2325 
L 3525 2325 
z
M 1950 1700 
Q 1700 1375 1262 712 
Q 825 50 675 -200 
Q 475 50 225 275 
Q 525 525 937 1100 
Q 1350 1675 1550 2100 
L 1950 1700 
z
M 3875 2750 
L 3875 3850 
L 2850 3850 
L 2850 2750 
L 3875 2750 
z
M 925 4925 
Q 1600 4525 2000 4250 
Q 1800 4025 1675 3800 
Q 1250 4150 625 4500 
Q 775 4700 925 4925 
z
M 600 3525 
Q 1125 3250 1725 2850 
Q 1525 2675 1400 2425 
Q 925 2825 350 3100 
Q 450 3275 600 3525 
z
" transform="scale(0.015625)"/>
      </defs>
      <use xlink:href="#SimHei-7ea2"/>
      <use xlink:href="#SimHei-5229" x="100"/>
      <use xlink:href="#SimHei-4f4e" x="200"/>
      <use xlink:href="#SimHei-6ce2" x="300"/>
      <use xlink:href="#SimHei-45" x="400"/>
      <use xlink:href="#SimHei-54" x="450"/>
      <use xlink:href="#SimHei-46" x="500"/>
     </g>
    </g>
    <g id="patch_10">
     <path d="M 66.555 68.6225 
L 82.555 68.6225 
L 82.555 63.0225 
L 66.555 63.0225 
z
" style="fill: #9370db; fill-opacity: 0.8; stroke: #ffffff; stroke-opacity: 0.8; stroke-linejoin: miter"/>
    </g>
    <g id="text_11">
     <!-- 纳斯达克ETF -->
     <g style="fill: #262626" transform="translate(88.955 68.6225) scale(0.08 -0.08)">
      <defs>
       <path id="SimHei-7eb3" d="M 3350 -600 
L 2900 -600 
Q 2925 -150 2925 525 
L 2925 2975 
Q 2925 3600 2900 4050 
L 4150 4050 
Q 4150 4675 4125 5125 
Q 4400 5125 4700 5100 
Q 4625 4950 4612 4675 
Q 4600 4400 4600 4050 
L 5975 4050 
Q 5950 3550 5950 3100 
L 5950 -100 
Q 5950 -425 5750 -500 
Q 5550 -575 5100 -650 
Q 5025 -400 4900 -150 
Q 5175 -150 5337 -125 
Q 5500 -100 5500 125 
L 5500 3675 
L 4600 3675 
Q 4600 3100 4525 2650 
Q 4725 2425 4987 2150 
Q 5250 1875 5450 1600 
Q 5275 1475 5125 1275 
Q 4925 1650 4425 2200 
Q 4300 1850 4137 1600 
Q 3975 1350 3750 1025 
Q 3525 1175 3350 1250 
L 3350 -600 
z
M 2525 1875 
Q 2475 1700 2475 1475 
Q 2125 1425 1562 1325 
Q 1000 1225 500 1075 
Q 425 1325 325 1525 
Q 650 1675 962 1987 
Q 1275 2300 1625 2825 
Q 1275 2825 975 2812 
Q 675 2800 425 2700 
Q 350 2925 225 3150 
Q 525 3350 887 3887 
Q 1250 4425 1575 5050 
Q 1800 4925 2075 4850 
Q 1975 4750 1637 4237 
Q 1300 3725 850 3200 
Q 1525 3175 1825 3150 
Q 2100 3600 2225 3850 
Q 2475 3700 2725 3650 
Q 2550 3475 2087 2800 
Q 1625 2125 1150 1650 
Q 1650 1725 2525 1875 
z
M 3350 1300 
Q 3650 1625 3800 1875 
Q 3950 2150 4025 2437 
Q 4100 2725 4125 3025 
Q 4150 3325 4150 3675 
L 3350 3675 
L 3350 1300 
z
M 2500 300 
Q 1950 175 1375 0 
Q 800 -175 550 -275 
Q 475 25 325 200 
Q 650 250 1112 362 
Q 1575 475 2550 725 
Q 2500 500 2500 300 
z
" transform="scale(0.015625)"/>
       <path id="SimHei-65af" d="M 950 4350 
Q 950 4825 925 5100 
L 1450 5100 
Q 1400 4925 1400 4350 
L 2525 4350 
Q 2525 4850 2500 5125 
L 3025 5125 
Q 3000 4900 3000 4350 
Q 3050 4350 3375 4375 
L 3375 3925 
Q 3050 3950 3000 3950 
L 3000 1625 
Q 3025 1625 3450 1650 
L 3450 1200 
Q 2950 1225 2650 1225 
L 1050 1225 
Q 700 1225 275 1200 
L 275 1650 
Q 650 1625 950 1625 
L 950 3950 
Q 675 3950 325 3925 
L 325 4375 
Q 700 4350 950 4350 
z
M 6075 4550 
Q 5750 4500 5237 4450 
Q 4725 4400 4200 4375 
L 4200 3000 
L 5425 3000 
Q 5775 3000 6125 3025 
L 6125 2575 
Q 5750 2600 5425 2600 
L 5425 575 
Q 5425 100 5450 -525 
L 4950 -525 
Q 4975 -50 4975 550 
L 4975 2600 
L 4200 2600 
Q 4175 1450 4000 912 
Q 3825 375 3700 125 
Q 3575 -125 3125 -650 
Q 2900 -475 2650 -350 
Q 3125 75 3350 512 
Q 3575 950 3650 1600 
Q 3725 2250 3725 3175 
Q 3725 4125 3700 4775 
Q 4250 4775 4862 4837 
Q 5475 4900 5800 5025 
Q 5875 4800 6075 4550 
z
M 1625 700 
Q 1425 575 1125 250 
Q 825 -75 600 -325 
Q 425 -150 225 0 
Q 350 100 625 387 
Q 900 675 1125 1075 
Q 1350 900 1625 700 
z
M 2525 2525 
L 2525 3050 
L 1400 3050 
L 1400 2525 
L 2525 2525 
z
M 2525 1625 
L 2525 2125 
L 1400 2125 
L 1400 1625 
L 2525 1625 
z
M 2525 3450 
L 2525 3950 
L 1400 3950 
L 1400 3450 
L 2525 3450 
z
M 2475 1050 
Q 2700 850 3150 350 
Q 2900 175 2725 25 
Q 2500 375 2125 750 
Q 2325 900 2475 1050 
z
" transform="scale(0.015625)"/>
       <path id="SimHei-8fbe" d="M 1700 2975 
Q 1675 2500 1675 2225 
L 1675 775 
Q 2025 350 2600 150 
Q 3175 -50 4375 -50 
Q 5600 -50 6150 75 
Q 5975 -325 5975 -550 
Q 4925 -575 4212 -550 
Q 3500 -525 3025 -437 
Q 2550 -350 2287 -225 
Q 2025 -100 1737 137 
Q 1450 375 1212 125 
Q 975 -125 700 -475 
Q 525 -300 275 -100 
Q 625 200 1175 700 
L 1175 2550 
Q 825 2550 375 2525 
L 375 3000 
Q 900 2975 1700 2975 
z
M 3700 3700 
Q 3700 4800 3675 5225 
Q 4100 5175 4275 5150 
Q 4200 4825 4175 3700 
Q 5475 3700 5875 3725 
L 5875 3225 
Q 5475 3250 4150 3250 
Q 4075 2400 3687 1700 
Q 3300 1000 2500 375 
Q 2400 575 2125 775 
Q 2775 1225 3162 1812 
Q 3550 2400 3650 3250 
Q 2625 3250 2150 3225 
L 2150 3725 
Q 2625 3700 3700 3700 
z
M 4475 2450 
Q 5600 1225 5925 800 
Q 5675 650 5450 425 
Q 5075 1000 4100 2100 
Q 4275 2225 4475 2450 
z
M 1100 5125 
Q 1575 4575 1950 4075 
Q 1725 3900 1525 3700 
Q 1125 4325 700 4800 
Q 900 4925 1100 5125 
z
" transform="scale(0.015625)"/>
       <path id="SimHei-514b" d="M 4925 4425 
Q 5300 4425 5750 4450 
L 5750 3975 
Q 5300 4000 4925 4000 
L 3425 4000 
L 3425 3300 
L 5125 3300 
Q 5100 2950 5100 2475 
Q 5100 2000 5125 1500 
L 3975 1500 
L 3975 200 
Q 3975 -50 4275 -50 
L 5050 -50 
Q 5225 -50 5300 100 
Q 5375 250 5375 625 
Q 5700 425 5975 350 
Q 5850 -175 5662 -337 
Q 5475 -500 5100 -475 
L 4050 -475 
Q 3500 -475 3475 25 
L 3475 1500 
L 2825 1500 
Q 2700 -25 900 -625 
Q 800 -300 550 -75 
Q 2250 325 2300 1500 
L 1200 1500 
Q 1225 1950 1225 2400 
Q 1225 2850 1200 3300 
L 2975 3300 
L 2975 4000 
L 1575 4000 
Q 1150 4000 625 3975 
L 625 4450 
Q 1150 4425 1550 4425 
L 2975 4425 
Q 2975 4925 2950 5175 
L 3475 5175 
Q 3425 4925 3425 4425 
L 4925 4425 
z
M 4625 1925 
L 4625 2900 
L 1725 2900 
L 1725 1925 
L 4625 1925 
z
" transform="scale(0.015625)"/>
      </defs>
      <use xlink:href="#SimHei-7eb3"/>
      <use xlink:href="#SimHei-65af" x="100"/>
      <use xlink:href="#SimHei-8fbe" x="200"/>
      <use xlink:href="#SimHei-514b" x="300"/>
      <use xlink:href="#SimHei-45" x="400"/>
      <use xlink:href="#SimHei-54" x="450"/>
      <use xlink:href="#SimHei-46" x="500"/>
     </g>
    </g>
   </g>
  </g>
  <g id="axes_2">
   <g id="patch_11">
    <path d="M 59.355 660.916926 
L 991.8 660.916926 
L 991.8 365.939088 
L 59.355 365.939088 
z
" style="fill: #eaeaf2"/>
   </g>
   <g id="matplotlib.axis_3">
    <g id="xtick_8">
     <g id="line2d_14">
      <path d="M 163.136049 660.916926 
L 163.136049 365.939088 
" clip-path="url(#p8ccae260bd)" style="fill: none; stroke: #ffffff; stroke-linecap: round"/>
     </g>
     <g id="text_12">
      <!-- 2024-03 -->
      <g style="fill: #262626" transform="translate(120.599202 702.666072) rotate(-30) scale(0.1375 -0.1375)">
       <defs>
        <path id="SimHei-2d" d="M 2975 2125 
L 125 2125 
L 125 2525 
L 2975 2525 
L 2975 2125 
z
" transform="scale(0.015625)"/>
        <path id="SimHei-33" d="M 250 1225 
L 700 1300 
Q 800 975 1025 762 
Q 1250 550 1587 562 
Q 1925 575 2125 837 
Q 2325 1100 2300 1437 
Q 2275 1775 2037 1962 
Q 1800 2150 1275 2225 
L 1275 2550 
Q 1800 2600 2037 2825 
Q 2275 3050 2250 3412 
Q 2225 3775 1925 3937 
Q 1625 4100 1287 3975 
Q 950 3850 750 3275 
L 300 3350 
Q 450 3800 712 4100 
Q 975 4400 1425 4450 
Q 1875 4500 2212 4337 
Q 2550 4175 2687 3837 
Q 2825 3500 2725 3100 
Q 2625 2700 2150 2400 
Q 2500 2250 2687 1950 
Q 2875 1650 2812 1162 
Q 2750 675 2375 375 
Q 2000 75 1525 87 
Q 1050 100 700 387 
Q 350 675 250 1225 
z
" transform="scale(0.015625)"/>
       </defs>
       <use xlink:href="#SimHei-32"/>
       <use xlink:href="#SimHei-30" x="50"/>
       <use xlink:href="#SimHei-32" x="100"/>
       <use xlink:href="#SimHei-34" x="150"/>
       <use xlink:href="#SimHei-2d" x="200"/>
       <use xlink:href="#SimHei-30" x="250"/>
       <use xlink:href="#SimHei-33" x="300"/>
      </g>
     </g>
    </g>
    <g id="xtick_9">
     <g id="line2d_15">
      <path d="M 283.949866 660.916926 
L 283.949866 365.939088 
" clip-path="url(#p8ccae260bd)" style="fill: none; stroke: #ffffff; stroke-linecap: round"/>
     </g>
     <g id="text_13">
      <!-- 2024-05 -->
      <g style="fill: #262626" transform="translate(241.413019 702.666072) rotate(-30) scale(0.1375 -0.1375)">
       <defs>
        <path id="SimHei-35" d="M 550 1325 
Q 725 650 1150 575 
Q 1575 500 1837 662 
Q 2100 825 2212 1087 
Q 2325 1350 2312 1675 
Q 2300 2000 2137 2225 
Q 1975 2450 1725 2525 
Q 1475 2600 1162 2525 
Q 850 2450 650 2175 
L 225 2225 
Q 275 2375 700 4375 
L 2675 4375 
L 2675 3925 
L 1075 3925 
Q 950 3250 825 2850 
Q 1200 3025 1525 3012 
Q 1850 3000 2150 2862 
Q 2450 2725 2587 2487 
Q 2725 2250 2787 2012 
Q 2850 1775 2837 1500 
Q 2825 1225 2725 937 
Q 2625 650 2425 462 
Q 2225 275 1937 162 
Q 1650 50 1275 75 
Q 900 100 562 350 
Q 225 600 100 1200 
L 550 1325 
z
" transform="scale(0.015625)"/>
       </defs>
       <use xlink:href="#SimHei-32"/>
       <use xlink:href="#SimHei-30" x="50"/>
       <use xlink:href="#SimHei-32" x="100"/>
       <use xlink:href="#SimHei-34" x="150"/>
       <use xlink:href="#SimHei-2d" x="200"/>
       <use xlink:href="#SimHei-30" x="250"/>
       <use xlink:href="#SimHei-35" x="300"/>
      </g>
     </g>
    </g>
    <g id="xtick_10">
     <g id="line2d_16">
      <path d="M 404.763683 660.916926 
L 404.763683 365.939088 
" clip-path="url(#p8ccae260bd)" style="fill: none; stroke: #ffffff; stroke-linecap: round"/>
     </g>
     <g id="text_14">
      <!-- 2024-07 -->
      <g style="fill: #262626" transform="translate(362.226836 702.666072) rotate(-30) scale(0.1375 -0.1375)">
       <defs>
        <path id="SimHei-37" d="M 850 150 
Q 1300 2050 2425 3925 
L 275 3925 
L 275 4375 
L 2950 4375 
L 2950 3950 
Q 1775 2050 1400 150 
L 850 150 
z
" transform="scale(0.015625)"/>
       </defs>
       <use xlink:href="#SimHei-32"/>
       <use xlink:href="#SimHei-30" x="50"/>
       <use xlink:href="#SimHei-32" x="100"/>
       <use xlink:href="#SimHei-34" x="150"/>
       <use xlink:href="#SimHei-2d" x="200"/>
       <use xlink:href="#SimHei-30" x="250"/>
       <use xlink:href="#SimHei-37" x="300"/>
      </g>
     </g>
    </g>
    <g id="xtick_11">
     <g id="line2d_17">
      <path d="M 527.558054 660.916926 
L 527.558054 365.939088 
" clip-path="url(#p8ccae260bd)" style="fill: none; stroke: #ffffff; stroke-linecap: round"/>
     </g>
     <g id="text_15">
      <!-- 2024-09 -->
      <g style="fill: #262626" transform="translate(485.021207 702.666072) rotate(-30) scale(0.1375 -0.1375)">
       <defs>
        <path id="SimHei-39" d="M 800 75 
Q 1350 1000 1700 1750 
Q 1075 1650 662 1912 
Q 250 2175 162 2625 
Q 75 3075 175 3437 
Q 275 3800 487 4037 
Q 700 4275 1000 4375 
Q 1300 4475 1537 4475 
Q 1775 4475 2025 4375 
Q 2275 4275 2475 4075 
Q 2675 3875 2750 3662 
Q 2825 3450 2825 3112 
Q 2825 2775 2575 2250 
Q 2325 1725 1350 75 
L 800 75 
z
M 662 2875 
Q 700 2550 937 2337 
Q 1175 2125 1450 2150 
Q 1725 2175 1887 2300 
Q 2050 2425 2200 2725 
Q 2300 3100 2250 3362 
Q 2200 3625 1987 3800 
Q 1775 3975 1525 3975 
Q 1375 4000 1137 3900 
Q 900 3800 762 3500 
Q 625 3200 662 2875 
z
" transform="scale(0.015625)"/>
       </defs>
       <use xlink:href="#SimHei-32"/>
       <use xlink:href="#SimHei-30" x="50"/>
       <use xlink:href="#SimHei-32" x="100"/>
       <use xlink:href="#SimHei-34" x="150"/>
       <use xlink:href="#SimHei-2d" x="200"/>
       <use xlink:href="#SimHei-30" x="250"/>
       <use xlink:href="#SimHei-39" x="300"/>
      </g>
     </g>
    </g>
    <g id="xtick_12">
     <g id="line2d_18">
      <path d="M 648.371871 660.916926 
L 648.371871 365.939088 
" clip-path="url(#p8ccae260bd)" style="fill: none; stroke: #ffffff; stroke-linecap: round"/>
     </g>
     <g id="text_16">
      <!-- 2024-11 -->
      <g style="fill: #262626" transform="translate(605.835024 702.666072) rotate(-30) scale(0.1375 -0.1375)">
       <use xlink:href="#SimHei-32"/>
       <use xlink:href="#SimHei-30" x="50"/>
       <use xlink:href="#SimHei-32" x="100"/>
       <use xlink:href="#SimHei-34" x="150"/>
       <use xlink:href="#SimHei-2d" x="200"/>
       <use xlink:href="#SimHei-31" x="250"/>
       <use xlink:href="#SimHei-31" x="300"/>
      </g>
     </g>
    </g>
    <g id="xtick_13">
     <g id="line2d_19">
      <path d="M 769.185688 660.916926 
L 769.185688 365.939088 
" clip-path="url(#p8ccae260bd)" style="fill: none; stroke: #ffffff; stroke-linecap: round"/>
     </g>
     <g id="text_17">
      <!-- 2025-01 -->
      <g style="fill: #262626" transform="translate(726.648841 702.666072) rotate(-30) scale(0.1375 -0.1375)">
       <use xlink:href="#SimHei-32"/>
       <use xlink:href="#SimHei-30" x="50"/>
       <use xlink:href="#SimHei-32" x="100"/>
       <use xlink:href="#SimHei-35" x="150"/>
       <use xlink:href="#SimHei-2d" x="200"/>
       <use xlink:href="#SimHei-30" x="250"/>
       <use xlink:href="#SimHei-31" x="300"/>
      </g>
     </g>
    </g>
    <g id="xtick_14">
     <g id="line2d_20">
      <path d="M 886.038396 660.916926 
L 886.038396 365.939088 
" clip-path="url(#p8ccae260bd)" style="fill: none; stroke: #ffffff; stroke-linecap: round"/>
     </g>
     <g id="text_18">
      <!-- 2025-03 -->
      <g style="fill: #262626" transform="translate(843.501549 702.666072) rotate(-30) scale(0.1375 -0.1375)">
       <use xlink:href="#SimHei-32"/>
       <use xlink:href="#SimHei-30" x="50"/>
       <use xlink:href="#SimHei-32" x="100"/>
       <use xlink:href="#SimHei-35" x="150"/>
       <use xlink:href="#SimHei-2d" x="200"/>
       <use xlink:href="#SimHei-30" x="250"/>
       <use xlink:href="#SimHei-33" x="300"/>
      </g>
     </g>
    </g>
   </g>
   <g id="matplotlib.axis_4">
    <g id="ytick_7">
     <g id="line2d_21">
      <path d="M 59.355 660.916926 
L 991.8 660.916926 
" clip-path="url(#p8ccae260bd)" style="fill: none; stroke: #ffffff; stroke-linecap: round"/>
     </g>
     <g id="text_19">
      <!-- 0.0 -->
      <g style="fill: #262626" transform="translate(29.23 665.643488) scale(0.1375 -0.1375)">
       <use xlink:href="#SimHei-30"/>
       <use xlink:href="#SimHei-2e" x="50"/>
       <use xlink:href="#SimHei-30" x="100"/>
      </g>
     </g>
    </g>
    <g id="ytick_8">
     <g id="line2d_22">
      <path d="M 59.355 604.730671 
L 991.8 604.730671 
" clip-path="url(#p8ccae260bd)" style="fill: none; stroke: #ffffff; stroke-linecap: round"/>
     </g>
     <g id="text_20">
      <!-- 0.2 -->
      <g style="fill: #262626" transform="translate(29.23 609.457233) scale(0.1375 -0.1375)">
       <use xlink:href="#SimHei-30"/>
       <use xlink:href="#SimHei-2e" x="50"/>
       <use xlink:href="#SimHei-32" x="100"/>
      </g>
     </g>
    </g>
    <g id="ytick_9">
     <g id="line2d_23">
      <path d="M 59.355 548.544416 
L 991.8 548.544416 
" clip-path="url(#p8ccae260bd)" style="fill: none; stroke: #ffffff; stroke-linecap: round"/>
     </g>
     <g id="text_21">
      <!-- 0.4 -->
      <g style="fill: #262626" transform="translate(29.23 553.270978) scale(0.1375 -0.1375)">
       <use xlink:href="#SimHei-30"/>
       <use xlink:href="#SimHei-2e" x="50"/>
       <use xlink:href="#SimHei-34" x="100"/>
      </g>
     </g>
    </g>
    <g id="ytick_10">
     <g id="line2d_24">
      <path d="M 59.355 492.358161 
L 991.8 492.358161 
" clip-path="url(#p8ccae260bd)" style="fill: none; stroke: #ffffff; stroke-linecap: round"/>
     </g>
     <g id="text_22">
      <!-- 0.6 -->
      <g style="fill: #262626" transform="translate(29.23 497.084724) scale(0.1375 -0.1375)">
       <use xlink:href="#SimHei-30"/>
       <use xlink:href="#SimHei-2e" x="50"/>
       <use xlink:href="#SimHei-36" x="100"/>
      </g>
     </g>
    </g>
    <g id="ytick_11">
     <g id="line2d_25">
      <path d="M 59.355 436.171906 
L 991.8 436.171906 
" clip-path="url(#p8ccae260bd)" style="fill: none; stroke: #ffffff; stroke-linecap: round"/>
     </g>
     <g id="text_23">
      <!-- 0.8 -->
      <g style="fill: #262626" transform="translate(29.23 440.898469) scale(0.1375 -0.1375)">
       <use xlink:href="#SimHei-30"/>
       <use xlink:href="#SimHei-2e" x="50"/>
       <use xlink:href="#SimHei-38" x="100"/>
      </g>
     </g>
    </g>
    <g id="ytick_12">
     <g id="line2d_26">
      <path d="M 59.355 379.985652 
L 991.8 379.985652 
" clip-path="url(#p8ccae260bd)" style="fill: none; stroke: #ffffff; stroke-linecap: round"/>
     </g>
     <g id="text_24">
      <!-- 1.0 -->
      <g style="fill: #262626" transform="translate(29.23 384.712214) scale(0.1375 -0.1375)">
       <use xlink:href="#SimHei-31"/>
       <use xlink:href="#SimHei-2e" x="50"/>
       <use xlink:href="#SimHei-30" x="100"/>
      </g>
     </g>
    </g>
    <g id="text_25">
     <!-- 权重比例 -->
     <g style="fill: #262626" transform="translate(23.98 533.428007) rotate(-90) scale(0.1 -0.1)">
      <use xlink:href="#SimHei-6743"/>
      <use xlink:href="#SimHei-91cd" x="100"/>
      <use xlink:href="#SimHei-6bd4" x="200"/>
      <use xlink:href="#SimHei-4f8b" x="300"/>
     </g>
    </g>
   </g>
   <g id="PolyCollection_4">
    <defs>
     <path id="mfb9cb257b5" d="M 101.738864 -243.631071 
L 101.738864 -59.083074 
L 173.038821 -59.083074 
L 228.494344 -59.083074 
L 297.813747 -59.083074 
L 353.269269 -59.083074 
L 410.705346 -59.083074 
L 466.160869 -59.083074 
L 521.616391 -59.083074 
L 584.994131 -59.083074 
L 654.313534 -59.083074 
L 709.769057 -59.083074 
L 765.224579 -59.083074 
L 838.505091 -59.083074 
L 893.960614 -59.083074 
L 949.416136 -59.083074 
L 949.416136 -213.32215 
L 949.416136 -213.32215 
L 893.960614 -214.35094 
L 838.505091 -214.321589 
L 765.224579 -218.020389 
L 709.769057 -220.991494 
L 654.313534 -227.23803 
L 584.994131 -227.164833 
L 521.616391 -220.653386 
L 466.160869 -218.273513 
L 410.705346 -218.748154 
L 353.269269 -222.777008 
L 297.813747 -234.315525 
L 228.494344 -248.068889 
L 173.038821 -241.706644 
L 101.738864 -243.631071 
z
" style="stroke: #ffffff; stroke-opacity: 0.8"/>
    </defs>
    <g clip-path="url(#p8ccae260bd)">
     <use xlink:href="#mfb9cb257b5" x="0" y="720" style="fill: #ffa07a; fill-opacity: 0.8; stroke: #ffffff; stroke-opacity: 0.8"/>
    </g>
   </g>
   <g id="PolyCollection_5">
    <defs>
     <path id="m55a22719b9" d="M 101.738864 -306.293657 
L 101.738864 -243.631071 
L 173.038821 -241.706644 
L 228.494344 -248.068889 
L 297.813747 -234.315525 
L 353.269269 -222.777008 
L 410.705346 -218.748154 
L 466.160869 -218.273513 
L 521.616391 -220.653386 
L 584.994131 -227.164833 
L 654.313534 -227.23803 
L 709.769057 -220.991494 
L 765.224579 -218.020389 
L 838.505091 -214.321589 
L 893.960614 -214.35094 
L 949.416136 -213.32215 
L 949.416136 -294.80003 
L 949.416136 -294.80003 
L 893.960614 -294.38208 
L 838.505091 -293.868284 
L 765.224579 -295.311292 
L 709.769057 -295.932133 
L 654.313534 -300.137977 
L 584.994131 -308.879346 
L 521.616391 -310.917077 
L 466.160869 -304.706957 
L 410.705346 -300.425986 
L 353.269269 -304.449516 
L 297.813747 -308.488981 
L 228.494344 -308.765113 
L 173.038821 -305.219889 
L 101.738864 -306.293657 
z
" style="stroke: #ffffff; stroke-opacity: 0.8"/>
    </defs>
    <g clip-path="url(#p8ccae260bd)">
     <use xlink:href="#m55a22719b9" x="0" y="720" style="fill: #20b2aa; fill-opacity: 0.8; stroke: #ffffff; stroke-opacity: 0.8"/>
    </g>
   </g>
   <g id="PolyCollection_6">
    <defs>
     <path id="m849ad8fe7d" d="M 101.738864 -340.014348 
L 101.738864 -306.293657 
L 173.038821 -305.219889 
L 228.494344 -308.765113 
L 297.813747 -308.488981 
L 353.269269 -304.449516 
L 410.705346 -300.425986 
L 466.160869 -304.706957 
L 521.616391 -310.917077 
L 584.994131 -308.879346 
L 654.313534 -300.137977 
L 709.769057 -295.932133 
L 765.224579 -295.311292 
L 838.505091 -293.868284 
L 893.960614 -294.38208 
L 949.416136 -294.80003 
L 949.416136 -340.014348 
L 949.416136 -340.014348 
L 893.960614 -340.014348 
L 838.505091 -340.014348 
L 765.224579 -340.014348 
L 709.769057 -340.014348 
L 654.313534 -340.014348 
L 584.994131 -340.014348 
L 521.616391 -340.014348 
L 466.160869 -340.014348 
L 410.705346 -340.014348 
L 353.269269 -340.014348 
L 297.813747 -340.014348 
L 228.494344 -340.014348 
L 173.038821 -340.014348 
L 101.738864 -340.014348 
z
" style="stroke: #ffffff; stroke-opacity: 0.8"/>
    </defs>
    <g clip-path="url(#p8ccae260bd)">
     <use xlink:href="#m849ad8fe7d" x="0" y="720" style="fill: #9370db; fill-opacity: 0.8; stroke: #ffffff; stroke-opacity: 0.8"/>
    </g>
   </g>
   <g id="patch_12">
    <path d="M 59.355 660.916926 
L 59.355 365.939088 
" style="fill: none; stroke: #ffffff; stroke-width: 1.25; stroke-linejoin: miter; stroke-linecap: square"/>
   </g>
   <g id="patch_13">
    <path d="M 991.8 660.916926 
L 991.8 365.939088 
" style="fill: none; stroke: #ffffff; stroke-width: 1.25; stroke-linejoin: miter; stroke-linecap: square"/>
   </g>
   <g id="patch_14">
    <path d="M 59.355 660.916926 
L 991.8 660.916926 
" style="fill: none; stroke: #ffffff; stroke-width: 1.25; stroke-linejoin: miter; stroke-linecap: square"/>
   </g>
   <g id="patch_15">
    <path d="M 59.355 365.939088 
L 991.8 365.939088 
" style="fill: none; stroke: #ffffff; stroke-width: 1.25; stroke-linejoin: miter; stroke-linecap: square"/>
   </g>
   <g id="text_26">
    <!-- 传统等权优化权重动态 -->
    <g style="fill: #262626" transform="translate(465.5775 359.939088) scale(0.12 -0.12)">
     <defs>
      <path id="SimHei-4f20" d="M 5500 1975 
Q 5025 925 4700 250 
Q 4975 100 5450 -200 
Q 5300 -375 5125 -675 
Q 4700 -375 4012 12 
Q 3325 400 3050 525 
Q 3175 750 3275 950 
Q 3600 800 4275 475 
Q 4525 975 4750 1550 
L 2800 1550 
Q 2950 2000 3125 2650 
L 2575 2650 
Q 2200 2650 1925 2625 
L 1925 3075 
Q 2250 3050 2600 3050 
L 3200 3050 
Q 3300 3525 3350 3825 
L 2975 3825 
Q 2525 3825 2250 3800 
L 2250 4250 
Q 2550 4225 2950 4225 
L 3425 4225 
Q 3525 4950 3525 5225 
Q 3850 5150 4100 5125 
Q 4025 5000 3875 4225 
L 4950 4225 
Q 5350 4225 5700 4250 
L 5700 3800 
Q 5375 3825 4925 3825 
L 3825 3825 
Q 3775 3550 3675 3050 
L 5250 3050 
Q 5750 3050 6025 3075 
L 6025 2625 
Q 5725 2650 5250 2650 
L 3600 2650 
Q 3500 2250 3425 1975 
L 5500 1975 
z
M 2225 4875 
Q 2025 4675 1650 3750 
L 1650 550 
Q 1650 -25 1675 -525 
L 1125 -525 
Q 1175 -125 1175 525 
L 1175 3000 
Q 800 2400 550 2050 
Q 450 2250 200 2450 
Q 500 2800 925 3525 
Q 1350 4250 1625 5175 
Q 1850 5050 2225 4875 
z
" transform="scale(0.015625)"/>
      <path id="SimHei-7edf" d="M 5150 4300 
Q 5525 4300 5950 4325 
L 5950 3875 
Q 5550 3900 5175 3900 
L 3775 3900 
Q 3975 3750 4250 3600 
Q 4050 3450 3837 3162 
Q 3625 2875 3225 2375 
Q 3800 2375 5025 2500 
Q 4925 2625 4625 2975 
Q 4850 3100 5025 3250 
Q 5450 2800 5950 2100 
Q 5700 1950 5525 1775 
Q 5375 1975 5275 2125 
Q 4925 2100 4825 2075 
L 4825 200 
Q 4825 -100 5075 -100 
L 5325 -100 
Q 5550 -100 5625 575 
Q 5850 400 6150 325 
Q 5925 -525 5525 -525 
L 4850 -525 
Q 4350 -525 4350 0 
L 4350 2025 
Q 4000 2000 3875 1975 
Q 3900 1050 3637 462 
Q 3375 -125 2625 -700 
Q 2500 -500 2175 -375 
Q 2575 -125 2850 175 
Q 3125 475 3275 850 
Q 3425 1225 3400 1925 
Q 3025 1900 2725 1825 
Q 2650 2200 2525 2475 
Q 2825 2500 3187 2975 
Q 3550 3450 3675 3900 
L 3275 3900 
Q 2950 3900 2475 3875 
L 2475 4325 
Q 2875 4300 3250 4300 
L 5150 4300 
z
M 1875 4825 
Q 1700 4600 1500 4250 
Q 1300 3900 900 3250 
Q 1375 3275 1650 3275 
Q 1850 3625 1975 3975 
Q 2250 3800 2550 3675 
Q 2375 3500 2075 3037 
Q 1775 2575 1225 1725 
Q 1950 1800 2500 1900 
Q 2375 1600 2375 1425 
Q 2150 1400 1587 1325 
Q 1025 1250 600 1125 
Q 525 1375 425 1625 
Q 700 1700 950 2075 
Q 1200 2450 1450 2900 
Q 1225 2875 925 2837 
Q 625 2800 425 2750 
Q 325 3000 200 3225 
Q 500 3300 862 4025 
Q 1225 4750 1275 5075 
Q 1575 4925 1875 4825 
z
M 2550 825 
Q 2525 575 2550 350 
Q 1975 200 1412 37 
Q 850 -125 550 -250 
Q 450 0 275 275 
Q 900 375 1450 500 
Q 2000 625 2550 825 
z
M 4100 5275 
Q 4375 4825 4500 4575 
Q 4325 4500 4025 4350 
Q 3825 4825 3650 5075 
Q 3950 5175 4100 5275 
z
" transform="scale(0.015625)"/>
      <path id="SimHei-7b49" d="M 2925 3450 
Q 2925 3625 2900 3950 
L 3450 3950 
Q 3425 3625 3425 3450 
L 4475 3450 
Q 4850 3450 5350 3475 
L 5350 3050 
Q 4875 3075 4500 3075 
L 3425 3075 
L 3425 2400 
L 5225 2400 
Q 5625 2400 6125 2425 
L 6125 1975 
Q 5650 2000 5225 2000 
L 4700 2000 
L 4700 1350 
Q 5325 1350 5750 1375 
L 5750 925 
Q 5250 950 4700 950 
L 4700 125 
Q 4725 -325 4437 -437 
Q 4150 -550 3550 -625 
Q 3500 -325 3350 -75 
Q 3775 -100 3975 -75 
Q 4175 -50 4175 275 
L 4175 950 
L 1550 950 
Q 1225 950 700 925 
L 700 1375 
Q 1200 1350 1650 1350 
L 4175 1350 
L 4175 2000 
L 1075 2000 
Q 750 2000 200 1975 
L 200 2425 
Q 750 2400 1075 2400 
L 2925 2400 
L 2925 3075 
L 1925 3075 
Q 1575 3075 1050 3050 
L 1050 3475 
Q 1725 3450 1925 3450 
L 2925 3450 
z
M 1825 5100 
Q 1675 5000 1500 4725 
L 2400 4725 
Q 2925 4725 3275 4750 
L 3275 4350 
Q 3000 4375 2575 4375 
L 2275 4375 
Q 2400 4175 2575 3850 
Q 2275 3750 2025 3675 
Q 2025 3725 1775 4375 
L 1325 4375 
Q 1125 4075 750 3625 
Q 525 3800 275 3900 
Q 625 4175 850 4525 
Q 1075 4875 1250 5300 
Q 1550 5175 1825 5100 
z
M 3700 3875 
Q 3500 4000 3225 4075 
Q 3475 4275 3650 4575 
Q 3825 4875 3975 5250 
Q 4250 5150 4550 5050 
Q 4350 4875 4250 4700 
L 5275 4700 
Q 5450 4700 6125 4725 
L 6125 4325 
Q 5650 4350 5200 4350 
Q 5475 3900 5600 3725 
Q 5250 3650 5025 3575 
Q 4975 3800 4700 4350 
L 4050 4350 
Q 3925 4150 3700 3875 
z
M 2575 75 
Q 2350 -50 2125 -200 
Q 1900 225 1525 625 
Q 1700 725 1925 900 
Q 2300 500 2575 75 
z
" transform="scale(0.015625)"/>
     </defs>
     <use xlink:href="#SimHei-4f20"/>
     <use xlink:href="#SimHei-7edf" x="100"/>
     <use xlink:href="#SimHei-7b49" x="200"/>
     <use xlink:href="#SimHei-6743" x="300"/>
     <use xlink:href="#SimHei-4f18" x="400"/>
     <use xlink:href="#SimHei-5316" x="500"/>
     <use xlink:href="#SimHei-6743" x="600"/>
     <use xlink:href="#SimHei-91cd" x="700"/>
     <use xlink:href="#SimHei-52a8" x="800"/>
     <use xlink:href="#SimHei-6001" x="900"/>
    </g>
   </g>
  </g>
 </g>
 <defs>
  <clipPath id="p607263ac1b">
   <rect x="59.355" y="32.235" width="932.445" height="294.977838"/>
  </clipPath>
  <clipPath id="p8ccae260bd">
   <rect x="59.355" y="365.939088" width="932.445" height="294.977838"/>
  </clipPath>
 </defs>
</svg>
