<?xml version="1.0" encoding="utf-8" standalone="no"?>
<!DOCTYPE svg PUBLIC "-//W3C//DTD SVG 1.1//EN"
  "http://www.w3.org/Graphics/SVG/1.1/DTD/svg11.dtd">
<svg xmlns:xlink="http://www.w3.org/1999/xlink" width="864pt" height="432pt" viewBox="0 0 864 432" xmlns="http://www.w3.org/2000/svg" version="1.1">
 <metadata>
  <rdf:RDF xmlns:dc="http://purl.org/dc/elements/1.1/" xmlns:cc="http://creativecommons.org/ns#" xmlns:rdf="http://www.w3.org/1999/02/22-rdf-syntax-ns#">
   <cc:Work>
    <dc:type rdf:resource="http://purl.org/dc/dcmitype/StillImage"/>
    <dc:date>2025-05-13T11:58:17.214963</dc:date>
    <dc:format>image/svg+xml</dc:format>
    <dc:creator>
     <cc:Agent>
      <dc:title>Matplotlib v3.9.2, https://matplotlib.org/</dc:title>
     </cc:Agent>
    </dc:creator>
   </cc:Work>
  </rdf:RDF>
 </metadata>
 <defs>
  <style type="text/css">*{stroke-linejoin: round; stroke-linecap: butt}</style>
 </defs>
 <g id="figure_1">
  <g id="patch_1">
   <path d="M 0 432 
L 864 432 
L 864 0 
L 0 0 
z
" style="fill: #ffffff"/>
  </g>
  <g id="axes_1">
   <g id="patch_2">
    <path d="M 108 384.48 
L 777.6 384.48 
L 777.6 51.84 
L 108 51.84 
z
" style="fill: #ffffff"/>
   </g>
   <g id="matplotlib.axis_1">
    <g id="xtick_1">
     <g id="line2d_1">
      <path d="M 142.27288 384.48 
L 142.27288 51.84 
" clip-path="url(#p36b14a0cc4)" style="fill: none; stroke: #b0b0b0; stroke-width: 0.8; stroke-linecap: square"/>
     </g>
     <g id="line2d_2">
      <defs>
       <path id="m4e0b33c462" d="M 0 0 
L 0 3.5 
" style="stroke: #000000; stroke-width: 0.8"/>
      </defs>
      <g>
       <use xlink:href="#m4e0b33c462" x="142.27288" y="384.48" style="stroke: #000000; stroke-width: 0.8"/>
      </g>
     </g>
     <g id="text_1">
      <!-- 2024-01 -->
      <g transform="translate(124.77288 398.355) scale(0.1 -0.1)">
       <defs>
        <path id="SimHei-32" d="M 300 250 
Q 325 625 650 925 
Q 975 1225 1475 1862 
Q 1975 2500 2125 2850 
Q 2275 3200 2237 3450 
Q 2200 3700 2000 3862 
Q 1800 4025 1537 4000 
Q 1275 3975 1037 3800 
Q 800 3625 675 3275 
L 200 3350 
Q 400 3925 712 4187 
Q 1025 4450 1450 4475 
Q 1700 4500 1900 4462 
Q 2100 4425 2312 4287 
Q 2525 4150 2662 3875 
Q 2800 3600 2762 3212 
Q 2725 2825 2375 2287 
Q 2025 1750 1025 600 
L 2825 600 
L 2825 150 
L 300 150 
L 300 250 
z
" transform="scale(0.015625)"/>
        <path id="SimHei-30" d="M 225 2537 
Q 250 3200 412 3587 
Q 575 3975 875 4225 
Q 1175 4475 1612 4475 
Q 2050 4475 2375 4112 
Q 2700 3750 2800 3200 
Q 2900 2650 2862 1937 
Q 2825 1225 2612 775 
Q 2400 325 1975 150 
Q 1550 -25 1125 187 
Q 700 400 525 750 
Q 350 1100 275 1487 
Q 200 1875 225 2537 
z
M 750 2687 
Q 675 2000 800 1462 
Q 925 925 1212 700 
Q 1500 475 1800 612 
Q 2100 750 2237 1162 
Q 2375 1575 2375 2062 
Q 2375 2550 2337 2950 
Q 2300 3350 2112 3675 
Q 1925 4000 1612 4012 
Q 1300 4025 1062 3700 
Q 825 3375 750 2687 
z
" transform="scale(0.015625)"/>
        <path id="SimHei-34" d="M 2000 1100 
L 75 1100 
L 75 1525 
L 2100 4450 
L 2475 4450 
L 2475 1525 
L 3075 1525 
L 3075 1100 
L 2475 1100 
L 2475 150 
L 2000 150 
L 2000 1100 
z
M 2000 1525 
L 2000 3500 
L 600 1525 
L 2000 1525 
z
" transform="scale(0.015625)"/>
        <path id="SimHei-2d" d="M 2975 2125 
L 125 2125 
L 125 2525 
L 2975 2525 
L 2975 2125 
z
" transform="scale(0.015625)"/>
        <path id="SimHei-31" d="M 1400 3600 
Q 1075 3275 575 2975 
L 575 3450 
Q 1200 3875 1600 4450 
L 1900 4450 
L 1900 150 
L 1400 150 
L 1400 3600 
z
" transform="scale(0.015625)"/>
       </defs>
       <use xlink:href="#SimHei-32"/>
       <use xlink:href="#SimHei-30" x="50"/>
       <use xlink:href="#SimHei-32" x="100"/>
       <use xlink:href="#SimHei-34" x="150"/>
       <use xlink:href="#SimHei-2d" x="200"/>
       <use xlink:href="#SimHei-30" x="250"/>
       <use xlink:href="#SimHei-31" x="300"/>
      </g>
     </g>
    </g>
    <g id="xtick_2">
     <g id="line2d_3">
      <path d="M 219.003209 384.48 
L 219.003209 51.84 
" clip-path="url(#p36b14a0cc4)" style="fill: none; stroke: #b0b0b0; stroke-width: 0.8; stroke-linecap: square"/>
     </g>
     <g id="line2d_4">
      <g>
       <use xlink:href="#m4e0b33c462" x="219.003209" y="384.48" style="stroke: #000000; stroke-width: 0.8"/>
      </g>
     </g>
     <g id="text_2">
      <!-- 2024-03 -->
      <g transform="translate(201.503209 398.355) scale(0.1 -0.1)">
       <defs>
        <path id="SimHei-33" d="M 250 1225 
L 700 1300 
Q 800 975 1025 762 
Q 1250 550 1587 562 
Q 1925 575 2125 837 
Q 2325 1100 2300 1437 
Q 2275 1775 2037 1962 
Q 1800 2150 1275 2225 
L 1275 2550 
Q 1800 2600 2037 2825 
Q 2275 3050 2250 3412 
Q 2225 3775 1925 3937 
Q 1625 4100 1287 3975 
Q 950 3850 750 3275 
L 300 3350 
Q 450 3800 712 4100 
Q 975 4400 1425 4450 
Q 1875 4500 2212 4337 
Q 2550 4175 2687 3837 
Q 2825 3500 2725 3100 
Q 2625 2700 2150 2400 
Q 2500 2250 2687 1950 
Q 2875 1650 2812 1162 
Q 2750 675 2375 375 
Q 2000 75 1525 87 
Q 1050 100 700 387 
Q 350 675 250 1225 
z
" transform="scale(0.015625)"/>
       </defs>
       <use xlink:href="#SimHei-32"/>
       <use xlink:href="#SimHei-30" x="50"/>
       <use xlink:href="#SimHei-32" x="100"/>
       <use xlink:href="#SimHei-34" x="150"/>
       <use xlink:href="#SimHei-2d" x="200"/>
       <use xlink:href="#SimHei-30" x="250"/>
       <use xlink:href="#SimHei-33" x="300"/>
      </g>
     </g>
    </g>
    <g id="xtick_3">
     <g id="line2d_5">
      <path d="M 297.012376 384.48 
L 297.012376 51.84 
" clip-path="url(#p36b14a0cc4)" style="fill: none; stroke: #b0b0b0; stroke-width: 0.8; stroke-linecap: square"/>
     </g>
     <g id="line2d_6">
      <g>
       <use xlink:href="#m4e0b33c462" x="297.012376" y="384.48" style="stroke: #000000; stroke-width: 0.8"/>
      </g>
     </g>
     <g id="text_3">
      <!-- 2024-05 -->
      <g transform="translate(279.512376 398.355) scale(0.1 -0.1)">
       <defs>
        <path id="SimHei-35" d="M 550 1325 
Q 725 650 1150 575 
Q 1575 500 1837 662 
Q 2100 825 2212 1087 
Q 2325 1350 2312 1675 
Q 2300 2000 2137 2225 
Q 1975 2450 1725 2525 
Q 1475 2600 1162 2525 
Q 850 2450 650 2175 
L 225 2225 
Q 275 2375 700 4375 
L 2675 4375 
L 2675 3925 
L 1075 3925 
Q 950 3250 825 2850 
Q 1200 3025 1525 3012 
Q 1850 3000 2150 2862 
Q 2450 2725 2587 2487 
Q 2725 2250 2787 2012 
Q 2850 1775 2837 1500 
Q 2825 1225 2725 937 
Q 2625 650 2425 462 
Q 2225 275 1937 162 
Q 1650 50 1275 75 
Q 900 100 562 350 
Q 225 600 100 1200 
L 550 1325 
z
" transform="scale(0.015625)"/>
       </defs>
       <use xlink:href="#SimHei-32"/>
       <use xlink:href="#SimHei-30" x="50"/>
       <use xlink:href="#SimHei-32" x="100"/>
       <use xlink:href="#SimHei-34" x="150"/>
       <use xlink:href="#SimHei-2d" x="200"/>
       <use xlink:href="#SimHei-30" x="250"/>
       <use xlink:href="#SimHei-35" x="300"/>
      </g>
     </g>
    </g>
    <g id="xtick_4">
     <g id="line2d_7">
      <path d="M 375.021543 384.48 
L 375.021543 51.84 
" clip-path="url(#p36b14a0cc4)" style="fill: none; stroke: #b0b0b0; stroke-width: 0.8; stroke-linecap: square"/>
     </g>
     <g id="line2d_8">
      <g>
       <use xlink:href="#m4e0b33c462" x="375.021543" y="384.48" style="stroke: #000000; stroke-width: 0.8"/>
      </g>
     </g>
     <g id="text_4">
      <!-- 2024-07 -->
      <g transform="translate(357.521543 398.355) scale(0.1 -0.1)">
       <defs>
        <path id="SimHei-37" d="M 850 150 
Q 1300 2050 2425 3925 
L 275 3925 
L 275 4375 
L 2950 4375 
L 2950 3950 
Q 1775 2050 1400 150 
L 850 150 
z
" transform="scale(0.015625)"/>
       </defs>
       <use xlink:href="#SimHei-32"/>
       <use xlink:href="#SimHei-30" x="50"/>
       <use xlink:href="#SimHei-32" x="100"/>
       <use xlink:href="#SimHei-34" x="150"/>
       <use xlink:href="#SimHei-2d" x="200"/>
       <use xlink:href="#SimHei-30" x="250"/>
       <use xlink:href="#SimHei-37" x="300"/>
      </g>
     </g>
    </g>
    <g id="xtick_5">
     <g id="line2d_9">
      <path d="M 454.309549 384.48 
L 454.309549 51.84 
" clip-path="url(#p36b14a0cc4)" style="fill: none; stroke: #b0b0b0; stroke-width: 0.8; stroke-linecap: square"/>
     </g>
     <g id="line2d_10">
      <g>
       <use xlink:href="#m4e0b33c462" x="454.309549" y="384.48" style="stroke: #000000; stroke-width: 0.8"/>
      </g>
     </g>
     <g id="text_5">
      <!-- 2024-09 -->
      <g transform="translate(436.809549 398.355) scale(0.1 -0.1)">
       <defs>
        <path id="SimHei-39" d="M 800 75 
Q 1350 1000 1700 1750 
Q 1075 1650 662 1912 
Q 250 2175 162 2625 
Q 75 3075 175 3437 
Q 275 3800 487 4037 
Q 700 4275 1000 4375 
Q 1300 4475 1537 4475 
Q 1775 4475 2025 4375 
Q 2275 4275 2475 4075 
Q 2675 3875 2750 3662 
Q 2825 3450 2825 3112 
Q 2825 2775 2575 2250 
Q 2325 1725 1350 75 
L 800 75 
z
M 662 2875 
Q 700 2550 937 2337 
Q 1175 2125 1450 2150 
Q 1725 2175 1887 2300 
Q 2050 2425 2200 2725 
Q 2300 3100 2250 3362 
Q 2200 3625 1987 3800 
Q 1775 3975 1525 3975 
Q 1375 4000 1137 3900 
Q 900 3800 762 3500 
Q 625 3200 662 2875 
z
" transform="scale(0.015625)"/>
       </defs>
       <use xlink:href="#SimHei-32"/>
       <use xlink:href="#SimHei-30" x="50"/>
       <use xlink:href="#SimHei-32" x="100"/>
       <use xlink:href="#SimHei-34" x="150"/>
       <use xlink:href="#SimHei-2d" x="200"/>
       <use xlink:href="#SimHei-30" x="250"/>
       <use xlink:href="#SimHei-39" x="300"/>
      </g>
     </g>
    </g>
    <g id="xtick_6">
     <g id="line2d_11">
      <path d="M 532.318717 384.48 
L 532.318717 51.84 
" clip-path="url(#p36b14a0cc4)" style="fill: none; stroke: #b0b0b0; stroke-width: 0.8; stroke-linecap: square"/>
     </g>
     <g id="line2d_12">
      <g>
       <use xlink:href="#m4e0b33c462" x="532.318717" y="384.48" style="stroke: #000000; stroke-width: 0.8"/>
      </g>
     </g>
     <g id="text_6">
      <!-- 2024-11 -->
      <g transform="translate(514.818717 398.355) scale(0.1 -0.1)">
       <use xlink:href="#SimHei-32"/>
       <use xlink:href="#SimHei-30" x="50"/>
       <use xlink:href="#SimHei-32" x="100"/>
       <use xlink:href="#SimHei-34" x="150"/>
       <use xlink:href="#SimHei-2d" x="200"/>
       <use xlink:href="#SimHei-31" x="250"/>
       <use xlink:href="#SimHei-31" x="300"/>
      </g>
     </g>
    </g>
    <g id="xtick_7">
     <g id="line2d_13">
      <path d="M 610.327884 384.48 
L 610.327884 51.84 
" clip-path="url(#p36b14a0cc4)" style="fill: none; stroke: #b0b0b0; stroke-width: 0.8; stroke-linecap: square"/>
     </g>
     <g id="line2d_14">
      <g>
       <use xlink:href="#m4e0b33c462" x="610.327884" y="384.48" style="stroke: #000000; stroke-width: 0.8"/>
      </g>
     </g>
     <g id="text_7">
      <!-- 2025-01 -->
      <g transform="translate(592.827884 398.355) scale(0.1 -0.1)">
       <use xlink:href="#SimHei-32"/>
       <use xlink:href="#SimHei-30" x="50"/>
       <use xlink:href="#SimHei-32" x="100"/>
       <use xlink:href="#SimHei-35" x="150"/>
       <use xlink:href="#SimHei-2d" x="200"/>
       <use xlink:href="#SimHei-30" x="250"/>
       <use xlink:href="#SimHei-31" x="300"/>
      </g>
     </g>
    </g>
    <g id="xtick_8">
     <g id="line2d_15">
      <path d="M 685.779374 384.48 
L 685.779374 51.84 
" clip-path="url(#p36b14a0cc4)" style="fill: none; stroke: #b0b0b0; stroke-width: 0.8; stroke-linecap: square"/>
     </g>
     <g id="line2d_16">
      <g>
       <use xlink:href="#m4e0b33c462" x="685.779374" y="384.48" style="stroke: #000000; stroke-width: 0.8"/>
      </g>
     </g>
     <g id="text_8">
      <!-- 2025-03 -->
      <g transform="translate(668.279374 398.355) scale(0.1 -0.1)">
       <use xlink:href="#SimHei-32"/>
       <use xlink:href="#SimHei-30" x="50"/>
       <use xlink:href="#SimHei-32" x="100"/>
       <use xlink:href="#SimHei-35" x="150"/>
       <use xlink:href="#SimHei-2d" x="200"/>
       <use xlink:href="#SimHei-30" x="250"/>
       <use xlink:href="#SimHei-33" x="300"/>
      </g>
     </g>
    </g>
    <g id="xtick_9">
     <g id="line2d_17">
      <path d="M 763.788541 384.48 
L 763.788541 51.84 
" clip-path="url(#p36b14a0cc4)" style="fill: none; stroke: #b0b0b0; stroke-width: 0.8; stroke-linecap: square"/>
     </g>
     <g id="line2d_18">
      <g>
       <use xlink:href="#m4e0b33c462" x="763.788541" y="384.48" style="stroke: #000000; stroke-width: 0.8"/>
      </g>
     </g>
     <g id="text_9">
      <!-- 2025-05 -->
      <g transform="translate(746.288541 398.355) scale(0.1 -0.1)">
       <use xlink:href="#SimHei-32"/>
       <use xlink:href="#SimHei-30" x="50"/>
       <use xlink:href="#SimHei-32" x="100"/>
       <use xlink:href="#SimHei-35" x="150"/>
       <use xlink:href="#SimHei-2d" x="200"/>
       <use xlink:href="#SimHei-30" x="250"/>
       <use xlink:href="#SimHei-35" x="300"/>
      </g>
     </g>
    </g>
   </g>
   <g id="matplotlib.axis_2">
    <g id="ytick_1">
     <g id="line2d_19">
      <path d="M 108 366.312913 
L 777.6 366.312913 
" clip-path="url(#p36b14a0cc4)" style="fill: none; stroke: #b0b0b0; stroke-width: 0.8; stroke-linecap: square"/>
     </g>
     <g id="line2d_20">
      <defs>
       <path id="m249c181647" d="M 0 0 
L -3.5 0 
" style="stroke: #000000; stroke-width: 0.8"/>
      </defs>
      <g>
       <use xlink:href="#m249c181647" x="108" y="366.312913" style="stroke: #000000; stroke-width: 0.8"/>
      </g>
     </g>
     <g id="text_10">
      <!-- 100 -->
      <g transform="translate(86 369.750413) scale(0.1 -0.1)">
       <use xlink:href="#SimHei-31"/>
       <use xlink:href="#SimHei-30" x="50"/>
       <use xlink:href="#SimHei-30" x="100"/>
      </g>
     </g>
    </g>
    <g id="ytick_2">
     <g id="line2d_21">
      <path d="M 108 304.014895 
L 777.6 304.014895 
" clip-path="url(#p36b14a0cc4)" style="fill: none; stroke: #b0b0b0; stroke-width: 0.8; stroke-linecap: square"/>
     </g>
     <g id="line2d_22">
      <g>
       <use xlink:href="#m249c181647" x="108" y="304.014895" style="stroke: #000000; stroke-width: 0.8"/>
      </g>
     </g>
     <g id="text_11">
      <!-- 110 -->
      <g transform="translate(86 307.452395) scale(0.1 -0.1)">
       <use xlink:href="#SimHei-31"/>
       <use xlink:href="#SimHei-31" x="50"/>
       <use xlink:href="#SimHei-30" x="100"/>
      </g>
     </g>
    </g>
    <g id="ytick_3">
     <g id="line2d_23">
      <path d="M 108 241.716877 
L 777.6 241.716877 
" clip-path="url(#p36b14a0cc4)" style="fill: none; stroke: #b0b0b0; stroke-width: 0.8; stroke-linecap: square"/>
     </g>
     <g id="line2d_24">
      <g>
       <use xlink:href="#m249c181647" x="108" y="241.716877" style="stroke: #000000; stroke-width: 0.8"/>
      </g>
     </g>
     <g id="text_12">
      <!-- 120 -->
      <g transform="translate(86 245.154377) scale(0.1 -0.1)">
       <use xlink:href="#SimHei-31"/>
       <use xlink:href="#SimHei-32" x="50"/>
       <use xlink:href="#SimHei-30" x="100"/>
      </g>
     </g>
    </g>
    <g id="ytick_4">
     <g id="line2d_25">
      <path d="M 108 179.418859 
L 777.6 179.418859 
" clip-path="url(#p36b14a0cc4)" style="fill: none; stroke: #b0b0b0; stroke-width: 0.8; stroke-linecap: square"/>
     </g>
     <g id="line2d_26">
      <g>
       <use xlink:href="#m249c181647" x="108" y="179.418859" style="stroke: #000000; stroke-width: 0.8"/>
      </g>
     </g>
     <g id="text_13">
      <!-- 130 -->
      <g transform="translate(86 182.856359) scale(0.1 -0.1)">
       <use xlink:href="#SimHei-31"/>
       <use xlink:href="#SimHei-33" x="50"/>
       <use xlink:href="#SimHei-30" x="100"/>
      </g>
     </g>
    </g>
    <g id="ytick_5">
     <g id="line2d_27">
      <path d="M 108 117.120841 
L 777.6 117.120841 
" clip-path="url(#p36b14a0cc4)" style="fill: none; stroke: #b0b0b0; stroke-width: 0.8; stroke-linecap: square"/>
     </g>
     <g id="line2d_28">
      <g>
       <use xlink:href="#m249c181647" x="108" y="117.120841" style="stroke: #000000; stroke-width: 0.8"/>
      </g>
     </g>
     <g id="text_14">
      <!-- 140 -->
      <g transform="translate(86 120.558341) scale(0.1 -0.1)">
       <use xlink:href="#SimHei-31"/>
       <use xlink:href="#SimHei-34" x="50"/>
       <use xlink:href="#SimHei-30" x="100"/>
      </g>
     </g>
    </g>
    <g id="ytick_6">
     <g id="line2d_29">
      <path d="M 108 54.822823 
L 777.6 54.822823 
" clip-path="url(#p36b14a0cc4)" style="fill: none; stroke: #b0b0b0; stroke-width: 0.8; stroke-linecap: square"/>
     </g>
     <g id="line2d_30">
      <g>
       <use xlink:href="#m249c181647" x="108" y="54.822823" style="stroke: #000000; stroke-width: 0.8"/>
      </g>
     </g>
     <g id="text_15">
      <!-- 150 -->
      <g transform="translate(86 58.260323) scale(0.1 -0.1)">
       <use xlink:href="#SimHei-31"/>
       <use xlink:href="#SimHei-35" x="50"/>
       <use xlink:href="#SimHei-30" x="100"/>
      </g>
     </g>
    </g>
    <g id="text_16">
     <!-- 组合价值 -->
     <g transform="translate(80.75 238.16) rotate(-90) scale(0.1 -0.1)">
      <defs>
       <path id="SimHei-7ec4" d="M 6125 -425 
Q 5750 -400 5225 -400 
L 3275 -400 
Q 2775 -400 2400 -425 
L 2400 50 
Q 2725 25 2950 25 
L 2950 3775 
Q 2950 4375 2900 4625 
L 5525 4625 
Q 5500 4400 5500 3775 
L 5500 25 
Q 5825 25 6125 50 
L 6125 -425 
z
M 1725 4825 
Q 1500 4550 1287 4137 
Q 1075 3725 725 3050 
Q 950 3050 1550 3075 
Q 1800 3550 1900 3975 
Q 2075 3825 2450 3675 
Q 2225 3350 1937 2875 
Q 1650 2400 1150 1625 
Q 1950 1725 2425 1775 
L 2425 1350 
Q 2100 1325 1575 1250 
Q 1050 1175 575 1050 
Q 550 1300 400 1575 
Q 675 1675 912 1975 
Q 1150 2275 1375 2725 
Q 1225 2725 950 2687 
Q 675 2650 425 2525 
Q 325 2825 225 3050 
Q 450 3300 712 3862 
Q 975 4425 1150 5075 
Q 1425 4925 1725 4825 
z
M 5025 25 
L 5025 1275 
L 3425 1275 
L 3425 25 
L 5025 25 
z
M 5025 3125 
L 5025 4225 
L 3425 4225 
L 3425 3125 
L 5025 3125 
z
M 5025 1700 
L 5025 2725 
L 3425 2725 
L 3425 1700 
L 5025 1700 
z
M 2375 175 
Q 1875 100 1375 -12 
Q 875 -125 450 -300 
Q 375 -75 250 250 
Q 925 325 1162 375 
Q 1400 425 2375 600 
L 2375 175 
z
" transform="scale(0.015625)"/>
       <path id="SimHei-5408" d="M 5050 1800 
Q 5025 1550 5025 650 
Q 5025 -250 5050 -525 
L 4525 -525 
L 4525 -50 
L 1750 -50 
L 1750 -600 
L 1250 -600 
Q 1275 -300 1275 550 
Q 1275 1425 1250 1800 
L 5050 1800 
z
M 3375 4800 
Q 4100 3925 4550 3600 
Q 5000 3275 5375 3100 
Q 5750 2925 6100 2825 
Q 5850 2550 5775 2300 
Q 5275 2525 4875 2775 
Q 4475 3025 4062 3412 
Q 3650 3800 3125 4475 
Q 2650 3800 2187 3362 
Q 1725 2925 1400 2675 
Q 1075 2425 675 2175 
Q 625 2275 275 2575 
Q 800 2825 1275 3175 
Q 1750 3525 2225 4062 
Q 2700 4600 3000 5225 
Q 3275 5050 3500 4950 
L 3375 4800 
z
M 4525 350 
L 4525 1400 
L 1750 1400 
L 1750 350 
L 4525 350 
z
M 3925 2825 
Q 4325 2825 4625 2850 
L 4625 2375 
Q 4300 2400 3950 2400 
L 2550 2400 
Q 2025 2400 1700 2375 
L 1700 2850 
Q 2175 2825 2550 2825 
L 3925 2825 
z
" transform="scale(0.015625)"/>
       <path id="SimHei-4ef7" d="M 2200 4975 
Q 2050 4725 1650 3775 
L 1650 450 
Q 1650 -225 1675 -650 
L 1175 -650 
Q 1175 -225 1200 450 
L 1200 2975 
Q 900 2425 650 2100 
Q 525 2275 225 2450 
Q 750 3025 1125 3800 
Q 1500 4575 1625 5175 
Q 1950 5025 2200 4975 
z
M 4175 4700 
Q 4850 3525 6150 2950 
Q 5925 2750 5775 2500 
Q 4725 3100 3950 4300 
Q 3300 3125 2250 2350 
Q 2125 2525 1900 2725 
Q 2825 3325 3250 4050 
Q 3675 4775 3750 5150 
Q 4150 4950 4325 4900 
L 4175 4700 
z
M 3475 2650 
Q 3400 2075 3325 1087 
Q 3250 100 2325 -675 
Q 2175 -450 1925 -300 
Q 2850 350 2912 1262 
Q 2975 2175 2950 2700 
Q 3275 2650 3475 2650 
z
M 5075 2700 
Q 5050 2150 5050 1725 
L 5050 150 
Q 5050 -225 5075 -650 
L 4550 -650 
Q 4575 -225 4575 175 
L 4575 1875 
Q 4575 2150 4550 2700 
L 5075 2700 
z
" transform="scale(0.015625)"/>
       <path id="SimHei-503c" d="M 3675 4450 
L 3675 5100 
Q 3975 5075 4350 5050 
Q 4225 4875 4200 4450 
L 5125 4450 
Q 5550 4450 5875 4475 
L 5875 4025 
Q 5525 4050 5125 4050 
L 4175 4050 
L 4125 3500 
L 5400 3500 
Q 5375 3200 5375 2700 
L 5375 150 
Q 5875 150 6100 175 
L 6100 -275 
Q 5775 -250 5200 -250 
L 2850 -250 
Q 2275 -250 1900 -275 
L 1900 175 
Q 2125 150 2600 150 
L 2600 2700 
Q 2600 3175 2575 3500 
L 3600 3500 
L 3650 4050 
L 3200 4050 
Q 2575 4050 2225 4025 
L 2225 4475 
Q 2550 4450 3200 4450 
L 3675 4450 
z
M 2225 4900 
Q 2025 4675 1650 3750 
L 1650 450 
Q 1650 -75 1675 -550 
L 1150 -550 
Q 1175 -125 1175 375 
L 1175 2950 
Q 875 2450 625 2150 
Q 425 2425 250 2575 
Q 500 2825 937 3537 
Q 1375 4250 1625 5150 
Q 1975 4975 2225 4900 
z
M 4925 2650 
L 4925 3150 
L 3075 3150 
L 3075 2650 
L 4925 2650 
z
M 4925 150 
L 4925 625 
L 3075 625 
L 3075 150 
L 4925 150 
z
M 4925 1000 
L 4925 1450 
L 3075 1450 
L 3075 1000 
L 4925 1000 
z
M 4925 1825 
L 4925 2275 
L 3075 2275 
L 3075 1825 
L 4925 1825 
z
" transform="scale(0.015625)"/>
      </defs>
      <use xlink:href="#SimHei-7ec4"/>
      <use xlink:href="#SimHei-5408" x="100"/>
      <use xlink:href="#SimHei-4ef7" x="200"/>
      <use xlink:href="#SimHei-503c" x="300"/>
     </g>
    </g>
   </g>
   <g id="line2d_31">
    <path d="M 138.436364 366.312913 
L 143.551719 362.838146 
L 144.830558 363.332816 
L 146.109396 361.684423 
L 147.388235 362.005215 
L 151.224752 365.443161 
L 152.503591 358.738223 
L 153.782429 360.577156 
L 155.061268 359.90587 
L 156.340107 358.956274 
L 160.176623 354.72197 
L 161.455462 354.909574 
L 162.734301 360.799591 
L 164.01314 361.922413 
L 165.291979 358.380018 
L 169.128495 358.950193 
L 170.407334 359.389221 
L 171.686173 353.284972 
L 172.965011 347.85967 
L 174.24385 344.057445 
L 178.080367 342.083334 
L 179.359206 339.748564 
L 180.638044 345.607763 
L 181.916883 350.211356 
L 183.195722 344.015047 
L 187.032238 344.173209 
L 188.311077 340.534928 
L 189.589916 338.414186 
L 190.868755 333.418011 
L 204.935982 329.111259 
L 206.21482 327.754669 
L 207.493659 328.87182 
L 208.772498 321.752227 
L 210.051337 319.088489 
L 213.887853 327.31698 
L 215.166692 325.733572 
L 216.445531 327.21079 
L 217.72437 326.189431 
L 219.003209 322.408825 
L 222.839725 315.240991 
L 224.118564 311.95007 
L 225.397403 310.666752 
L 226.676241 307.768104 
L 227.95508 303.44071 
L 231.791597 307.601826 
L 233.070435 315.221993 
L 234.349274 314.888984 
L 235.628113 313.541566 
L 236.906952 313.872524 
L 240.743468 315.416092 
L 242.022307 317.220708 
L 243.301146 314.438675 
L 244.579985 305.513837 
L 245.858824 308.411772 
L 249.69534 308.084485 
L 250.974179 306.293595 
L 252.253018 306.964399 
L 253.531856 304.974966 
L 254.810695 297.233087 
L 258.647212 294.20675 
L 259.92605 292.732921 
L 261.204889 288.475632 
L 267.599083 282.587921 
L 268.877922 283.893251 
L 270.156761 282.608596 
L 271.4356 283.401051 
L 272.714439 274.349775 
L 276.550955 272.9415 
L 277.829794 278.528342 
L 279.108633 272.813088 
L 280.387471 274.076528 
L 281.66631 276.20632 
L 285.502827 287.49894 
L 286.781665 296.54874 
L 288.060504 289.574353 
L 289.339343 290.924929 
L 290.618182 289.844229 
L 294.454698 291.077342 
L 295.733537 290.060428 
L 303.40657 289.438661 
L 304.685409 286.990863 
L 305.964248 285.785118 
L 307.243086 284.418363 
L 308.521925 277.278091 
L 312.358442 275.68879 
L 313.63728 276.480936 
L 314.916119 273.765398 
L 316.194958 267.857786 
L 317.473797 266.485591 
L 321.310313 257.701824 
L 322.589152 258.566816 
L 323.867991 257.156977 
L 326.425668 269.121142 
L 330.262185 260.076586 
L 331.541024 260.856516 
L 332.819862 260.103867 
L 334.098701 267.293088 
L 335.37754 266.19843 
L 339.214057 271.037105 
L 340.492895 268.159501 
L 341.771734 271.794111 
L 343.050573 263.214216 
L 344.329412 259.976151 
L 349.444767 272.066899 
L 350.723606 265.257219 
L 352.002445 264.083259 
L 353.281283 263.432957 
L 357.1178 265.44002 
L 358.396639 260.204467 
L 359.675477 259.013614 
L 360.954316 254.956267 
L 362.233155 257.299495 
L 366.069672 264.946515 
L 367.34851 265.804581 
L 368.627349 261.22326 
L 369.906188 261.421804 
L 371.185027 252.069469 
L 376.300382 245.734129 
L 377.579221 243.298067 
L 378.85806 243.879453 
L 380.136898 242.292176 
L 383.973415 237.20986 
L 385.252254 230.457593 
L 386.531092 236.883972 
L 387.809931 235.65852 
L 389.08877 246.869567 
L 392.925286 234.382632 
L 394.204125 232.939985 
L 396.761803 238.068033 
L 398.040642 251.780939 
L 401.877158 257.768599 
L 403.155997 256.844381 
L 404.434836 259.322246 
L 405.713675 272.187191 
L 406.992513 271.707241 
L 410.82903 261.16722 
L 412.107869 266.415332 
L 413.386707 260.115276 
L 414.665546 255.841105 
L 415.944385 267.658856 
L 419.780901 293.58483 
L 421.05974 289.595835 
L 422.338579 288.467573 
L 423.617418 291.192565 
L 424.896257 283.17666 
L 428.732773 278.849891 
L 430.011612 273.939857 
L 431.290451 270.520855 
L 432.56929 264.175409 
L 433.848128 253.133426 
L 437.684645 251.09589 
L 438.963484 248.961001 
L 440.242322 251.49107 
L 441.521161 251.484121 
L 442.8 254.256984 
L 446.636516 254.353462 
L 447.915355 255.234795 
L 449.194194 257.235904 
L 450.473033 270.170102 
L 451.751872 270.071745 
L 455.588388 268.764083 
L 456.867227 271.361016 
L 458.146066 286.332056 
L 459.424905 285.209748 
L 460.703743 284.555406 
L 464.54026 290.65003 
L 465.819099 288.681812 
L 467.097937 291.802156 
L 468.376776 283.316211 
L 469.655615 277.692914 
L 476.049809 277.131627 
L 477.328648 273.152908 
L 478.607487 271.413018 
L 482.444003 264.995722 
L 483.722842 255.298781 
L 485.001681 251.687891 
L 486.280519 240.189413 
L 487.559358 248.119288 
L 491.395875 233.042324 
L 501.626585 230.655548 
L 502.905424 250.430288 
L 504.184263 233.663759 
L 505.463102 235.467181 
L 509.299618 224.602798 
L 510.578457 226.433477 
L 511.857296 221.059972 
L 513.136134 221.626981 
L 514.414973 220.491058 
L 518.25149 220.573783 
L 519.530328 219.687663 
L 520.809167 218.308321 
L 522.088006 224.753267 
L 523.366845 225.177917 
L 527.203361 220.768225 
L 528.4822 223.947882 
L 529.761039 215.396212 
L 531.039878 221.422402 
L 532.318717 223.069424 
L 536.155233 223.541259 
L 537.434072 221.609176 
L 539.991749 207.739404 
L 541.270588 210.673078 
L 545.107105 212.993984 
L 546.385943 219.784929 
L 547.664782 219.930986 
L 548.943621 226.280338 
L 550.22246 230.177472 
L 554.058976 222.10563 
L 555.337815 217.067931 
L 556.616654 212.966361 
L 557.895493 211.175212 
L 559.174332 214.249365 
L 563.010848 215.474905 
L 564.289687 218.07275 
L 565.568526 212.217504 
L 566.847364 215.705311 
L 568.126203 212.492647 
L 571.96272 214.022661 
L 573.241558 204.633506 
L 574.520397 202.432405 
L 577.078075 199.164838 
L 580.914591 193.646934 
L 582.19343 193.75785 
L 583.472269 191.301507 
L 584.751108 185.287705 
L 586.029947 190.782293 
L 589.866463 185.317726 
L 591.145302 181.827475 
L 592.424141 175.999487 
L 593.702979 189.643389 
L 594.981818 196.727156 
L 598.818335 182.574144 
L 600.097173 183.807026 
L 601.376012 178.815063 
L 602.654851 178.976073 
L 603.93369 180.040797 
L 607.770206 182.960883 
L 609.049045 184.792326 
L 611.606723 187.728565 
L 612.885561 191.091443 
L 616.722078 185.317992 
L 618.000917 187.049789 
L 619.279756 186.489188 
L 621.837433 191.52962 
L 625.67395 201.019096 
L 626.952788 195.275284 
L 628.231627 194.80188 
L 629.510466 186.211194 
L 630.789305 186.469565 
L 634.625821 183.579009 
L 637.183499 186.834874 
L 639.741176 182.226063 
L 643.577693 186.344885 
L 655.087242 183.012103 
L 656.366081 183.111062 
L 661.481436 181.026511 
L 662.760275 174.530134 
L 664.039114 175.21441 
L 665.317953 171.993631 
L 666.596791 169.222106 
L 670.433308 173.958007 
L 671.712147 168.851651 
L 672.990985 169.255539 
L 674.269824 171.609988 
L 675.548663 177.329995 
L 679.38518 182.461862 
L 680.664018 188.199266 
L 681.942857 188.055287 
L 683.221696 185.794469 
L 684.500535 198.38902 
L 688.337051 193.915569 
L 689.61589 195.805442 
L 690.894729 189.362546 
L 692.173568 191.183652 
L 693.452406 196.679456 
L 697.288923 198.707673 
L 698.567762 209.082069 
L 699.8466 207.69239 
L 701.125439 205.475082 
L 702.404278 197.468569 
L 706.240794 195.597088 
L 707.519633 191.775559 
L 708.798472 189.312721 
L 710.077311 185.260531 
L 711.35615 188.620932 
L 715.192666 181.931771 
L 716.471505 177.28814 
L 717.750344 177.633708 
L 719.029183 180.472834 
L 720.308021 178.084605 
L 724.144538 184.906463 
L 725.423377 178.846841 
L 726.702215 177.800596 
L 727.981054 178.933092 
L 733.096409 226.116591 
L 734.375248 210.326176 
L 735.654087 209.754154 
L 736.932926 182.064288 
L 738.211765 180.359621 
L 742.048281 173.278812 
L 743.32712 173.336617 
L 744.605959 168.785668 
L 745.884798 165.523967 
L 747.163636 165.098433 
L 747.163636 165.098433 
" clip-path="url(#p36b14a0cc4)" style="fill: none; stroke: #1f77b4; stroke-width: 1.5; stroke-linecap: square"/>
   </g>
   <g id="line2d_32">
    <path d="M 138.436364 366.312913 
L 143.551719 363.062428 
L 144.830558 362.876377 
L 146.109396 362.475322 
L 147.388235 361.599612 
L 151.224752 364.547829 
L 152.503591 361.689108 
L 153.782429 363.972068 
L 155.061268 364.190444 
L 156.340107 362.516759 
L 160.176623 358.567227 
L 161.455462 357.996341 
L 162.734301 364.290928 
L 164.01314 366.147339 
L 165.291979 363.222454 
L 169.128495 366.146366 
L 170.407334 365.453616 
L 171.686173 362.357602 
L 172.965011 360.186539 
L 174.24385 356.374697 
L 178.080367 354.984039 
L 179.359206 353.581205 
L 180.638044 355.702814 
L 181.916883 356.939001 
L 183.195722 353.700185 
L 187.032238 356.237867 
L 188.311077 354.827341 
L 189.589916 352.734545 
L 190.868755 349.474116 
L 204.935982 347.801084 
L 206.21482 346.965044 
L 207.493659 347.090649 
L 208.772498 343.926244 
L 210.051337 343.456799 
L 213.887853 346.563385 
L 215.166692 345.917276 
L 216.445531 347.014962 
L 217.72437 346.016436 
L 219.003209 343.153878 
L 222.839725 335.984489 
L 224.118564 329.603731 
L 225.397403 326.597787 
L 226.676241 320.933668 
L 227.95508 319.243348 
L 231.791597 319.920501 
L 233.070435 325.696163 
L 234.349274 326.337672 
L 235.628113 325.150214 
L 236.906952 323.629347 
L 240.743468 326.96268 
L 242.022307 327.154887 
L 243.301146 325.035646 
L 244.579985 314.262982 
L 245.858824 317.953332 
L 249.69534 316.991639 
L 250.974179 315.538887 
L 252.253018 314.413243 
L 253.531856 310.735929 
L 254.810695 299.950414 
L 258.647212 296.722261 
L 259.92605 295.409523 
L 261.204889 288.030006 
L 267.599083 276.77216 
L 268.877922 276.592708 
L 270.156761 274.681174 
L 271.4356 277.098548 
L 272.714439 262.625493 
L 276.550955 267.016916 
L 277.829794 266.709764 
L 279.108633 262.678269 
L 280.387471 264.306684 
L 281.66631 263.11439 
L 285.502827 276.366776 
L 286.781665 290.226303 
L 288.060504 283.8165 
L 289.339343 283.722404 
L 290.618182 281.124627 
L 294.454698 284.288177 
L 295.733537 284.247696 
L 303.40657 285.909809 
L 304.685409 283.92182 
L 307.243086 283.48858 
L 308.521925 271.93093 
L 312.358442 273.288359 
L 313.63728 274.39813 
L 314.916119 270.539089 
L 316.194958 264.812832 
L 317.473797 263.957643 
L 321.310313 250.28914 
L 322.589152 255.471961 
L 323.867991 254.207908 
L 325.14683 266.153625 
L 326.425668 271.88353 
L 330.262185 265.997764 
L 331.541024 266.873334 
L 332.819862 263.87701 
L 334.098701 270.929181 
L 335.37754 268.525449 
L 339.214057 274.555973 
L 340.492895 269.575309 
L 341.771734 273.468394 
L 343.050573 264.555931 
L 344.329412 262.737865 
L 349.444767 280.138432 
L 350.723606 274.769706 
L 352.002445 274.831476 
L 353.281283 274.26647 
L 357.1178 275.26718 
L 358.396639 272.763152 
L 359.675477 270.566175 
L 360.954316 265.783647 
L 362.233155 264.861295 
L 366.069672 274.759156 
L 367.34851 273.863298 
L 368.627349 274.083327 
L 369.906188 276.307889 
L 371.185027 268.06352 
L 375.021543 265.058229 
L 376.300382 263.799056 
L 377.579221 261.138001 
L 380.136898 258.450685 
L 383.973415 256.619027 
L 385.252254 254.903866 
L 386.531092 256.029759 
L 387.809931 254.009538 
L 389.08877 256.071604 
L 392.925286 251.080421 
L 394.204125 246.230869 
L 395.482964 242.403917 
L 396.761803 243.371766 
L 398.040642 259.666394 
L 401.877158 262.792642 
L 403.155997 264.627629 
L 404.434836 260.43887 
L 405.713675 275.517364 
L 406.992513 274.149131 
L 410.82903 267.227077 
L 412.107869 269.164635 
L 413.386707 263.122074 
L 414.665546 258.284655 
L 415.944385 261.039564 
L 419.780901 281.39136 
L 421.05974 283.057845 
L 422.338579 280.537128 
L 423.617418 281.777243 
L 424.896257 275.258892 
L 428.732773 270.500393 
L 430.011612 265.811192 
L 431.290451 266.00108 
L 432.56929 263.84861 
L 433.848128 258.743718 
L 437.684645 252.76936 
L 438.963484 252.496677 
L 440.242322 252.363679 
L 441.521161 253.194119 
L 442.8 255.664778 
L 446.636516 253.190515 
L 447.915355 253.457133 
L 449.194194 254.994544 
L 450.473033 260.702134 
L 451.751872 261.896704 
L 455.588388 263.464305 
L 456.867227 264.365948 
L 458.146066 272.848394 
L 459.424905 269.790975 
L 460.703743 268.93409 
L 464.54026 275.049365 
L 465.819099 271.65517 
L 467.097937 272.08927 
L 468.376776 269.400147 
L 469.655615 261.695242 
L 476.049809 260.687419 
L 477.328648 259.841575 
L 478.607487 254.762703 
L 482.444003 248.243444 
L 485.001681 237.623137 
L 486.280519 230.686419 
L 487.559358 236.766369 
L 491.395875 227.350533 
L 501.626585 225.066714 
L 502.905424 243.008578 
L 504.184263 231.289937 
L 505.463102 228.601108 
L 509.299618 218.369306 
L 510.578457 220.468843 
L 511.857296 211.203145 
L 513.136134 210.607766 
L 514.414973 206.94372 
L 518.25149 202.154891 
L 519.530328 201.730899 
L 520.809167 198.531375 
L 522.088006 205.704319 
L 523.366845 205.765182 
L 527.203361 202.620737 
L 528.4822 201.078976 
L 529.761039 193.086028 
L 531.039878 198.194572 
L 532.318717 201.798312 
L 536.155233 204.69106 
L 538.712911 201.562445 
L 539.991749 207.576223 
L 541.270588 206.820633 
L 545.107105 207.776073 
L 546.385943 217.982315 
L 547.664782 218.418624 
L 548.943621 229.639265 
L 550.22246 231.004753 
L 554.058976 221.446365 
L 555.337815 212.284011 
L 556.616654 210.697499 
L 557.895493 204.603135 
L 559.174332 201.911609 
L 563.010848 208.973779 
L 564.289687 215.023964 
L 565.568526 208.152288 
L 566.847364 211.74357 
L 568.126203 206.525057 
L 571.96272 210.718599 
L 573.241558 202.171962 
L 574.520397 201.371571 
L 575.799236 200.893689 
L 577.078075 201.195237 
L 580.914591 196.507269 
L 582.19343 194.746229 
L 583.472269 190.041479 
L 584.751108 184.7668 
L 586.029947 191.6263 
L 589.866463 192.408292 
L 591.145302 192.072331 
L 592.424141 189.989019 
L 593.702979 199.327702 
L 594.981818 201.8961 
L 598.818335 192.030245 
L 600.097173 194.127294 
L 601.376012 190.758409 
L 602.654851 190.706934 
L 603.93369 190.511123 
L 609.049045 193.463312 
L 611.606723 192.386074 
L 612.885561 190.782218 
L 616.722078 191.366518 
L 618.000917 191.060786 
L 619.279756 188.451621 
L 620.558594 187.499036 
L 621.837433 186.407761 
L 625.67395 189.597238 
L 626.952788 190.247745 
L 628.231627 187.382906 
L 629.510466 182.183778 
L 630.789305 181.231473 
L 634.625821 180.951959 
L 635.90466 182.123684 
L 638.462338 177.406942 
L 639.741176 174.058248 
L 643.577693 175.877103 
L 655.087242 158.711706 
L 656.366081 161.358077 
L 657.64492 159.813321 
L 661.481436 152.151497 
L 662.760275 144.363397 
L 664.039114 147.819826 
L 666.596791 140.560758 
L 670.433308 150.402919 
L 671.712147 143.968178 
L 672.990985 141.078078 
L 674.269824 140.683667 
L 675.548663 146.980809 
L 679.38518 148.14793 
L 680.664018 150.701967 
L 681.942857 154.720127 
L 683.221696 155.229432 
L 684.500535 163.716574 
L 688.337051 161.589944 
L 689.61589 158.779947 
L 690.894729 152.486361 
L 692.173568 154.27115 
L 693.452406 157.102566 
L 697.288923 156.919559 
L 698.567762 163.335378 
L 699.8466 161.181347 
L 701.125439 156.520867 
L 702.404278 145.916754 
L 706.240794 144.689907 
L 707.519633 139.766365 
L 708.798472 133.224212 
L 710.077311 131.373497 
L 711.35615 135.133238 
L 715.192666 131.89333 
L 716.471505 130.169592 
L 717.750344 128.961613 
L 719.029183 128.625972 
L 720.308021 118.819505 
L 724.144538 116.046476 
L 725.423377 110.420612 
L 726.702215 111.621526 
L 727.981054 107.124668 
L 733.096409 144.087414 
L 734.375248 133.281943 
L 735.654087 126.970063 
L 736.932926 105.312269 
L 738.211765 96.988463 
L 742.048281 89.963736 
L 743.32712 89.482622 
L 744.605959 74.349277 
L 745.884798 68.594295 
L 747.163636 66.96 
L 747.163636 66.96 
" clip-path="url(#p36b14a0cc4)" style="fill: none; stroke-dasharray: 5.55,2.4; stroke-dashoffset: 0; stroke: #ff7f0e; stroke-width: 1.5"/>
   </g>
   <g id="line2d_33">
    <path d="M 143.551719 366.312913 
L 144.830558 366.146576 
L 146.109396 365.787849 
L 147.388235 364.927279 
L 151.224752 367.814536 
L 152.503591 364.937164 
L 153.782429 367.199791 
L 155.061268 367.384185 
L 156.340107 365.715647 
L 160.176623 361.790408 
L 161.455462 361.232484 
L 162.734301 367.47844 
L 164.01314 369.317153 
L 165.291979 366.390682 
L 169.128495 369.36 
L 170.407334 368.594616 
L 171.686173 365.486536 
L 172.965011 363.346765 
L 174.24385 359.581463 
L 178.080367 358.197523 
L 179.359206 356.778574 
L 180.638044 358.81336 
L 181.916883 359.907159 
L 183.195722 356.602129 
L 187.032238 359.217762 
L 188.311077 357.99791 
L 189.589916 356.053928 
L 190.868755 352.698617 
L 204.935982 351.423242 
L 206.21482 350.743079 
L 207.493659 350.978847 
L 208.772498 348.026098 
L 210.051337 347.621045 
L 213.887853 350.091864 
L 215.166692 349.58908 
L 216.445531 350.535051 
L 217.72437 349.676641 
L 219.003209 346.739933 
L 222.839725 339.47712 
L 224.118564 333.050328 
L 225.397403 329.94684 
L 226.676241 324.23433 
L 227.95508 322.568269 
L 231.791597 323.170018 
L 233.070435 328.628944 
L 234.349274 329.230247 
L 235.628113 328.065099 
L 236.906952 326.561674 
L 240.743468 329.939593 
L 242.022307 330.096808 
L 243.301146 328.02131 
L 244.579985 317.160352 
L 245.858824 320.822946 
L 249.69534 319.887934 
L 250.974179 318.415118 
L 252.253018 317.213849 
L 253.531856 313.543994 
L 254.810695 302.878583 
L 259.92605 298.372692 
L 261.204889 291.132785 
L 267.599083 279.605157 
L 268.877922 279.303627 
L 270.156761 277.370603 
L 271.4356 280.017429 
L 272.714439 265.16602 
L 276.550955 269.928994 
L 277.829794 269.567042 
L 279.108633 265.837302 
L 280.387471 267.510356 
L 281.66631 266.387633 
L 285.502827 279.472327 
L 286.781665 293.284431 
L 288.060504 286.602614 
L 289.339343 286.685164 
L 290.618182 283.726974 
L 294.454698 286.898837 
L 295.733537 286.931427 
L 303.40657 288.770355 
L 304.685409 286.751658 
L 305.964248 286.608143 
L 307.243086 286.258252 
L 308.521925 275.060938 
L 312.358442 276.171111 
L 313.63728 277.300397 
L 314.916119 273.614346 
L 316.194958 268.018158 
L 317.473797 267.042036 
L 321.310313 253.719686 
L 322.589152 258.53559 
L 323.867991 257.321484 
L 325.14683 268.931405 
L 326.425668 274.481913 
L 330.262185 268.388704 
L 331.541024 269.316147 
L 332.819862 266.398583 
L 334.098701 273.40213 
L 335.37754 271.056651 
L 339.214057 277.115073 
L 340.492895 272.229119 
L 341.771734 276.27538 
L 343.050573 267.656772 
L 344.329412 265.496361 
L 349.444767 282.117726 
L 350.723606 276.549085 
L 352.002445 276.863304 
L 353.281283 276.215883 
L 357.1178 277.732587 
L 358.396639 275.071812 
L 359.675477 272.915637 
L 360.954316 268.518093 
L 362.233155 267.867783 
L 366.069672 277.536795 
L 367.34851 276.567824 
L 368.627349 276.220898 
L 369.906188 278.219535 
L 371.185027 269.90706 
L 376.300382 264.951439 
L 377.579221 262.898422 
L 380.136898 260.835951 
L 383.973415 258.92908 
L 385.252254 256.308068 
L 386.531092 258.652141 
L 387.809931 256.757282 
L 389.08877 259.534745 
L 392.925286 253.525842 
L 394.204125 249.494397 
L 395.482964 246.861713 
L 396.761803 247.804981 
L 398.040642 263.061111 
L 401.877158 266.73996 
L 403.155997 268.237505 
L 404.434836 265.148979 
L 405.713675 279.209387 
L 406.992513 278.303258 
L 410.82903 271.074488 
L 412.107869 273.633779 
L 413.386707 267.499804 
L 414.665546 262.993263 
L 415.944385 266.348352 
L 419.780901 286.094439 
L 421.05974 287.152106 
L 422.338579 284.731034 
L 423.617418 286.054489 
L 424.896257 279.743892 
L 428.732773 275.263053 
L 430.011612 270.772258 
L 431.290451 270.698373 
L 432.56929 267.597529 
L 433.848128 262.145641 
L 437.684645 256.09762 
L 438.963484 256.202793 
L 440.242322 256.976454 
L 441.521161 257.465349 
L 442.8 259.790929 
L 446.636516 257.702952 
L 447.915355 257.629687 
L 449.194194 259.431501 
L 450.473033 266.702954 
L 451.751872 268.160929 
L 455.588388 269.216579 
L 456.867227 270.992176 
L 458.146066 278.565753 
L 459.424905 276.208727 
L 460.703743 276.167808 
L 464.54026 282.917243 
L 465.819099 279.927628 
L 467.097937 282.52547 
L 468.376776 279.580749 
L 469.655615 273.34366 
L 476.049809 270.80945 
L 477.328648 270.032695 
L 478.607487 265.940232 
L 482.444003 259.262871 
L 483.722842 250.234207 
L 485.001681 244.114811 
L 486.280519 235.203888 
L 487.559358 240.567853 
L 491.395875 226.828625 
L 501.626585 224.081155 
L 502.905424 244.357308 
L 504.184263 230.824547 
L 505.463102 229.37824 
L 509.299618 218.292043 
L 510.578457 221.362209 
L 511.857296 211.909421 
L 513.136134 212.000188 
L 514.414973 208.397031 
L 518.25149 204.704429 
L 519.530328 204.071541 
L 520.809167 201.266267 
L 522.088006 208.170167 
L 523.366845 208.353572 
L 527.203361 205.271234 
L 528.4822 204.974301 
L 529.761039 198.020668 
L 531.039878 202.901546 
L 532.318717 205.274468 
L 536.155233 207.27794 
L 537.434072 205.629944 
L 538.712911 202.987151 
L 539.991749 206.673693 
L 541.270588 206.541162 
L 545.107105 207.776337 
L 546.385943 217.458881 
L 547.664782 217.765039 
L 548.943621 228.25624 
L 550.22246 229.940344 
L 554.058976 220.518808 
L 555.337815 212.002533 
L 556.616654 210.045685 
L 557.895493 204.631987 
L 559.174332 203.11504 
L 563.010848 209.102136 
L 564.289687 214.520157 
L 565.568526 207.739288 
L 566.847364 211.281404 
L 568.126203 206.397754 
L 571.96272 210.131986 
L 573.241558 201.385413 
L 574.520397 200.285381 
L 575.799236 199.572989 
L 577.078075 199.351893 
L 580.914591 194.506052 
L 582.19343 193.129546 
L 583.472269 188.896736 
L 584.751108 183.50726 
L 586.029947 190.194793 
L 589.866463 189.528225 
L 591.145302 188.706994 
L 592.424141 185.912742 
L 593.702979 195.976698 
L 594.981818 199.373088 
L 598.818335 188.803174 
L 600.097173 190.562967 
L 601.376012 186.878989 
L 603.93369 186.864097 
L 607.770206 189.061424 
L 609.049045 190.102658 
L 611.606723 190.196515 
L 616.722078 189.183529 
L 618.000917 189.15672 
L 619.279756 186.925051 
L 621.837433 186.970423 
L 625.67395 191.672845 
L 626.952788 190.451464 
L 628.231627 188.081227 
L 629.510466 182.091345 
L 630.789305 181.497269 
L 634.625821 180.655336 
L 635.90466 182.13744 
L 637.183499 181.027709 
L 638.462338 178.286479 
L 639.741176 175.159587 
L 643.577693 176.979522 
L 655.087242 163.870302 
L 656.366081 165.677829 
L 657.64492 164.445209 
L 661.481436 158.742683 
L 662.760275 151.311642 
L 664.039114 153.773869 
L 666.596791 147.05223 
L 670.433308 155.091647 
L 671.712147 149.201909 
L 672.990985 147.367624 
L 674.269824 147.895381 
L 675.548663 154.035036 
L 679.38518 156.401473 
L 680.664018 160.063861 
L 681.942857 162.419442 
L 683.221696 161.798123 
L 684.500535 171.403461 
L 688.337051 168.587306 
L 689.61589 167.290273 
L 690.894729 160.946347 
L 692.173568 162.790165 
L 693.452406 166.430209 
L 697.288923 167.108594 
L 698.567762 174.553294 
L 699.8466 172.67137 
L 701.125439 168.875049 
L 702.404278 159.220752 
L 706.240794 157.711956 
L 707.519633 153.279919 
L 708.798472 148.232636 
L 710.077311 145.610166 
L 711.35615 149.196118 
L 715.192666 144.651033 
L 716.471505 141.788804 
L 717.750344 141.203664 
L 719.029183 141.920813 
L 720.308021 135.016458 
L 724.144538 135.91569 
L 725.423377 130.104945 
L 726.702215 130.29409 
L 727.981054 128.039353 
L 733.096409 169.9011 
L 734.375248 156.491694 
L 735.654087 152.799422 
L 736.932926 128.238299 
L 738.211765 122.894162 
L 742.048281 115.784751 
L 743.32712 115.248287 
L 744.605959 104.706832 
L 745.884798 100.134563 
L 747.163636 99.023168 
L 747.163636 99.023168 
" clip-path="url(#p36b14a0cc4)" style="fill: none; stroke-dasharray: 5.55,2.4; stroke-dashoffset: 0; stroke: #2ca02c; stroke-width: 1.5"/>
   </g>
   <g id="patch_3">
    <path d="M 108 384.48 
L 108 51.84 
" style="fill: none; stroke: #000000; stroke-width: 0.8; stroke-linejoin: miter; stroke-linecap: square"/>
   </g>
   <g id="patch_4">
    <path d="M 777.6 384.48 
L 777.6 51.84 
" style="fill: none; stroke: #000000; stroke-width: 0.8; stroke-linejoin: miter; stroke-linecap: square"/>
   </g>
   <g id="patch_5">
    <path d="M 108 384.48 
L 777.6 384.48 
" style="fill: none; stroke: #000000; stroke-width: 0.8; stroke-linejoin: miter; stroke-linecap: square"/>
   </g>
   <g id="patch_6">
    <path d="M 108 51.84 
L 777.6 51.84 
" style="fill: none; stroke: #000000; stroke-width: 0.8; stroke-linejoin: miter; stroke-linecap: square"/>
   </g>
   <g id="text_17">
    <!-- 等权协方差组合市值对比 -->
    <g transform="translate(376.8 45.84) scale(0.12 -0.12)">
     <defs>
      <path id="SimHei-7b49" d="M 2925 3450 
Q 2925 3625 2900 3950 
L 3450 3950 
Q 3425 3625 3425 3450 
L 4475 3450 
Q 4850 3450 5350 3475 
L 5350 3050 
Q 4875 3075 4500 3075 
L 3425 3075 
L 3425 2400 
L 5225 2400 
Q 5625 2400 6125 2425 
L 6125 1975 
Q 5650 2000 5225 2000 
L 4700 2000 
L 4700 1350 
Q 5325 1350 5750 1375 
L 5750 925 
Q 5250 950 4700 950 
L 4700 125 
Q 4725 -325 4437 -437 
Q 4150 -550 3550 -625 
Q 3500 -325 3350 -75 
Q 3775 -100 3975 -75 
Q 4175 -50 4175 275 
L 4175 950 
L 1550 950 
Q 1225 950 700 925 
L 700 1375 
Q 1200 1350 1650 1350 
L 4175 1350 
L 4175 2000 
L 1075 2000 
Q 750 2000 200 1975 
L 200 2425 
Q 750 2400 1075 2400 
L 2925 2400 
L 2925 3075 
L 1925 3075 
Q 1575 3075 1050 3050 
L 1050 3475 
Q 1725 3450 1925 3450 
L 2925 3450 
z
M 1825 5100 
Q 1675 5000 1500 4725 
L 2400 4725 
Q 2925 4725 3275 4750 
L 3275 4350 
Q 3000 4375 2575 4375 
L 2275 4375 
Q 2400 4175 2575 3850 
Q 2275 3750 2025 3675 
Q 2025 3725 1775 4375 
L 1325 4375 
Q 1125 4075 750 3625 
Q 525 3800 275 3900 
Q 625 4175 850 4525 
Q 1075 4875 1250 5300 
Q 1550 5175 1825 5100 
z
M 3700 3875 
Q 3500 4000 3225 4075 
Q 3475 4275 3650 4575 
Q 3825 4875 3975 5250 
Q 4250 5150 4550 5050 
Q 4350 4875 4250 4700 
L 5275 4700 
Q 5450 4700 6125 4725 
L 6125 4325 
Q 5650 4350 5200 4350 
Q 5475 3900 5600 3725 
Q 5250 3650 5025 3575 
Q 4975 3800 4700 4350 
L 4050 4350 
Q 3925 4150 3700 3875 
z
M 2575 75 
Q 2350 -50 2125 -200 
Q 1900 225 1525 625 
Q 1700 725 1925 900 
Q 2300 500 2575 75 
z
" transform="scale(0.015625)"/>
      <path id="SimHei-6743" d="M 2700 4575 
Q 3250 4550 3725 4550 
L 5675 4550 
Q 5575 3500 5337 2737 
Q 5100 1975 4475 1075 
Q 4775 675 5200 425 
Q 5625 175 6175 0 
Q 5825 -275 5750 -500 
Q 5175 -225 4775 100 
Q 4375 425 4150 725 
Q 3825 350 3475 62 
Q 3125 -225 2500 -600 
Q 2400 -350 2100 -125 
Q 2475 0 2950 275 
Q 3425 550 3850 1075 
Q 3625 1375 3400 2037 
Q 3175 2700 3050 4125 
L 2700 4125 
L 2700 4575 
z
M 200 1350 
Q 575 1750 825 2275 
Q 1075 2800 1250 3450 
Q 825 3450 425 3425 
L 425 3875 
Q 875 3850 1325 3850 
Q 1325 4900 1300 5250 
L 1850 5250 
Q 1800 4950 1800 3850 
Q 2175 3850 2600 3875 
L 2600 3425 
Q 2175 3450 1800 3450 
L 1800 2525 
Q 1975 2625 2175 2775 
Q 2625 2175 2750 1875 
Q 2475 1725 2325 1575 
Q 2200 1925 1800 2375 
L 1800 525 
Q 1800 0 1825 -600 
L 1275 -600 
Q 1325 0 1325 525 
L 1325 2375 
Q 1125 1675 575 900 
Q 425 1225 200 1350 
z
M 3525 4150 
Q 3675 2850 3787 2412 
Q 3900 1975 4175 1475 
Q 4475 1925 4750 2587 
Q 5025 3250 5100 4150 
L 3525 4150 
z
" transform="scale(0.015625)"/>
      <path id="SimHei-534f" d="M 3475 3825 
Q 3475 4625 3450 5150 
Q 3725 5075 4050 5050 
Q 3950 4650 3975 3825 
L 5325 3825 
Q 5275 3600 5225 3075 
L 5050 300 
Q 5000 -100 4750 -187 
Q 4500 -275 4050 -375 
Q 3950 -50 3825 175 
Q 4350 200 4462 225 
Q 4575 250 4600 575 
L 4775 3425 
L 3950 3425 
Q 3925 2300 3600 1300 
Q 3275 300 2475 -500 
Q 2325 -300 1875 -150 
Q 2450 150 2925 1075 
Q 3400 2000 3450 3425 
Q 2975 3425 2500 3400 
L 2500 3850 
Q 2975 3825 3475 3825 
z
M 1025 3475 
Q 1025 4675 1000 5075 
L 1550 5075 
Q 1525 4675 1525 3475 
Q 2000 3475 2325 3500 
L 2325 3050 
Q 2000 3075 1525 3075 
L 1525 325 
Q 1525 -25 1550 -575 
L 1000 -575 
Q 1025 -25 1025 325 
L 1025 3075 
Q 525 3075 225 3050 
L 225 3500 
Q 525 3475 1025 3475 
z
M 2975 2500 
Q 2825 2300 2500 1225 
Q 2250 1325 2025 1350 
Q 2375 2275 2425 2625 
Q 2625 2550 2975 2500 
z
M 5725 2675 
Q 6100 1875 6200 1500 
Q 5925 1450 5725 1325 
Q 5575 1850 5300 2475 
Q 5525 2550 5725 2675 
z
" transform="scale(0.015625)"/>
      <path id="SimHei-65b9" d="M 425 3975 
Q 825 3950 1300 3950 
L 5025 3950 
Q 5625 3950 6000 3975 
L 6000 3475 
Q 5675 3500 5100 3500 
L 2525 3500 
Q 2525 3225 2500 2500 
L 5300 2500 
Q 5250 2175 5200 1550 
L 5050 175 
Q 5000 -275 4625 -412 
Q 4250 -550 3525 -625 
Q 3500 -300 3325 -50 
Q 3900 -75 4200 0 
Q 4500 75 4575 425 
L 4725 2050 
L 2475 2050 
Q 2375 1350 2162 875 
Q 1950 400 1575 0 
Q 1200 -400 825 -700 
Q 725 -550 375 -350 
Q 700 -175 1062 200 
Q 1425 575 1662 1050 
Q 1900 1525 1962 2100 
Q 2025 2675 2025 3500 
L 1325 3500 
Q 775 3500 425 3475 
L 425 3975 
z
M 3075 4075 
Q 2850 4575 2575 5000 
Q 2800 5125 3025 5275 
Q 3300 4850 3575 4350 
Q 3325 4250 3075 4075 
z
" transform="scale(0.015625)"/>
      <path id="SimHei-5dee" d="M 4725 4975 
Q 4500 4725 4250 4275 
L 4850 4275 
Q 5450 4275 5825 4300 
L 5825 3850 
Q 5425 3875 4850 3875 
L 3275 3875 
Q 3225 3600 3150 3275 
L 4525 3275 
Q 5075 3275 5525 3300 
L 5525 2850 
Q 5075 2875 4500 2875 
L 3050 2875 
Q 2975 2650 2850 2325 
L 5125 2325 
Q 5675 2325 6025 2350 
L 6025 1900 
Q 5700 1925 5150 1925 
L 2650 1925 
Q 2425 1550 2250 1300 
Q 2650 1275 3100 1275 
L 4525 1275 
Q 4975 1275 5350 1300 
L 5350 850 
Q 4975 875 4575 875 
L 3925 875 
L 3925 -50 
L 5000 -50 
Q 5200 -50 5900 -25 
L 5900 -500 
Q 5275 -475 5025 -475 
L 2100 -475 
Q 1700 -475 1400 -500 
L 1400 -25 
Q 1775 -50 2125 -50 
L 3425 -50 
L 3425 875 
L 3100 875 
Q 2625 875 2175 850 
L 2175 1200 
Q 1925 875 1487 475 
Q 1050 75 625 -250 
Q 425 -25 200 150 
Q 750 475 1262 925 
Q 1775 1375 2100 1925 
L 1325 1925 
Q 750 1925 375 1900 
L 375 2350 
Q 750 2325 1350 2325 
L 2325 2325 
Q 2450 2575 2550 2875 
L 1725 2875 
Q 1375 2875 1000 2850 
L 1000 3300 
Q 1500 3275 1700 3275 
L 2650 3275 
Q 2725 3575 2775 3875 
L 1500 3875 
Q 1100 3875 650 3850 
L 650 4300 
Q 1025 4275 1425 4275 
L 2275 4275 
Q 2075 4675 1850 4950 
Q 2025 5050 2250 5225 
Q 2450 4975 2725 4550 
Q 2525 4450 2325 4275 
L 3750 4275 
Q 4000 4700 4150 5250 
Q 4400 5100 4725 4975 
z
" transform="scale(0.015625)"/>
      <path id="SimHei-5e02" d="M 4750 4200 
Q 5350 4200 6050 4225 
L 6050 3725 
Q 5350 3750 4750 3750 
L 3450 3750 
L 3450 2900 
L 5375 2900 
Q 5350 2450 5350 1975 
L 5350 750 
Q 5350 325 5062 175 
Q 4775 25 4250 -25 
Q 4200 275 4025 575 
Q 4550 575 4687 600 
Q 4825 625 4825 850 
L 4825 2450 
L 3450 2450 
L 3450 475 
Q 3450 -150 3475 -600 
L 2900 -600 
Q 2925 -150 2925 475 
L 2925 2450 
L 1525 2450 
L 1525 0 
L 975 0 
Q 1000 400 1000 950 
L 1000 1875 
Q 1000 2450 975 2900 
L 2925 2900 
L 2925 3750 
L 1625 3750 
Q 975 3750 325 3725 
L 325 4225 
Q 975 4200 1625 4200 
L 4750 4200 
z
M 2950 5275 
Q 3250 4975 3575 4475 
Q 3300 4350 3125 4225 
Q 2900 4625 2550 5000 
Q 2750 5150 2950 5275 
z
" transform="scale(0.015625)"/>
      <path id="SimHei-5bf9" d="M 525 4250 
Q 900 4225 1400 4225 
L 2825 4225 
Q 2575 2625 2200 1750 
Q 2825 875 3125 400 
Q 2950 275 2725 75 
Q 2200 975 1950 1300 
Q 1650 775 1350 425 
Q 1050 75 600 -350 
Q 425 -125 200 -25 
Q 625 275 975 675 
Q 1325 1075 1650 1700 
Q 1050 2425 550 2900 
Q 700 3025 900 3225 
Q 1625 2425 1875 2150 
Q 2200 3050 2300 3825 
L 1400 3825 
Q 900 3825 525 3800 
L 525 4250 
z
M 2925 3700 
Q 3525 3675 3750 3675 
L 4825 3675 
L 4825 4425 
Q 4825 4750 4775 5125 
L 5350 5125 
Q 5325 4825 5325 4375 
L 5325 3675 
Q 5575 3675 6150 3700 
L 6150 3250 
Q 5575 3275 5325 3275 
L 5325 125 
Q 5350 -350 5012 -475 
Q 4675 -600 4250 -650 
Q 4175 -350 4025 -100 
Q 4575 -100 4712 -37 
Q 4850 25 4825 325 
L 4825 3275 
L 3775 3275 
Q 3550 3275 2925 3225 
L 2925 3700 
z
M 3450 2725 
Q 3875 1975 4175 1325 
Q 3850 1200 3700 1075 
Q 3475 1750 3050 2475 
Q 3225 2550 3450 2725 
z
" transform="scale(0.015625)"/>
      <path id="SimHei-6bd4" d="M 3775 5100 
Q 3750 4575 3750 4100 
L 3750 3050 
Q 4925 3600 5475 4175 
Q 5675 3900 5900 3675 
Q 5600 3500 5037 3187 
Q 4475 2875 3750 2550 
L 3750 450 
Q 3750 100 4050 100 
L 5000 100 
Q 5175 100 5262 250 
Q 5350 400 5450 900 
Q 5650 775 6025 675 
Q 5850 0 5650 -175 
Q 5450 -350 5225 -350 
L 3900 -350 
Q 3250 -350 3250 275 
L 3250 4000 
Q 3250 4550 3225 5100 
L 3775 5100 
z
M 1275 4975 
Q 1250 4575 1250 4000 
L 1250 3150 
L 1850 3150 
Q 2325 3150 2875 3175 
L 2875 2650 
Q 2325 2675 1850 2675 
L 1250 2675 
L 1250 475 
Q 1650 650 1962 812 
Q 2275 975 2850 1275 
Q 2900 950 2950 750 
Q 2375 475 1762 175 
Q 1150 -125 925 -325 
Q 750 -100 575 200 
Q 700 300 750 600 
L 750 3950 
Q 750 4550 725 4975 
L 1275 4975 
z
" transform="scale(0.015625)"/>
     </defs>
     <use xlink:href="#SimHei-7b49"/>
     <use xlink:href="#SimHei-6743" x="100"/>
     <use xlink:href="#SimHei-534f" x="200"/>
     <use xlink:href="#SimHei-65b9" x="300"/>
     <use xlink:href="#SimHei-5dee" x="400"/>
     <use xlink:href="#SimHei-7ec4" x="500"/>
     <use xlink:href="#SimHei-5408" x="600"/>
     <use xlink:href="#SimHei-5e02" x="700"/>
     <use xlink:href="#SimHei-503c" x="800"/>
     <use xlink:href="#SimHei-5bf9" x="900"/>
     <use xlink:href="#SimHei-6bd4" x="1000"/>
    </g>
   </g>
   <g id="PathCollection_1">
    <defs>
     <path id="m13e7561205" d="M -3 3 
L 3 -3 
M -3 -3 
L 3 3 
" style="stroke: #ff0000; stroke-width: 1.5"/>
    </defs>
    <g clip-path="url(#p36b14a0cc4)">
     <use xlink:href="#m13e7561205" x="179.359206" y="356.778574" style="fill: #ff0000; stroke: #ff0000; stroke-width: 1.5"/>
     <use xlink:href="#m13e7561205" x="225.397403" y="329.94684" style="fill: #ff0000; stroke: #ff0000; stroke-width: 1.5"/>
     <use xlink:href="#m13e7561205" x="261.204889" y="291.132785" style="fill: #ff0000; stroke: #ff0000; stroke-width: 1.5"/>
     <use xlink:href="#m13e7561205" x="305.964248" y="286.608143" style="fill: #ff0000; stroke: #ff0000; stroke-width: 1.5"/>
     <use xlink:href="#m13e7561205" x="341.771734" y="276.27538" style="fill: #ff0000; stroke: #ff0000; stroke-width: 1.5"/>
     <use xlink:href="#m13e7561205" x="378.85806" y="261.897804" style="fill: #ff0000; stroke: #ff0000; stroke-width: 1.5"/>
     <use xlink:href="#m13e7561205" x="414.665546" y="262.993263" style="fill: #ff0000; stroke: #ff0000; stroke-width: 1.5"/>
     <use xlink:href="#m13e7561205" x="450.473033" y="266.702954" style="fill: #ff0000; stroke: #ff0000; stroke-width: 1.5"/>
     <use xlink:href="#m13e7561205" x="491.395875" y="226.828625" style="fill: #ff0000; stroke: #ff0000; stroke-width: 1.5"/>
     <use xlink:href="#m13e7561205" x="536.155233" y="207.27794" style="fill: #ff0000; stroke: #ff0000; stroke-width: 1.5"/>
     <use xlink:href="#m13e7561205" x="571.96272" y="210.131986" style="fill: #ff0000; stroke: #ff0000; stroke-width: 1.5"/>
     <use xlink:href="#m13e7561205" x="607.770206" y="189.061424" style="fill: #ff0000; stroke: #ff0000; stroke-width: 1.5"/>
     <use xlink:href="#m13e7561205" x="655.087242" y="163.870302" style="fill: #ff0000; stroke: #ff0000; stroke-width: 1.5"/>
     <use xlink:href="#m13e7561205" x="690.894729" y="160.946347" style="fill: #ff0000; stroke: #ff0000; stroke-width: 1.5"/>
     <use xlink:href="#m13e7561205" x="726.702215" y="130.29409" style="fill: #ff0000; stroke: #ff0000; stroke-width: 1.5"/>
    </g>
   </g>
   <g id="legend_1">
    <g id="patch_7">
     <path d="M 115 116.988437 
L 217 116.988437 
Q 219 116.988437 219 114.988437 
L 219 58.84 
Q 219 56.84 217 56.84 
L 115 56.84 
Q 113 56.84 113 58.84 
L 113 114.988437 
Q 113 116.988437 115 116.988437 
z
" style="fill: #ffffff; opacity: 0.8; stroke: #cccccc; stroke-linejoin: miter"/>
    </g>
    <g id="line2d_34">
     <path d="M 117 65.347812 
L 127 65.347812 
L 137 65.347812 
" style="fill: none; stroke: #1f77b4; stroke-width: 1.5; stroke-linecap: square"/>
    </g>
    <g id="text_18">
     <!-- 固定权重组合 -->
     <g transform="translate(145 68.847812) scale(0.1 -0.1)">
      <defs>
       <path id="SimHei-56fa" d="M 5800 5025 
Q 5775 4350 5775 3600 
L 5775 925 
Q 5775 150 5800 -575 
L 5300 -575 
L 5300 -250 
L 1075 -250 
L 1075 -625 
L 575 -625 
Q 600 150 600 950 
L 600 3600 
Q 600 4325 575 5025 
L 5800 5025 
z
M 5300 200 
L 5300 4575 
L 1075 4575 
L 1075 200 
L 5300 200 
z
M 4875 3025 
Q 4650 3050 4050 3050 
L 3475 3050 
L 3475 2325 
L 4575 2325 
Q 4550 1900 4550 1475 
Q 4550 1075 4575 650 
L 1900 650 
Q 1925 1050 1925 1450 
Q 1925 1875 1900 2325 
L 3000 2325 
L 3000 3050 
L 2350 3050 
Q 2125 3050 1550 3025 
L 1550 3500 
Q 2125 3475 2350 3475 
L 3000 3475 
Q 3000 3850 2975 4225 
L 3500 4225 
Q 3475 3800 3475 3475 
L 4025 3475 
Q 4525 3475 4875 3500 
L 4875 3025 
z
M 4075 1075 
L 4075 1900 
L 2375 1900 
L 2375 1075 
L 4075 1075 
z
" transform="scale(0.015625)"/>
       <path id="SimHei-5b9a" d="M 4200 3125 
Q 4675 3125 5175 3150 
L 5175 2675 
Q 4725 2700 4100 2700 
L 3550 2700 
L 3550 1700 
L 4600 1700 
Q 4875 1700 5375 1725 
L 5375 1250 
Q 4875 1275 4575 1275 
L 3550 1275 
L 3550 100 
Q 4600 -25 6050 125 
Q 5850 -200 5800 -475 
Q 4800 -475 4150 -450 
Q 3500 -425 3050 -300 
Q 2600 -175 2250 75 
Q 1900 325 1600 675 
Q 1200 -50 675 -575 
Q 450 -350 175 -250 
Q 875 300 1200 1050 
Q 1525 1800 1550 2200 
Q 1800 2050 2150 1975 
Q 2075 1875 1987 1662 
Q 1900 1450 1775 1125 
Q 1950 900 2300 612 
Q 2650 325 3050 200 
L 3050 2700 
L 2250 2700 
Q 1825 2700 1400 2675 
L 1400 3150 
Q 1825 3125 2400 3125 
L 4200 3125 
z
M 5750 4275 
Q 5725 3925 5725 3750 
Q 5725 3575 5750 3275 
L 5225 3275 
L 5225 3875 
L 1225 3875 
L 1225 3275 
L 700 3275 
Q 725 3475 725 3725 
Q 725 3975 700 4275 
L 5750 4275 
z
M 2650 5050 
Q 2875 5125 3100 5300 
Q 3375 4975 3600 4550 
Q 3250 4400 3100 4300 
Q 3050 4525 2650 5050 
z
" transform="scale(0.015625)"/>
       <path id="SimHei-91cd" d="M 5300 4575 
Q 3900 4450 3425 4400 
L 3425 3875 
L 5150 3875 
Q 5500 3875 6000 3900 
L 6000 3450 
Q 5500 3475 5150 3475 
L 3425 3475 
L 3425 3050 
L 5150 3050 
Q 5125 2675 5125 2125 
Q 5125 1575 5150 1175 
L 3425 1175 
L 3425 750 
L 4550 750 
Q 5000 750 5500 775 
L 5500 375 
Q 5025 400 4575 400 
L 3425 400 
L 3425 -50 
L 5050 -50 
Q 5475 -50 5975 -25 
L 5975 -450 
Q 5475 -425 5075 -425 
L 1475 -425 
Q 975 -425 450 -450 
L 450 -25 
Q 975 -50 1450 -50 
L 2925 -50 
L 2925 400 
L 2050 400 
Q 1450 400 950 375 
L 950 775 
Q 1600 750 2075 750 
L 2925 750 
L 2925 1175 
L 1250 1175 
Q 1275 1800 1275 2125 
Q 1275 2450 1250 3050 
L 2925 3050 
L 2925 3475 
L 1225 3475 
Q 875 3475 400 3450 
L 400 3900 
Q 875 3875 1225 3875 
L 2925 3875 
L 2925 4375 
Q 2425 4350 1075 4250 
Q 1000 4475 875 4675 
Q 2275 4700 3362 4812 
Q 4450 4925 4925 5075 
Q 5025 4825 5300 4575 
z
M 4650 2300 
L 4650 2650 
L 3425 2650 
L 3425 2300 
L 4650 2300 
z
M 2925 2300 
L 2925 2650 
L 1750 2650 
L 1750 2300 
L 2925 2300 
z
M 4625 1575 
L 4625 1900 
L 3425 1900 
L 3425 1575 
L 4625 1575 
z
M 2925 1575 
L 2925 1900 
L 1750 1900 
L 1750 1575 
L 2925 1575 
z
" transform="scale(0.015625)"/>
      </defs>
      <use xlink:href="#SimHei-56fa"/>
      <use xlink:href="#SimHei-5b9a" x="100"/>
      <use xlink:href="#SimHei-6743" x="200"/>
      <use xlink:href="#SimHei-91cd" x="300"/>
      <use xlink:href="#SimHei-7ec4" x="400"/>
      <use xlink:href="#SimHei-5408" x="500"/>
     </g>
    </g>
    <g id="line2d_35">
     <path d="M 117 79.644687 
L 127 79.644687 
L 137 79.644687 
" style="fill: none; stroke-dasharray: 5.55,2.4; stroke-dashoffset: 0; stroke: #ff7f0e; stroke-width: 1.5"/>
    </g>
    <g id="text_19">
     <!-- 一次调仓组合 -->
     <g transform="translate(145 83.144687) scale(0.1 -0.1)">
      <defs>
       <path id="SimHei-4e00" d="M 4875 2675 
Q 5525 2675 6050 2700 
L 6050 2050 
Q 5525 2075 4900 2075 
L 1600 2075 
Q 950 2075 350 2050 
L 350 2700 
Q 950 2675 1600 2675 
L 4875 2675 
z
" transform="scale(0.015625)"/>
       <path id="SimHei-6b21" d="M 4150 3025 
Q 4000 2550 4050 2187 
Q 4100 1825 4275 1450 
Q 4450 1075 4800 750 
Q 5150 425 5475 212 
Q 5800 0 6150 -150 
Q 5875 -350 5750 -625 
Q 5250 -325 4887 -25 
Q 4525 275 4275 612 
Q 4025 950 3825 1425 
Q 3525 625 2950 125 
Q 2375 -375 1850 -650 
Q 1675 -400 1475 -225 
Q 2025 0 2487 362 
Q 2950 725 3162 1100 
Q 3375 1475 3450 1825 
Q 3525 2175 3537 2400 
Q 3550 2625 3525 3125 
Q 3825 3050 4150 3025 
z
M 3700 4975 
Q 3625 4900 3475 4575 
Q 3325 4250 3250 4075 
L 5775 4075 
Q 5650 3725 5550 3362 
Q 5450 3000 5275 2500 
Q 5000 2575 4775 2600 
Q 5025 3350 5100 3650 
L 3100 3650 
Q 2975 3400 2812 3100 
Q 2650 2800 2425 2450 
Q 2275 2600 1975 2700 
Q 2300 3050 2625 3762 
Q 2950 4475 3125 5200 
Q 3450 5025 3700 4975 
z
M 2025 2000 
Q 1825 1675 1475 1087 
Q 1125 500 725 -200 
Q 500 -25 250 175 
Q 725 725 1037 1262 
Q 1350 1800 1575 2325 
Q 1750 2175 2025 2000 
z
M 900 4750 
Q 1725 3725 1950 3375 
Q 1750 3250 1500 3050 
Q 1250 3525 500 4425 
Q 700 4575 900 4750 
z
" transform="scale(0.015625)"/>
       <path id="SimHei-8c03" d="M 5950 200 
Q 5975 -300 5700 -437 
Q 5425 -575 4900 -650 
Q 4825 -350 4700 -50 
Q 5200 -75 5337 0 
Q 5475 75 5500 300 
L 5500 4525 
L 3075 4525 
L 3075 2275 
Q 3075 1225 2900 612 
Q 2725 0 2275 -650 
Q 2125 -450 1825 -300 
Q 2150 75 2312 437 
Q 2475 800 2550 1212 
Q 2625 1625 2625 2925 
Q 2625 4250 2600 4900 
L 5975 4900 
Q 5950 4525 5950 3900 
L 5950 200 
z
M 5125 1825 
Q 5100 1475 5100 1175 
Q 5100 875 5125 425 
L 3425 425 
Q 3450 875 3450 1175 
Q 3450 1475 3425 1825 
L 5125 1825 
z
M 2125 1600 
Q 2225 1375 2400 1200 
Q 2075 875 1875 650 
Q 1675 425 1325 50 
Q 1150 250 1000 400 
Q 1175 600 1175 825 
L 1175 2825 
L 950 2825 
Q 775 2825 300 2800 
L 300 3250 
Q 775 3225 950 3225 
L 1650 3225 
Q 1625 2775 1625 2225 
L 1625 1050 
Q 1750 1150 2125 1600 
z
M 4050 3675 
Q 4050 3975 4025 4300 
L 4500 4300 
Q 4475 4000 4475 3675 
Q 4750 3675 5125 3700 
L 5125 3275 
Q 4750 3300 4475 3300 
L 4475 2675 
Q 4925 2675 5225 2700 
L 5225 2250 
Q 4825 2275 4300 2275 
Q 3775 2275 3350 2250 
L 3350 2700 
Q 3775 2675 4050 2675 
L 4050 3300 
Q 3725 3300 3375 3275 
L 3375 3700 
Q 3750 3675 4050 3675 
z
M 4675 775 
L 4675 1475 
L 3875 1475 
L 3875 775 
L 4675 775 
z
M 1250 5025 
Q 1525 4700 1975 4100 
Q 1750 3975 1575 3775 
Q 1075 4525 875 4725 
Q 1075 4850 1250 5025 
z
" transform="scale(0.015625)"/>
       <path id="SimHei-4ed3" d="M 4650 2850 
Q 4625 2500 4625 2175 
L 4625 1550 
Q 4650 1100 4362 975 
Q 4075 850 3425 775 
Q 3275 1225 3150 1350 
Q 3925 1350 4025 1400 
Q 4125 1450 4125 1775 
L 4125 2425 
L 2200 2425 
L 2200 375 
Q 2225 50 2500 50 
L 4550 50 
Q 4850 50 4962 237 
Q 5075 425 5100 850 
Q 5350 625 5675 525 
Q 5525 25 5362 -187 
Q 5200 -400 4775 -400 
L 2325 -400 
Q 1700 -400 1700 200 
L 1700 1875 
Q 1700 2300 1675 2850 
L 4650 2850 
z
M 3450 4925 
Q 4500 3450 6175 3000 
Q 5900 2750 5800 2450 
Q 4225 3050 3200 4550 
Q 2325 3200 675 2275 
Q 575 2475 250 2725 
Q 1450 3225 2137 4000 
Q 2825 4775 2950 5300 
Q 3275 5200 3575 5125 
L 3450 4925 
z
" transform="scale(0.015625)"/>
      </defs>
      <use xlink:href="#SimHei-4e00"/>
      <use xlink:href="#SimHei-6b21" x="100"/>
      <use xlink:href="#SimHei-8c03" x="200"/>
      <use xlink:href="#SimHei-4ed3" x="300"/>
      <use xlink:href="#SimHei-7ec4" x="400"/>
      <use xlink:href="#SimHei-5408" x="500"/>
     </g>
    </g>
    <g id="line2d_36">
     <path d="M 117 93.941562 
L 127 93.941562 
L 137 93.941562 
" style="fill: none; stroke-dasharray: 5.55,2.4; stroke-dashoffset: 0; stroke: #2ca02c; stroke-width: 1.5"/>
    </g>
    <g id="text_20">
     <!-- 动态再平衡组合 -->
     <g transform="translate(145 97.441562) scale(0.1 -0.1)">
      <defs>
       <path id="SimHei-52a8" d="M 4125 5150 
Q 4425 5075 4700 5075 
Q 4650 4825 4637 4512 
Q 4625 4200 4625 3750 
L 6025 3750 
Q 6000 3425 5975 3025 
L 5850 175 
Q 5775 -325 5437 -437 
Q 5100 -550 4675 -600 
Q 4600 -300 4425 -50 
Q 4975 -75 5175 12 
Q 5375 100 5375 350 
L 5525 3325 
L 4625 3325 
Q 4575 2225 4462 1650 
Q 4350 1075 4112 587 
Q 3875 100 3150 -675 
Q 2900 -425 2700 -350 
Q 3175 25 3475 437 
Q 3775 850 3900 1287 
Q 4025 1725 4075 2200 
Q 4125 2675 4150 3325 
L 3725 3325 
Q 3450 3325 3075 3300 
L 3075 3775 
Q 3450 3750 3775 3750 
L 4150 3750 
L 4150 4450 
Q 4150 4800 4125 5150 
z
M 275 3025 
Q 650 3000 1175 3000 
L 2125 3000 
Q 2575 3000 3150 3025 
L 3150 2575 
Q 2575 2600 2150 2600 
L 1875 2600 
Q 1725 2200 1537 1750 
Q 1350 1300 1100 850 
Q 2075 950 2575 1050 
Q 2450 1350 2175 1800 
Q 2450 1950 2575 2050 
Q 2825 1600 3000 1287 
Q 3175 975 3375 525 
Q 3175 400 2925 275 
Q 2825 500 2750 650 
Q 1950 525 1462 450 
Q 975 375 625 250 
Q 525 500 375 725 
Q 700 925 962 1525 
Q 1225 2125 1350 2600 
L 1175 2600 
Q 650 2600 275 2575 
L 275 3025 
z
M 2000 4425 
Q 2425 4425 2950 4450 
L 2950 3975 
Q 2425 4000 2000 4000 
L 1400 4000 
Q 1000 4000 625 3975 
L 625 4450 
Q 975 4425 1375 4425 
L 2000 4425 
z
" transform="scale(0.015625)"/>
       <path id="SimHei-6001" d="M 2575 4325 
Q 2700 4800 2725 5250 
Q 3075 5125 3350 5100 
Q 3225 4875 3100 4325 
L 5025 4325 
Q 5375 4325 5825 4375 
L 5825 3850 
Q 5350 3875 5000 3875 
L 3975 3875 
Q 4225 3300 4575 2987 
Q 4925 2675 5250 2525 
Q 5575 2375 6100 2275 
Q 5800 2075 5675 1775 
Q 4900 2100 4525 2412 
Q 4150 2725 3900 3075 
Q 3650 3425 3500 3875 
L 2975 3875 
Q 2675 3200 2187 2687 
Q 1700 2175 725 1625 
Q 650 1850 300 2075 
Q 900 2275 1512 2750 
Q 2125 3225 2425 3875 
L 1300 3875 
Q 900 3875 450 3850 
L 450 4375 
Q 875 4325 1300 4325 
L 2575 4325 
z
M 2525 1350 
Q 2500 875 2500 575 
Q 2500 300 2512 150 
Q 2525 0 2800 0 
L 3825 0 
Q 4025 -25 4175 62 
Q 4325 150 4400 625 
Q 4650 450 4975 375 
Q 4775 -150 4625 -312 
Q 4475 -475 4000 -450 
L 2500 -450 
Q 2050 -400 2012 -162 
Q 1975 75 1975 425 
Q 1975 800 1950 1350 
L 2525 1350 
z
M 1425 1175 
Q 1175 450 825 -325 
Q 625 -175 325 -125 
Q 775 625 875 1375 
Q 1175 1250 1425 1175 
z
M 5175 1525 
Q 5600 950 6050 350 
Q 5800 175 5600 0 
Q 5225 700 4750 1250 
Q 5000 1350 5175 1525 
z
M 2700 3050 
Q 3175 2675 3500 2325 
Q 3275 2175 3100 1975 
Q 2825 2350 2350 2700 
L 2700 3050 
z
M 3375 1750 
Q 3625 1350 3825 925 
Q 3625 800 3375 675 
Q 3200 1175 2950 1525 
Q 3175 1600 3375 1750 
z
" transform="scale(0.015625)"/>
       <path id="SimHei-518d" d="M 4025 -125 
Q 4375 -150 4537 -125 
Q 4700 -100 4700 175 
L 4700 875 
L 1675 875 
L 1675 -650 
L 1125 -650 
Q 1175 -225 1175 200 
L 1175 875 
Q 600 875 225 850 
L 225 1325 
Q 575 1275 1175 1275 
L 1175 2825 
Q 1175 3375 1125 3700 
L 2950 3700 
L 2950 4475 
L 1550 4475 
Q 1050 4475 600 4450 
L 600 4925 
Q 1050 4900 1525 4900 
L 4850 4900 
Q 5425 4900 5775 4925 
L 5775 4450 
Q 5425 4475 4850 4475 
L 3450 4475 
L 3450 3700 
L 5225 3700 
Q 5200 3375 5200 2750 
L 5200 1275 
Q 5825 1275 6200 1325 
L 6200 850 
Q 5850 875 5200 875 
L 5200 -175 
Q 5200 -475 4950 -550 
Q 4700 -625 4250 -675 
Q 4175 -400 4025 -125 
z
M 2950 2475 
L 2950 3325 
L 1675 3325 
L 1675 2475 
L 2950 2475 
z
M 4700 2475 
L 4700 3325 
L 3450 3325 
L 3450 2475 
L 4700 2475 
z
M 2950 1275 
L 2950 2100 
L 1675 2100 
L 1675 1275 
L 2950 1275 
z
M 4700 1275 
L 4700 2100 
L 3450 2100 
L 3450 1275 
L 4700 1275 
z
" transform="scale(0.015625)"/>
       <path id="SimHei-5e73" d="M 4525 4825 
Q 4900 4825 5450 4850 
L 5450 4375 
Q 4925 4400 4525 4400 
L 3475 4400 
L 3475 2025 
L 5000 2025 
Q 5550 2025 6025 2050 
L 6025 1575 
Q 5550 1600 5000 1600 
L 3475 1600 
L 3475 450 
Q 3475 -100 3500 -600 
L 2925 -600 
Q 2950 -100 2950 450 
L 2950 1600 
L 1125 1600 
Q 775 1600 375 1575 
L 375 2050 
Q 775 2025 1175 2025 
L 2950 2025 
L 2950 4400 
L 1775 4400 
Q 1400 4400 875 4375 
L 875 4850 
Q 1400 4825 1750 4825 
L 4525 4825 
z
M 3925 2600 
Q 4500 3300 4900 4125 
Q 5150 3950 5400 3825 
Q 4775 2850 4350 2300 
Q 4150 2475 3925 2600 
z
M 1975 2350 
Q 1600 3100 1050 3725 
Q 1250 3875 1450 4050 
Q 2075 3300 2450 2725 
Q 2150 2500 1975 2350 
z
" transform="scale(0.015625)"/>
       <path id="SimHei-8861" d="M 3275 5025 
Q 3150 4950 2900 4575 
L 4050 4575 
Q 3800 4175 3575 3725 
L 4425 3725 
Q 4400 3400 4400 2775 
Q 4400 2175 4425 1800 
L 2050 1800 
Q 2075 2175 2075 2800 
Q 2075 3425 2050 3725 
L 3125 3725 
L 3375 4225 
L 2600 4225 
Q 2450 4050 2125 3750 
Q 1975 3900 1750 4050 
Q 2175 4375 2412 4687 
Q 2650 5000 2775 5275 
Q 3000 5150 3275 5025 
z
M 4575 3225 
Q 4775 3200 5175 3200 
L 5675 3200 
Q 5900 3200 6150 3225 
L 6150 2750 
Q 5950 2775 5650 2775 
L 5650 25 
Q 5650 -375 5487 -462 
Q 5325 -550 4800 -650 
Q 4775 -375 4600 -100 
Q 5000 -100 5112 -75 
Q 5225 -50 5225 250 
L 5225 2775 
Q 4800 2775 4575 2750 
L 4575 3225 
z
M 1925 3300 
Q 1725 3150 1400 2650 
L 1400 275 
Q 1400 -100 1425 -625 
L 950 -625 
Q 975 25 975 350 
L 975 2175 
Q 750 1925 475 1675 
Q 325 1900 175 2075 
Q 550 2350 925 2800 
Q 1300 3250 1475 3625 
Q 1650 3450 1925 3300 
z
M 1975 -525 
Q 1800 -250 1600 -50 
Q 2175 125 2475 412 
Q 2775 700 2825 925 
L 2525 925 
Q 2225 925 1800 900 
L 1800 1350 
Q 2175 1325 2525 1325 
L 2925 1325 
Q 2975 1525 2975 1725 
Q 3175 1675 3500 1625 
Q 3400 1475 3375 1325 
L 3925 1325 
Q 4250 1325 4600 1350 
L 4600 900 
Q 4300 925 3925 925 
L 3325 925 
L 3300 875 
Q 2875 -100 1975 -525 
z
M 1975 4775 
Q 1850 4675 1425 4200 
Q 1000 3725 650 3425 
Q 475 3675 300 3775 
Q 625 3975 987 4387 
Q 1350 4800 1525 5125 
Q 1700 4950 1975 4775 
z
M 3425 825 
Q 3850 550 4475 100 
Q 4275 -100 4150 -350 
Q 3625 150 3150 450 
Q 3300 600 3425 825 
z
M 4700 4600 
Q 4875 4575 5175 4575 
L 5625 4575 
Q 5800 4575 6000 4600 
L 6000 4175 
Q 5800 4200 5625 4200 
L 5225 4200 
Q 4900 4200 4700 4175 
L 4700 4600 
z
M 3975 2925 
L 3975 3375 
L 3425 3375 
L 3425 2925 
L 3975 2925 
z
M 3025 2925 
L 3025 3375 
L 2500 3375 
L 2500 2925 
L 3025 2925 
z
M 3975 2150 
L 3975 2575 
L 3425 2575 
L 3425 2150 
L 3975 2150 
z
M 3025 2150 
L 3025 2575 
L 2500 2575 
L 2500 2150 
L 3025 2150 
z
" transform="scale(0.015625)"/>
      </defs>
      <use xlink:href="#SimHei-52a8"/>
      <use xlink:href="#SimHei-6001" x="100"/>
      <use xlink:href="#SimHei-518d" x="200"/>
      <use xlink:href="#SimHei-5e73" x="300"/>
      <use xlink:href="#SimHei-8861" x="400"/>
      <use xlink:href="#SimHei-7ec4" x="500"/>
      <use xlink:href="#SimHei-5408" x="600"/>
     </g>
    </g>
    <g id="PathCollection_2">
     <g>
      <use xlink:href="#m13e7561205" x="127" y="109.113437" style="fill: #ff0000; stroke: #ff0000; stroke-width: 1.5"/>
     </g>
    </g>
    <g id="text_21">
     <!-- 调仓日 -->
     <g transform="translate(145 111.738437) scale(0.1 -0.1)">
      <defs>
       <path id="SimHei-65e5" d="M 5375 5000 
Q 5350 3775 5350 2275 
Q 5350 775 5375 -450 
L 4800 -450 
L 4800 175 
L 1800 175 
L 1800 -575 
L 1250 -575 
Q 1275 575 1275 2125 
Q 1275 3675 1250 5000 
L 5375 5000 
z
M 4800 600 
L 4800 2375 
L 1800 2375 
L 1800 600 
L 4800 600 
z
M 4800 2800 
L 4800 4550 
L 1800 4550 
L 1800 2800 
L 4800 2800 
z
" transform="scale(0.015625)"/>
      </defs>
      <use xlink:href="#SimHei-8c03"/>
      <use xlink:href="#SimHei-4ed3" x="100"/>
      <use xlink:href="#SimHei-65e5" x="200"/>
     </g>
    </g>
   </g>
  </g>
 </g>
 <defs>
  <clipPath id="p36b14a0cc4">
   <rect x="108" y="51.84" width="669.6" height="332.64"/>
  </clipPath>
 </defs>
</svg>
