<?xml version="1.0" encoding="utf-8" standalone="no"?>
<!DOCTYPE svg PUBLIC "-//W3C//DTD SVG 1.1//EN"
  "http://www.w3.org/Graphics/SVG/1.1/DTD/svg11.dtd">
<svg xmlns:xlink="http://www.w3.org/1999/xlink" width="864pt" height="432pt" viewBox="0 0 864 432" xmlns="http://www.w3.org/2000/svg" version="1.1">
 <metadata>
  <rdf:RDF xmlns:dc="http://purl.org/dc/elements/1.1/" xmlns:cc="http://creativecommons.org/ns#" xmlns:rdf="http://www.w3.org/1999/02/22-rdf-syntax-ns#">
   <cc:Work>
    <dc:type rdf:resource="http://purl.org/dc/dcmitype/StillImage"/>
    <dc:date>2025-05-13T11:58:40.248394</dc:date>
    <dc:format>image/svg+xml</dc:format>
    <dc:creator>
     <cc:Agent>
      <dc:title>Matplotlib v3.9.2, https://matplotlib.org/</dc:title>
     </cc:Agent>
    </dc:creator>
   </cc:Work>
  </rdf:RDF>
 </metadata>
 <defs>
  <style type="text/css">*{stroke-linejoin: round; stroke-linecap: butt}</style>
 </defs>
 <g id="figure_1">
  <g id="patch_1">
   <path d="M 0 432 
L 864 432 
L 864 0 
L 0 0 
z
" style="fill: #ffffff"/>
  </g>
  <g id="axes_1">
   <g id="patch_2">
    <path d="M 108 384.48 
L 777.6 384.48 
L 777.6 51.84 
L 108 51.84 
z
" style="fill: #ffffff"/>
   </g>
   <g id="matplotlib.axis_1">
    <g id="xtick_1">
     <g id="line2d_1">
      <path d="M 142.27288 384.48 
L 142.27288 51.84 
" clip-path="url(#pf1548cf22c)" style="fill: none; stroke: #b0b0b0; stroke-width: 0.8; stroke-linecap: square"/>
     </g>
     <g id="line2d_2">
      <defs>
       <path id="m51a0dc3e62" d="M 0 0 
L 0 3.5 
" style="stroke: #000000; stroke-width: 0.8"/>
      </defs>
      <g>
       <use xlink:href="#m51a0dc3e62" x="142.27288" y="384.48" style="stroke: #000000; stroke-width: 0.8"/>
      </g>
     </g>
     <g id="text_1">
      <!-- 2024-01 -->
      <g transform="translate(124.77288 398.355) scale(0.1 -0.1)">
       <defs>
        <path id="SimHei-32" d="M 300 250 
Q 325 625 650 925 
Q 975 1225 1475 1862 
Q 1975 2500 2125 2850 
Q 2275 3200 2237 3450 
Q 2200 3700 2000 3862 
Q 1800 4025 1537 4000 
Q 1275 3975 1037 3800 
Q 800 3625 675 3275 
L 200 3350 
Q 400 3925 712 4187 
Q 1025 4450 1450 4475 
Q 1700 4500 1900 4462 
Q 2100 4425 2312 4287 
Q 2525 4150 2662 3875 
Q 2800 3600 2762 3212 
Q 2725 2825 2375 2287 
Q 2025 1750 1025 600 
L 2825 600 
L 2825 150 
L 300 150 
L 300 250 
z
" transform="scale(0.015625)"/>
        <path id="SimHei-30" d="M 225 2537 
Q 250 3200 412 3587 
Q 575 3975 875 4225 
Q 1175 4475 1612 4475 
Q 2050 4475 2375 4112 
Q 2700 3750 2800 3200 
Q 2900 2650 2862 1937 
Q 2825 1225 2612 775 
Q 2400 325 1975 150 
Q 1550 -25 1125 187 
Q 700 400 525 750 
Q 350 1100 275 1487 
Q 200 1875 225 2537 
z
M 750 2687 
Q 675 2000 800 1462 
Q 925 925 1212 700 
Q 1500 475 1800 612 
Q 2100 750 2237 1162 
Q 2375 1575 2375 2062 
Q 2375 2550 2337 2950 
Q 2300 3350 2112 3675 
Q 1925 4000 1612 4012 
Q 1300 4025 1062 3700 
Q 825 3375 750 2687 
z
" transform="scale(0.015625)"/>
        <path id="SimHei-34" d="M 2000 1100 
L 75 1100 
L 75 1525 
L 2100 4450 
L 2475 4450 
L 2475 1525 
L 3075 1525 
L 3075 1100 
L 2475 1100 
L 2475 150 
L 2000 150 
L 2000 1100 
z
M 2000 1525 
L 2000 3500 
L 600 1525 
L 2000 1525 
z
" transform="scale(0.015625)"/>
        <path id="SimHei-2d" d="M 2975 2125 
L 125 2125 
L 125 2525 
L 2975 2525 
L 2975 2125 
z
" transform="scale(0.015625)"/>
        <path id="SimHei-31" d="M 1400 3600 
Q 1075 3275 575 2975 
L 575 3450 
Q 1200 3875 1600 4450 
L 1900 4450 
L 1900 150 
L 1400 150 
L 1400 3600 
z
" transform="scale(0.015625)"/>
       </defs>
       <use xlink:href="#SimHei-32"/>
       <use xlink:href="#SimHei-30" x="50"/>
       <use xlink:href="#SimHei-32" x="100"/>
       <use xlink:href="#SimHei-34" x="150"/>
       <use xlink:href="#SimHei-2d" x="200"/>
       <use xlink:href="#SimHei-30" x="250"/>
       <use xlink:href="#SimHei-31" x="300"/>
      </g>
     </g>
    </g>
    <g id="xtick_2">
     <g id="line2d_3">
      <path d="M 219.003209 384.48 
L 219.003209 51.84 
" clip-path="url(#pf1548cf22c)" style="fill: none; stroke: #b0b0b0; stroke-width: 0.8; stroke-linecap: square"/>
     </g>
     <g id="line2d_4">
      <g>
       <use xlink:href="#m51a0dc3e62" x="219.003209" y="384.48" style="stroke: #000000; stroke-width: 0.8"/>
      </g>
     </g>
     <g id="text_2">
      <!-- 2024-03 -->
      <g transform="translate(201.503209 398.355) scale(0.1 -0.1)">
       <defs>
        <path id="SimHei-33" d="M 250 1225 
L 700 1300 
Q 800 975 1025 762 
Q 1250 550 1587 562 
Q 1925 575 2125 837 
Q 2325 1100 2300 1437 
Q 2275 1775 2037 1962 
Q 1800 2150 1275 2225 
L 1275 2550 
Q 1800 2600 2037 2825 
Q 2275 3050 2250 3412 
Q 2225 3775 1925 3937 
Q 1625 4100 1287 3975 
Q 950 3850 750 3275 
L 300 3350 
Q 450 3800 712 4100 
Q 975 4400 1425 4450 
Q 1875 4500 2212 4337 
Q 2550 4175 2687 3837 
Q 2825 3500 2725 3100 
Q 2625 2700 2150 2400 
Q 2500 2250 2687 1950 
Q 2875 1650 2812 1162 
Q 2750 675 2375 375 
Q 2000 75 1525 87 
Q 1050 100 700 387 
Q 350 675 250 1225 
z
" transform="scale(0.015625)"/>
       </defs>
       <use xlink:href="#SimHei-32"/>
       <use xlink:href="#SimHei-30" x="50"/>
       <use xlink:href="#SimHei-32" x="100"/>
       <use xlink:href="#SimHei-34" x="150"/>
       <use xlink:href="#SimHei-2d" x="200"/>
       <use xlink:href="#SimHei-30" x="250"/>
       <use xlink:href="#SimHei-33" x="300"/>
      </g>
     </g>
    </g>
    <g id="xtick_3">
     <g id="line2d_5">
      <path d="M 297.012376 384.48 
L 297.012376 51.84 
" clip-path="url(#pf1548cf22c)" style="fill: none; stroke: #b0b0b0; stroke-width: 0.8; stroke-linecap: square"/>
     </g>
     <g id="line2d_6">
      <g>
       <use xlink:href="#m51a0dc3e62" x="297.012376" y="384.48" style="stroke: #000000; stroke-width: 0.8"/>
      </g>
     </g>
     <g id="text_3">
      <!-- 2024-05 -->
      <g transform="translate(279.512376 398.355) scale(0.1 -0.1)">
       <defs>
        <path id="SimHei-35" d="M 550 1325 
Q 725 650 1150 575 
Q 1575 500 1837 662 
Q 2100 825 2212 1087 
Q 2325 1350 2312 1675 
Q 2300 2000 2137 2225 
Q 1975 2450 1725 2525 
Q 1475 2600 1162 2525 
Q 850 2450 650 2175 
L 225 2225 
Q 275 2375 700 4375 
L 2675 4375 
L 2675 3925 
L 1075 3925 
Q 950 3250 825 2850 
Q 1200 3025 1525 3012 
Q 1850 3000 2150 2862 
Q 2450 2725 2587 2487 
Q 2725 2250 2787 2012 
Q 2850 1775 2837 1500 
Q 2825 1225 2725 937 
Q 2625 650 2425 462 
Q 2225 275 1937 162 
Q 1650 50 1275 75 
Q 900 100 562 350 
Q 225 600 100 1200 
L 550 1325 
z
" transform="scale(0.015625)"/>
       </defs>
       <use xlink:href="#SimHei-32"/>
       <use xlink:href="#SimHei-30" x="50"/>
       <use xlink:href="#SimHei-32" x="100"/>
       <use xlink:href="#SimHei-34" x="150"/>
       <use xlink:href="#SimHei-2d" x="200"/>
       <use xlink:href="#SimHei-30" x="250"/>
       <use xlink:href="#SimHei-35" x="300"/>
      </g>
     </g>
    </g>
    <g id="xtick_4">
     <g id="line2d_7">
      <path d="M 375.021543 384.48 
L 375.021543 51.84 
" clip-path="url(#pf1548cf22c)" style="fill: none; stroke: #b0b0b0; stroke-width: 0.8; stroke-linecap: square"/>
     </g>
     <g id="line2d_8">
      <g>
       <use xlink:href="#m51a0dc3e62" x="375.021543" y="384.48" style="stroke: #000000; stroke-width: 0.8"/>
      </g>
     </g>
     <g id="text_4">
      <!-- 2024-07 -->
      <g transform="translate(357.521543 398.355) scale(0.1 -0.1)">
       <defs>
        <path id="SimHei-37" d="M 850 150 
Q 1300 2050 2425 3925 
L 275 3925 
L 275 4375 
L 2950 4375 
L 2950 3950 
Q 1775 2050 1400 150 
L 850 150 
z
" transform="scale(0.015625)"/>
       </defs>
       <use xlink:href="#SimHei-32"/>
       <use xlink:href="#SimHei-30" x="50"/>
       <use xlink:href="#SimHei-32" x="100"/>
       <use xlink:href="#SimHei-34" x="150"/>
       <use xlink:href="#SimHei-2d" x="200"/>
       <use xlink:href="#SimHei-30" x="250"/>
       <use xlink:href="#SimHei-37" x="300"/>
      </g>
     </g>
    </g>
    <g id="xtick_5">
     <g id="line2d_9">
      <path d="M 454.309549 384.48 
L 454.309549 51.84 
" clip-path="url(#pf1548cf22c)" style="fill: none; stroke: #b0b0b0; stroke-width: 0.8; stroke-linecap: square"/>
     </g>
     <g id="line2d_10">
      <g>
       <use xlink:href="#m51a0dc3e62" x="454.309549" y="384.48" style="stroke: #000000; stroke-width: 0.8"/>
      </g>
     </g>
     <g id="text_5">
      <!-- 2024-09 -->
      <g transform="translate(436.809549 398.355) scale(0.1 -0.1)">
       <defs>
        <path id="SimHei-39" d="M 800 75 
Q 1350 1000 1700 1750 
Q 1075 1650 662 1912 
Q 250 2175 162 2625 
Q 75 3075 175 3437 
Q 275 3800 487 4037 
Q 700 4275 1000 4375 
Q 1300 4475 1537 4475 
Q 1775 4475 2025 4375 
Q 2275 4275 2475 4075 
Q 2675 3875 2750 3662 
Q 2825 3450 2825 3112 
Q 2825 2775 2575 2250 
Q 2325 1725 1350 75 
L 800 75 
z
M 662 2875 
Q 700 2550 937 2337 
Q 1175 2125 1450 2150 
Q 1725 2175 1887 2300 
Q 2050 2425 2200 2725 
Q 2300 3100 2250 3362 
Q 2200 3625 1987 3800 
Q 1775 3975 1525 3975 
Q 1375 4000 1137 3900 
Q 900 3800 762 3500 
Q 625 3200 662 2875 
z
" transform="scale(0.015625)"/>
       </defs>
       <use xlink:href="#SimHei-32"/>
       <use xlink:href="#SimHei-30" x="50"/>
       <use xlink:href="#SimHei-32" x="100"/>
       <use xlink:href="#SimHei-34" x="150"/>
       <use xlink:href="#SimHei-2d" x="200"/>
       <use xlink:href="#SimHei-30" x="250"/>
       <use xlink:href="#SimHei-39" x="300"/>
      </g>
     </g>
    </g>
    <g id="xtick_6">
     <g id="line2d_11">
      <path d="M 532.318717 384.48 
L 532.318717 51.84 
" clip-path="url(#pf1548cf22c)" style="fill: none; stroke: #b0b0b0; stroke-width: 0.8; stroke-linecap: square"/>
     </g>
     <g id="line2d_12">
      <g>
       <use xlink:href="#m51a0dc3e62" x="532.318717" y="384.48" style="stroke: #000000; stroke-width: 0.8"/>
      </g>
     </g>
     <g id="text_6">
      <!-- 2024-11 -->
      <g transform="translate(514.818717 398.355) scale(0.1 -0.1)">
       <use xlink:href="#SimHei-32"/>
       <use xlink:href="#SimHei-30" x="50"/>
       <use xlink:href="#SimHei-32" x="100"/>
       <use xlink:href="#SimHei-34" x="150"/>
       <use xlink:href="#SimHei-2d" x="200"/>
       <use xlink:href="#SimHei-31" x="250"/>
       <use xlink:href="#SimHei-31" x="300"/>
      </g>
     </g>
    </g>
    <g id="xtick_7">
     <g id="line2d_13">
      <path d="M 610.327884 384.48 
L 610.327884 51.84 
" clip-path="url(#pf1548cf22c)" style="fill: none; stroke: #b0b0b0; stroke-width: 0.8; stroke-linecap: square"/>
     </g>
     <g id="line2d_14">
      <g>
       <use xlink:href="#m51a0dc3e62" x="610.327884" y="384.48" style="stroke: #000000; stroke-width: 0.8"/>
      </g>
     </g>
     <g id="text_7">
      <!-- 2025-01 -->
      <g transform="translate(592.827884 398.355) scale(0.1 -0.1)">
       <use xlink:href="#SimHei-32"/>
       <use xlink:href="#SimHei-30" x="50"/>
       <use xlink:href="#SimHei-32" x="100"/>
       <use xlink:href="#SimHei-35" x="150"/>
       <use xlink:href="#SimHei-2d" x="200"/>
       <use xlink:href="#SimHei-30" x="250"/>
       <use xlink:href="#SimHei-31" x="300"/>
      </g>
     </g>
    </g>
    <g id="xtick_8">
     <g id="line2d_15">
      <path d="M 685.779374 384.48 
L 685.779374 51.84 
" clip-path="url(#pf1548cf22c)" style="fill: none; stroke: #b0b0b0; stroke-width: 0.8; stroke-linecap: square"/>
     </g>
     <g id="line2d_16">
      <g>
       <use xlink:href="#m51a0dc3e62" x="685.779374" y="384.48" style="stroke: #000000; stroke-width: 0.8"/>
      </g>
     </g>
     <g id="text_8">
      <!-- 2025-03 -->
      <g transform="translate(668.279374 398.355) scale(0.1 -0.1)">
       <use xlink:href="#SimHei-32"/>
       <use xlink:href="#SimHei-30" x="50"/>
       <use xlink:href="#SimHei-32" x="100"/>
       <use xlink:href="#SimHei-35" x="150"/>
       <use xlink:href="#SimHei-2d" x="200"/>
       <use xlink:href="#SimHei-30" x="250"/>
       <use xlink:href="#SimHei-33" x="300"/>
      </g>
     </g>
    </g>
    <g id="xtick_9">
     <g id="line2d_17">
      <path d="M 763.788541 384.48 
L 763.788541 51.84 
" clip-path="url(#pf1548cf22c)" style="fill: none; stroke: #b0b0b0; stroke-width: 0.8; stroke-linecap: square"/>
     </g>
     <g id="line2d_18">
      <g>
       <use xlink:href="#m51a0dc3e62" x="763.788541" y="384.48" style="stroke: #000000; stroke-width: 0.8"/>
      </g>
     </g>
     <g id="text_9">
      <!-- 2025-05 -->
      <g transform="translate(746.288541 398.355) scale(0.1 -0.1)">
       <use xlink:href="#SimHei-32"/>
       <use xlink:href="#SimHei-30" x="50"/>
       <use xlink:href="#SimHei-32" x="100"/>
       <use xlink:href="#SimHei-35" x="150"/>
       <use xlink:href="#SimHei-2d" x="200"/>
       <use xlink:href="#SimHei-30" x="250"/>
       <use xlink:href="#SimHei-35" x="300"/>
      </g>
     </g>
    </g>
   </g>
   <g id="matplotlib.axis_2">
    <g id="ytick_1">
     <g id="line2d_19">
      <path d="M 108 361.161765 
L 777.6 361.161765 
" clip-path="url(#pf1548cf22c)" style="fill: none; stroke: #b0b0b0; stroke-width: 0.8; stroke-linecap: square"/>
     </g>
     <g id="line2d_20">
      <defs>
       <path id="m4dbff9272b" d="M 0 0 
L -3.5 0 
" style="stroke: #000000; stroke-width: 0.8"/>
      </defs>
      <g>
       <use xlink:href="#m4dbff9272b" x="108" y="361.161765" style="stroke: #000000; stroke-width: 0.8"/>
      </g>
     </g>
     <g id="text_10">
      <!-- 100 -->
      <g transform="translate(86 364.599265) scale(0.1 -0.1)">
       <use xlink:href="#SimHei-31"/>
       <use xlink:href="#SimHei-30" x="50"/>
       <use xlink:href="#SimHei-30" x="100"/>
      </g>
     </g>
    </g>
    <g id="ytick_2">
     <g id="line2d_21">
      <path d="M 108 303.599832 
L 777.6 303.599832 
" clip-path="url(#pf1548cf22c)" style="fill: none; stroke: #b0b0b0; stroke-width: 0.8; stroke-linecap: square"/>
     </g>
     <g id="line2d_22">
      <g>
       <use xlink:href="#m4dbff9272b" x="108" y="303.599832" style="stroke: #000000; stroke-width: 0.8"/>
      </g>
     </g>
     <g id="text_11">
      <!-- 110 -->
      <g transform="translate(86 307.037332) scale(0.1 -0.1)">
       <use xlink:href="#SimHei-31"/>
       <use xlink:href="#SimHei-31" x="50"/>
       <use xlink:href="#SimHei-30" x="100"/>
      </g>
     </g>
    </g>
    <g id="ytick_3">
     <g id="line2d_23">
      <path d="M 108 246.037899 
L 777.6 246.037899 
" clip-path="url(#pf1548cf22c)" style="fill: none; stroke: #b0b0b0; stroke-width: 0.8; stroke-linecap: square"/>
     </g>
     <g id="line2d_24">
      <g>
       <use xlink:href="#m4dbff9272b" x="108" y="246.037899" style="stroke: #000000; stroke-width: 0.8"/>
      </g>
     </g>
     <g id="text_12">
      <!-- 120 -->
      <g transform="translate(86 249.475399) scale(0.1 -0.1)">
       <use xlink:href="#SimHei-31"/>
       <use xlink:href="#SimHei-32" x="50"/>
       <use xlink:href="#SimHei-30" x="100"/>
      </g>
     </g>
    </g>
    <g id="ytick_4">
     <g id="line2d_25">
      <path d="M 108 188.475966 
L 777.6 188.475966 
" clip-path="url(#pf1548cf22c)" style="fill: none; stroke: #b0b0b0; stroke-width: 0.8; stroke-linecap: square"/>
     </g>
     <g id="line2d_26">
      <g>
       <use xlink:href="#m4dbff9272b" x="108" y="188.475966" style="stroke: #000000; stroke-width: 0.8"/>
      </g>
     </g>
     <g id="text_13">
      <!-- 130 -->
      <g transform="translate(86 191.913466) scale(0.1 -0.1)">
       <use xlink:href="#SimHei-31"/>
       <use xlink:href="#SimHei-33" x="50"/>
       <use xlink:href="#SimHei-30" x="100"/>
      </g>
     </g>
    </g>
    <g id="ytick_5">
     <g id="line2d_27">
      <path d="M 108 130.914033 
L 777.6 130.914033 
" clip-path="url(#pf1548cf22c)" style="fill: none; stroke: #b0b0b0; stroke-width: 0.8; stroke-linecap: square"/>
     </g>
     <g id="line2d_28">
      <g>
       <use xlink:href="#m4dbff9272b" x="108" y="130.914033" style="stroke: #000000; stroke-width: 0.8"/>
      </g>
     </g>
     <g id="text_14">
      <!-- 140 -->
      <g transform="translate(86 134.351533) scale(0.1 -0.1)">
       <use xlink:href="#SimHei-31"/>
       <use xlink:href="#SimHei-34" x="50"/>
       <use xlink:href="#SimHei-30" x="100"/>
      </g>
     </g>
    </g>
    <g id="ytick_6">
     <g id="line2d_29">
      <path d="M 108 73.3521 
L 777.6 73.3521 
" clip-path="url(#pf1548cf22c)" style="fill: none; stroke: #b0b0b0; stroke-width: 0.8; stroke-linecap: square"/>
     </g>
     <g id="line2d_30">
      <g>
       <use xlink:href="#m4dbff9272b" x="108" y="73.3521" style="stroke: #000000; stroke-width: 0.8"/>
      </g>
     </g>
     <g id="text_15">
      <!-- 150 -->
      <g transform="translate(86 76.7896) scale(0.1 -0.1)">
       <use xlink:href="#SimHei-31"/>
       <use xlink:href="#SimHei-35" x="50"/>
       <use xlink:href="#SimHei-30" x="100"/>
      </g>
     </g>
    </g>
    <g id="text_16">
     <!-- 组合价值 -->
     <g transform="translate(80.75 238.16) rotate(-90) scale(0.1 -0.1)">
      <defs>
       <path id="SimHei-7ec4" d="M 6125 -425 
Q 5750 -400 5225 -400 
L 3275 -400 
Q 2775 -400 2400 -425 
L 2400 50 
Q 2725 25 2950 25 
L 2950 3775 
Q 2950 4375 2900 4625 
L 5525 4625 
Q 5500 4400 5500 3775 
L 5500 25 
Q 5825 25 6125 50 
L 6125 -425 
z
M 1725 4825 
Q 1500 4550 1287 4137 
Q 1075 3725 725 3050 
Q 950 3050 1550 3075 
Q 1800 3550 1900 3975 
Q 2075 3825 2450 3675 
Q 2225 3350 1937 2875 
Q 1650 2400 1150 1625 
Q 1950 1725 2425 1775 
L 2425 1350 
Q 2100 1325 1575 1250 
Q 1050 1175 575 1050 
Q 550 1300 400 1575 
Q 675 1675 912 1975 
Q 1150 2275 1375 2725 
Q 1225 2725 950 2687 
Q 675 2650 425 2525 
Q 325 2825 225 3050 
Q 450 3300 712 3862 
Q 975 4425 1150 5075 
Q 1425 4925 1725 4825 
z
M 5025 25 
L 5025 1275 
L 3425 1275 
L 3425 25 
L 5025 25 
z
M 5025 3125 
L 5025 4225 
L 3425 4225 
L 3425 3125 
L 5025 3125 
z
M 5025 1700 
L 5025 2725 
L 3425 2725 
L 3425 1700 
L 5025 1700 
z
M 2375 175 
Q 1875 100 1375 -12 
Q 875 -125 450 -300 
Q 375 -75 250 250 
Q 925 325 1162 375 
Q 1400 425 2375 600 
L 2375 175 
z
" transform="scale(0.015625)"/>
       <path id="SimHei-5408" d="M 5050 1800 
Q 5025 1550 5025 650 
Q 5025 -250 5050 -525 
L 4525 -525 
L 4525 -50 
L 1750 -50 
L 1750 -600 
L 1250 -600 
Q 1275 -300 1275 550 
Q 1275 1425 1250 1800 
L 5050 1800 
z
M 3375 4800 
Q 4100 3925 4550 3600 
Q 5000 3275 5375 3100 
Q 5750 2925 6100 2825 
Q 5850 2550 5775 2300 
Q 5275 2525 4875 2775 
Q 4475 3025 4062 3412 
Q 3650 3800 3125 4475 
Q 2650 3800 2187 3362 
Q 1725 2925 1400 2675 
Q 1075 2425 675 2175 
Q 625 2275 275 2575 
Q 800 2825 1275 3175 
Q 1750 3525 2225 4062 
Q 2700 4600 3000 5225 
Q 3275 5050 3500 4950 
L 3375 4800 
z
M 4525 350 
L 4525 1400 
L 1750 1400 
L 1750 350 
L 4525 350 
z
M 3925 2825 
Q 4325 2825 4625 2850 
L 4625 2375 
Q 4300 2400 3950 2400 
L 2550 2400 
Q 2025 2400 1700 2375 
L 1700 2850 
Q 2175 2825 2550 2825 
L 3925 2825 
z
" transform="scale(0.015625)"/>
       <path id="SimHei-4ef7" d="M 2200 4975 
Q 2050 4725 1650 3775 
L 1650 450 
Q 1650 -225 1675 -650 
L 1175 -650 
Q 1175 -225 1200 450 
L 1200 2975 
Q 900 2425 650 2100 
Q 525 2275 225 2450 
Q 750 3025 1125 3800 
Q 1500 4575 1625 5175 
Q 1950 5025 2200 4975 
z
M 4175 4700 
Q 4850 3525 6150 2950 
Q 5925 2750 5775 2500 
Q 4725 3100 3950 4300 
Q 3300 3125 2250 2350 
Q 2125 2525 1900 2725 
Q 2825 3325 3250 4050 
Q 3675 4775 3750 5150 
Q 4150 4950 4325 4900 
L 4175 4700 
z
M 3475 2650 
Q 3400 2075 3325 1087 
Q 3250 100 2325 -675 
Q 2175 -450 1925 -300 
Q 2850 350 2912 1262 
Q 2975 2175 2950 2700 
Q 3275 2650 3475 2650 
z
M 5075 2700 
Q 5050 2150 5050 1725 
L 5050 150 
Q 5050 -225 5075 -650 
L 4550 -650 
Q 4575 -225 4575 175 
L 4575 1875 
Q 4575 2150 4550 2700 
L 5075 2700 
z
" transform="scale(0.015625)"/>
       <path id="SimHei-503c" d="M 3675 4450 
L 3675 5100 
Q 3975 5075 4350 5050 
Q 4225 4875 4200 4450 
L 5125 4450 
Q 5550 4450 5875 4475 
L 5875 4025 
Q 5525 4050 5125 4050 
L 4175 4050 
L 4125 3500 
L 5400 3500 
Q 5375 3200 5375 2700 
L 5375 150 
Q 5875 150 6100 175 
L 6100 -275 
Q 5775 -250 5200 -250 
L 2850 -250 
Q 2275 -250 1900 -275 
L 1900 175 
Q 2125 150 2600 150 
L 2600 2700 
Q 2600 3175 2575 3500 
L 3600 3500 
L 3650 4050 
L 3200 4050 
Q 2575 4050 2225 4025 
L 2225 4475 
Q 2550 4450 3200 4450 
L 3675 4450 
z
M 2225 4900 
Q 2025 4675 1650 3750 
L 1650 450 
Q 1650 -75 1675 -550 
L 1150 -550 
Q 1175 -125 1175 375 
L 1175 2950 
Q 875 2450 625 2150 
Q 425 2425 250 2575 
Q 500 2825 937 3537 
Q 1375 4250 1625 5150 
Q 1975 4975 2225 4900 
z
M 4925 2650 
L 4925 3150 
L 3075 3150 
L 3075 2650 
L 4925 2650 
z
M 4925 150 
L 4925 625 
L 3075 625 
L 3075 150 
L 4925 150 
z
M 4925 1000 
L 4925 1450 
L 3075 1450 
L 3075 1000 
L 4925 1000 
z
M 4925 1825 
L 4925 2275 
L 3075 2275 
L 3075 1825 
L 4925 1825 
z
" transform="scale(0.015625)"/>
      </defs>
      <use xlink:href="#SimHei-7ec4"/>
      <use xlink:href="#SimHei-5408" x="100"/>
      <use xlink:href="#SimHei-4ef7" x="200"/>
      <use xlink:href="#SimHei-503c" x="300"/>
     </g>
    </g>
   </g>
   <g id="line2d_31">
    <path d="M 138.436364 361.161765 
L 143.551719 357.95116 
L 144.830558 358.408224 
L 146.109396 356.885147 
L 147.388235 357.181551 
L 151.224752 360.358134 
L 152.503591 354.162926 
L 153.782429 355.862058 
L 155.061268 355.241805 
L 156.340107 354.364401 
L 160.176623 350.452001 
L 161.455462 350.625343 
L 162.734301 356.067583 
L 164.01314 357.105044 
L 165.291979 353.831953 
L 169.128495 354.358782 
L 170.407334 354.764433 
L 171.686173 349.124248 
L 172.965011 344.111394 
L 174.24385 340.598226 
L 178.080367 338.774193 
L 179.359206 336.616919 
L 180.638044 342.030684 
L 181.916883 346.284298 
L 183.195722 340.559051 
L 187.032238 340.705189 
L 188.311077 337.343501 
L 189.589916 335.383984 
L 190.868755 330.767634 
L 204.935982 326.788294 
L 206.21482 325.534836 
L 207.493659 326.567058 
L 208.772498 319.988718 
L 210.051337 317.527486 
L 213.887853 325.130421 
L 215.166692 323.667389 
L 216.445531 325.032304 
L 217.72437 324.088593 
L 219.003209 320.5954 
L 222.839725 313.972486 
L 224.118564 310.931751 
L 225.397403 309.745995 
L 226.676241 307.06771 
L 227.95508 303.069299 
L 231.791597 306.914074 
L 233.070435 313.954933 
L 234.349274 313.64724 
L 235.628113 312.402256 
L 236.906952 312.708054 
L 240.743468 314.134276 
L 242.022307 315.801699 
L 243.301146 313.231164 
L 244.579985 304.98482 
L 245.858824 307.662445 
L 249.69534 307.36004 
L 250.974179 305.705298 
L 252.253018 306.325106 
L 253.531856 304.486915 
L 254.810695 297.333598 
L 258.647212 294.537333 
L 259.92605 293.175548 
L 261.204889 289.241911 
L 267.599083 283.801802 
L 268.877922 285.007897 
L 270.156761 283.820905 
L 271.4356 284.553116 
L 272.714439 276.189945 
L 276.550955 274.888731 
L 277.829794 280.050845 
L 279.108633 274.770082 
L 280.387471 275.937471 
L 281.66631 277.905349 
L 285.502827 288.33947 
L 286.781665 296.701277 
L 288.060504 290.257105 
L 289.339343 291.505005 
L 290.618182 290.506463 
L 294.454698 291.645832 
L 295.733537 290.706226 
L 303.40657 290.131728 
L 304.685409 287.870019 
L 305.964248 286.755938 
L 307.243086 285.493088 
L 308.521925 278.895642 
L 312.358442 277.427164 
L 313.63728 278.159089 
L 314.916119 275.649994 
L 316.194958 270.191497 
L 317.473797 268.923621 
L 321.310313 260.807622 
L 322.589152 261.606854 
L 323.867991 260.304196 
L 326.425668 271.358808 
L 330.262185 263.001848 
L 331.541024 263.722485 
L 332.819862 263.027054 
L 334.098701 269.669729 
L 335.37754 268.65829 
L 339.214057 273.129114 
L 340.492895 270.470274 
L 341.771734 273.82857 
L 343.050573 265.900945 
L 344.329412 262.909048 
L 349.444767 274.08062 
L 350.723606 267.788633 
L 352.002445 266.703921 
L 353.281283 266.103057 
L 357.1178 267.957536 
L 358.396639 263.120006 
L 359.675477 262.019685 
L 360.954316 258.27079 
L 362.233155 260.435879 
L 366.069672 267.50155 
L 367.34851 268.294383 
L 368.627349 264.061348 
L 369.906188 264.244798 
L 371.185027 255.603456 
L 376.300382 249.749747 
L 377.579221 247.498882 
L 378.85806 248.03607 
L 380.136898 246.569462 
L 383.973415 241.87352 
L 385.252254 235.63458 
L 386.531092 241.572406 
L 387.809931 240.440117 
L 389.08877 250.798866 
L 392.925286 239.261225 
L 394.204125 237.928253 
L 396.761803 242.666451 
L 398.040642 255.33686 
L 401.877158 260.869321 
L 403.155997 260.015365 
L 404.434836 262.304854 
L 405.713675 274.191767 
L 406.992513 273.748304 
L 410.82903 264.009568 
L 412.107869 268.858702 
L 413.386707 263.037596 
L 414.665546 259.088361 
L 415.944385 270.00769 
L 419.780901 293.962693 
L 421.05974 290.276953 
L 422.338579 289.234465 
L 423.617418 291.752295 
L 424.896257 284.345783 
L 428.732773 280.347949 
L 430.011612 275.81119 
L 431.290451 272.652111 
L 432.56929 266.789066 
L 433.848128 256.586528 
L 437.684645 254.703891 
L 438.963484 252.731303 
L 440.242322 255.069028 
L 441.521161 255.062608 
L 442.8 257.624669 
L 446.636516 257.713813 
L 447.915355 258.528144 
L 449.194194 260.377122 
L 450.473033 272.328024 
L 451.751872 272.237144 
L 455.588388 271.028894 
L 456.867227 273.428401 
L 458.146066 287.261296 
L 459.424905 286.22431 
L 460.703743 285.619712 
L 464.54026 291.251005 
L 465.819099 289.432417 
L 467.097937 292.315542 
L 468.376776 284.474725 
L 469.655615 279.278928 
L 476.049809 278.760312 
L 477.328648 275.084067 
L 478.607487 273.476449 
L 482.444003 267.547016 
L 483.722842 258.587265 
L 485.001681 255.250886 
L 486.280519 244.626557 
L 487.559358 251.95358 
L 491.395875 238.022812 
L 501.626585 235.817486 
L 502.905424 254.08889 
L 504.184263 238.597004 
L 505.463102 240.263325 
L 509.299618 230.224884 
L 510.578457 231.91639 
L 511.857296 226.951395 
L 513.136134 227.475298 
L 514.414973 226.425731 
L 518.25149 226.502167 
L 519.530328 225.683413 
L 520.809167 224.408933 
L 522.088006 230.363915 
L 523.366845 230.756281 
L 527.203361 226.681827 
L 528.4822 229.619758 
L 529.761039 221.718212 
L 531.039878 227.286272 
L 532.318717 228.808083 
L 536.155233 229.244047 
L 537.434072 227.458847 
L 539.991749 214.643498 
L 541.270588 217.354145 
L 545.107105 219.498608 
L 546.385943 225.773285 
L 547.664782 225.908238 
L 548.943621 231.774893 
L 550.22246 235.375755 
L 554.058976 227.917559 
L 555.337815 223.262841 
L 556.616654 219.473085 
L 557.895493 217.818104 
L 559.174332 220.658551 
L 563.010848 221.790922 
L 564.289687 224.191271 
L 565.568526 218.781158 
L 566.847364 222.003812 
L 568.126203 219.035384 
L 571.96272 220.449082 
L 573.241558 211.773719 
L 574.520397 209.739952 
L 577.078075 206.720796 
L 580.914591 201.62238 
L 582.19343 201.724864 
L 583.472269 199.455259 
L 584.751108 193.898645 
L 586.029947 198.975517 
L 589.866463 193.926384 
L 591.145302 190.701472 
L 592.424141 185.316545 
L 593.702979 197.923196 
L 594.981818 204.468434 
L 598.818335 191.391377 
L 600.097173 192.530531 
L 601.376012 187.918073 
L 602.654851 188.066842 
L 603.93369 189.050623 
L 607.770206 191.748715 
L 609.049045 193.440926 
L 611.606723 196.153943 
L 612.885561 199.261165 
L 616.722078 193.926629 
L 618.000917 195.52677 
L 619.279756 195.008788 
L 621.837433 199.66603 
L 625.67395 208.434087 
L 626.952788 203.126938 
L 628.231627 202.689523 
L 629.510466 194.751927 
L 630.789305 194.990656 
L 634.625821 192.319849 
L 637.183499 195.328193 
L 639.741176 191.069758 
L 643.577693 194.875455 
L 655.087242 191.796041 
L 656.366081 191.887477 
L 661.481436 189.9614 
L 662.760275 183.958897 
L 664.039114 184.591152 
L 665.317953 181.615227 
L 666.596791 179.054402 
L 670.433308 183.430265 
L 671.712147 178.71211 
L 672.990985 179.085292 
L 674.269824 181.260749 
L 675.548663 186.545904 
L 679.38518 191.287631 
L 680.664018 196.58886 
L 681.942857 196.455827 
L 683.221696 194.366883 
L 684.500535 206.003958 
L 688.337051 201.870593 
L 689.61589 203.616791 
L 690.894729 197.663704 
L 692.173568 199.346364 
L 693.452406 204.42436 
L 697.288923 206.298386 
L 698.567762 215.884089 
L 699.8466 214.600057 
L 701.125439 212.551316 
L 702.404278 205.153482 
L 706.240794 203.424277 
L 707.519633 199.893272 
L 708.798472 197.617666 
L 710.077311 193.873537 
L 711.35615 196.97847 
L 715.192666 190.797839 
L 716.471505 186.507231 
L 717.750344 186.826528 
L 719.029183 189.449814 
L 720.308021 187.243146 
L 724.144538 193.546386 
L 725.423377 187.947435 
L 726.702215 186.980728 
L 727.981054 188.027129 
L 733.096409 231.623595 
L 734.375248 217.033614 
L 735.654087 216.50508 
L 736.932926 190.920281 
L 738.211765 189.345209 
L 742.048281 182.802705 
L 743.32712 182.856115 
L 744.605959 178.651143 
L 745.884798 175.637406 
L 747.163636 175.244223 
L 747.163636 175.244223 
" clip-path="url(#pf1548cf22c)" style="fill: none; stroke: #1f77b4; stroke-width: 1.5; stroke-linecap: square"/>
   </g>
   <g id="line2d_32">
    <path d="M 138.436364 361.161765 
L 143.551719 356.856205 
L 146.109396 352.08928 
L 147.388235 351.220989 
L 151.224752 355.314979 
L 152.503591 352.461882 
L 153.782429 354.966589 
L 155.061268 356.889922 
L 156.340107 354.942711 
L 160.176623 351.065658 
L 161.455462 349.364848 
L 162.734301 356.021739 
L 164.01314 358.506912 
L 165.291979 358.053903 
L 169.128495 365.181057 
L 170.407334 363.368311 
L 171.686173 357.309973 
L 172.965011 350.354314 
L 174.24385 344.618839 
L 178.080367 343.826004 
L 179.359206 344.54866 
L 180.638044 346.748864 
L 181.916883 349.294478 
L 183.195722 347.182739 
L 187.032238 348.548901 
L 189.589916 341.528222 
L 190.868755 339.918781 
L 204.935982 334.2688 
L 206.21482 332.10848 
L 207.493659 331.023251 
L 208.772498 326.931034 
L 210.051337 326.438042 
L 213.887853 333.354317 
L 215.166692 331.564526 
L 216.445531 333.899103 
L 217.72437 331.589536 
L 219.003209 329.929242 
L 222.839725 324.477879 
L 224.118564 318.349943 
L 225.397403 316.337713 
L 226.676241 311.956373 
L 227.95508 309.91006 
L 231.791597 311.464087 
L 233.070435 320.129354 
L 234.349274 321.04467 
L 236.906952 318.367353 
L 240.743468 320.374107 
L 242.022307 321.180784 
L 243.301146 318.674429 
L 244.579985 310.620264 
L 245.858824 314.021269 
L 249.69534 312.943997 
L 250.974179 311.87603 
L 252.253018 312.282822 
L 253.531856 309.437964 
L 254.810695 299.343055 
L 258.647212 297.346955 
L 259.92605 294.858894 
L 261.204889 287.903807 
L 267.599083 279.838048 
L 268.877922 281.067755 
L 270.156761 279.622434 
L 271.4356 278.50105 
L 272.714439 269.737637 
L 276.550955 268.116353 
L 277.829794 267.763884 
L 279.108633 261.000451 
L 280.387471 262.033695 
L 281.66631 260.546401 
L 285.502827 273.530903 
L 286.781665 285.896637 
L 288.060504 282.667509 
L 289.339343 280.552141 
L 290.618182 281.57389 
L 294.454698 284.341128 
L 295.733537 283.563699 
L 303.40657 283.321451 
L 304.685409 281.938045 
L 305.964248 280.823161 
L 307.243086 279.123292 
L 308.521925 270.544174 
L 312.358442 270.394328 
L 313.63728 271.955712 
L 314.916119 269.904414 
L 316.194958 265.992421 
L 317.473797 264.032609 
L 321.310313 252.626628 
L 322.589152 255.805752 
L 323.867991 255.259209 
L 325.14683 265.743475 
L 326.425668 269.200602 
L 330.262185 261.87492 
L 331.541024 263.48333 
L 332.819862 260.999696 
L 334.098701 267.215779 
L 335.37754 265.188359 
L 339.214057 271.974964 
L 340.492895 267.653058 
L 341.771734 273.463156 
L 343.050573 266.699181 
L 344.329412 263.815173 
L 349.444767 279.248694 
L 350.723606 273.768301 
L 352.002445 276.268148 
L 353.281283 275.293098 
L 357.1178 278.781111 
L 358.396639 276.883938 
L 359.675477 274.588211 
L 360.954316 271.800923 
L 362.233155 270.909677 
L 366.069672 280.16937 
L 367.34851 278.170065 
L 368.627349 277.72215 
L 369.906188 279.499041 
L 371.185027 271.800025 
L 375.021543 266.085025 
L 376.300382 264.932722 
L 377.579221 265.832415 
L 378.85806 265.663933 
L 380.136898 266.357751 
L 383.973415 266.624726 
L 385.252254 263.315224 
L 386.531092 267.938361 
L 387.809931 266.197134 
L 389.08877 266.331457 
L 392.925286 261.900455 
L 394.204125 259.441615 
L 395.482964 257.741594 
L 396.761803 257.317732 
L 398.040642 269.250406 
L 401.877158 273.003521 
L 403.155997 275.253055 
L 404.434836 272.022245 
L 405.713675 282.535957 
L 406.992513 283.310282 
L 410.82903 278.372403 
L 412.107869 280.927838 
L 413.386707 274.916608 
L 414.665546 271.686756 
L 415.944385 272.891526 
L 419.780901 286.916795 
L 421.05974 289.7781 
L 422.338579 287.032984 
L 423.617418 287.643497 
L 424.896257 283.378345 
L 428.732773 279.784789 
L 430.011612 276.298931 
L 431.290451 277.41394 
L 433.848128 270.583874 
L 437.684645 263.344459 
L 440.242322 267.267696 
L 441.521161 267.22202 
L 442.8 268.91663 
L 446.636516 266.932406 
L 447.915355 265.758604 
L 449.194194 267.928745 
L 450.473033 275.588759 
L 451.751872 277.5122 
L 455.588388 278.121598 
L 456.867227 280.842302 
L 458.146066 285.810351 
L 459.424905 284.383107 
L 460.703743 285.539022 
L 464.54026 292.685502 
L 465.819099 290.252722 
L 467.097937 295.139114 
L 468.376776 293.01013 
L 469.655615 288.723563 
L 476.049809 284.660684 
L 477.328648 284.456365 
L 478.607487 281.438789 
L 482.444003 275.099817 
L 483.722842 262.997606 
L 485.001681 256.113124 
L 486.280519 245.733522 
L 487.559358 249.269916 
L 491.395875 230.255025 
L 501.626585 225.678679 
L 502.905424 255.184634 
L 504.184263 238.312793 
L 505.463102 240.469259 
L 509.299618 227.679706 
L 510.578457 234.0937 
L 511.857296 223.99383 
L 513.136134 226.064121 
L 514.414973 222.292994 
L 518.25149 221.000298 
L 519.530328 219.936676 
L 520.809167 218.008782 
L 522.088006 223.747578 
L 523.366845 224.173604 
L 527.203361 221.950338 
L 528.4822 223.93565 
L 529.761039 220.587246 
L 531.039878 224.26007 
L 532.318717 223.898039 
L 536.155233 223.997591 
L 537.434072 220.365807 
L 538.712911 220.550627 
L 539.991749 221.468084 
L 541.270588 223.825275 
L 545.107105 226.39932 
L 546.385943 235.113927 
L 547.664782 233.92194 
L 548.943621 242.977938 
L 550.22246 243.985638 
L 554.058976 233.947275 
L 555.337815 227.713904 
L 556.616654 226.569258 
L 557.895493 222.621069 
L 559.174332 226.561741 
L 563.010848 230.830547 
L 564.289687 234.453992 
L 565.568526 227.595244 
L 566.847364 230.22894 
L 568.126203 226.408924 
L 571.96272 229.029612 
L 573.241558 221.119027 
L 574.520397 220.344078 
L 575.799236 220.169413 
L 577.078075 217.569225 
L 582.19343 212.667293 
L 583.472269 208.924897 
L 584.751108 205.557691 
L 586.029947 213.931931 
L 589.866463 211.208981 
L 591.145302 213.019563 
L 592.424141 210.418343 
L 593.702979 218.679906 
L 594.981818 221.288358 
L 598.818335 214.615562 
L 600.097173 214.072341 
L 601.376012 210.684577 
L 602.654851 211.269564 
L 603.93369 210.173274 
L 607.770206 209.756344 
L 612.885561 217.12641 
L 616.722078 217.907494 
L 618.000917 216.666193 
L 619.279756 214.013887 
L 620.558594 215.427863 
L 621.837433 217.36874 
L 625.67395 221.24173 
L 626.952788 218.878248 
L 628.231627 216.035146 
L 629.510466 211.278866 
L 634.625821 211.090143 
L 635.90466 213.666777 
L 637.183499 214.96995 
L 638.462338 209.955276 
L 639.741176 206.954047 
L 643.577693 204.648508 
L 655.087242 197.009647 
L 656.366081 198.671715 
L 657.64492 197.409124 
L 661.481436 192.111419 
L 662.760275 185.089366 
L 664.039114 187.057161 
L 665.317953 184.111021 
L 666.596791 181.849502 
L 670.433308 188.597172 
L 671.712147 184.100493 
L 672.990985 182.214554 
L 674.269824 182.548479 
L 675.548663 188.161282 
L 679.38518 189.116781 
L 680.664018 192.062279 
L 681.942857 193.237454 
L 683.221696 191.700482 
L 684.500535 197.547367 
L 688.337051 196.693042 
L 689.61589 194.290323 
L 690.894729 188.964953 
L 693.452406 192.795797 
L 697.288923 193.73807 
L 698.567762 196.206181 
L 699.8466 194.386095 
L 701.125439 190.226145 
L 702.404278 181.562391 
L 706.240794 180.025609 
L 707.519633 177.326894 
L 708.798472 171.638934 
L 710.077311 171.364119 
L 711.35615 174.130525 
L 715.192666 171.429563 
L 716.471505 169.178506 
L 717.750344 168.921452 
L 719.029183 167.760658 
L 720.308021 161.653879 
L 724.144538 158.996678 
L 725.423377 154.958801 
L 726.702215 154.64317 
L 727.981054 150.477211 
L 733.096409 185.046738 
L 734.375248 173.829539 
L 735.654087 170.029655 
L 736.932926 156.313725 
L 738.211765 151.194405 
L 742.048281 145.199604 
L 743.32712 142.51279 
L 744.605959 130.065375 
L 745.884798 126.080814 
L 747.163636 124.321809 
L 747.163636 124.321809 
" clip-path="url(#pf1548cf22c)" style="fill: none; stroke-dasharray: 5.55,2.4; stroke-dashoffset: 0; stroke: #ff7f0e; stroke-width: 1.5"/>
   </g>
   <g id="line2d_33">
    <path d="M 143.551719 361.161765 
L 146.109396 356.495701 
L 147.388235 355.635448 
L 151.224752 359.649157 
L 152.503591 356.814762 
L 153.782429 359.291574 
L 155.061268 361.159202 
L 156.340107 359.227645 
L 160.176623 355.384218 
L 161.455462 353.714088 
L 162.734301 360.302046 
L 164.01314 362.756257 
L 165.291979 362.273305 
L 169.128495 369.36 
L 170.407334 367.514784 
L 171.686173 361.46091 
L 172.965011 354.60195 
L 174.24385 348.977672 
L 178.080367 348.176971 
L 179.359206 348.823398 
L 180.638044 350.344976 
L 181.916883 350.632833 
L 183.195722 347.487626 
L 187.032238 350.448921 
L 188.311077 350.188022 
L 189.589916 348.929127 
L 190.868755 345.475792 
L 204.935982 345.844714 
L 206.21482 345.698053 
L 207.493659 346.223822 
L 208.772498 344.151827 
L 210.051337 343.966216 
L 213.887853 344.589323 
L 215.166692 344.579104 
L 216.445531 345.008996 
L 217.72437 344.656529 
L 219.003209 341.672217 
L 222.839725 334.51364 
L 224.118564 328.340895 
L 225.397403 325.057917 
L 226.676241 319.562658 
L 227.95508 318.146221 
L 231.791597 318.493654 
L 233.070435 323.09782 
L 234.349274 323.64211 
L 235.628113 322.595274 
L 236.906952 321.136572 
L 240.743468 324.465116 
L 242.022307 324.48671 
L 243.301146 322.645048 
L 244.579985 312.250364 
L 245.858824 315.679335 
L 249.69534 314.816848 
L 252.253018 312.067396 
L 253.531856 308.53629 
L 254.810695 298.551375 
L 259.92605 294.398184 
L 261.204889 287.598511 
L 267.599083 282.445442 
L 268.877922 283.258636 
L 270.156761 282.080316 
L 271.4356 284.443698 
L 272.714439 274.885698 
L 276.550955 275.211838 
L 277.829794 282.653718 
L 279.108633 278.892581 
L 280.387471 280.271761 
L 281.66631 283.923068 
L 285.502827 292.983593 
L 286.781665 299.698897 
L 288.060504 290.990732 
L 289.339343 294.233902 
L 290.618182 291.299966 
L 294.454698 291.806874 
L 295.733537 291.011817 
L 303.40657 290.822911 
L 304.685409 288.054348 
L 305.964248 287.20339 
L 307.243086 285.458611 
L 308.521925 280.25555 
L 312.358442 277.838841 
L 313.63728 278.539985 
L 314.916119 276.502279 
L 316.194958 271.170386 
L 317.473797 269.606329 
L 321.310313 262.905078 
L 322.589152 262.353142 
L 323.867991 261.089941 
L 325.14683 264.721948 
L 326.425668 270.300248 
L 330.262185 260.915024 
L 331.541024 261.71465 
L 332.819862 261.596355 
L 334.098701 268.23179 
L 335.37754 267.571151 
L 339.214057 271.88444 
L 340.492895 269.775084 
L 341.771734 273.36334 
L 343.050573 265.311244 
L 344.329412 261.779987 
L 349.444767 270.188813 
L 350.723606 263.228455 
L 352.002445 261.074903 
L 353.281283 260.49091 
L 357.1178 262.501636 
L 358.396639 256.263164 
L 359.675477 255.670746 
L 360.954316 252.11158 
L 362.233155 255.853789 
L 366.069672 261.800986 
L 367.34851 263.544106 
L 368.627349 256.990389 
L 369.906188 256.220484 
L 371.185027 247.047126 
L 376.300382 240.432851 
L 377.579221 237.932253 
L 378.85806 239.299026 
L 380.136898 237.993024 
L 383.973415 233.458802 
L 385.252254 226.970162 
L 386.531092 233.377412 
L 387.809931 232.229275 
L 389.08877 242.23508 
L 392.925286 230.433592 
L 394.204125 229.332374 
L 395.482964 231.910297 
L 396.761803 234.200536 
L 398.040642 246.615934 
L 401.877158 252.377182 
L 403.155997 251.481841 
L 404.434836 253.992144 
L 405.713675 265.632693 
L 406.992513 265.359963 
L 410.82903 255.467957 
L 412.107869 260.541751 
L 413.386707 254.584567 
L 414.665546 250.729878 
L 415.944385 251.125741 
L 421.05974 265.85609 
L 422.338579 262.690427 
L 423.617418 262.935462 
L 424.896257 259.868265 
L 428.732773 256.788946 
L 430.011612 253.840829 
L 431.290451 255.668942 
L 432.56929 250.723636 
L 433.848128 248.127842 
L 437.684645 239.251568 
L 440.242322 246.902081 
L 441.521161 246.14848 
L 442.8 247.436984 
L 446.636516 245.687766 
L 447.915355 243.295052 
L 449.194194 246.196073 
L 450.473033 256.399317 
L 451.751872 258.880904 
L 455.588388 260.362793 
L 456.867227 262.772886 
L 458.146066 265.457296 
L 459.424905 263.49935 
L 460.703743 264.840434 
L 464.54026 272.367082 
L 465.819099 269.501276 
L 467.097937 274.263062 
L 468.376776 273.94027 
L 469.655615 269.310982 
L 476.049809 264.476462 
L 477.328648 265.334191 
L 478.607487 261.440333 
L 482.444003 254.838844 
L 483.722842 242.624489 
L 485.001681 234.749137 
L 486.280519 225.127758 
L 487.559358 227.954386 
L 491.395875 209.471403 
L 501.626585 208.104867 
L 502.905424 220.27735 
L 504.184263 213.273278 
L 505.463102 207.16472 
L 509.299618 198.693231 
L 510.578457 199.492431 
L 511.857296 189.243563 
L 513.136134 187.356542 
L 514.414973 182.774601 
L 518.25149 175.000405 
L 519.530328 175.004944 
L 520.809167 170.807062 
L 522.088006 178.234579 
L 523.366845 178.016162 
L 527.203361 175.419688 
L 528.4822 170.762995 
L 529.761039 162.286063 
L 531.039878 167.006744 
L 532.318717 172.360484 
L 536.155233 176.968601 
L 537.434072 176.535188 
L 538.712911 173.35807 
L 539.991749 179.769128 
L 541.270588 177.978951 
L 545.107105 178.269086 
L 546.385943 188.10266 
L 547.664782 189.202328 
L 548.943621 200.174735 
L 550.22246 201.801154 
L 554.058976 193.252511 
L 555.337815 183.773668 
L 556.616654 181.842684 
L 557.895493 175.603838 
L 559.174332 170.689467 
L 563.010848 177.862202 
L 564.289687 184.228021 
L 565.568526 177.907378 
L 566.847364 181.663978 
L 568.126203 176.371191 
L 571.96272 180.714748 
L 573.241558 171.619284 
L 574.520397 169.4901 
L 575.799236 167.7569 
L 577.078075 167.518559 
L 580.914591 161.842735 
L 582.19343 161.77445 
L 583.472269 159.117382 
L 584.751108 152.569428 
L 586.029947 156.950904 
L 589.866463 153.241561 
L 591.145302 148.999838 
L 592.424141 143.798544 
L 593.702979 156.933585 
L 594.981818 163.520428 
L 598.818335 148.836055 
L 600.097173 151.068676 
L 601.376012 146.412574 
L 602.654851 146.295493 
L 603.93369 147.642234 
L 609.049045 152.71725 
L 611.606723 153.870805 
L 612.885561 153.380788 
L 616.722078 155.356192 
L 618.000917 153.997553 
L 619.279756 150.830237 
L 620.558594 150.747463 
L 621.837433 150.967085 
L 625.67395 153.614563 
L 626.952788 153.322892 
L 628.231627 149.882471 
L 629.510466 145.361577 
L 630.789305 144.741778 
L 634.625821 145.04696 
L 635.90466 147.144716 
L 637.183499 146.448789 
L 638.462338 142.078791 
L 639.741176 138.61684 
L 643.577693 137.204358 
L 655.087242 123.180811 
L 656.366081 124.340327 
L 657.64492 123.271146 
L 661.481436 119.049522 
L 662.760275 111.746731 
L 664.039114 113.276002 
L 665.317953 110.057199 
L 666.596791 107.526067 
L 670.433308 113.818524 
L 671.712147 108.879351 
L 672.990985 107.743461 
L 674.269824 108.897123 
L 675.548663 114.923488 
L 679.38518 117.487113 
L 680.664018 121.751823 
L 681.942857 122.259147 
L 683.221696 120.188156 
L 684.500535 128.877043 
L 688.337051 126.594739 
L 689.61589 125.700165 
L 690.894729 119.602681 
L 692.173568 121.892481 
L 693.452406 123.779298 
L 697.288923 125.446649 
L 698.567762 126.769988 
L 699.8466 124.866677 
L 701.125439 120.447295 
L 702.404278 111.482789 
L 706.240794 109.552276 
L 707.519633 107.456745 
L 708.798472 101.545728 
L 710.077311 101.764048 
L 711.35615 104.481813 
L 715.192666 101.401939 
L 716.471505 98.42036 
L 717.750344 98.619655 
L 719.029183 97.108922 
L 720.308021 92.137095 
L 724.144538 89.777848 
L 725.423377 85.803477 
L 726.702215 84.588675 
L 727.981054 81.2502 
L 733.096409 123.672151 
L 734.375248 108.49149 
L 735.654087 107.304839 
L 736.932926 94.977618 
L 738.211765 93.010408 
L 742.048281 86.555965 
L 743.32712 81.715622 
L 744.605959 71.597927 
L 745.884798 68.844264 
L 747.163636 66.96 
L 747.163636 66.96 
" clip-path="url(#pf1548cf22c)" style="fill: none; stroke-dasharray: 5.55,2.4; stroke-dashoffset: 0; stroke: #2ca02c; stroke-width: 1.5"/>
   </g>
   <g id="patch_3">
    <path d="M 108 384.48 
L 108 51.84 
" style="fill: none; stroke: #000000; stroke-width: 0.8; stroke-linejoin: miter; stroke-linecap: square"/>
   </g>
   <g id="patch_4">
    <path d="M 777.6 384.48 
L 777.6 51.84 
" style="fill: none; stroke: #000000; stroke-width: 0.8; stroke-linejoin: miter; stroke-linecap: square"/>
   </g>
   <g id="patch_5">
    <path d="M 108 384.48 
L 777.6 384.48 
" style="fill: none; stroke: #000000; stroke-width: 0.8; stroke-linejoin: miter; stroke-linecap: square"/>
   </g>
   <g id="patch_6">
    <path d="M 108 51.84 
L 777.6 51.84 
" style="fill: none; stroke: #000000; stroke-width: 0.8; stroke-linejoin: miter; stroke-linecap: square"/>
   </g>
   <g id="text_17">
    <!-- 指数加权移动平均协方差组合市值对比 -->
    <g transform="translate(340.8 45.84) scale(0.12 -0.12)">
     <defs>
      <path id="SimHei-6307" d="M 5625 2225 
Q 5600 1925 5600 1350 
L 5600 300 
Q 5600 -225 5625 -525 
L 5125 -525 
L 5125 -125 
L 3300 -125 
L 3300 -625 
L 2800 -625 
Q 2825 -300 2825 300 
L 2825 1350 
Q 2825 1925 2800 2225 
L 5625 2225 
z
M 500 25 
Q 1075 -25 1175 37 
Q 1275 100 1275 275 
L 1275 1675 
Q 1050 1600 925 1537 
Q 800 1475 475 1275 
Q 400 1525 225 1800 
Q 625 1900 825 1975 
Q 1025 2050 1275 2125 
L 1275 3300 
L 1100 3300 
Q 775 3300 450 3275 
L 450 3725 
Q 750 3700 1100 3700 
L 1275 3700 
L 1275 4450 
Q 1275 4800 1250 5125 
L 1775 5125 
Q 1750 4850 1750 4450 
L 1750 3700 
Q 2075 3700 2425 3725 
L 2425 3275 
Q 2050 3300 1750 3300 
L 1750 2325 
Q 1850 2350 2025 2425 
L 2375 2575 
Q 2350 2300 2375 2100 
Q 2225 2050 2062 1987 
Q 1900 1925 1750 1850 
L 1750 100 
Q 1725 -200 1575 -337 
Q 1425 -475 675 -525 
Q 625 -250 500 25 
z
M 3325 5025 
Q 3300 4675 3300 4125 
Q 4125 4275 4512 4412 
Q 4900 4550 5225 4725 
Q 5325 4475 5575 4250 
Q 5450 4225 5237 4175 
Q 5025 4125 4725 4050 
Q 4425 3975 4037 3887 
Q 3650 3800 3300 3725 
L 3300 3175 
Q 3275 2925 3700 2925 
L 4925 2925 
Q 5300 2925 5387 3087 
Q 5475 3250 5550 3600 
Q 5750 3400 6050 3300 
Q 5825 2725 5700 2637 
Q 5575 2550 5275 2525 
L 3350 2525 
Q 3050 2525 2937 2687 
Q 2825 2850 2825 2975 
L 2825 4125 
Q 2825 4775 2800 5025 
L 3325 5025 
z
M 5125 275 
L 5125 875 
L 3300 875 
L 3300 275 
L 5125 275 
z
M 5125 1250 
L 5125 1825 
L 3300 1825 
L 3300 1250 
L 5125 1250 
z
" transform="scale(0.015625)"/>
      <path id="SimHei-6570" d="M 4525 4925 
Q 4475 4800 4400 4587 
Q 4325 4375 4175 3825 
L 5325 3825 
Q 5575 3825 5925 3850 
L 5925 3400 
Q 5650 3425 5500 3425 
Q 5500 3025 5362 2162 
Q 5225 1300 4875 675 
Q 5125 375 5437 137 
Q 5750 -100 6025 -200 
Q 5725 -425 5625 -625 
Q 5325 -450 5075 -225 
Q 4825 0 4575 325 
Q 4300 25 3987 -187 
Q 3675 -400 3200 -650 
Q 3075 -425 2850 -300 
Q 3225 -150 3650 125 
Q 4075 400 4300 675 
Q 4125 1025 3962 1425 
Q 3800 1825 3675 2475 
Q 3600 2275 3425 1950 
Q 3250 2050 3000 2150 
Q 3400 2850 3650 3675 
Q 3900 4500 3975 5100 
Q 4275 4975 4525 4925 
z
M 2100 2250 
Q 2000 2150 1875 1925 
L 3250 1925 
Q 3100 1300 2725 675 
Q 3125 525 3350 400 
Q 3225 225 3125 25 
Q 2900 175 2450 325 
Q 1950 -225 725 -650 
Q 600 -375 400 -275 
Q 1575 0 2000 475 
Q 1300 650 850 775 
Q 1000 1000 1250 1525 
Q 1000 1525 425 1500 
L 425 1950 
Q 900 1925 1400 1925 
Q 1500 2150 1550 2425 
Q 1825 2325 2100 2250 
z
M 1775 3950 
Q 1775 4550 1750 5100 
L 2250 5100 
Q 2225 4575 2225 3950 
Q 3075 3950 3425 3975 
L 3425 3525 
Q 3075 3550 2225 3550 
Q 2225 2825 2250 2425 
L 1750 2425 
Q 1775 2775 1775 3300 
Q 1650 3100 1300 2787 
Q 950 2475 650 2300 
Q 525 2525 275 2625 
Q 500 2700 875 2975 
Q 1250 3250 1450 3550 
Q 950 3550 500 3525 
L 500 3975 
Q 925 3950 1775 3950 
z
M 3975 3175 
Q 4200 1700 4600 1125 
Q 4850 1700 4937 2287 
Q 5025 2875 5050 3425 
L 4075 3425 
L 3975 3175 
z
M 1450 1000 
Q 1750 925 2275 800 
Q 2475 1050 2650 1525 
L 1725 1525 
Q 1600 1275 1450 1000 
z
M 3325 4825 
Q 3200 4625 3125 4450 
Q 3050 4275 2925 4025 
Q 2725 4125 2525 4175 
Q 2725 4500 2900 5000 
Q 3150 4875 3325 4825 
z
M 2575 3375 
Q 2900 3050 3200 2725 
Q 3050 2600 2875 2425 
Q 2525 2850 2300 3100 
Q 2450 3225 2575 3375 
z
M 925 5000 
Q 1275 4650 1500 4300 
L 1125 4075 
Q 950 4425 600 4725 
Q 825 4875 925 5000 
z
" transform="scale(0.015625)"/>
      <path id="SimHei-52a0" d="M 5700 4150 
Q 5675 3625 5675 3100 
L 5675 900 
Q 5675 300 5700 -350 
L 5225 -350 
L 5225 225 
L 4150 225 
L 4150 -475 
L 3675 -475 
Q 3700 25 3700 550 
L 3700 3100 
Q 3700 3600 3675 4150 
L 5700 4150 
z
M 3125 225 
Q 3050 -250 2725 -337 
Q 2400 -425 2025 -450 
Q 2025 -225 1875 125 
Q 2300 100 2475 137 
Q 2650 175 2675 425 
L 2850 3425 
L 1975 3425 
Q 1925 2450 1812 1875 
Q 1700 1300 1562 875 
Q 1425 450 1187 37 
Q 950 -375 775 -600 
Q 600 -400 275 -250 
Q 750 225 987 787 
Q 1225 1350 1312 1837 
Q 1400 2325 1425 2637 
Q 1450 2950 1475 3425 
L 1125 3425 
Q 850 3425 550 3400 
L 550 3900 
Q 825 3850 1175 3850 
L 1500 3850 
Q 1525 4375 1525 4475 
Q 1525 4600 1500 5075 
Q 1775 5050 2125 5025 
Q 2075 4825 2050 4600 
Q 2025 4375 2000 3850 
L 3350 3850 
Q 3325 3650 3325 3425 
L 3125 225 
z
M 5225 725 
L 5225 3700 
L 4150 3700 
L 4150 725 
L 5225 725 
z
" transform="scale(0.015625)"/>
      <path id="SimHei-6743" d="M 2700 4575 
Q 3250 4550 3725 4550 
L 5675 4550 
Q 5575 3500 5337 2737 
Q 5100 1975 4475 1075 
Q 4775 675 5200 425 
Q 5625 175 6175 0 
Q 5825 -275 5750 -500 
Q 5175 -225 4775 100 
Q 4375 425 4150 725 
Q 3825 350 3475 62 
Q 3125 -225 2500 -600 
Q 2400 -350 2100 -125 
Q 2475 0 2950 275 
Q 3425 550 3850 1075 
Q 3625 1375 3400 2037 
Q 3175 2700 3050 4125 
L 2700 4125 
L 2700 4575 
z
M 200 1350 
Q 575 1750 825 2275 
Q 1075 2800 1250 3450 
Q 825 3450 425 3425 
L 425 3875 
Q 875 3850 1325 3850 
Q 1325 4900 1300 5250 
L 1850 5250 
Q 1800 4950 1800 3850 
Q 2175 3850 2600 3875 
L 2600 3425 
Q 2175 3450 1800 3450 
L 1800 2525 
Q 1975 2625 2175 2775 
Q 2625 2175 2750 1875 
Q 2475 1725 2325 1575 
Q 2200 1925 1800 2375 
L 1800 525 
Q 1800 0 1825 -600 
L 1275 -600 
Q 1325 0 1325 525 
L 1325 2375 
Q 1125 1675 575 900 
Q 425 1225 200 1350 
z
M 3525 4150 
Q 3675 2850 3787 2412 
Q 3900 1975 4175 1475 
Q 4475 1925 4750 2587 
Q 5025 3250 5100 4150 
L 3525 4150 
z
" transform="scale(0.015625)"/>
      <path id="SimHei-79fb" d="M 4475 5050 
Q 4300 4875 4075 4500 
L 5850 4500 
Q 5475 3625 5212 3312 
Q 4950 3000 4450 2650 
Q 4675 2575 4925 2500 
Q 4775 2300 4650 2075 
L 6100 2075 
Q 5900 1325 5550 825 
Q 5200 325 4787 37 
Q 4375 -250 3900 -387 
Q 3425 -525 2950 -650 
Q 2850 -425 2600 -125 
Q 3275 -50 3712 37 
Q 4150 125 4525 400 
Q 4375 625 4000 1000 
Q 4125 1100 4325 1250 
Q 4525 1075 4900 675 
Q 5075 900 5250 1162 
Q 5425 1425 5500 1700 
L 4375 1700 
Q 4175 1500 3950 1287 
Q 3725 1075 3350 800 
Q 3150 1025 2950 1150 
Q 3600 1525 3875 1837 
Q 4150 2150 4325 2550 
Q 4025 2350 3750 2225 
Q 3475 2100 3050 1950 
Q 2950 2200 2675 2475 
Q 3150 2525 3475 2637 
Q 3800 2750 4225 3000 
Q 3875 3300 3675 3475 
Q 3775 3600 4000 3775 
Q 4325 3500 4575 3250 
Q 4775 3425 4925 3625 
Q 5075 3825 5175 4125 
L 3850 4125 
Q 3525 3600 3250 3275 
Q 3025 3425 2800 3550 
Q 3250 4000 3475 4387 
Q 3700 4775 3850 5225 
Q 4225 5100 4475 5050 
z
M 2850 4650 
Q 2650 4650 2400 4600 
Q 2150 4550 2000 4525 
L 2000 3425 
Q 2375 3425 2825 3450 
L 2825 3050 
Q 2375 3075 2000 3075 
L 2000 2175 
Q 2100 2300 2325 2525 
Q 2550 2225 2687 2062 
Q 2825 1900 3000 1675 
Q 2775 1550 2625 1375 
Q 2475 1600 2337 1737 
Q 2200 1875 2000 2100 
L 2000 525 
Q 2000 150 2025 -475 
L 1525 -475 
Q 1550 150 1550 525 
L 1550 2075 
Q 1400 1700 1237 1412 
Q 1075 1125 750 650 
Q 525 900 275 1050 
Q 450 1200 637 1425 
Q 825 1650 987 1937 
Q 1150 2225 1275 2525 
Q 1400 2825 1475 3075 
Q 1075 3075 350 3050 
L 350 3450 
Q 1075 3425 1550 3425 
L 1550 4425 
Q 925 4325 625 4250 
Q 525 4525 425 4725 
Q 825 4775 1025 4787 
Q 1225 4800 1475 4850 
L 2000 4975 
Q 2275 5050 2575 5150 
Q 2675 4900 2850 4650 
z
" transform="scale(0.015625)"/>
      <path id="SimHei-52a8" d="M 4125 5150 
Q 4425 5075 4700 5075 
Q 4650 4825 4637 4512 
Q 4625 4200 4625 3750 
L 6025 3750 
Q 6000 3425 5975 3025 
L 5850 175 
Q 5775 -325 5437 -437 
Q 5100 -550 4675 -600 
Q 4600 -300 4425 -50 
Q 4975 -75 5175 12 
Q 5375 100 5375 350 
L 5525 3325 
L 4625 3325 
Q 4575 2225 4462 1650 
Q 4350 1075 4112 587 
Q 3875 100 3150 -675 
Q 2900 -425 2700 -350 
Q 3175 25 3475 437 
Q 3775 850 3900 1287 
Q 4025 1725 4075 2200 
Q 4125 2675 4150 3325 
L 3725 3325 
Q 3450 3325 3075 3300 
L 3075 3775 
Q 3450 3750 3775 3750 
L 4150 3750 
L 4150 4450 
Q 4150 4800 4125 5150 
z
M 275 3025 
Q 650 3000 1175 3000 
L 2125 3000 
Q 2575 3000 3150 3025 
L 3150 2575 
Q 2575 2600 2150 2600 
L 1875 2600 
Q 1725 2200 1537 1750 
Q 1350 1300 1100 850 
Q 2075 950 2575 1050 
Q 2450 1350 2175 1800 
Q 2450 1950 2575 2050 
Q 2825 1600 3000 1287 
Q 3175 975 3375 525 
Q 3175 400 2925 275 
Q 2825 500 2750 650 
Q 1950 525 1462 450 
Q 975 375 625 250 
Q 525 500 375 725 
Q 700 925 962 1525 
Q 1225 2125 1350 2600 
L 1175 2600 
Q 650 2600 275 2575 
L 275 3025 
z
M 2000 4425 
Q 2425 4425 2950 4450 
L 2950 3975 
Q 2425 4000 2000 4000 
L 1400 4000 
Q 1000 4000 625 3975 
L 625 4450 
Q 975 4425 1375 4425 
L 2000 4425 
z
" transform="scale(0.015625)"/>
      <path id="SimHei-5e73" d="M 4525 4825 
Q 4900 4825 5450 4850 
L 5450 4375 
Q 4925 4400 4525 4400 
L 3475 4400 
L 3475 2025 
L 5000 2025 
Q 5550 2025 6025 2050 
L 6025 1575 
Q 5550 1600 5000 1600 
L 3475 1600 
L 3475 450 
Q 3475 -100 3500 -600 
L 2925 -600 
Q 2950 -100 2950 450 
L 2950 1600 
L 1125 1600 
Q 775 1600 375 1575 
L 375 2050 
Q 775 2025 1175 2025 
L 2950 2025 
L 2950 4400 
L 1775 4400 
Q 1400 4400 875 4375 
L 875 4850 
Q 1400 4825 1750 4825 
L 4525 4825 
z
M 3925 2600 
Q 4500 3300 4900 4125 
Q 5150 3950 5400 3825 
Q 4775 2850 4350 2300 
Q 4150 2475 3925 2600 
z
M 1975 2350 
Q 1600 3100 1050 3725 
Q 1250 3875 1450 4050 
Q 2075 3300 2450 2725 
Q 2150 2500 1975 2350 
z
" transform="scale(0.015625)"/>
      <path id="SimHei-5747" d="M 5775 275 
Q 5775 -325 5362 -450 
Q 4950 -575 4425 -600 
Q 4375 -275 4250 25 
Q 4950 -25 5125 62 
Q 5300 150 5300 500 
L 5375 3700 
L 3550 3700 
Q 3425 3375 3262 3037 
Q 3100 2700 2925 2400 
Q 2675 2550 2475 2625 
Q 3150 3625 3500 5200 
Q 3800 5100 4075 5025 
Q 3975 4875 3875 4650 
Q 3775 4425 3675 4125 
L 5900 4125 
L 5775 275 
z
M 1250 3625 
L 1250 4375 
Q 1250 4775 1225 5100 
L 1775 5100 
Q 1750 4725 1750 4375 
L 1750 3625 
L 1900 3625 
Q 2200 3625 2525 3650 
L 2525 3150 
Q 2200 3175 1900 3175 
L 1750 3175 
L 1750 1100 
L 2500 1375 
Q 2475 1125 2525 900 
Q 1225 475 962 362 
Q 700 250 475 150 
Q 375 475 250 750 
Q 575 800 800 850 
Q 1025 900 1250 975 
L 1250 3175 
L 1125 3175 
Q 850 3175 400 3150 
L 400 3650 
Q 850 3625 1100 3625 
L 1250 3625 
z
M 4950 1625 
Q 4675 1425 4137 1050 
Q 3600 675 3175 300 
Q 3000 575 2850 775 
Q 3350 1050 3762 1325 
Q 4175 1600 4775 2075 
Q 4825 1850 4950 1625 
z
M 3775 3150 
Q 4125 2800 4475 2300 
Q 4250 2125 4100 1975 
Q 3900 2325 3450 2825 
Q 3600 3000 3775 3150 
z
" transform="scale(0.015625)"/>
      <path id="SimHei-534f" d="M 3475 3825 
Q 3475 4625 3450 5150 
Q 3725 5075 4050 5050 
Q 3950 4650 3975 3825 
L 5325 3825 
Q 5275 3600 5225 3075 
L 5050 300 
Q 5000 -100 4750 -187 
Q 4500 -275 4050 -375 
Q 3950 -50 3825 175 
Q 4350 200 4462 225 
Q 4575 250 4600 575 
L 4775 3425 
L 3950 3425 
Q 3925 2300 3600 1300 
Q 3275 300 2475 -500 
Q 2325 -300 1875 -150 
Q 2450 150 2925 1075 
Q 3400 2000 3450 3425 
Q 2975 3425 2500 3400 
L 2500 3850 
Q 2975 3825 3475 3825 
z
M 1025 3475 
Q 1025 4675 1000 5075 
L 1550 5075 
Q 1525 4675 1525 3475 
Q 2000 3475 2325 3500 
L 2325 3050 
Q 2000 3075 1525 3075 
L 1525 325 
Q 1525 -25 1550 -575 
L 1000 -575 
Q 1025 -25 1025 325 
L 1025 3075 
Q 525 3075 225 3050 
L 225 3500 
Q 525 3475 1025 3475 
z
M 2975 2500 
Q 2825 2300 2500 1225 
Q 2250 1325 2025 1350 
Q 2375 2275 2425 2625 
Q 2625 2550 2975 2500 
z
M 5725 2675 
Q 6100 1875 6200 1500 
Q 5925 1450 5725 1325 
Q 5575 1850 5300 2475 
Q 5525 2550 5725 2675 
z
" transform="scale(0.015625)"/>
      <path id="SimHei-65b9" d="M 425 3975 
Q 825 3950 1300 3950 
L 5025 3950 
Q 5625 3950 6000 3975 
L 6000 3475 
Q 5675 3500 5100 3500 
L 2525 3500 
Q 2525 3225 2500 2500 
L 5300 2500 
Q 5250 2175 5200 1550 
L 5050 175 
Q 5000 -275 4625 -412 
Q 4250 -550 3525 -625 
Q 3500 -300 3325 -50 
Q 3900 -75 4200 0 
Q 4500 75 4575 425 
L 4725 2050 
L 2475 2050 
Q 2375 1350 2162 875 
Q 1950 400 1575 0 
Q 1200 -400 825 -700 
Q 725 -550 375 -350 
Q 700 -175 1062 200 
Q 1425 575 1662 1050 
Q 1900 1525 1962 2100 
Q 2025 2675 2025 3500 
L 1325 3500 
Q 775 3500 425 3475 
L 425 3975 
z
M 3075 4075 
Q 2850 4575 2575 5000 
Q 2800 5125 3025 5275 
Q 3300 4850 3575 4350 
Q 3325 4250 3075 4075 
z
" transform="scale(0.015625)"/>
      <path id="SimHei-5dee" d="M 4725 4975 
Q 4500 4725 4250 4275 
L 4850 4275 
Q 5450 4275 5825 4300 
L 5825 3850 
Q 5425 3875 4850 3875 
L 3275 3875 
Q 3225 3600 3150 3275 
L 4525 3275 
Q 5075 3275 5525 3300 
L 5525 2850 
Q 5075 2875 4500 2875 
L 3050 2875 
Q 2975 2650 2850 2325 
L 5125 2325 
Q 5675 2325 6025 2350 
L 6025 1900 
Q 5700 1925 5150 1925 
L 2650 1925 
Q 2425 1550 2250 1300 
Q 2650 1275 3100 1275 
L 4525 1275 
Q 4975 1275 5350 1300 
L 5350 850 
Q 4975 875 4575 875 
L 3925 875 
L 3925 -50 
L 5000 -50 
Q 5200 -50 5900 -25 
L 5900 -500 
Q 5275 -475 5025 -475 
L 2100 -475 
Q 1700 -475 1400 -500 
L 1400 -25 
Q 1775 -50 2125 -50 
L 3425 -50 
L 3425 875 
L 3100 875 
Q 2625 875 2175 850 
L 2175 1200 
Q 1925 875 1487 475 
Q 1050 75 625 -250 
Q 425 -25 200 150 
Q 750 475 1262 925 
Q 1775 1375 2100 1925 
L 1325 1925 
Q 750 1925 375 1900 
L 375 2350 
Q 750 2325 1350 2325 
L 2325 2325 
Q 2450 2575 2550 2875 
L 1725 2875 
Q 1375 2875 1000 2850 
L 1000 3300 
Q 1500 3275 1700 3275 
L 2650 3275 
Q 2725 3575 2775 3875 
L 1500 3875 
Q 1100 3875 650 3850 
L 650 4300 
Q 1025 4275 1425 4275 
L 2275 4275 
Q 2075 4675 1850 4950 
Q 2025 5050 2250 5225 
Q 2450 4975 2725 4550 
Q 2525 4450 2325 4275 
L 3750 4275 
Q 4000 4700 4150 5250 
Q 4400 5100 4725 4975 
z
" transform="scale(0.015625)"/>
      <path id="SimHei-5e02" d="M 4750 4200 
Q 5350 4200 6050 4225 
L 6050 3725 
Q 5350 3750 4750 3750 
L 3450 3750 
L 3450 2900 
L 5375 2900 
Q 5350 2450 5350 1975 
L 5350 750 
Q 5350 325 5062 175 
Q 4775 25 4250 -25 
Q 4200 275 4025 575 
Q 4550 575 4687 600 
Q 4825 625 4825 850 
L 4825 2450 
L 3450 2450 
L 3450 475 
Q 3450 -150 3475 -600 
L 2900 -600 
Q 2925 -150 2925 475 
L 2925 2450 
L 1525 2450 
L 1525 0 
L 975 0 
Q 1000 400 1000 950 
L 1000 1875 
Q 1000 2450 975 2900 
L 2925 2900 
L 2925 3750 
L 1625 3750 
Q 975 3750 325 3725 
L 325 4225 
Q 975 4200 1625 4200 
L 4750 4200 
z
M 2950 5275 
Q 3250 4975 3575 4475 
Q 3300 4350 3125 4225 
Q 2900 4625 2550 5000 
Q 2750 5150 2950 5275 
z
" transform="scale(0.015625)"/>
      <path id="SimHei-5bf9" d="M 525 4250 
Q 900 4225 1400 4225 
L 2825 4225 
Q 2575 2625 2200 1750 
Q 2825 875 3125 400 
Q 2950 275 2725 75 
Q 2200 975 1950 1300 
Q 1650 775 1350 425 
Q 1050 75 600 -350 
Q 425 -125 200 -25 
Q 625 275 975 675 
Q 1325 1075 1650 1700 
Q 1050 2425 550 2900 
Q 700 3025 900 3225 
Q 1625 2425 1875 2150 
Q 2200 3050 2300 3825 
L 1400 3825 
Q 900 3825 525 3800 
L 525 4250 
z
M 2925 3700 
Q 3525 3675 3750 3675 
L 4825 3675 
L 4825 4425 
Q 4825 4750 4775 5125 
L 5350 5125 
Q 5325 4825 5325 4375 
L 5325 3675 
Q 5575 3675 6150 3700 
L 6150 3250 
Q 5575 3275 5325 3275 
L 5325 125 
Q 5350 -350 5012 -475 
Q 4675 -600 4250 -650 
Q 4175 -350 4025 -100 
Q 4575 -100 4712 -37 
Q 4850 25 4825 325 
L 4825 3275 
L 3775 3275 
Q 3550 3275 2925 3225 
L 2925 3700 
z
M 3450 2725 
Q 3875 1975 4175 1325 
Q 3850 1200 3700 1075 
Q 3475 1750 3050 2475 
Q 3225 2550 3450 2725 
z
" transform="scale(0.015625)"/>
      <path id="SimHei-6bd4" d="M 3775 5100 
Q 3750 4575 3750 4100 
L 3750 3050 
Q 4925 3600 5475 4175 
Q 5675 3900 5900 3675 
Q 5600 3500 5037 3187 
Q 4475 2875 3750 2550 
L 3750 450 
Q 3750 100 4050 100 
L 5000 100 
Q 5175 100 5262 250 
Q 5350 400 5450 900 
Q 5650 775 6025 675 
Q 5850 0 5650 -175 
Q 5450 -350 5225 -350 
L 3900 -350 
Q 3250 -350 3250 275 
L 3250 4000 
Q 3250 4550 3225 5100 
L 3775 5100 
z
M 1275 4975 
Q 1250 4575 1250 4000 
L 1250 3150 
L 1850 3150 
Q 2325 3150 2875 3175 
L 2875 2650 
Q 2325 2675 1850 2675 
L 1250 2675 
L 1250 475 
Q 1650 650 1962 812 
Q 2275 975 2850 1275 
Q 2900 950 2950 750 
Q 2375 475 1762 175 
Q 1150 -125 925 -325 
Q 750 -100 575 200 
Q 700 300 750 600 
L 750 3950 
Q 750 4550 725 4975 
L 1275 4975 
z
" transform="scale(0.015625)"/>
     </defs>
     <use xlink:href="#SimHei-6307"/>
     <use xlink:href="#SimHei-6570" x="100"/>
     <use xlink:href="#SimHei-52a0" x="200"/>
     <use xlink:href="#SimHei-6743" x="300"/>
     <use xlink:href="#SimHei-79fb" x="400"/>
     <use xlink:href="#SimHei-52a8" x="500"/>
     <use xlink:href="#SimHei-5e73" x="600"/>
     <use xlink:href="#SimHei-5747" x="700"/>
     <use xlink:href="#SimHei-534f" x="800"/>
     <use xlink:href="#SimHei-65b9" x="900"/>
     <use xlink:href="#SimHei-5dee" x="1000"/>
     <use xlink:href="#SimHei-7ec4" x="1100"/>
     <use xlink:href="#SimHei-5408" x="1200"/>
     <use xlink:href="#SimHei-5e02" x="1300"/>
     <use xlink:href="#SimHei-503c" x="1400"/>
     <use xlink:href="#SimHei-5bf9" x="1500"/>
     <use xlink:href="#SimHei-6bd4" x="1600"/>
    </g>
   </g>
   <g id="PathCollection_1">
    <defs>
     <path id="m03377990bf" d="M -3 3 
L 3 -3 
M -3 -3 
L 3 3 
" style="stroke: #ff0000; stroke-width: 1.5"/>
    </defs>
    <g clip-path="url(#pf1548cf22c)">
     <use xlink:href="#m03377990bf" x="179.359206" y="348.823398" style="fill: #ff0000; stroke: #ff0000; stroke-width: 1.5"/>
     <use xlink:href="#m03377990bf" x="225.397403" y="325.057917" style="fill: #ff0000; stroke: #ff0000; stroke-width: 1.5"/>
     <use xlink:href="#m03377990bf" x="261.204889" y="287.598511" style="fill: #ff0000; stroke: #ff0000; stroke-width: 1.5"/>
     <use xlink:href="#m03377990bf" x="305.964248" y="287.20339" style="fill: #ff0000; stroke: #ff0000; stroke-width: 1.5"/>
     <use xlink:href="#m03377990bf" x="341.771734" y="273.36334" style="fill: #ff0000; stroke: #ff0000; stroke-width: 1.5"/>
     <use xlink:href="#m03377990bf" x="378.85806" y="239.299026" style="fill: #ff0000; stroke: #ff0000; stroke-width: 1.5"/>
     <use xlink:href="#m03377990bf" x="414.665546" y="250.729878" style="fill: #ff0000; stroke: #ff0000; stroke-width: 1.5"/>
     <use xlink:href="#m03377990bf" x="450.473033" y="256.399317" style="fill: #ff0000; stroke: #ff0000; stroke-width: 1.5"/>
     <use xlink:href="#m03377990bf" x="491.395875" y="209.471403" style="fill: #ff0000; stroke: #ff0000; stroke-width: 1.5"/>
     <use xlink:href="#m03377990bf" x="536.155233" y="176.968601" style="fill: #ff0000; stroke: #ff0000; stroke-width: 1.5"/>
     <use xlink:href="#m03377990bf" x="571.96272" y="180.714748" style="fill: #ff0000; stroke: #ff0000; stroke-width: 1.5"/>
     <use xlink:href="#m03377990bf" x="607.770206" y="151.488041" style="fill: #ff0000; stroke: #ff0000; stroke-width: 1.5"/>
     <use xlink:href="#m03377990bf" x="655.087242" y="123.180811" style="fill: #ff0000; stroke: #ff0000; stroke-width: 1.5"/>
     <use xlink:href="#m03377990bf" x="690.894729" y="119.602681" style="fill: #ff0000; stroke: #ff0000; stroke-width: 1.5"/>
     <use xlink:href="#m03377990bf" x="726.702215" y="84.588675" style="fill: #ff0000; stroke: #ff0000; stroke-width: 1.5"/>
    </g>
   </g>
   <g id="legend_1">
    <g id="patch_7">
     <path d="M 115 116.988437 
L 217 116.988437 
Q 219 116.988437 219 114.988437 
L 219 58.84 
Q 219 56.84 217 56.84 
L 115 56.84 
Q 113 56.84 113 58.84 
L 113 114.988437 
Q 113 116.988437 115 116.988437 
z
" style="fill: #ffffff; opacity: 0.8; stroke: #cccccc; stroke-linejoin: miter"/>
    </g>
    <g id="line2d_34">
     <path d="M 117 65.347812 
L 127 65.347812 
L 137 65.347812 
" style="fill: none; stroke: #1f77b4; stroke-width: 1.5; stroke-linecap: square"/>
    </g>
    <g id="text_18">
     <!-- 固定权重组合 -->
     <g transform="translate(145 68.847812) scale(0.1 -0.1)">
      <defs>
       <path id="SimHei-56fa" d="M 5800 5025 
Q 5775 4350 5775 3600 
L 5775 925 
Q 5775 150 5800 -575 
L 5300 -575 
L 5300 -250 
L 1075 -250 
L 1075 -625 
L 575 -625 
Q 600 150 600 950 
L 600 3600 
Q 600 4325 575 5025 
L 5800 5025 
z
M 5300 200 
L 5300 4575 
L 1075 4575 
L 1075 200 
L 5300 200 
z
M 4875 3025 
Q 4650 3050 4050 3050 
L 3475 3050 
L 3475 2325 
L 4575 2325 
Q 4550 1900 4550 1475 
Q 4550 1075 4575 650 
L 1900 650 
Q 1925 1050 1925 1450 
Q 1925 1875 1900 2325 
L 3000 2325 
L 3000 3050 
L 2350 3050 
Q 2125 3050 1550 3025 
L 1550 3500 
Q 2125 3475 2350 3475 
L 3000 3475 
Q 3000 3850 2975 4225 
L 3500 4225 
Q 3475 3800 3475 3475 
L 4025 3475 
Q 4525 3475 4875 3500 
L 4875 3025 
z
M 4075 1075 
L 4075 1900 
L 2375 1900 
L 2375 1075 
L 4075 1075 
z
" transform="scale(0.015625)"/>
       <path id="SimHei-5b9a" d="M 4200 3125 
Q 4675 3125 5175 3150 
L 5175 2675 
Q 4725 2700 4100 2700 
L 3550 2700 
L 3550 1700 
L 4600 1700 
Q 4875 1700 5375 1725 
L 5375 1250 
Q 4875 1275 4575 1275 
L 3550 1275 
L 3550 100 
Q 4600 -25 6050 125 
Q 5850 -200 5800 -475 
Q 4800 -475 4150 -450 
Q 3500 -425 3050 -300 
Q 2600 -175 2250 75 
Q 1900 325 1600 675 
Q 1200 -50 675 -575 
Q 450 -350 175 -250 
Q 875 300 1200 1050 
Q 1525 1800 1550 2200 
Q 1800 2050 2150 1975 
Q 2075 1875 1987 1662 
Q 1900 1450 1775 1125 
Q 1950 900 2300 612 
Q 2650 325 3050 200 
L 3050 2700 
L 2250 2700 
Q 1825 2700 1400 2675 
L 1400 3150 
Q 1825 3125 2400 3125 
L 4200 3125 
z
M 5750 4275 
Q 5725 3925 5725 3750 
Q 5725 3575 5750 3275 
L 5225 3275 
L 5225 3875 
L 1225 3875 
L 1225 3275 
L 700 3275 
Q 725 3475 725 3725 
Q 725 3975 700 4275 
L 5750 4275 
z
M 2650 5050 
Q 2875 5125 3100 5300 
Q 3375 4975 3600 4550 
Q 3250 4400 3100 4300 
Q 3050 4525 2650 5050 
z
" transform="scale(0.015625)"/>
       <path id="SimHei-91cd" d="M 5300 4575 
Q 3900 4450 3425 4400 
L 3425 3875 
L 5150 3875 
Q 5500 3875 6000 3900 
L 6000 3450 
Q 5500 3475 5150 3475 
L 3425 3475 
L 3425 3050 
L 5150 3050 
Q 5125 2675 5125 2125 
Q 5125 1575 5150 1175 
L 3425 1175 
L 3425 750 
L 4550 750 
Q 5000 750 5500 775 
L 5500 375 
Q 5025 400 4575 400 
L 3425 400 
L 3425 -50 
L 5050 -50 
Q 5475 -50 5975 -25 
L 5975 -450 
Q 5475 -425 5075 -425 
L 1475 -425 
Q 975 -425 450 -450 
L 450 -25 
Q 975 -50 1450 -50 
L 2925 -50 
L 2925 400 
L 2050 400 
Q 1450 400 950 375 
L 950 775 
Q 1600 750 2075 750 
L 2925 750 
L 2925 1175 
L 1250 1175 
Q 1275 1800 1275 2125 
Q 1275 2450 1250 3050 
L 2925 3050 
L 2925 3475 
L 1225 3475 
Q 875 3475 400 3450 
L 400 3900 
Q 875 3875 1225 3875 
L 2925 3875 
L 2925 4375 
Q 2425 4350 1075 4250 
Q 1000 4475 875 4675 
Q 2275 4700 3362 4812 
Q 4450 4925 4925 5075 
Q 5025 4825 5300 4575 
z
M 4650 2300 
L 4650 2650 
L 3425 2650 
L 3425 2300 
L 4650 2300 
z
M 2925 2300 
L 2925 2650 
L 1750 2650 
L 1750 2300 
L 2925 2300 
z
M 4625 1575 
L 4625 1900 
L 3425 1900 
L 3425 1575 
L 4625 1575 
z
M 2925 1575 
L 2925 1900 
L 1750 1900 
L 1750 1575 
L 2925 1575 
z
" transform="scale(0.015625)"/>
      </defs>
      <use xlink:href="#SimHei-56fa"/>
      <use xlink:href="#SimHei-5b9a" x="100"/>
      <use xlink:href="#SimHei-6743" x="200"/>
      <use xlink:href="#SimHei-91cd" x="300"/>
      <use xlink:href="#SimHei-7ec4" x="400"/>
      <use xlink:href="#SimHei-5408" x="500"/>
     </g>
    </g>
    <g id="line2d_35">
     <path d="M 117 79.644687 
L 127 79.644687 
L 137 79.644687 
" style="fill: none; stroke-dasharray: 5.55,2.4; stroke-dashoffset: 0; stroke: #ff7f0e; stroke-width: 1.5"/>
    </g>
    <g id="text_19">
     <!-- 一次调仓组合 -->
     <g transform="translate(145 83.144687) scale(0.1 -0.1)">
      <defs>
       <path id="SimHei-4e00" d="M 4875 2675 
Q 5525 2675 6050 2700 
L 6050 2050 
Q 5525 2075 4900 2075 
L 1600 2075 
Q 950 2075 350 2050 
L 350 2700 
Q 950 2675 1600 2675 
L 4875 2675 
z
" transform="scale(0.015625)"/>
       <path id="SimHei-6b21" d="M 4150 3025 
Q 4000 2550 4050 2187 
Q 4100 1825 4275 1450 
Q 4450 1075 4800 750 
Q 5150 425 5475 212 
Q 5800 0 6150 -150 
Q 5875 -350 5750 -625 
Q 5250 -325 4887 -25 
Q 4525 275 4275 612 
Q 4025 950 3825 1425 
Q 3525 625 2950 125 
Q 2375 -375 1850 -650 
Q 1675 -400 1475 -225 
Q 2025 0 2487 362 
Q 2950 725 3162 1100 
Q 3375 1475 3450 1825 
Q 3525 2175 3537 2400 
Q 3550 2625 3525 3125 
Q 3825 3050 4150 3025 
z
M 3700 4975 
Q 3625 4900 3475 4575 
Q 3325 4250 3250 4075 
L 5775 4075 
Q 5650 3725 5550 3362 
Q 5450 3000 5275 2500 
Q 5000 2575 4775 2600 
Q 5025 3350 5100 3650 
L 3100 3650 
Q 2975 3400 2812 3100 
Q 2650 2800 2425 2450 
Q 2275 2600 1975 2700 
Q 2300 3050 2625 3762 
Q 2950 4475 3125 5200 
Q 3450 5025 3700 4975 
z
M 2025 2000 
Q 1825 1675 1475 1087 
Q 1125 500 725 -200 
Q 500 -25 250 175 
Q 725 725 1037 1262 
Q 1350 1800 1575 2325 
Q 1750 2175 2025 2000 
z
M 900 4750 
Q 1725 3725 1950 3375 
Q 1750 3250 1500 3050 
Q 1250 3525 500 4425 
Q 700 4575 900 4750 
z
" transform="scale(0.015625)"/>
       <path id="SimHei-8c03" d="M 5950 200 
Q 5975 -300 5700 -437 
Q 5425 -575 4900 -650 
Q 4825 -350 4700 -50 
Q 5200 -75 5337 0 
Q 5475 75 5500 300 
L 5500 4525 
L 3075 4525 
L 3075 2275 
Q 3075 1225 2900 612 
Q 2725 0 2275 -650 
Q 2125 -450 1825 -300 
Q 2150 75 2312 437 
Q 2475 800 2550 1212 
Q 2625 1625 2625 2925 
Q 2625 4250 2600 4900 
L 5975 4900 
Q 5950 4525 5950 3900 
L 5950 200 
z
M 5125 1825 
Q 5100 1475 5100 1175 
Q 5100 875 5125 425 
L 3425 425 
Q 3450 875 3450 1175 
Q 3450 1475 3425 1825 
L 5125 1825 
z
M 2125 1600 
Q 2225 1375 2400 1200 
Q 2075 875 1875 650 
Q 1675 425 1325 50 
Q 1150 250 1000 400 
Q 1175 600 1175 825 
L 1175 2825 
L 950 2825 
Q 775 2825 300 2800 
L 300 3250 
Q 775 3225 950 3225 
L 1650 3225 
Q 1625 2775 1625 2225 
L 1625 1050 
Q 1750 1150 2125 1600 
z
M 4050 3675 
Q 4050 3975 4025 4300 
L 4500 4300 
Q 4475 4000 4475 3675 
Q 4750 3675 5125 3700 
L 5125 3275 
Q 4750 3300 4475 3300 
L 4475 2675 
Q 4925 2675 5225 2700 
L 5225 2250 
Q 4825 2275 4300 2275 
Q 3775 2275 3350 2250 
L 3350 2700 
Q 3775 2675 4050 2675 
L 4050 3300 
Q 3725 3300 3375 3275 
L 3375 3700 
Q 3750 3675 4050 3675 
z
M 4675 775 
L 4675 1475 
L 3875 1475 
L 3875 775 
L 4675 775 
z
M 1250 5025 
Q 1525 4700 1975 4100 
Q 1750 3975 1575 3775 
Q 1075 4525 875 4725 
Q 1075 4850 1250 5025 
z
" transform="scale(0.015625)"/>
       <path id="SimHei-4ed3" d="M 4650 2850 
Q 4625 2500 4625 2175 
L 4625 1550 
Q 4650 1100 4362 975 
Q 4075 850 3425 775 
Q 3275 1225 3150 1350 
Q 3925 1350 4025 1400 
Q 4125 1450 4125 1775 
L 4125 2425 
L 2200 2425 
L 2200 375 
Q 2225 50 2500 50 
L 4550 50 
Q 4850 50 4962 237 
Q 5075 425 5100 850 
Q 5350 625 5675 525 
Q 5525 25 5362 -187 
Q 5200 -400 4775 -400 
L 2325 -400 
Q 1700 -400 1700 200 
L 1700 1875 
Q 1700 2300 1675 2850 
L 4650 2850 
z
M 3450 4925 
Q 4500 3450 6175 3000 
Q 5900 2750 5800 2450 
Q 4225 3050 3200 4550 
Q 2325 3200 675 2275 
Q 575 2475 250 2725 
Q 1450 3225 2137 4000 
Q 2825 4775 2950 5300 
Q 3275 5200 3575 5125 
L 3450 4925 
z
" transform="scale(0.015625)"/>
      </defs>
      <use xlink:href="#SimHei-4e00"/>
      <use xlink:href="#SimHei-6b21" x="100"/>
      <use xlink:href="#SimHei-8c03" x="200"/>
      <use xlink:href="#SimHei-4ed3" x="300"/>
      <use xlink:href="#SimHei-7ec4" x="400"/>
      <use xlink:href="#SimHei-5408" x="500"/>
     </g>
    </g>
    <g id="line2d_36">
     <path d="M 117 93.941562 
L 127 93.941562 
L 137 93.941562 
" style="fill: none; stroke-dasharray: 5.55,2.4; stroke-dashoffset: 0; stroke: #2ca02c; stroke-width: 1.5"/>
    </g>
    <g id="text_20">
     <!-- 动态再平衡组合 -->
     <g transform="translate(145 97.441562) scale(0.1 -0.1)">
      <defs>
       <path id="SimHei-6001" d="M 2575 4325 
Q 2700 4800 2725 5250 
Q 3075 5125 3350 5100 
Q 3225 4875 3100 4325 
L 5025 4325 
Q 5375 4325 5825 4375 
L 5825 3850 
Q 5350 3875 5000 3875 
L 3975 3875 
Q 4225 3300 4575 2987 
Q 4925 2675 5250 2525 
Q 5575 2375 6100 2275 
Q 5800 2075 5675 1775 
Q 4900 2100 4525 2412 
Q 4150 2725 3900 3075 
Q 3650 3425 3500 3875 
L 2975 3875 
Q 2675 3200 2187 2687 
Q 1700 2175 725 1625 
Q 650 1850 300 2075 
Q 900 2275 1512 2750 
Q 2125 3225 2425 3875 
L 1300 3875 
Q 900 3875 450 3850 
L 450 4375 
Q 875 4325 1300 4325 
L 2575 4325 
z
M 2525 1350 
Q 2500 875 2500 575 
Q 2500 300 2512 150 
Q 2525 0 2800 0 
L 3825 0 
Q 4025 -25 4175 62 
Q 4325 150 4400 625 
Q 4650 450 4975 375 
Q 4775 -150 4625 -312 
Q 4475 -475 4000 -450 
L 2500 -450 
Q 2050 -400 2012 -162 
Q 1975 75 1975 425 
Q 1975 800 1950 1350 
L 2525 1350 
z
M 1425 1175 
Q 1175 450 825 -325 
Q 625 -175 325 -125 
Q 775 625 875 1375 
Q 1175 1250 1425 1175 
z
M 5175 1525 
Q 5600 950 6050 350 
Q 5800 175 5600 0 
Q 5225 700 4750 1250 
Q 5000 1350 5175 1525 
z
M 2700 3050 
Q 3175 2675 3500 2325 
Q 3275 2175 3100 1975 
Q 2825 2350 2350 2700 
L 2700 3050 
z
M 3375 1750 
Q 3625 1350 3825 925 
Q 3625 800 3375 675 
Q 3200 1175 2950 1525 
Q 3175 1600 3375 1750 
z
" transform="scale(0.015625)"/>
       <path id="SimHei-518d" d="M 4025 -125 
Q 4375 -150 4537 -125 
Q 4700 -100 4700 175 
L 4700 875 
L 1675 875 
L 1675 -650 
L 1125 -650 
Q 1175 -225 1175 200 
L 1175 875 
Q 600 875 225 850 
L 225 1325 
Q 575 1275 1175 1275 
L 1175 2825 
Q 1175 3375 1125 3700 
L 2950 3700 
L 2950 4475 
L 1550 4475 
Q 1050 4475 600 4450 
L 600 4925 
Q 1050 4900 1525 4900 
L 4850 4900 
Q 5425 4900 5775 4925 
L 5775 4450 
Q 5425 4475 4850 4475 
L 3450 4475 
L 3450 3700 
L 5225 3700 
Q 5200 3375 5200 2750 
L 5200 1275 
Q 5825 1275 6200 1325 
L 6200 850 
Q 5850 875 5200 875 
L 5200 -175 
Q 5200 -475 4950 -550 
Q 4700 -625 4250 -675 
Q 4175 -400 4025 -125 
z
M 2950 2475 
L 2950 3325 
L 1675 3325 
L 1675 2475 
L 2950 2475 
z
M 4700 2475 
L 4700 3325 
L 3450 3325 
L 3450 2475 
L 4700 2475 
z
M 2950 1275 
L 2950 2100 
L 1675 2100 
L 1675 1275 
L 2950 1275 
z
M 4700 1275 
L 4700 2100 
L 3450 2100 
L 3450 1275 
L 4700 1275 
z
" transform="scale(0.015625)"/>
       <path id="SimHei-8861" d="M 3275 5025 
Q 3150 4950 2900 4575 
L 4050 4575 
Q 3800 4175 3575 3725 
L 4425 3725 
Q 4400 3400 4400 2775 
Q 4400 2175 4425 1800 
L 2050 1800 
Q 2075 2175 2075 2800 
Q 2075 3425 2050 3725 
L 3125 3725 
L 3375 4225 
L 2600 4225 
Q 2450 4050 2125 3750 
Q 1975 3900 1750 4050 
Q 2175 4375 2412 4687 
Q 2650 5000 2775 5275 
Q 3000 5150 3275 5025 
z
M 4575 3225 
Q 4775 3200 5175 3200 
L 5675 3200 
Q 5900 3200 6150 3225 
L 6150 2750 
Q 5950 2775 5650 2775 
L 5650 25 
Q 5650 -375 5487 -462 
Q 5325 -550 4800 -650 
Q 4775 -375 4600 -100 
Q 5000 -100 5112 -75 
Q 5225 -50 5225 250 
L 5225 2775 
Q 4800 2775 4575 2750 
L 4575 3225 
z
M 1925 3300 
Q 1725 3150 1400 2650 
L 1400 275 
Q 1400 -100 1425 -625 
L 950 -625 
Q 975 25 975 350 
L 975 2175 
Q 750 1925 475 1675 
Q 325 1900 175 2075 
Q 550 2350 925 2800 
Q 1300 3250 1475 3625 
Q 1650 3450 1925 3300 
z
M 1975 -525 
Q 1800 -250 1600 -50 
Q 2175 125 2475 412 
Q 2775 700 2825 925 
L 2525 925 
Q 2225 925 1800 900 
L 1800 1350 
Q 2175 1325 2525 1325 
L 2925 1325 
Q 2975 1525 2975 1725 
Q 3175 1675 3500 1625 
Q 3400 1475 3375 1325 
L 3925 1325 
Q 4250 1325 4600 1350 
L 4600 900 
Q 4300 925 3925 925 
L 3325 925 
L 3300 875 
Q 2875 -100 1975 -525 
z
M 1975 4775 
Q 1850 4675 1425 4200 
Q 1000 3725 650 3425 
Q 475 3675 300 3775 
Q 625 3975 987 4387 
Q 1350 4800 1525 5125 
Q 1700 4950 1975 4775 
z
M 3425 825 
Q 3850 550 4475 100 
Q 4275 -100 4150 -350 
Q 3625 150 3150 450 
Q 3300 600 3425 825 
z
M 4700 4600 
Q 4875 4575 5175 4575 
L 5625 4575 
Q 5800 4575 6000 4600 
L 6000 4175 
Q 5800 4200 5625 4200 
L 5225 4200 
Q 4900 4200 4700 4175 
L 4700 4600 
z
M 3975 2925 
L 3975 3375 
L 3425 3375 
L 3425 2925 
L 3975 2925 
z
M 3025 2925 
L 3025 3375 
L 2500 3375 
L 2500 2925 
L 3025 2925 
z
M 3975 2150 
L 3975 2575 
L 3425 2575 
L 3425 2150 
L 3975 2150 
z
M 3025 2150 
L 3025 2575 
L 2500 2575 
L 2500 2150 
L 3025 2150 
z
" transform="scale(0.015625)"/>
      </defs>
      <use xlink:href="#SimHei-52a8"/>
      <use xlink:href="#SimHei-6001" x="100"/>
      <use xlink:href="#SimHei-518d" x="200"/>
      <use xlink:href="#SimHei-5e73" x="300"/>
      <use xlink:href="#SimHei-8861" x="400"/>
      <use xlink:href="#SimHei-7ec4" x="500"/>
      <use xlink:href="#SimHei-5408" x="600"/>
     </g>
    </g>
    <g id="PathCollection_2">
     <g>
      <use xlink:href="#m03377990bf" x="127" y="109.113437" style="fill: #ff0000; stroke: #ff0000; stroke-width: 1.5"/>
     </g>
    </g>
    <g id="text_21">
     <!-- 调仓日 -->
     <g transform="translate(145 111.738437) scale(0.1 -0.1)">
      <defs>
       <path id="SimHei-65e5" d="M 5375 5000 
Q 5350 3775 5350 2275 
Q 5350 775 5375 -450 
L 4800 -450 
L 4800 175 
L 1800 175 
L 1800 -575 
L 1250 -575 
Q 1275 575 1275 2125 
Q 1275 3675 1250 5000 
L 5375 5000 
z
M 4800 600 
L 4800 2375 
L 1800 2375 
L 1800 600 
L 4800 600 
z
M 4800 2800 
L 4800 4550 
L 1800 4550 
L 1800 2800 
L 4800 2800 
z
" transform="scale(0.015625)"/>
      </defs>
      <use xlink:href="#SimHei-8c03"/>
      <use xlink:href="#SimHei-4ed3" x="100"/>
      <use xlink:href="#SimHei-65e5" x="200"/>
     </g>
    </g>
   </g>
  </g>
 </g>
 <defs>
  <clipPath id="pf1548cf22c">
   <rect x="108" y="51.84" width="669.6" height="332.64"/>
  </clipPath>
 </defs>
</svg>
