<?xml version="1.0" encoding="utf-8" standalone="no"?>
<!DOCTYPE svg PUBLIC "-//W3C//DTD SVG 1.1//EN"
  "http://www.w3.org/Graphics/SVG/1.1/DTD/svg11.dtd">
<svg xmlns:xlink="http://www.w3.org/1999/xlink" width="864pt" height="432pt" viewBox="0 0 864 432" xmlns="http://www.w3.org/2000/svg" version="1.1">
 <metadata>
  <rdf:RDF xmlns:dc="http://purl.org/dc/elements/1.1/" xmlns:cc="http://creativecommons.org/ns#" xmlns:rdf="http://www.w3.org/1999/02/22-rdf-syntax-ns#">
   <cc:Work>
    <dc:type rdf:resource="http://purl.org/dc/dcmitype/StillImage"/>
    <dc:date>2025-05-13T11:59:15.874783</dc:date>
    <dc:format>image/svg+xml</dc:format>
    <dc:creator>
     <cc:Agent>
      <dc:title>Matplotlib v3.9.2, https://matplotlib.org/</dc:title>
     </cc:Agent>
    </dc:creator>
   </cc:Work>
  </rdf:RDF>
 </metadata>
 <defs>
  <style type="text/css">*{stroke-linejoin: round; stroke-linecap: butt}</style>
 </defs>
 <g id="figure_1">
  <g id="patch_1">
   <path d="M 0 432 
L 864 432 
L 864 0 
L 0 0 
z
" style="fill: #ffffff"/>
  </g>
  <g id="axes_1">
   <g id="patch_2">
    <path d="M 108 384.48 
L 777.6 384.48 
L 777.6 51.84 
L 108 51.84 
z
" style="fill: #ffffff"/>
   </g>
   <g id="matplotlib.axis_1">
    <g id="xtick_1">
     <g id="line2d_1">
      <path d="M 142.27288 384.48 
L 142.27288 51.84 
" clip-path="url(#p839da01076)" style="fill: none; stroke: #b0b0b0; stroke-width: 0.8; stroke-linecap: square"/>
     </g>
     <g id="line2d_2">
      <defs>
       <path id="m607204112c" d="M 0 0 
L 0 3.5 
" style="stroke: #000000; stroke-width: 0.8"/>
      </defs>
      <g>
       <use xlink:href="#m607204112c" x="142.27288" y="384.48" style="stroke: #000000; stroke-width: 0.8"/>
      </g>
     </g>
     <g id="text_1">
      <!-- 2024-01 -->
      <g transform="translate(124.77288 398.355) scale(0.1 -0.1)">
       <defs>
        <path id="SimHei-32" d="M 300 250 
Q 325 625 650 925 
Q 975 1225 1475 1862 
Q 1975 2500 2125 2850 
Q 2275 3200 2237 3450 
Q 2200 3700 2000 3862 
Q 1800 4025 1537 4000 
Q 1275 3975 1037 3800 
Q 800 3625 675 3275 
L 200 3350 
Q 400 3925 712 4187 
Q 1025 4450 1450 4475 
Q 1700 4500 1900 4462 
Q 2100 4425 2312 4287 
Q 2525 4150 2662 3875 
Q 2800 3600 2762 3212 
Q 2725 2825 2375 2287 
Q 2025 1750 1025 600 
L 2825 600 
L 2825 150 
L 300 150 
L 300 250 
z
" transform="scale(0.015625)"/>
        <path id="SimHei-30" d="M 225 2537 
Q 250 3200 412 3587 
Q 575 3975 875 4225 
Q 1175 4475 1612 4475 
Q 2050 4475 2375 4112 
Q 2700 3750 2800 3200 
Q 2900 2650 2862 1937 
Q 2825 1225 2612 775 
Q 2400 325 1975 150 
Q 1550 -25 1125 187 
Q 700 400 525 750 
Q 350 1100 275 1487 
Q 200 1875 225 2537 
z
M 750 2687 
Q 675 2000 800 1462 
Q 925 925 1212 700 
Q 1500 475 1800 612 
Q 2100 750 2237 1162 
Q 2375 1575 2375 2062 
Q 2375 2550 2337 2950 
Q 2300 3350 2112 3675 
Q 1925 4000 1612 4012 
Q 1300 4025 1062 3700 
Q 825 3375 750 2687 
z
" transform="scale(0.015625)"/>
        <path id="SimHei-34" d="M 2000 1100 
L 75 1100 
L 75 1525 
L 2100 4450 
L 2475 4450 
L 2475 1525 
L 3075 1525 
L 3075 1100 
L 2475 1100 
L 2475 150 
L 2000 150 
L 2000 1100 
z
M 2000 1525 
L 2000 3500 
L 600 1525 
L 2000 1525 
z
" transform="scale(0.015625)"/>
        <path id="SimHei-2d" d="M 2975 2125 
L 125 2125 
L 125 2525 
L 2975 2525 
L 2975 2125 
z
" transform="scale(0.015625)"/>
        <path id="SimHei-31" d="M 1400 3600 
Q 1075 3275 575 2975 
L 575 3450 
Q 1200 3875 1600 4450 
L 1900 4450 
L 1900 150 
L 1400 150 
L 1400 3600 
z
" transform="scale(0.015625)"/>
       </defs>
       <use xlink:href="#SimHei-32"/>
       <use xlink:href="#SimHei-30" x="50"/>
       <use xlink:href="#SimHei-32" x="100"/>
       <use xlink:href="#SimHei-34" x="150"/>
       <use xlink:href="#SimHei-2d" x="200"/>
       <use xlink:href="#SimHei-30" x="250"/>
       <use xlink:href="#SimHei-31" x="300"/>
      </g>
     </g>
    </g>
    <g id="xtick_2">
     <g id="line2d_3">
      <path d="M 219.003209 384.48 
L 219.003209 51.84 
" clip-path="url(#p839da01076)" style="fill: none; stroke: #b0b0b0; stroke-width: 0.8; stroke-linecap: square"/>
     </g>
     <g id="line2d_4">
      <g>
       <use xlink:href="#m607204112c" x="219.003209" y="384.48" style="stroke: #000000; stroke-width: 0.8"/>
      </g>
     </g>
     <g id="text_2">
      <!-- 2024-03 -->
      <g transform="translate(201.503209 398.355) scale(0.1 -0.1)">
       <defs>
        <path id="SimHei-33" d="M 250 1225 
L 700 1300 
Q 800 975 1025 762 
Q 1250 550 1587 562 
Q 1925 575 2125 837 
Q 2325 1100 2300 1437 
Q 2275 1775 2037 1962 
Q 1800 2150 1275 2225 
L 1275 2550 
Q 1800 2600 2037 2825 
Q 2275 3050 2250 3412 
Q 2225 3775 1925 3937 
Q 1625 4100 1287 3975 
Q 950 3850 750 3275 
L 300 3350 
Q 450 3800 712 4100 
Q 975 4400 1425 4450 
Q 1875 4500 2212 4337 
Q 2550 4175 2687 3837 
Q 2825 3500 2725 3100 
Q 2625 2700 2150 2400 
Q 2500 2250 2687 1950 
Q 2875 1650 2812 1162 
Q 2750 675 2375 375 
Q 2000 75 1525 87 
Q 1050 100 700 387 
Q 350 675 250 1225 
z
" transform="scale(0.015625)"/>
       </defs>
       <use xlink:href="#SimHei-32"/>
       <use xlink:href="#SimHei-30" x="50"/>
       <use xlink:href="#SimHei-32" x="100"/>
       <use xlink:href="#SimHei-34" x="150"/>
       <use xlink:href="#SimHei-2d" x="200"/>
       <use xlink:href="#SimHei-30" x="250"/>
       <use xlink:href="#SimHei-33" x="300"/>
      </g>
     </g>
    </g>
    <g id="xtick_3">
     <g id="line2d_5">
      <path d="M 297.012376 384.48 
L 297.012376 51.84 
" clip-path="url(#p839da01076)" style="fill: none; stroke: #b0b0b0; stroke-width: 0.8; stroke-linecap: square"/>
     </g>
     <g id="line2d_6">
      <g>
       <use xlink:href="#m607204112c" x="297.012376" y="384.48" style="stroke: #000000; stroke-width: 0.8"/>
      </g>
     </g>
     <g id="text_3">
      <!-- 2024-05 -->
      <g transform="translate(279.512376 398.355) scale(0.1 -0.1)">
       <defs>
        <path id="SimHei-35" d="M 550 1325 
Q 725 650 1150 575 
Q 1575 500 1837 662 
Q 2100 825 2212 1087 
Q 2325 1350 2312 1675 
Q 2300 2000 2137 2225 
Q 1975 2450 1725 2525 
Q 1475 2600 1162 2525 
Q 850 2450 650 2175 
L 225 2225 
Q 275 2375 700 4375 
L 2675 4375 
L 2675 3925 
L 1075 3925 
Q 950 3250 825 2850 
Q 1200 3025 1525 3012 
Q 1850 3000 2150 2862 
Q 2450 2725 2587 2487 
Q 2725 2250 2787 2012 
Q 2850 1775 2837 1500 
Q 2825 1225 2725 937 
Q 2625 650 2425 462 
Q 2225 275 1937 162 
Q 1650 50 1275 75 
Q 900 100 562 350 
Q 225 600 100 1200 
L 550 1325 
z
" transform="scale(0.015625)"/>
       </defs>
       <use xlink:href="#SimHei-32"/>
       <use xlink:href="#SimHei-30" x="50"/>
       <use xlink:href="#SimHei-32" x="100"/>
       <use xlink:href="#SimHei-34" x="150"/>
       <use xlink:href="#SimHei-2d" x="200"/>
       <use xlink:href="#SimHei-30" x="250"/>
       <use xlink:href="#SimHei-35" x="300"/>
      </g>
     </g>
    </g>
    <g id="xtick_4">
     <g id="line2d_7">
      <path d="M 375.021543 384.48 
L 375.021543 51.84 
" clip-path="url(#p839da01076)" style="fill: none; stroke: #b0b0b0; stroke-width: 0.8; stroke-linecap: square"/>
     </g>
     <g id="line2d_8">
      <g>
       <use xlink:href="#m607204112c" x="375.021543" y="384.48" style="stroke: #000000; stroke-width: 0.8"/>
      </g>
     </g>
     <g id="text_4">
      <!-- 2024-07 -->
      <g transform="translate(357.521543 398.355) scale(0.1 -0.1)">
       <defs>
        <path id="SimHei-37" d="M 850 150 
Q 1300 2050 2425 3925 
L 275 3925 
L 275 4375 
L 2950 4375 
L 2950 3950 
Q 1775 2050 1400 150 
L 850 150 
z
" transform="scale(0.015625)"/>
       </defs>
       <use xlink:href="#SimHei-32"/>
       <use xlink:href="#SimHei-30" x="50"/>
       <use xlink:href="#SimHei-32" x="100"/>
       <use xlink:href="#SimHei-34" x="150"/>
       <use xlink:href="#SimHei-2d" x="200"/>
       <use xlink:href="#SimHei-30" x="250"/>
       <use xlink:href="#SimHei-37" x="300"/>
      </g>
     </g>
    </g>
    <g id="xtick_5">
     <g id="line2d_9">
      <path d="M 454.309549 384.48 
L 454.309549 51.84 
" clip-path="url(#p839da01076)" style="fill: none; stroke: #b0b0b0; stroke-width: 0.8; stroke-linecap: square"/>
     </g>
     <g id="line2d_10">
      <g>
       <use xlink:href="#m607204112c" x="454.309549" y="384.48" style="stroke: #000000; stroke-width: 0.8"/>
      </g>
     </g>
     <g id="text_5">
      <!-- 2024-09 -->
      <g transform="translate(436.809549 398.355) scale(0.1 -0.1)">
       <defs>
        <path id="SimHei-39" d="M 800 75 
Q 1350 1000 1700 1750 
Q 1075 1650 662 1912 
Q 250 2175 162 2625 
Q 75 3075 175 3437 
Q 275 3800 487 4037 
Q 700 4275 1000 4375 
Q 1300 4475 1537 4475 
Q 1775 4475 2025 4375 
Q 2275 4275 2475 4075 
Q 2675 3875 2750 3662 
Q 2825 3450 2825 3112 
Q 2825 2775 2575 2250 
Q 2325 1725 1350 75 
L 800 75 
z
M 662 2875 
Q 700 2550 937 2337 
Q 1175 2125 1450 2150 
Q 1725 2175 1887 2300 
Q 2050 2425 2200 2725 
Q 2300 3100 2250 3362 
Q 2200 3625 1987 3800 
Q 1775 3975 1525 3975 
Q 1375 4000 1137 3900 
Q 900 3800 762 3500 
Q 625 3200 662 2875 
z
" transform="scale(0.015625)"/>
       </defs>
       <use xlink:href="#SimHei-32"/>
       <use xlink:href="#SimHei-30" x="50"/>
       <use xlink:href="#SimHei-32" x="100"/>
       <use xlink:href="#SimHei-34" x="150"/>
       <use xlink:href="#SimHei-2d" x="200"/>
       <use xlink:href="#SimHei-30" x="250"/>
       <use xlink:href="#SimHei-39" x="300"/>
      </g>
     </g>
    </g>
    <g id="xtick_6">
     <g id="line2d_11">
      <path d="M 532.318717 384.48 
L 532.318717 51.84 
" clip-path="url(#p839da01076)" style="fill: none; stroke: #b0b0b0; stroke-width: 0.8; stroke-linecap: square"/>
     </g>
     <g id="line2d_12">
      <g>
       <use xlink:href="#m607204112c" x="532.318717" y="384.48" style="stroke: #000000; stroke-width: 0.8"/>
      </g>
     </g>
     <g id="text_6">
      <!-- 2024-11 -->
      <g transform="translate(514.818717 398.355) scale(0.1 -0.1)">
       <use xlink:href="#SimHei-32"/>
       <use xlink:href="#SimHei-30" x="50"/>
       <use xlink:href="#SimHei-32" x="100"/>
       <use xlink:href="#SimHei-34" x="150"/>
       <use xlink:href="#SimHei-2d" x="200"/>
       <use xlink:href="#SimHei-31" x="250"/>
       <use xlink:href="#SimHei-31" x="300"/>
      </g>
     </g>
    </g>
    <g id="xtick_7">
     <g id="line2d_13">
      <path d="M 610.327884 384.48 
L 610.327884 51.84 
" clip-path="url(#p839da01076)" style="fill: none; stroke: #b0b0b0; stroke-width: 0.8; stroke-linecap: square"/>
     </g>
     <g id="line2d_14">
      <g>
       <use xlink:href="#m607204112c" x="610.327884" y="384.48" style="stroke: #000000; stroke-width: 0.8"/>
      </g>
     </g>
     <g id="text_7">
      <!-- 2025-01 -->
      <g transform="translate(592.827884 398.355) scale(0.1 -0.1)">
       <use xlink:href="#SimHei-32"/>
       <use xlink:href="#SimHei-30" x="50"/>
       <use xlink:href="#SimHei-32" x="100"/>
       <use xlink:href="#SimHei-35" x="150"/>
       <use xlink:href="#SimHei-2d" x="200"/>
       <use xlink:href="#SimHei-30" x="250"/>
       <use xlink:href="#SimHei-31" x="300"/>
      </g>
     </g>
    </g>
    <g id="xtick_8">
     <g id="line2d_15">
      <path d="M 685.779374 384.48 
L 685.779374 51.84 
" clip-path="url(#p839da01076)" style="fill: none; stroke: #b0b0b0; stroke-width: 0.8; stroke-linecap: square"/>
     </g>
     <g id="line2d_16">
      <g>
       <use xlink:href="#m607204112c" x="685.779374" y="384.48" style="stroke: #000000; stroke-width: 0.8"/>
      </g>
     </g>
     <g id="text_8">
      <!-- 2025-03 -->
      <g transform="translate(668.279374 398.355) scale(0.1 -0.1)">
       <use xlink:href="#SimHei-32"/>
       <use xlink:href="#SimHei-30" x="50"/>
       <use xlink:href="#SimHei-32" x="100"/>
       <use xlink:href="#SimHei-35" x="150"/>
       <use xlink:href="#SimHei-2d" x="200"/>
       <use xlink:href="#SimHei-30" x="250"/>
       <use xlink:href="#SimHei-33" x="300"/>
      </g>
     </g>
    </g>
    <g id="xtick_9">
     <g id="line2d_17">
      <path d="M 763.788541 384.48 
L 763.788541 51.84 
" clip-path="url(#p839da01076)" style="fill: none; stroke: #b0b0b0; stroke-width: 0.8; stroke-linecap: square"/>
     </g>
     <g id="line2d_18">
      <g>
       <use xlink:href="#m607204112c" x="763.788541" y="384.48" style="stroke: #000000; stroke-width: 0.8"/>
      </g>
     </g>
     <g id="text_9">
      <!-- 2025-05 -->
      <g transform="translate(746.288541 398.355) scale(0.1 -0.1)">
       <use xlink:href="#SimHei-32"/>
       <use xlink:href="#SimHei-30" x="50"/>
       <use xlink:href="#SimHei-32" x="100"/>
       <use xlink:href="#SimHei-35" x="150"/>
       <use xlink:href="#SimHei-2d" x="200"/>
       <use xlink:href="#SimHei-30" x="250"/>
       <use xlink:href="#SimHei-35" x="300"/>
      </g>
     </g>
    </g>
   </g>
   <g id="matplotlib.axis_2">
    <g id="ytick_1">
     <g id="line2d_19">
      <path d="M 108 365.311452 
L 777.6 365.311452 
" clip-path="url(#p839da01076)" style="fill: none; stroke: #b0b0b0; stroke-width: 0.8; stroke-linecap: square"/>
     </g>
     <g id="line2d_20">
      <defs>
       <path id="m4936e43d10" d="M 0 0 
L -3.5 0 
" style="stroke: #000000; stroke-width: 0.8"/>
      </defs>
      <g>
       <use xlink:href="#m4936e43d10" x="108" y="365.311452" style="stroke: #000000; stroke-width: 0.8"/>
      </g>
     </g>
     <g id="text_10">
      <!-- 100 -->
      <g transform="translate(86 368.748952) scale(0.1 -0.1)">
       <use xlink:href="#SimHei-31"/>
       <use xlink:href="#SimHei-30" x="50"/>
       <use xlink:href="#SimHei-30" x="100"/>
      </g>
     </g>
    </g>
    <g id="ytick_2">
     <g id="line2d_21">
      <path d="M 108 302.100725 
L 777.6 302.100725 
" clip-path="url(#p839da01076)" style="fill: none; stroke: #b0b0b0; stroke-width: 0.8; stroke-linecap: square"/>
     </g>
     <g id="line2d_22">
      <g>
       <use xlink:href="#m4936e43d10" x="108" y="302.100725" style="stroke: #000000; stroke-width: 0.8"/>
      </g>
     </g>
     <g id="text_11">
      <!-- 110 -->
      <g transform="translate(86 305.538225) scale(0.1 -0.1)">
       <use xlink:href="#SimHei-31"/>
       <use xlink:href="#SimHei-31" x="50"/>
       <use xlink:href="#SimHei-30" x="100"/>
      </g>
     </g>
    </g>
    <g id="ytick_3">
     <g id="line2d_23">
      <path d="M 108 238.889998 
L 777.6 238.889998 
" clip-path="url(#p839da01076)" style="fill: none; stroke: #b0b0b0; stroke-width: 0.8; stroke-linecap: square"/>
     </g>
     <g id="line2d_24">
      <g>
       <use xlink:href="#m4936e43d10" x="108" y="238.889998" style="stroke: #000000; stroke-width: 0.8"/>
      </g>
     </g>
     <g id="text_12">
      <!-- 120 -->
      <g transform="translate(86 242.327498) scale(0.1 -0.1)">
       <use xlink:href="#SimHei-31"/>
       <use xlink:href="#SimHei-32" x="50"/>
       <use xlink:href="#SimHei-30" x="100"/>
      </g>
     </g>
    </g>
    <g id="ytick_4">
     <g id="line2d_25">
      <path d="M 108 175.679271 
L 777.6 175.679271 
" clip-path="url(#p839da01076)" style="fill: none; stroke: #b0b0b0; stroke-width: 0.8; stroke-linecap: square"/>
     </g>
     <g id="line2d_26">
      <g>
       <use xlink:href="#m4936e43d10" x="108" y="175.679271" style="stroke: #000000; stroke-width: 0.8"/>
      </g>
     </g>
     <g id="text_13">
      <!-- 130 -->
      <g transform="translate(86 179.116771) scale(0.1 -0.1)">
       <use xlink:href="#SimHei-31"/>
       <use xlink:href="#SimHei-33" x="50"/>
       <use xlink:href="#SimHei-30" x="100"/>
      </g>
     </g>
    </g>
    <g id="ytick_5">
     <g id="line2d_27">
      <path d="M 108 112.468544 
L 777.6 112.468544 
" clip-path="url(#p839da01076)" style="fill: none; stroke: #b0b0b0; stroke-width: 0.8; stroke-linecap: square"/>
     </g>
     <g id="line2d_28">
      <g>
       <use xlink:href="#m4936e43d10" x="108" y="112.468544" style="stroke: #000000; stroke-width: 0.8"/>
      </g>
     </g>
     <g id="text_14">
      <!-- 140 -->
      <g transform="translate(86 115.906044) scale(0.1 -0.1)">
       <use xlink:href="#SimHei-31"/>
       <use xlink:href="#SimHei-34" x="50"/>
       <use xlink:href="#SimHei-30" x="100"/>
      </g>
     </g>
    </g>
    <g id="text_15">
     <!-- 组合价值 -->
     <g transform="translate(80.75 238.16) rotate(-90) scale(0.1 -0.1)">
      <defs>
       <path id="SimHei-7ec4" d="M 6125 -425 
Q 5750 -400 5225 -400 
L 3275 -400 
Q 2775 -400 2400 -425 
L 2400 50 
Q 2725 25 2950 25 
L 2950 3775 
Q 2950 4375 2900 4625 
L 5525 4625 
Q 5500 4400 5500 3775 
L 5500 25 
Q 5825 25 6125 50 
L 6125 -425 
z
M 1725 4825 
Q 1500 4550 1287 4137 
Q 1075 3725 725 3050 
Q 950 3050 1550 3075 
Q 1800 3550 1900 3975 
Q 2075 3825 2450 3675 
Q 2225 3350 1937 2875 
Q 1650 2400 1150 1625 
Q 1950 1725 2425 1775 
L 2425 1350 
Q 2100 1325 1575 1250 
Q 1050 1175 575 1050 
Q 550 1300 400 1575 
Q 675 1675 912 1975 
Q 1150 2275 1375 2725 
Q 1225 2725 950 2687 
Q 675 2650 425 2525 
Q 325 2825 225 3050 
Q 450 3300 712 3862 
Q 975 4425 1150 5075 
Q 1425 4925 1725 4825 
z
M 5025 25 
L 5025 1275 
L 3425 1275 
L 3425 25 
L 5025 25 
z
M 5025 3125 
L 5025 4225 
L 3425 4225 
L 3425 3125 
L 5025 3125 
z
M 5025 1700 
L 5025 2725 
L 3425 2725 
L 3425 1700 
L 5025 1700 
z
M 2375 175 
Q 1875 100 1375 -12 
Q 875 -125 450 -300 
Q 375 -75 250 250 
Q 925 325 1162 375 
Q 1400 425 2375 600 
L 2375 175 
z
" transform="scale(0.015625)"/>
       <path id="SimHei-5408" d="M 5050 1800 
Q 5025 1550 5025 650 
Q 5025 -250 5050 -525 
L 4525 -525 
L 4525 -50 
L 1750 -50 
L 1750 -600 
L 1250 -600 
Q 1275 -300 1275 550 
Q 1275 1425 1250 1800 
L 5050 1800 
z
M 3375 4800 
Q 4100 3925 4550 3600 
Q 5000 3275 5375 3100 
Q 5750 2925 6100 2825 
Q 5850 2550 5775 2300 
Q 5275 2525 4875 2775 
Q 4475 3025 4062 3412 
Q 3650 3800 3125 4475 
Q 2650 3800 2187 3362 
Q 1725 2925 1400 2675 
Q 1075 2425 675 2175 
Q 625 2275 275 2575 
Q 800 2825 1275 3175 
Q 1750 3525 2225 4062 
Q 2700 4600 3000 5225 
Q 3275 5050 3500 4950 
L 3375 4800 
z
M 4525 350 
L 4525 1400 
L 1750 1400 
L 1750 350 
L 4525 350 
z
M 3925 2825 
Q 4325 2825 4625 2850 
L 4625 2375 
Q 4300 2400 3950 2400 
L 2550 2400 
Q 2025 2400 1700 2375 
L 1700 2850 
Q 2175 2825 2550 2825 
L 3925 2825 
z
" transform="scale(0.015625)"/>
       <path id="SimHei-4ef7" d="M 2200 4975 
Q 2050 4725 1650 3775 
L 1650 450 
Q 1650 -225 1675 -650 
L 1175 -650 
Q 1175 -225 1200 450 
L 1200 2975 
Q 900 2425 650 2100 
Q 525 2275 225 2450 
Q 750 3025 1125 3800 
Q 1500 4575 1625 5175 
Q 1950 5025 2200 4975 
z
M 4175 4700 
Q 4850 3525 6150 2950 
Q 5925 2750 5775 2500 
Q 4725 3100 3950 4300 
Q 3300 3125 2250 2350 
Q 2125 2525 1900 2725 
Q 2825 3325 3250 4050 
Q 3675 4775 3750 5150 
Q 4150 4950 4325 4900 
L 4175 4700 
z
M 3475 2650 
Q 3400 2075 3325 1087 
Q 3250 100 2325 -675 
Q 2175 -450 1925 -300 
Q 2850 350 2912 1262 
Q 2975 2175 2950 2700 
Q 3275 2650 3475 2650 
z
M 5075 2700 
Q 5050 2150 5050 1725 
L 5050 150 
Q 5050 -225 5075 -650 
L 4550 -650 
Q 4575 -225 4575 175 
L 4575 1875 
Q 4575 2150 4550 2700 
L 5075 2700 
z
" transform="scale(0.015625)"/>
       <path id="SimHei-503c" d="M 3675 4450 
L 3675 5100 
Q 3975 5075 4350 5050 
Q 4225 4875 4200 4450 
L 5125 4450 
Q 5550 4450 5875 4475 
L 5875 4025 
Q 5525 4050 5125 4050 
L 4175 4050 
L 4125 3500 
L 5400 3500 
Q 5375 3200 5375 2700 
L 5375 150 
Q 5875 150 6100 175 
L 6100 -275 
Q 5775 -250 5200 -250 
L 2850 -250 
Q 2275 -250 1900 -275 
L 1900 175 
Q 2125 150 2600 150 
L 2600 2700 
Q 2600 3175 2575 3500 
L 3600 3500 
L 3650 4050 
L 3200 4050 
Q 2575 4050 2225 4025 
L 2225 4475 
Q 2550 4450 3200 4450 
L 3675 4450 
z
M 2225 4900 
Q 2025 4675 1650 3750 
L 1650 450 
Q 1650 -75 1675 -550 
L 1150 -550 
Q 1175 -125 1175 375 
L 1175 2950 
Q 875 2450 625 2150 
Q 425 2425 250 2575 
Q 500 2825 937 3537 
Q 1375 4250 1625 5150 
Q 1975 4975 2225 4900 
z
M 4925 2650 
L 4925 3150 
L 3075 3150 
L 3075 2650 
L 4925 2650 
z
M 4925 150 
L 4925 625 
L 3075 625 
L 3075 150 
L 4925 150 
z
M 4925 1000 
L 4925 1450 
L 3075 1450 
L 3075 1000 
L 4925 1000 
z
M 4925 1825 
L 4925 2275 
L 3075 2275 
L 3075 1825 
L 4925 1825 
z
" transform="scale(0.015625)"/>
      </defs>
      <use xlink:href="#SimHei-7ec4"/>
      <use xlink:href="#SimHei-5408" x="100"/>
      <use xlink:href="#SimHei-4ef7" x="200"/>
      <use xlink:href="#SimHei-503c" x="300"/>
     </g>
    </g>
   </g>
   <g id="line2d_29">
    <path d="M 138.436364 365.311452 
L 143.551719 361.785777 
L 144.830558 362.287695 
L 146.109396 360.615152 
L 147.388235 360.940644 
L 151.224752 364.428958 
L 152.503591 357.625788 
L 153.782429 359.491662 
L 155.061268 358.810542 
L 156.340107 357.847034 
L 160.176623 353.550694 
L 161.455462 353.741047 
L 162.734301 359.717356 
L 164.01314 360.856629 
L 165.291979 357.262335 
L 169.128495 357.840864 
L 170.407334 358.286324 
L 171.686173 352.092643 
L 172.965011 346.587857 
L 174.24385 342.729926 
L 178.080367 340.726894 
L 179.359206 338.357918 
L 180.638044 344.302958 
L 181.916883 348.973997 
L 183.195722 342.686907 
L 187.032238 342.847387 
L 188.311077 339.155803 
L 189.589916 337.00399 
L 190.868755 331.934618 
L 204.935982 327.564768 
L 206.21482 326.188304 
L 207.493659 327.321821 
L 208.772498 320.097922 
L 210.051337 317.395158 
L 213.887853 325.744202 
L 215.166692 324.137596 
L 216.445531 325.636456 
L 217.72437 324.600134 
L 219.003209 320.764139 
L 222.839725 313.491292 
L 224.118564 310.152156 
L 225.397403 308.850037 
L 226.676241 305.908921 
L 227.95508 301.518128 
L 231.791597 305.740208 
L 233.070435 313.472015 
L 234.349274 313.134128 
L 235.628113 311.766968 
L 236.906952 312.102775 
L 240.743468 313.668958 
L 242.022307 315.500013 
L 243.301146 312.677221 
L 244.579985 303.621628 
L 245.858824 306.56202 
L 249.69534 306.229938 
L 250.974179 304.41281 
L 252.253018 305.093442 
L 253.531856 303.074862 
L 254.810695 295.219559 
L 258.647212 292.148885 
L 259.92605 290.653463 
L 261.204889 286.333802 
L 267.599083 280.359832 
L 268.877922 281.684286 
L 270.156761 280.380809 
L 271.4356 281.184875 
L 272.714439 272.000991 
L 276.550955 270.572084 
L 277.829794 276.240777 
L 279.108633 270.441791 
L 280.387471 271.72374 
L 281.66631 273.884735 
L 285.502827 285.3428 
L 286.781665 294.525187 
L 288.060504 287.44862 
L 289.339343 288.818982 
L 290.618182 287.722449 
L 294.454698 288.973629 
L 295.733537 287.941816 
L 303.40657 287.31094 
L 304.685409 284.82728 
L 305.964248 283.60387 
L 307.243086 282.217091 
L 308.521925 274.972209 
L 312.358442 273.359624 
L 313.63728 274.163375 
L 314.916119 271.408052 
L 316.194958 265.41389 
L 317.473797 264.021592 
L 321.310313 255.109136 
L 322.589152 255.986801 
L 323.867991 254.556306 
L 326.425668 266.695755 
L 330.262185 257.51869 
L 331.541024 258.310046 
L 332.819862 257.54637 
L 334.098701 264.840918 
L 335.37754 263.730223 
L 339.214057 268.639788 
L 340.492895 265.720025 
L 341.771734 269.407885 
L 343.050573 260.702288 
L 344.329412 257.416784 
L 349.444767 269.684669 
L 350.723606 262.775223 
L 352.002445 261.584063 
L 353.281283 260.924234 
L 357.1178 262.960702 
L 358.396639 257.648444 
L 359.675477 256.440144 
L 360.954316 252.323355 
L 362.233155 254.700912 
L 366.069672 262.459967 
L 367.34851 263.330605 
L 368.627349 258.682164 
L 369.906188 258.883616 
L 371.185027 249.394263 
L 376.300382 242.966106 
L 377.579221 240.494354 
L 378.85806 241.084258 
L 380.136898 239.473726 
L 383.973415 234.316951 
L 385.252254 227.465758 
L 386.531092 233.986288 
L 387.809931 232.742882 
L 389.08877 244.118179 
L 392.925286 231.448301 
L 394.204125 229.984519 
L 396.761803 235.187696 
L 398.040642 249.101506 
L 401.877158 255.17689 
L 403.155997 254.239131 
L 404.434836 256.753298 
L 405.713675 269.806723 
L 406.992513 269.319742 
L 410.82903 258.625302 
L 412.107869 263.950303 
L 413.386707 257.557947 
L 414.665546 253.221156 
L 415.944385 265.212045 
L 419.780901 291.517853 
L 421.05974 287.470416 
L 422.338579 286.325625 
L 423.617418 289.09054 
L 424.896257 280.957196 
L 428.732773 276.567037 
L 430.011612 271.585068 
L 431.290451 268.115975 
L 432.56929 261.677564 
L 433.848128 250.473808 
L 437.684645 248.40642 
L 438.963484 246.240254 
L 440.242322 248.80739 
L 441.521161 248.80034 
L 442.8 251.613827 
L 446.636516 251.711718 
L 447.915355 252.605963 
L 449.194194 254.63639 
L 450.473033 267.760083 
L 451.751872 267.660285 
L 455.588388 266.333464 
L 456.867227 268.968445 
L 458.146066 284.158821 
L 459.424905 283.02007 
L 460.703743 282.356141 
L 464.54026 288.540056 
L 465.819099 286.543002 
L 467.097937 289.709061 
L 468.376776 281.098792 
L 469.655615 275.393109 
L 476.049809 274.823599 
L 477.328648 270.786589 
L 478.607487 269.021208 
L 482.444003 262.509895 
L 483.722842 252.670887 
L 485.001681 249.007095 
L 486.280519 237.340156 
L 487.559358 245.38621 
L 491.395875 230.088358 
L 501.626585 227.666614 
L 502.905424 247.731067 
L 504.184263 230.718897 
L 505.463102 232.548741 
L 509.299618 221.525186 
L 510.578457 223.382687 
L 511.857296 217.930456 
L 513.136134 218.505771 
L 514.414973 217.353206 
L 518.25149 217.437143 
L 519.530328 216.538041 
L 520.809167 215.138491 
L 522.088006 221.67786 
L 523.366845 222.108731 
L 527.203361 217.634434 
L 528.4822 220.860676 
L 529.761039 212.183718 
L 531.039878 218.298195 
L 532.318717 219.969348 
L 536.155233 220.448095 
L 537.434072 218.487706 
L 539.991749 204.414733 
L 541.270588 207.391387 
L 545.107105 209.746296 
L 546.385943 216.636733 
L 547.664782 216.784929 
L 548.943621 223.227304 
L 550.22246 227.181533 
L 554.058976 218.991434 
L 555.337815 213.879929 
L 556.616654 209.718268 
L 557.895493 207.900877 
L 559.174332 211.020069 
L 563.010848 212.263564 
L 564.289687 214.899469 
L 565.568526 208.958439 
L 566.847364 212.497345 
L 568.126203 209.237614 
L 571.96272 210.790044 
L 573.241558 201.26333 
L 574.520397 199.029982 
L 577.078075 195.714543 
L 580.914591 190.115798 
L 582.19343 190.228339 
L 583.472269 187.736008 
L 584.751108 181.6341 
L 586.029947 187.209187 
L 589.866463 181.664561 
L 591.145302 178.123176 
L 592.424141 172.209803 
L 593.702979 186.053598 
L 594.981818 193.241147 
L 598.818335 178.880784 
L 600.097173 180.131728 
L 601.376012 175.06663 
L 602.654851 175.229998 
L 603.93369 176.310322 
L 607.770206 179.273189 
L 609.049045 181.131464 
L 611.606723 184.11072 
L 612.885561 187.522867 
L 616.722078 181.664831 
L 618.000917 183.422 
L 619.279756 182.853186 
L 621.837433 187.967463 
L 625.67395 197.595966 
L 626.952788 191.768004 
L 628.231627 191.287664 
L 629.510466 182.571119 
L 630.789305 182.833276 
L 634.625821 179.900371 
L 637.183499 183.203936 
L 639.741176 178.527603 
L 643.577693 182.706769 
L 655.087242 179.325159 
L 656.366081 179.425568 
L 661.481436 177.310477 
L 662.760275 170.718924 
L 664.039114 171.413224 
L 665.317953 168.145259 
L 666.596791 165.333129 
L 670.433308 170.138414 
L 671.712147 164.957247 
L 672.990985 165.367051 
L 674.269824 167.755995 
L 675.548663 173.559804 
L 679.38518 178.766857 
L 680.664018 184.588318 
L 681.942857 184.442229 
L 683.221696 182.148288 
L 684.500535 194.927358 
L 688.337051 190.388369 
L 689.61589 192.305929 
L 690.894729 185.768641 
L 692.173568 187.616427 
L 693.452406 193.192748 
L 697.288923 195.25068 
L 698.567762 205.777068 
L 699.8466 204.367029 
L 701.125439 202.117236 
L 702.404278 193.993422 
L 706.240794 192.094522 
L 707.519633 188.217006 
L 708.798472 185.718085 
L 710.077311 181.606528 
L 711.35615 185.016161 
L 715.192666 178.228999 
L 716.471505 173.517336 
L 717.750344 173.867967 
L 719.029183 176.748688 
L 720.308021 174.32547 
L 724.144538 181.247273 
L 725.423377 175.098873 
L 726.702215 174.0373 
L 727.981054 175.186388 
L 733.096409 223.061158 
L 734.375248 207.039402 
L 735.654087 206.459 
L 736.932926 178.363457 
L 738.211765 176.633817 
L 742.048281 169.449269 
L 743.32712 169.507921 
L 744.605959 164.890297 
L 745.884798 161.580809 
L 747.163636 161.149041 
L 747.163636 161.149041 
" clip-path="url(#p839da01076)" style="fill: none; stroke: #1f77b4; stroke-width: 1.5; stroke-linecap: square"/>
   </g>
   <g id="line2d_30">
    <path d="M 138.436364 365.311452 
L 143.551719 361.658245 
L 144.830558 360.955206 
L 146.109396 359.921016 
L 147.388235 359.094815 
L 151.224752 362.476296 
L 152.503591 359.270215 
L 153.782429 361.661118 
L 155.061268 362.275019 
L 156.340107 360.519102 
L 160.176623 356.433626 
L 161.455462 355.596881 
L 162.734301 362.177254 
L 164.01314 364.214482 
L 165.291979 361.794827 
L 169.128495 365.765769 
L 170.407334 364.829823 
L 171.686173 360.656644 
L 172.965011 356.947843 
L 174.24385 352.50198 
L 178.080367 351.181689 
L 179.359206 350.225617 
L 180.638044 352.684092 
L 181.916883 354.524354 
L 183.195722 351.276102 
L 187.032238 353.440325 
L 188.311077 351.314917 
L 189.589916 348.749572 
L 190.868755 345.69541 
L 204.935982 342.753385 
L 206.21482 341.508332 
L 207.493659 341.386126 
L 208.772498 337.612631 
L 210.051337 336.978124 
L 213.887853 341.521273 
L 215.166692 340.492834 
L 216.445531 341.976546 
L 217.72437 340.599224 
L 219.003209 337.892507 
L 222.839725 330.924914 
L 224.118564 324.590868 
L 225.397403 321.853001 
L 226.676241 316.508576 
L 227.95508 314.49531 
L 231.791597 315.651704 
L 233.070435 322.502368 
L 234.349274 323.174255 
L 236.906952 320.49054 
L 240.743468 323.475693 
L 242.022307 323.940072 
L 243.301146 321.603323 
L 244.579985 311.289713 
L 245.858824 314.9803 
L 249.69534 313.996431 
L 250.974179 312.572146 
L 252.253018 311.92518 
L 253.531856 308.448332 
L 254.810695 297.668905 
L 258.647212 294.664584 
L 259.92605 292.988699 
L 261.204889 285.668388 
L 267.599083 275.205737 
L 268.877922 275.485132 
L 270.156761 273.670271 
L 271.4356 275.140081 
L 272.714439 262.012887 
L 276.550955 264.606501 
L 277.829794 264.660175 
L 279.108633 259.665588 
L 280.387471 261.170864 
L 281.66631 260.076292 
L 285.502827 273.588795 
L 286.781665 287.223502 
L 288.060504 281.387384 
L 289.339343 280.855432 
L 290.618182 279.213097 
L 294.454698 282.256716 
L 295.733537 281.958632 
L 303.40657 283.031637 
L 304.685409 281.103197 
L 305.964248 280.561661 
L 307.243086 279.893127 
L 308.521925 269.002519 
L 312.358442 269.821051 
L 313.63728 271.066582 
L 314.916119 267.621365 
L 316.194958 262.160007 
L 317.473797 260.952814 
L 321.310313 247.721623 
L 322.589152 252.278665 
L 323.867991 251.149109 
L 325.14683 262.721189 
L 326.425668 268.087179 
L 330.262185 261.41623 
L 331.541024 262.507448 
L 332.819862 259.687631 
L 334.098701 266.773596 
L 335.37754 264.470394 
L 339.214057 270.829361 
L 340.492895 265.985736 
L 341.771734 270.497732 
L 343.050573 261.860965 
L 344.329412 259.60904 
L 349.444767 276.750786 
L 350.723606 271.073771 
L 352.002445 271.694861 
L 353.281283 270.997574 
L 357.1178 272.7487 
L 358.396639 270.139267 
L 359.675477 267.906033 
L 360.954316 263.527266 
L 362.233155 262.793558 
L 366.069672 272.719947 
L 367.34851 271.618665 
L 368.627349 271.359398 
L 369.906188 273.41196 
L 371.185027 264.953467 
L 376.300382 259.726451 
L 377.579221 257.91926 
L 380.136898 256.088585 
L 383.973415 254.531073 
L 385.252254 252.012214 
L 386.531092 254.436186 
L 387.809931 252.470845 
L 389.08877 254.694973 
L 392.925286 249.190482 
L 394.204125 245.020183 
L 395.482964 242.028801 
L 396.761803 242.774011 
L 398.040642 258.322779 
L 401.877158 261.906977 
L 403.155997 263.734299 
L 404.434836 260.084928 
L 405.713675 274.346472 
L 406.992513 273.549027 
L 410.82903 266.67153 
L 412.107869 269.052848 
L 413.386707 262.793083 
L 414.665546 258.245626 
L 415.944385 261.279661 
L 419.780901 281.04234 
L 421.05974 282.711036 
L 422.338579 280.135149 
L 423.617418 281.350009 
L 424.896257 275.098393 
L 428.732773 270.508283 
L 430.011612 265.95747 
L 431.290451 266.161145 
L 432.56929 263.322637 
L 433.848128 258.106167 
L 437.684645 251.850715 
L 438.963484 252.024199 
L 441.521161 253.190658 
L 442.8 255.563349 
L 446.636516 253.298965 
L 447.915355 253.238101 
L 449.194194 255.02421 
L 450.473033 261.909377 
L 451.751872 263.251714 
L 455.588388 264.435903 
L 456.867227 265.954599 
L 458.146066 274.232898 
L 459.424905 271.622029 
L 460.703743 271.275064 
L 464.54026 277.869815 
L 465.819099 274.702553 
L 467.097937 276.490581 
L 468.376776 273.478111 
L 469.655615 266.536398 
L 476.049809 264.72393 
L 477.328648 263.812905 
L 478.607487 259.314809 
L 482.444003 252.624213 
L 483.722842 245.131851 
L 485.001681 239.274643 
L 486.280519 230.90145 
L 487.559358 236.646515 
L 491.395875 224.027298 
L 501.626585 221.058437 
L 502.905424 242.762988 
L 504.184263 228.963898 
L 505.463102 227.741374 
L 509.299618 216.446288 
L 510.578457 219.729049 
L 511.857296 210.178379 
L 513.136134 210.335091 
L 514.414973 206.680926 
L 518.25149 202.957754 
L 519.530328 202.321809 
L 520.809167 199.462695 
L 522.088006 206.460959 
L 523.366845 206.643069 
L 527.203361 203.548651 
L 528.4822 203.182997 
L 529.761039 196.092243 
L 531.039878 201.061427 
L 532.318717 203.62533 
L 536.155233 205.730127 
L 537.434072 203.599448 
L 538.712911 202.024204 
L 539.991749 206.083797 
L 541.270588 206.356005 
L 545.107105 207.85649 
L 546.385943 217.803007 
L 547.664782 217.809715 
L 548.943621 228.534987 
L 550.22246 230.018698 
L 554.058976 220.101413 
L 555.337815 211.65682 
L 556.616654 209.967517 
L 557.895493 204.503764 
L 559.174332 203.828527 
L 563.010848 210.024551 
L 564.289687 215.424566 
L 565.568526 208.385087 
L 566.847364 211.843244 
L 568.126203 206.940674 
L 571.96272 210.694518 
L 573.241558 201.964299 
L 574.520397 201.051836 
L 577.078075 199.988891 
L 582.19343 193.789511 
L 583.472269 189.320169 
L 584.751108 184.314084 
L 586.029947 191.717783 
L 589.866463 191.20404 
L 591.145302 191.212667 
L 592.424141 188.678473 
L 593.702979 198.337929 
L 594.981818 201.299121 
L 598.818335 191.648772 
L 600.097173 193.071618 
L 601.376012 189.47592 
L 602.654851 189.602917 
L 603.93369 189.246846 
L 607.770206 190.894453 
L 609.049045 192.015863 
L 611.606723 192.445261 
L 612.885561 191.975614 
L 616.722078 192.218106 
L 618.000917 191.78967 
L 619.279756 189.212345 
L 621.837433 188.970336 
L 625.67395 192.858369 
L 626.952788 192.327374 
L 628.231627 189.524809 
L 629.510466 184.041405 
L 630.789305 183.366643 
L 634.625821 182.948751 
L 635.90466 184.563294 
L 637.183499 183.28374 
L 639.741176 176.898414 
L 643.577693 177.85113 
L 655.087242 163.48368 
L 656.366081 165.798383 
L 657.64492 164.341988 
L 661.481436 157.429029 
L 662.760275 149.656321 
L 664.039114 152.662559 
L 666.596791 145.771644 
L 670.433308 154.812406 
L 671.712147 148.748649 
L 672.990985 146.235543 
L 674.269824 146.196726 
L 675.548663 152.494829 
L 679.38518 153.904738 
L 681.942857 159.999164 
L 683.221696 159.810823 
L 684.500535 168.167718 
L 688.337051 166.147744 
L 689.61589 163.652848 
L 690.894729 157.385417 
L 692.173568 159.27456 
L 693.452406 162.131278 
L 697.288923 162.380002 
L 698.567762 168.242478 
L 699.8466 166.151098 
L 701.125439 161.619455 
L 702.404278 151.325494 
L 706.240794 149.933316 
L 707.519633 145.493208 
L 708.798472 139.213796 
L 710.077311 137.568104 
L 711.35615 141.171949 
L 715.192666 137.736794 
L 716.471505 135.625765 
L 717.750344 134.725763 
L 719.029183 134.369212 
L 720.308021 125.673979 
L 724.144538 123.459436 
L 725.423377 118.026353 
L 726.702215 118.726034 
L 727.981054 114.5265 
L 733.096409 152.804418 
L 734.375248 141.193997 
L 735.654087 135.694301 
L 736.932926 114.973153 
L 738.211765 107.630321 
L 742.048281 100.628702 
L 743.32712 99.58924 
L 744.605959 85.323861 
L 745.884798 79.995251 
L 747.163636 78.350517 
L 747.163636 78.350517 
" clip-path="url(#p839da01076)" style="fill: none; stroke-dasharray: 5.55,2.4; stroke-dashoffset: 0; stroke: #ff7f0e; stroke-width: 1.5"/>
   </g>
   <g id="line2d_31">
    <path d="M 143.551719 365.311452 
L 144.830558 364.634056 
L 146.109396 363.653659 
L 147.388235 362.842777 
L 151.224752 366.1513 
L 152.503591 362.932107 
L 153.782429 365.299043 
L 155.061268 365.869181 
L 156.340107 364.120893 
L 160.176623 360.063283 
L 161.455462 359.245108 
L 162.734301 365.768266 
L 164.01314 367.783046 
L 165.291979 365.354111 
L 169.128495 369.36 
L 170.407334 368.349318 
L 171.686173 364.161273 
L 172.965011 360.495599 
L 174.24385 356.114652 
L 178.080367 354.797263 
L 179.359206 353.807753 
L 180.638044 355.53601 
L 181.916883 355.801235 
L 183.195722 352.206935 
L 187.032238 355.484755 
L 188.311077 355.340118 
L 189.589916 354.112808 
L 190.868755 350.166256 
L 204.935982 350.879914 
L 206.21482 350.830354 
L 207.493659 351.534363 
L 208.772498 349.277198 
L 210.051337 349.029443 
L 215.166692 349.548144 
L 216.445531 349.91114 
L 217.72437 349.647216 
L 219.003209 346.27248 
L 222.839725 338.331658 
L 224.118564 331.661876 
L 225.397403 328.038401 
L 226.676241 323.294156 
L 227.95508 320.633907 
L 231.791597 322.515748 
L 233.070435 328.519418 
L 234.349274 328.735115 
L 235.628113 327.514752 
L 236.906952 326.701075 
L 240.743468 329.477968 
L 242.022307 330.216346 
L 243.301146 327.904539 
L 244.579985 317.569157 
L 245.858824 320.954072 
L 249.69534 320.264867 
L 250.974179 318.63765 
L 252.253018 318.034286 
L 253.531856 314.953592 
L 254.810695 305.387889 
L 259.92605 300.882603 
L 261.204889 294.809332 
L 267.599083 285.95123 
L 268.877922 286.387521 
L 270.156761 284.762122 
L 271.4356 286.668419 
L 272.714439 274.425325 
L 276.550955 276.331706 
L 277.829794 279.106615 
L 279.108633 274.593225 
L 280.387471 276.106157 
L 281.66631 276.808 
L 285.502827 288.859845 
L 286.781665 300.16736 
L 288.060504 292.992949 
L 289.339343 293.933143 
L 290.618182 291.598093 
L 294.454698 293.76437 
L 295.733537 293.30599 
L 303.40657 294.011593 
L 304.685409 291.714458 
L 305.964248 291.092577 
L 307.243086 290.132076 
L 308.521925 280.503759 
L 312.358442 280.532556 
L 313.63728 281.674735 
L 314.916119 278.567964 
L 316.194958 273.146754 
L 317.473797 271.802595 
L 321.310313 260.009153 
L 322.589152 263.33694 
L 323.867991 262.190182 
L 325.14683 272.014754 
L 326.425668 277.383367 
L 330.262185 270.027529 
L 331.541024 271.080713 
L 332.819862 268.825875 
L 334.098701 275.84729 
L 335.37754 273.891747 
L 339.214057 279.869585 
L 340.492895 275.597123 
L 341.771734 280.002229 
L 343.050573 271.381641 
L 344.329412 268.577152 
L 349.444767 282.587395 
L 350.723606 276.290276 
L 352.002445 275.787365 
L 353.281283 275.123537 
L 357.1178 276.984822 
L 358.396639 272.907946 
L 359.675477 271.258055 
L 360.954316 267.103896 
L 362.233155 268.08355 
L 366.069672 276.66483 
L 367.34851 276.63546 
L 368.627349 273.906159 
L 369.906188 274.917952 
L 371.185027 266.01162 
L 376.300382 260.150479 
L 377.579221 258.007402 
L 378.85806 257.904744 
L 380.136898 256.66676 
L 383.973415 254.574951 
L 385.252254 252.069337 
L 386.531092 254.139546 
L 387.809931 252.200683 
L 389.08877 255.14302 
L 392.925286 249.037654 
L 394.204125 244.76209 
L 395.482964 241.915118 
L 396.761803 242.981357 
L 398.040642 258.75658 
L 401.877158 262.417077 
L 403.155997 263.897993 
L 404.434836 260.690119 
L 405.713675 275.273903 
L 406.992513 274.180322 
L 410.82903 266.716675 
L 412.107869 269.246151 
L 413.386707 263.048554 
L 414.665546 258.362284 
L 415.944385 261.829273 
L 419.780901 278.344174 
L 421.05974 279.961602 
L 422.338579 277.25597 
L 423.617418 278.305979 
L 424.896257 273.289806 
L 428.732773 269.501902 
L 430.011612 265.658218 
L 431.290451 265.997427 
L 433.848128 255.644522 
L 437.684645 248.331907 
L 438.963484 250.270939 
L 440.242322 253.48022 
L 441.521161 253.081915 
L 442.8 254.956086 
L 446.636516 253.460649 
L 447.915355 252.104717 
L 449.194194 254.747495 
L 450.473033 265.550232 
L 451.751872 267.689999 
L 455.588388 268.681899 
L 456.867227 271.33881 
L 458.146066 276.557387 
L 459.424905 274.682713 
L 460.703743 275.746496 
L 464.54026 283.507822 
L 465.819099 280.663932 
L 467.097937 285.545472 
L 468.376776 283.549296 
L 469.655615 278.536958 
L 476.049809 274.089853 
L 477.328648 274.053855 
L 478.607487 270.400446 
L 482.444003 263.389859 
L 483.722842 250.569982 
L 485.001681 242.985475 
L 486.280519 232.239668 
L 487.559358 236.249325 
L 491.395875 217.079136 
L 501.626585 215.681001 
L 502.905424 228.669101 
L 504.184263 220.125082 
L 505.463102 214.460514 
L 509.299618 205.299922 
L 510.578457 205.952661 
L 511.857296 195.877644 
L 513.136134 194.042773 
L 514.414973 189.724439 
L 518.25149 182.432132 
L 519.530328 182.34618 
L 520.809167 178.239658 
L 522.088006 186.077403 
L 523.366845 185.918919 
L 527.203361 182.798744 
L 528.4822 178.825875 
L 529.761039 169.457633 
L 532.318717 180.158103 
L 536.155233 184.602138 
L 538.712911 180.054712 
L 539.991749 183.015691 
L 541.270588 183.478132 
L 545.107105 185.103381 
L 546.385943 195.063952 
L 547.664782 195.060688 
L 548.943621 205.748552 
L 550.22246 207.446322 
L 554.058976 197.377681 
L 555.337815 188.933377 
L 556.616654 186.969311 
L 557.895493 181.650518 
L 559.174332 181.353515 
L 563.010848 187.152266 
L 564.289687 192.408746 
L 565.568526 185.233165 
L 566.847364 188.786554 
L 568.126203 183.892506 
L 571.96272 187.53903 
L 573.241558 177.716068 
L 574.520397 175.434323 
L 575.799236 173.790207 
L 577.078075 171.517683 
L 580.914591 165.89972 
L 582.19343 166.028921 
L 583.472269 163.516967 
L 584.751108 157.539427 
L 586.029947 163.79438 
L 589.866463 157.482019 
L 591.145302 154.504693 
L 592.424141 148.482344 
L 593.702979 162.331936 
L 594.981818 169.513468 
L 598.818335 155.510255 
L 600.097173 156.148868 
L 601.376012 150.95313 
L 602.654851 151.277541 
L 607.770206 154.412255 
L 609.049045 155.813778 
L 611.606723 157.307072 
L 612.885561 157.363125 
L 616.722078 158.324916 
L 618.000917 157.310656 
L 619.279756 154.302705 
L 620.558594 154.603002 
L 621.837433 155.210673 
L 625.67395 159.073551 
L 626.952788 157.90061 
L 628.231627 154.665274 
L 629.510466 149.210286 
L 630.789305 148.684993 
L 634.625821 148.532228 
L 635.90466 150.731993 
L 637.183499 150.356728 
L 638.462338 145.952641 
L 639.741176 142.418843 
L 643.577693 141.702772 
L 655.087242 128.3933 
L 656.366081 131.504364 
L 657.64492 129.760145 
L 661.481436 120.927043 
L 662.760275 112.67363 
L 664.039114 116.666434 
L 666.596791 108.841519 
L 670.433308 119.832136 
L 671.712147 112.853502 
L 672.990985 109.404776 
L 674.269824 108.637332 
L 675.548663 115.26678 
L 679.38518 116.082767 
L 680.664018 118.385593 
L 681.942857 123.170819 
L 683.221696 124.162628 
L 684.500535 132.801546 
L 688.337051 130.656243 
L 689.61589 127.276368 
L 690.894729 120.682344 
L 692.173568 123.023795 
L 693.452406 126.061373 
L 697.288923 127.971217 
L 698.567762 131.948511 
L 699.8466 130.048149 
L 701.125439 125.936085 
L 702.404278 116.556992 
L 706.240794 114.484896 
L 707.519633 111.719009 
L 708.798472 106.38064 
L 710.077311 105.326843 
L 711.35615 108.444119 
L 715.192666 104.032755 
L 716.471505 100.31282 
L 717.750344 100.580316 
L 719.029183 100.213684 
L 720.308021 95.65918 
L 724.144538 95.912884 
L 725.423377 90.974249 
L 726.702215 89.67621 
L 727.981054 86.025298 
L 733.096409 130.324532 
L 734.375248 114.818984 
L 735.654087 112.815231 
L 736.932926 97.997662 
L 738.211765 94.985279 
L 742.048281 88.036872 
L 743.32712 83.611003 
L 744.605959 72.252027 
L 745.884798 68.891757 
L 747.163636 66.96 
L 747.163636 66.96 
" clip-path="url(#p839da01076)" style="fill: none; stroke-dasharray: 5.55,2.4; stroke-dashoffset: 0; stroke: #2ca02c; stroke-width: 1.5"/>
   </g>
   <g id="patch_3">
    <path d="M 108 384.48 
L 108 51.84 
" style="fill: none; stroke: #000000; stroke-width: 0.8; stroke-linejoin: miter; stroke-linecap: square"/>
   </g>
   <g id="patch_4">
    <path d="M 777.6 384.48 
L 777.6 51.84 
" style="fill: none; stroke: #000000; stroke-width: 0.8; stroke-linejoin: miter; stroke-linecap: square"/>
   </g>
   <g id="patch_5">
    <path d="M 108 384.48 
L 777.6 384.48 
" style="fill: none; stroke: #000000; stroke-width: 0.8; stroke-linejoin: miter; stroke-linecap: square"/>
   </g>
   <g id="patch_6">
    <path d="M 108 51.84 
L 777.6 51.84 
" style="fill: none; stroke: #000000; stroke-width: 0.8; stroke-linejoin: miter; stroke-linecap: square"/>
   </g>
   <g id="text_16">
    <!-- 广义 ARCH协方差组合市值对比 -->
    <g transform="translate(361.8 45.84) scale(0.12 -0.12)">
     <defs>
      <path id="SimHei-5e7f" d="M 6000 3650 
Q 5500 3675 5075 3675 
L 1500 3675 
Q 1550 2025 1487 1375 
Q 1425 725 1250 275 
Q 1075 -175 775 -625 
Q 550 -425 225 -275 
Q 525 50 750 550 
Q 975 1050 1000 2012 
Q 1025 2975 950 4125 
L 5025 4125 
Q 5500 4125 6000 4150 
L 6000 3650 
z
M 3275 4150 
Q 3125 4700 2875 5075 
Q 3100 5150 3350 5300 
Q 3575 4925 3825 4400 
Q 3625 4350 3275 4150 
z
" transform="scale(0.015625)"/>
      <path id="SimHei-4e49" d="M 3550 1175 
Q 4450 375 6025 -25 
Q 5775 -300 5675 -625 
Q 4275 -175 3125 800 
Q 2250 0 675 -625 
Q 525 -325 350 -100 
Q 1750 250 2775 1150 
Q 1875 2175 1150 4350 
Q 1325 4350 1625 4550 
Q 2275 2500 3175 1550 
Q 4100 2625 4675 4675 
Q 5050 4500 5250 4450 
Q 5075 4025 4637 2987 
Q 4200 1950 3550 1175 
z
M 2975 5175 
Q 3425 4350 3675 3650 
Q 3375 3550 3175 3450 
Q 2925 4175 2525 4950 
Q 2750 5025 2975 5175 
z
" transform="scale(0.015625)"/>
      <path id="SimHei-20" transform="scale(0.015625)"/>
      <path id="SimHei-41" d="M 3075 125 
L 2475 125 
L 2125 1450 
L 1025 1450 
L 675 125 
L 75 125 
L 1325 4450 
L 1825 4450 
L 3075 125 
z
M 2000 1925 
L 1600 3450 
L 1550 3450 
L 1150 1925 
L 2000 1925 
z
" transform="scale(0.015625)"/>
      <path id="SimHei-52" d="M 3000 125 
L 2400 125 
L 1500 1975 
L 850 1975 
L 850 125 
L 275 125 
L 275 4400 
L 1525 4400 
Q 2125 4400 2500 4112 
Q 2875 3825 2875 3175 
Q 2875 2675 2625 2400 
Q 2375 2125 2050 2050 
L 3000 125 
z
M 2300 3175 
Q 2300 3525 2087 3725 
Q 1875 3925 1400 3925 
L 850 3925 
L 850 2450 
L 1550 2450 
Q 1850 2450 2075 2612 
Q 2300 2775 2300 3175 
z
" transform="scale(0.015625)"/>
      <path id="SimHei-43" d="M 2975 1825 
Q 2950 875 2575 475 
Q 2200 75 1675 75 
Q 1075 75 650 562 
Q 225 1050 225 2125 
Q 225 3300 637 3875 
Q 1050 4450 1700 4450 
Q 2250 4450 2612 4037 
Q 2975 3625 2950 2875 
L 2400 2875 
Q 2400 3425 2225 3700 
Q 2050 3975 1700 3975 
Q 1300 3975 1062 3562 
Q 825 3150 825 2175 
Q 825 1275 1062 912 
Q 1300 550 1675 550 
Q 1950 550 2175 812 
Q 2400 1075 2400 1825 
L 2975 1825 
z
" transform="scale(0.015625)"/>
      <path id="SimHei-48" d="M 2850 125 
L 2275 125 
L 2275 2125 
L 850 2125 
L 850 125 
L 275 125 
L 275 4400 
L 850 4400 
L 850 2600 
L 2275 2600 
L 2275 4400 
L 2850 4400 
L 2850 125 
z
" transform="scale(0.015625)"/>
      <path id="SimHei-534f" d="M 3475 3825 
Q 3475 4625 3450 5150 
Q 3725 5075 4050 5050 
Q 3950 4650 3975 3825 
L 5325 3825 
Q 5275 3600 5225 3075 
L 5050 300 
Q 5000 -100 4750 -187 
Q 4500 -275 4050 -375 
Q 3950 -50 3825 175 
Q 4350 200 4462 225 
Q 4575 250 4600 575 
L 4775 3425 
L 3950 3425 
Q 3925 2300 3600 1300 
Q 3275 300 2475 -500 
Q 2325 -300 1875 -150 
Q 2450 150 2925 1075 
Q 3400 2000 3450 3425 
Q 2975 3425 2500 3400 
L 2500 3850 
Q 2975 3825 3475 3825 
z
M 1025 3475 
Q 1025 4675 1000 5075 
L 1550 5075 
Q 1525 4675 1525 3475 
Q 2000 3475 2325 3500 
L 2325 3050 
Q 2000 3075 1525 3075 
L 1525 325 
Q 1525 -25 1550 -575 
L 1000 -575 
Q 1025 -25 1025 325 
L 1025 3075 
Q 525 3075 225 3050 
L 225 3500 
Q 525 3475 1025 3475 
z
M 2975 2500 
Q 2825 2300 2500 1225 
Q 2250 1325 2025 1350 
Q 2375 2275 2425 2625 
Q 2625 2550 2975 2500 
z
M 5725 2675 
Q 6100 1875 6200 1500 
Q 5925 1450 5725 1325 
Q 5575 1850 5300 2475 
Q 5525 2550 5725 2675 
z
" transform="scale(0.015625)"/>
      <path id="SimHei-65b9" d="M 425 3975 
Q 825 3950 1300 3950 
L 5025 3950 
Q 5625 3950 6000 3975 
L 6000 3475 
Q 5675 3500 5100 3500 
L 2525 3500 
Q 2525 3225 2500 2500 
L 5300 2500 
Q 5250 2175 5200 1550 
L 5050 175 
Q 5000 -275 4625 -412 
Q 4250 -550 3525 -625 
Q 3500 -300 3325 -50 
Q 3900 -75 4200 0 
Q 4500 75 4575 425 
L 4725 2050 
L 2475 2050 
Q 2375 1350 2162 875 
Q 1950 400 1575 0 
Q 1200 -400 825 -700 
Q 725 -550 375 -350 
Q 700 -175 1062 200 
Q 1425 575 1662 1050 
Q 1900 1525 1962 2100 
Q 2025 2675 2025 3500 
L 1325 3500 
Q 775 3500 425 3475 
L 425 3975 
z
M 3075 4075 
Q 2850 4575 2575 5000 
Q 2800 5125 3025 5275 
Q 3300 4850 3575 4350 
Q 3325 4250 3075 4075 
z
" transform="scale(0.015625)"/>
      <path id="SimHei-5dee" d="M 4725 4975 
Q 4500 4725 4250 4275 
L 4850 4275 
Q 5450 4275 5825 4300 
L 5825 3850 
Q 5425 3875 4850 3875 
L 3275 3875 
Q 3225 3600 3150 3275 
L 4525 3275 
Q 5075 3275 5525 3300 
L 5525 2850 
Q 5075 2875 4500 2875 
L 3050 2875 
Q 2975 2650 2850 2325 
L 5125 2325 
Q 5675 2325 6025 2350 
L 6025 1900 
Q 5700 1925 5150 1925 
L 2650 1925 
Q 2425 1550 2250 1300 
Q 2650 1275 3100 1275 
L 4525 1275 
Q 4975 1275 5350 1300 
L 5350 850 
Q 4975 875 4575 875 
L 3925 875 
L 3925 -50 
L 5000 -50 
Q 5200 -50 5900 -25 
L 5900 -500 
Q 5275 -475 5025 -475 
L 2100 -475 
Q 1700 -475 1400 -500 
L 1400 -25 
Q 1775 -50 2125 -50 
L 3425 -50 
L 3425 875 
L 3100 875 
Q 2625 875 2175 850 
L 2175 1200 
Q 1925 875 1487 475 
Q 1050 75 625 -250 
Q 425 -25 200 150 
Q 750 475 1262 925 
Q 1775 1375 2100 1925 
L 1325 1925 
Q 750 1925 375 1900 
L 375 2350 
Q 750 2325 1350 2325 
L 2325 2325 
Q 2450 2575 2550 2875 
L 1725 2875 
Q 1375 2875 1000 2850 
L 1000 3300 
Q 1500 3275 1700 3275 
L 2650 3275 
Q 2725 3575 2775 3875 
L 1500 3875 
Q 1100 3875 650 3850 
L 650 4300 
Q 1025 4275 1425 4275 
L 2275 4275 
Q 2075 4675 1850 4950 
Q 2025 5050 2250 5225 
Q 2450 4975 2725 4550 
Q 2525 4450 2325 4275 
L 3750 4275 
Q 4000 4700 4150 5250 
Q 4400 5100 4725 4975 
z
" transform="scale(0.015625)"/>
      <path id="SimHei-5e02" d="M 4750 4200 
Q 5350 4200 6050 4225 
L 6050 3725 
Q 5350 3750 4750 3750 
L 3450 3750 
L 3450 2900 
L 5375 2900 
Q 5350 2450 5350 1975 
L 5350 750 
Q 5350 325 5062 175 
Q 4775 25 4250 -25 
Q 4200 275 4025 575 
Q 4550 575 4687 600 
Q 4825 625 4825 850 
L 4825 2450 
L 3450 2450 
L 3450 475 
Q 3450 -150 3475 -600 
L 2900 -600 
Q 2925 -150 2925 475 
L 2925 2450 
L 1525 2450 
L 1525 0 
L 975 0 
Q 1000 400 1000 950 
L 1000 1875 
Q 1000 2450 975 2900 
L 2925 2900 
L 2925 3750 
L 1625 3750 
Q 975 3750 325 3725 
L 325 4225 
Q 975 4200 1625 4200 
L 4750 4200 
z
M 2950 5275 
Q 3250 4975 3575 4475 
Q 3300 4350 3125 4225 
Q 2900 4625 2550 5000 
Q 2750 5150 2950 5275 
z
" transform="scale(0.015625)"/>
      <path id="SimHei-5bf9" d="M 525 4250 
Q 900 4225 1400 4225 
L 2825 4225 
Q 2575 2625 2200 1750 
Q 2825 875 3125 400 
Q 2950 275 2725 75 
Q 2200 975 1950 1300 
Q 1650 775 1350 425 
Q 1050 75 600 -350 
Q 425 -125 200 -25 
Q 625 275 975 675 
Q 1325 1075 1650 1700 
Q 1050 2425 550 2900 
Q 700 3025 900 3225 
Q 1625 2425 1875 2150 
Q 2200 3050 2300 3825 
L 1400 3825 
Q 900 3825 525 3800 
L 525 4250 
z
M 2925 3700 
Q 3525 3675 3750 3675 
L 4825 3675 
L 4825 4425 
Q 4825 4750 4775 5125 
L 5350 5125 
Q 5325 4825 5325 4375 
L 5325 3675 
Q 5575 3675 6150 3700 
L 6150 3250 
Q 5575 3275 5325 3275 
L 5325 125 
Q 5350 -350 5012 -475 
Q 4675 -600 4250 -650 
Q 4175 -350 4025 -100 
Q 4575 -100 4712 -37 
Q 4850 25 4825 325 
L 4825 3275 
L 3775 3275 
Q 3550 3275 2925 3225 
L 2925 3700 
z
M 3450 2725 
Q 3875 1975 4175 1325 
Q 3850 1200 3700 1075 
Q 3475 1750 3050 2475 
Q 3225 2550 3450 2725 
z
" transform="scale(0.015625)"/>
      <path id="SimHei-6bd4" d="M 3775 5100 
Q 3750 4575 3750 4100 
L 3750 3050 
Q 4925 3600 5475 4175 
Q 5675 3900 5900 3675 
Q 5600 3500 5037 3187 
Q 4475 2875 3750 2550 
L 3750 450 
Q 3750 100 4050 100 
L 5000 100 
Q 5175 100 5262 250 
Q 5350 400 5450 900 
Q 5650 775 6025 675 
Q 5850 0 5650 -175 
Q 5450 -350 5225 -350 
L 3900 -350 
Q 3250 -350 3250 275 
L 3250 4000 
Q 3250 4550 3225 5100 
L 3775 5100 
z
M 1275 4975 
Q 1250 4575 1250 4000 
L 1250 3150 
L 1850 3150 
Q 2325 3150 2875 3175 
L 2875 2650 
Q 2325 2675 1850 2675 
L 1250 2675 
L 1250 475 
Q 1650 650 1962 812 
Q 2275 975 2850 1275 
Q 2900 950 2950 750 
Q 2375 475 1762 175 
Q 1150 -125 925 -325 
Q 750 -100 575 200 
Q 700 300 750 600 
L 750 3950 
Q 750 4550 725 4975 
L 1275 4975 
z
" transform="scale(0.015625)"/>
     </defs>
     <use xlink:href="#SimHei-5e7f"/>
     <use xlink:href="#SimHei-4e49" x="100"/>
     <use xlink:href="#SimHei-20" x="200"/>
     <use xlink:href="#SimHei-41" x="250"/>
     <use xlink:href="#SimHei-52" x="300"/>
     <use xlink:href="#SimHei-43" x="350"/>
     <use xlink:href="#SimHei-48" x="400"/>
     <use xlink:href="#SimHei-534f" x="450"/>
     <use xlink:href="#SimHei-65b9" x="550"/>
     <use xlink:href="#SimHei-5dee" x="650"/>
     <use xlink:href="#SimHei-7ec4" x="750"/>
     <use xlink:href="#SimHei-5408" x="850"/>
     <use xlink:href="#SimHei-5e02" x="950"/>
     <use xlink:href="#SimHei-503c" x="1050"/>
     <use xlink:href="#SimHei-5bf9" x="1150"/>
     <use xlink:href="#SimHei-6bd4" x="1250"/>
    </g>
   </g>
   <g id="PathCollection_1">
    <defs>
     <path id="mb777799755" d="M -3 3 
L 3 -3 
M -3 -3 
L 3 3 
" style="stroke: #ff0000; stroke-width: 1.5"/>
    </defs>
    <g clip-path="url(#p839da01076)">
     <use xlink:href="#mb777799755" x="179.359206" y="353.807753" style="fill: #ff0000; stroke: #ff0000; stroke-width: 1.5"/>
     <use xlink:href="#mb777799755" x="225.397403" y="328.038401" style="fill: #ff0000; stroke: #ff0000; stroke-width: 1.5"/>
     <use xlink:href="#mb777799755" x="261.204889" y="294.809332" style="fill: #ff0000; stroke: #ff0000; stroke-width: 1.5"/>
     <use xlink:href="#mb777799755" x="305.964248" y="291.092577" style="fill: #ff0000; stroke: #ff0000; stroke-width: 1.5"/>
     <use xlink:href="#mb777799755" x="341.771734" y="280.002229" style="fill: #ff0000; stroke: #ff0000; stroke-width: 1.5"/>
     <use xlink:href="#mb777799755" x="378.85806" y="257.904744" style="fill: #ff0000; stroke: #ff0000; stroke-width: 1.5"/>
     <use xlink:href="#mb777799755" x="414.665546" y="258.362284" style="fill: #ff0000; stroke: #ff0000; stroke-width: 1.5"/>
     <use xlink:href="#mb777799755" x="450.473033" y="265.550232" style="fill: #ff0000; stroke: #ff0000; stroke-width: 1.5"/>
     <use xlink:href="#mb777799755" x="491.395875" y="217.079136" style="fill: #ff0000; stroke: #ff0000; stroke-width: 1.5"/>
     <use xlink:href="#mb777799755" x="536.155233" y="184.602138" style="fill: #ff0000; stroke: #ff0000; stroke-width: 1.5"/>
     <use xlink:href="#mb777799755" x="571.96272" y="187.53903" style="fill: #ff0000; stroke: #ff0000; stroke-width: 1.5"/>
     <use xlink:href="#mb777799755" x="607.770206" y="154.412255" style="fill: #ff0000; stroke: #ff0000; stroke-width: 1.5"/>
     <use xlink:href="#mb777799755" x="655.087242" y="128.3933" style="fill: #ff0000; stroke: #ff0000; stroke-width: 1.5"/>
     <use xlink:href="#mb777799755" x="690.894729" y="120.682344" style="fill: #ff0000; stroke: #ff0000; stroke-width: 1.5"/>
     <use xlink:href="#mb777799755" x="726.702215" y="89.67621" style="fill: #ff0000; stroke: #ff0000; stroke-width: 1.5"/>
    </g>
   </g>
   <g id="legend_1">
    <g id="patch_7">
     <path d="M 115 116.988437 
L 217 116.988437 
Q 219 116.988437 219 114.988437 
L 219 58.84 
Q 219 56.84 217 56.84 
L 115 56.84 
Q 113 56.84 113 58.84 
L 113 114.988437 
Q 113 116.988437 115 116.988437 
z
" style="fill: #ffffff; opacity: 0.8; stroke: #cccccc; stroke-linejoin: miter"/>
    </g>
    <g id="line2d_32">
     <path d="M 117 65.347812 
L 127 65.347812 
L 137 65.347812 
" style="fill: none; stroke: #1f77b4; stroke-width: 1.5; stroke-linecap: square"/>
    </g>
    <g id="text_17">
     <!-- 固定权重组合 -->
     <g transform="translate(145 68.847812) scale(0.1 -0.1)">
      <defs>
       <path id="SimHei-56fa" d="M 5800 5025 
Q 5775 4350 5775 3600 
L 5775 925 
Q 5775 150 5800 -575 
L 5300 -575 
L 5300 -250 
L 1075 -250 
L 1075 -625 
L 575 -625 
Q 600 150 600 950 
L 600 3600 
Q 600 4325 575 5025 
L 5800 5025 
z
M 5300 200 
L 5300 4575 
L 1075 4575 
L 1075 200 
L 5300 200 
z
M 4875 3025 
Q 4650 3050 4050 3050 
L 3475 3050 
L 3475 2325 
L 4575 2325 
Q 4550 1900 4550 1475 
Q 4550 1075 4575 650 
L 1900 650 
Q 1925 1050 1925 1450 
Q 1925 1875 1900 2325 
L 3000 2325 
L 3000 3050 
L 2350 3050 
Q 2125 3050 1550 3025 
L 1550 3500 
Q 2125 3475 2350 3475 
L 3000 3475 
Q 3000 3850 2975 4225 
L 3500 4225 
Q 3475 3800 3475 3475 
L 4025 3475 
Q 4525 3475 4875 3500 
L 4875 3025 
z
M 4075 1075 
L 4075 1900 
L 2375 1900 
L 2375 1075 
L 4075 1075 
z
" transform="scale(0.015625)"/>
       <path id="SimHei-5b9a" d="M 4200 3125 
Q 4675 3125 5175 3150 
L 5175 2675 
Q 4725 2700 4100 2700 
L 3550 2700 
L 3550 1700 
L 4600 1700 
Q 4875 1700 5375 1725 
L 5375 1250 
Q 4875 1275 4575 1275 
L 3550 1275 
L 3550 100 
Q 4600 -25 6050 125 
Q 5850 -200 5800 -475 
Q 4800 -475 4150 -450 
Q 3500 -425 3050 -300 
Q 2600 -175 2250 75 
Q 1900 325 1600 675 
Q 1200 -50 675 -575 
Q 450 -350 175 -250 
Q 875 300 1200 1050 
Q 1525 1800 1550 2200 
Q 1800 2050 2150 1975 
Q 2075 1875 1987 1662 
Q 1900 1450 1775 1125 
Q 1950 900 2300 612 
Q 2650 325 3050 200 
L 3050 2700 
L 2250 2700 
Q 1825 2700 1400 2675 
L 1400 3150 
Q 1825 3125 2400 3125 
L 4200 3125 
z
M 5750 4275 
Q 5725 3925 5725 3750 
Q 5725 3575 5750 3275 
L 5225 3275 
L 5225 3875 
L 1225 3875 
L 1225 3275 
L 700 3275 
Q 725 3475 725 3725 
Q 725 3975 700 4275 
L 5750 4275 
z
M 2650 5050 
Q 2875 5125 3100 5300 
Q 3375 4975 3600 4550 
Q 3250 4400 3100 4300 
Q 3050 4525 2650 5050 
z
" transform="scale(0.015625)"/>
       <path id="SimHei-6743" d="M 2700 4575 
Q 3250 4550 3725 4550 
L 5675 4550 
Q 5575 3500 5337 2737 
Q 5100 1975 4475 1075 
Q 4775 675 5200 425 
Q 5625 175 6175 0 
Q 5825 -275 5750 -500 
Q 5175 -225 4775 100 
Q 4375 425 4150 725 
Q 3825 350 3475 62 
Q 3125 -225 2500 -600 
Q 2400 -350 2100 -125 
Q 2475 0 2950 275 
Q 3425 550 3850 1075 
Q 3625 1375 3400 2037 
Q 3175 2700 3050 4125 
L 2700 4125 
L 2700 4575 
z
M 200 1350 
Q 575 1750 825 2275 
Q 1075 2800 1250 3450 
Q 825 3450 425 3425 
L 425 3875 
Q 875 3850 1325 3850 
Q 1325 4900 1300 5250 
L 1850 5250 
Q 1800 4950 1800 3850 
Q 2175 3850 2600 3875 
L 2600 3425 
Q 2175 3450 1800 3450 
L 1800 2525 
Q 1975 2625 2175 2775 
Q 2625 2175 2750 1875 
Q 2475 1725 2325 1575 
Q 2200 1925 1800 2375 
L 1800 525 
Q 1800 0 1825 -600 
L 1275 -600 
Q 1325 0 1325 525 
L 1325 2375 
Q 1125 1675 575 900 
Q 425 1225 200 1350 
z
M 3525 4150 
Q 3675 2850 3787 2412 
Q 3900 1975 4175 1475 
Q 4475 1925 4750 2587 
Q 5025 3250 5100 4150 
L 3525 4150 
z
" transform="scale(0.015625)"/>
       <path id="SimHei-91cd" d="M 5300 4575 
Q 3900 4450 3425 4400 
L 3425 3875 
L 5150 3875 
Q 5500 3875 6000 3900 
L 6000 3450 
Q 5500 3475 5150 3475 
L 3425 3475 
L 3425 3050 
L 5150 3050 
Q 5125 2675 5125 2125 
Q 5125 1575 5150 1175 
L 3425 1175 
L 3425 750 
L 4550 750 
Q 5000 750 5500 775 
L 5500 375 
Q 5025 400 4575 400 
L 3425 400 
L 3425 -50 
L 5050 -50 
Q 5475 -50 5975 -25 
L 5975 -450 
Q 5475 -425 5075 -425 
L 1475 -425 
Q 975 -425 450 -450 
L 450 -25 
Q 975 -50 1450 -50 
L 2925 -50 
L 2925 400 
L 2050 400 
Q 1450 400 950 375 
L 950 775 
Q 1600 750 2075 750 
L 2925 750 
L 2925 1175 
L 1250 1175 
Q 1275 1800 1275 2125 
Q 1275 2450 1250 3050 
L 2925 3050 
L 2925 3475 
L 1225 3475 
Q 875 3475 400 3450 
L 400 3900 
Q 875 3875 1225 3875 
L 2925 3875 
L 2925 4375 
Q 2425 4350 1075 4250 
Q 1000 4475 875 4675 
Q 2275 4700 3362 4812 
Q 4450 4925 4925 5075 
Q 5025 4825 5300 4575 
z
M 4650 2300 
L 4650 2650 
L 3425 2650 
L 3425 2300 
L 4650 2300 
z
M 2925 2300 
L 2925 2650 
L 1750 2650 
L 1750 2300 
L 2925 2300 
z
M 4625 1575 
L 4625 1900 
L 3425 1900 
L 3425 1575 
L 4625 1575 
z
M 2925 1575 
L 2925 1900 
L 1750 1900 
L 1750 1575 
L 2925 1575 
z
" transform="scale(0.015625)"/>
      </defs>
      <use xlink:href="#SimHei-56fa"/>
      <use xlink:href="#SimHei-5b9a" x="100"/>
      <use xlink:href="#SimHei-6743" x="200"/>
      <use xlink:href="#SimHei-91cd" x="300"/>
      <use xlink:href="#SimHei-7ec4" x="400"/>
      <use xlink:href="#SimHei-5408" x="500"/>
     </g>
    </g>
    <g id="line2d_33">
     <path d="M 117 79.644687 
L 127 79.644687 
L 137 79.644687 
" style="fill: none; stroke-dasharray: 5.55,2.4; stroke-dashoffset: 0; stroke: #ff7f0e; stroke-width: 1.5"/>
    </g>
    <g id="text_18">
     <!-- 一次调仓组合 -->
     <g transform="translate(145 83.144687) scale(0.1 -0.1)">
      <defs>
       <path id="SimHei-4e00" d="M 4875 2675 
Q 5525 2675 6050 2700 
L 6050 2050 
Q 5525 2075 4900 2075 
L 1600 2075 
Q 950 2075 350 2050 
L 350 2700 
Q 950 2675 1600 2675 
L 4875 2675 
z
" transform="scale(0.015625)"/>
       <path id="SimHei-6b21" d="M 4150 3025 
Q 4000 2550 4050 2187 
Q 4100 1825 4275 1450 
Q 4450 1075 4800 750 
Q 5150 425 5475 212 
Q 5800 0 6150 -150 
Q 5875 -350 5750 -625 
Q 5250 -325 4887 -25 
Q 4525 275 4275 612 
Q 4025 950 3825 1425 
Q 3525 625 2950 125 
Q 2375 -375 1850 -650 
Q 1675 -400 1475 -225 
Q 2025 0 2487 362 
Q 2950 725 3162 1100 
Q 3375 1475 3450 1825 
Q 3525 2175 3537 2400 
Q 3550 2625 3525 3125 
Q 3825 3050 4150 3025 
z
M 3700 4975 
Q 3625 4900 3475 4575 
Q 3325 4250 3250 4075 
L 5775 4075 
Q 5650 3725 5550 3362 
Q 5450 3000 5275 2500 
Q 5000 2575 4775 2600 
Q 5025 3350 5100 3650 
L 3100 3650 
Q 2975 3400 2812 3100 
Q 2650 2800 2425 2450 
Q 2275 2600 1975 2700 
Q 2300 3050 2625 3762 
Q 2950 4475 3125 5200 
Q 3450 5025 3700 4975 
z
M 2025 2000 
Q 1825 1675 1475 1087 
Q 1125 500 725 -200 
Q 500 -25 250 175 
Q 725 725 1037 1262 
Q 1350 1800 1575 2325 
Q 1750 2175 2025 2000 
z
M 900 4750 
Q 1725 3725 1950 3375 
Q 1750 3250 1500 3050 
Q 1250 3525 500 4425 
Q 700 4575 900 4750 
z
" transform="scale(0.015625)"/>
       <path id="SimHei-8c03" d="M 5950 200 
Q 5975 -300 5700 -437 
Q 5425 -575 4900 -650 
Q 4825 -350 4700 -50 
Q 5200 -75 5337 0 
Q 5475 75 5500 300 
L 5500 4525 
L 3075 4525 
L 3075 2275 
Q 3075 1225 2900 612 
Q 2725 0 2275 -650 
Q 2125 -450 1825 -300 
Q 2150 75 2312 437 
Q 2475 800 2550 1212 
Q 2625 1625 2625 2925 
Q 2625 4250 2600 4900 
L 5975 4900 
Q 5950 4525 5950 3900 
L 5950 200 
z
M 5125 1825 
Q 5100 1475 5100 1175 
Q 5100 875 5125 425 
L 3425 425 
Q 3450 875 3450 1175 
Q 3450 1475 3425 1825 
L 5125 1825 
z
M 2125 1600 
Q 2225 1375 2400 1200 
Q 2075 875 1875 650 
Q 1675 425 1325 50 
Q 1150 250 1000 400 
Q 1175 600 1175 825 
L 1175 2825 
L 950 2825 
Q 775 2825 300 2800 
L 300 3250 
Q 775 3225 950 3225 
L 1650 3225 
Q 1625 2775 1625 2225 
L 1625 1050 
Q 1750 1150 2125 1600 
z
M 4050 3675 
Q 4050 3975 4025 4300 
L 4500 4300 
Q 4475 4000 4475 3675 
Q 4750 3675 5125 3700 
L 5125 3275 
Q 4750 3300 4475 3300 
L 4475 2675 
Q 4925 2675 5225 2700 
L 5225 2250 
Q 4825 2275 4300 2275 
Q 3775 2275 3350 2250 
L 3350 2700 
Q 3775 2675 4050 2675 
L 4050 3300 
Q 3725 3300 3375 3275 
L 3375 3700 
Q 3750 3675 4050 3675 
z
M 4675 775 
L 4675 1475 
L 3875 1475 
L 3875 775 
L 4675 775 
z
M 1250 5025 
Q 1525 4700 1975 4100 
Q 1750 3975 1575 3775 
Q 1075 4525 875 4725 
Q 1075 4850 1250 5025 
z
" transform="scale(0.015625)"/>
       <path id="SimHei-4ed3" d="M 4650 2850 
Q 4625 2500 4625 2175 
L 4625 1550 
Q 4650 1100 4362 975 
Q 4075 850 3425 775 
Q 3275 1225 3150 1350 
Q 3925 1350 4025 1400 
Q 4125 1450 4125 1775 
L 4125 2425 
L 2200 2425 
L 2200 375 
Q 2225 50 2500 50 
L 4550 50 
Q 4850 50 4962 237 
Q 5075 425 5100 850 
Q 5350 625 5675 525 
Q 5525 25 5362 -187 
Q 5200 -400 4775 -400 
L 2325 -400 
Q 1700 -400 1700 200 
L 1700 1875 
Q 1700 2300 1675 2850 
L 4650 2850 
z
M 3450 4925 
Q 4500 3450 6175 3000 
Q 5900 2750 5800 2450 
Q 4225 3050 3200 4550 
Q 2325 3200 675 2275 
Q 575 2475 250 2725 
Q 1450 3225 2137 4000 
Q 2825 4775 2950 5300 
Q 3275 5200 3575 5125 
L 3450 4925 
z
" transform="scale(0.015625)"/>
      </defs>
      <use xlink:href="#SimHei-4e00"/>
      <use xlink:href="#SimHei-6b21" x="100"/>
      <use xlink:href="#SimHei-8c03" x="200"/>
      <use xlink:href="#SimHei-4ed3" x="300"/>
      <use xlink:href="#SimHei-7ec4" x="400"/>
      <use xlink:href="#SimHei-5408" x="500"/>
     </g>
    </g>
    <g id="line2d_34">
     <path d="M 117 93.941562 
L 127 93.941562 
L 137 93.941562 
" style="fill: none; stroke-dasharray: 5.55,2.4; stroke-dashoffset: 0; stroke: #2ca02c; stroke-width: 1.5"/>
    </g>
    <g id="text_19">
     <!-- 动态再平衡组合 -->
     <g transform="translate(145 97.441562) scale(0.1 -0.1)">
      <defs>
       <path id="SimHei-52a8" d="M 4125 5150 
Q 4425 5075 4700 5075 
Q 4650 4825 4637 4512 
Q 4625 4200 4625 3750 
L 6025 3750 
Q 6000 3425 5975 3025 
L 5850 175 
Q 5775 -325 5437 -437 
Q 5100 -550 4675 -600 
Q 4600 -300 4425 -50 
Q 4975 -75 5175 12 
Q 5375 100 5375 350 
L 5525 3325 
L 4625 3325 
Q 4575 2225 4462 1650 
Q 4350 1075 4112 587 
Q 3875 100 3150 -675 
Q 2900 -425 2700 -350 
Q 3175 25 3475 437 
Q 3775 850 3900 1287 
Q 4025 1725 4075 2200 
Q 4125 2675 4150 3325 
L 3725 3325 
Q 3450 3325 3075 3300 
L 3075 3775 
Q 3450 3750 3775 3750 
L 4150 3750 
L 4150 4450 
Q 4150 4800 4125 5150 
z
M 275 3025 
Q 650 3000 1175 3000 
L 2125 3000 
Q 2575 3000 3150 3025 
L 3150 2575 
Q 2575 2600 2150 2600 
L 1875 2600 
Q 1725 2200 1537 1750 
Q 1350 1300 1100 850 
Q 2075 950 2575 1050 
Q 2450 1350 2175 1800 
Q 2450 1950 2575 2050 
Q 2825 1600 3000 1287 
Q 3175 975 3375 525 
Q 3175 400 2925 275 
Q 2825 500 2750 650 
Q 1950 525 1462 450 
Q 975 375 625 250 
Q 525 500 375 725 
Q 700 925 962 1525 
Q 1225 2125 1350 2600 
L 1175 2600 
Q 650 2600 275 2575 
L 275 3025 
z
M 2000 4425 
Q 2425 4425 2950 4450 
L 2950 3975 
Q 2425 4000 2000 4000 
L 1400 4000 
Q 1000 4000 625 3975 
L 625 4450 
Q 975 4425 1375 4425 
L 2000 4425 
z
" transform="scale(0.015625)"/>
       <path id="SimHei-6001" d="M 2575 4325 
Q 2700 4800 2725 5250 
Q 3075 5125 3350 5100 
Q 3225 4875 3100 4325 
L 5025 4325 
Q 5375 4325 5825 4375 
L 5825 3850 
Q 5350 3875 5000 3875 
L 3975 3875 
Q 4225 3300 4575 2987 
Q 4925 2675 5250 2525 
Q 5575 2375 6100 2275 
Q 5800 2075 5675 1775 
Q 4900 2100 4525 2412 
Q 4150 2725 3900 3075 
Q 3650 3425 3500 3875 
L 2975 3875 
Q 2675 3200 2187 2687 
Q 1700 2175 725 1625 
Q 650 1850 300 2075 
Q 900 2275 1512 2750 
Q 2125 3225 2425 3875 
L 1300 3875 
Q 900 3875 450 3850 
L 450 4375 
Q 875 4325 1300 4325 
L 2575 4325 
z
M 2525 1350 
Q 2500 875 2500 575 
Q 2500 300 2512 150 
Q 2525 0 2800 0 
L 3825 0 
Q 4025 -25 4175 62 
Q 4325 150 4400 625 
Q 4650 450 4975 375 
Q 4775 -150 4625 -312 
Q 4475 -475 4000 -450 
L 2500 -450 
Q 2050 -400 2012 -162 
Q 1975 75 1975 425 
Q 1975 800 1950 1350 
L 2525 1350 
z
M 1425 1175 
Q 1175 450 825 -325 
Q 625 -175 325 -125 
Q 775 625 875 1375 
Q 1175 1250 1425 1175 
z
M 5175 1525 
Q 5600 950 6050 350 
Q 5800 175 5600 0 
Q 5225 700 4750 1250 
Q 5000 1350 5175 1525 
z
M 2700 3050 
Q 3175 2675 3500 2325 
Q 3275 2175 3100 1975 
Q 2825 2350 2350 2700 
L 2700 3050 
z
M 3375 1750 
Q 3625 1350 3825 925 
Q 3625 800 3375 675 
Q 3200 1175 2950 1525 
Q 3175 1600 3375 1750 
z
" transform="scale(0.015625)"/>
       <path id="SimHei-518d" d="M 4025 -125 
Q 4375 -150 4537 -125 
Q 4700 -100 4700 175 
L 4700 875 
L 1675 875 
L 1675 -650 
L 1125 -650 
Q 1175 -225 1175 200 
L 1175 875 
Q 600 875 225 850 
L 225 1325 
Q 575 1275 1175 1275 
L 1175 2825 
Q 1175 3375 1125 3700 
L 2950 3700 
L 2950 4475 
L 1550 4475 
Q 1050 4475 600 4450 
L 600 4925 
Q 1050 4900 1525 4900 
L 4850 4900 
Q 5425 4900 5775 4925 
L 5775 4450 
Q 5425 4475 4850 4475 
L 3450 4475 
L 3450 3700 
L 5225 3700 
Q 5200 3375 5200 2750 
L 5200 1275 
Q 5825 1275 6200 1325 
L 6200 850 
Q 5850 875 5200 875 
L 5200 -175 
Q 5200 -475 4950 -550 
Q 4700 -625 4250 -675 
Q 4175 -400 4025 -125 
z
M 2950 2475 
L 2950 3325 
L 1675 3325 
L 1675 2475 
L 2950 2475 
z
M 4700 2475 
L 4700 3325 
L 3450 3325 
L 3450 2475 
L 4700 2475 
z
M 2950 1275 
L 2950 2100 
L 1675 2100 
L 1675 1275 
L 2950 1275 
z
M 4700 1275 
L 4700 2100 
L 3450 2100 
L 3450 1275 
L 4700 1275 
z
" transform="scale(0.015625)"/>
       <path id="SimHei-5e73" d="M 4525 4825 
Q 4900 4825 5450 4850 
L 5450 4375 
Q 4925 4400 4525 4400 
L 3475 4400 
L 3475 2025 
L 5000 2025 
Q 5550 2025 6025 2050 
L 6025 1575 
Q 5550 1600 5000 1600 
L 3475 1600 
L 3475 450 
Q 3475 -100 3500 -600 
L 2925 -600 
Q 2950 -100 2950 450 
L 2950 1600 
L 1125 1600 
Q 775 1600 375 1575 
L 375 2050 
Q 775 2025 1175 2025 
L 2950 2025 
L 2950 4400 
L 1775 4400 
Q 1400 4400 875 4375 
L 875 4850 
Q 1400 4825 1750 4825 
L 4525 4825 
z
M 3925 2600 
Q 4500 3300 4900 4125 
Q 5150 3950 5400 3825 
Q 4775 2850 4350 2300 
Q 4150 2475 3925 2600 
z
M 1975 2350 
Q 1600 3100 1050 3725 
Q 1250 3875 1450 4050 
Q 2075 3300 2450 2725 
Q 2150 2500 1975 2350 
z
" transform="scale(0.015625)"/>
       <path id="SimHei-8861" d="M 3275 5025 
Q 3150 4950 2900 4575 
L 4050 4575 
Q 3800 4175 3575 3725 
L 4425 3725 
Q 4400 3400 4400 2775 
Q 4400 2175 4425 1800 
L 2050 1800 
Q 2075 2175 2075 2800 
Q 2075 3425 2050 3725 
L 3125 3725 
L 3375 4225 
L 2600 4225 
Q 2450 4050 2125 3750 
Q 1975 3900 1750 4050 
Q 2175 4375 2412 4687 
Q 2650 5000 2775 5275 
Q 3000 5150 3275 5025 
z
M 4575 3225 
Q 4775 3200 5175 3200 
L 5675 3200 
Q 5900 3200 6150 3225 
L 6150 2750 
Q 5950 2775 5650 2775 
L 5650 25 
Q 5650 -375 5487 -462 
Q 5325 -550 4800 -650 
Q 4775 -375 4600 -100 
Q 5000 -100 5112 -75 
Q 5225 -50 5225 250 
L 5225 2775 
Q 4800 2775 4575 2750 
L 4575 3225 
z
M 1925 3300 
Q 1725 3150 1400 2650 
L 1400 275 
Q 1400 -100 1425 -625 
L 950 -625 
Q 975 25 975 350 
L 975 2175 
Q 750 1925 475 1675 
Q 325 1900 175 2075 
Q 550 2350 925 2800 
Q 1300 3250 1475 3625 
Q 1650 3450 1925 3300 
z
M 1975 -525 
Q 1800 -250 1600 -50 
Q 2175 125 2475 412 
Q 2775 700 2825 925 
L 2525 925 
Q 2225 925 1800 900 
L 1800 1350 
Q 2175 1325 2525 1325 
L 2925 1325 
Q 2975 1525 2975 1725 
Q 3175 1675 3500 1625 
Q 3400 1475 3375 1325 
L 3925 1325 
Q 4250 1325 4600 1350 
L 4600 900 
Q 4300 925 3925 925 
L 3325 925 
L 3300 875 
Q 2875 -100 1975 -525 
z
M 1975 4775 
Q 1850 4675 1425 4200 
Q 1000 3725 650 3425 
Q 475 3675 300 3775 
Q 625 3975 987 4387 
Q 1350 4800 1525 5125 
Q 1700 4950 1975 4775 
z
M 3425 825 
Q 3850 550 4475 100 
Q 4275 -100 4150 -350 
Q 3625 150 3150 450 
Q 3300 600 3425 825 
z
M 4700 4600 
Q 4875 4575 5175 4575 
L 5625 4575 
Q 5800 4575 6000 4600 
L 6000 4175 
Q 5800 4200 5625 4200 
L 5225 4200 
Q 4900 4200 4700 4175 
L 4700 4600 
z
M 3975 2925 
L 3975 3375 
L 3425 3375 
L 3425 2925 
L 3975 2925 
z
M 3025 2925 
L 3025 3375 
L 2500 3375 
L 2500 2925 
L 3025 2925 
z
M 3975 2150 
L 3975 2575 
L 3425 2575 
L 3425 2150 
L 3975 2150 
z
M 3025 2150 
L 3025 2575 
L 2500 2575 
L 2500 2150 
L 3025 2150 
z
" transform="scale(0.015625)"/>
      </defs>
      <use xlink:href="#SimHei-52a8"/>
      <use xlink:href="#SimHei-6001" x="100"/>
      <use xlink:href="#SimHei-518d" x="200"/>
      <use xlink:href="#SimHei-5e73" x="300"/>
      <use xlink:href="#SimHei-8861" x="400"/>
      <use xlink:href="#SimHei-7ec4" x="500"/>
      <use xlink:href="#SimHei-5408" x="600"/>
     </g>
    </g>
    <g id="PathCollection_2">
     <g>
      <use xlink:href="#mb777799755" x="127" y="109.113437" style="fill: #ff0000; stroke: #ff0000; stroke-width: 1.5"/>
     </g>
    </g>
    <g id="text_20">
     <!-- 调仓日 -->
     <g transform="translate(145 111.738437) scale(0.1 -0.1)">
      <defs>
       <path id="SimHei-65e5" d="M 5375 5000 
Q 5350 3775 5350 2275 
Q 5350 775 5375 -450 
L 4800 -450 
L 4800 175 
L 1800 175 
L 1800 -575 
L 1250 -575 
Q 1275 575 1275 2125 
Q 1275 3675 1250 5000 
L 5375 5000 
z
M 4800 600 
L 4800 2375 
L 1800 2375 
L 1800 600 
L 4800 600 
z
M 4800 2800 
L 4800 4550 
L 1800 4550 
L 1800 2800 
L 4800 2800 
z
" transform="scale(0.015625)"/>
      </defs>
      <use xlink:href="#SimHei-8c03"/>
      <use xlink:href="#SimHei-4ed3" x="100"/>
      <use xlink:href="#SimHei-65e5" x="200"/>
     </g>
    </g>
   </g>
  </g>
 </g>
 <defs>
  <clipPath id="p839da01076">
   <rect x="108" y="51.84" width="669.6" height="332.64"/>
  </clipPath>
 </defs>
</svg>
