<?xml version="1.0" encoding="utf-8" standalone="no"?>
<!DOCTYPE svg PUBLIC "-//W3C//DTD SVG 1.1//EN"
  "http://www.w3.org/Graphics/SVG/1.1/DTD/svg11.dtd">
<svg xmlns:xlink="http://www.w3.org/1999/xlink" width="720pt" height="432pt" viewBox="0 0 720 432" xmlns="http://www.w3.org/2000/svg" version="1.1">
 <metadata>
  <rdf:RDF xmlns:dc="http://purl.org/dc/elements/1.1/" xmlns:cc="http://creativecommons.org/ns#" xmlns:rdf="http://www.w3.org/1999/02/22-rdf-syntax-ns#">
   <cc:Work>
    <dc:type rdf:resource="http://purl.org/dc/dcmitype/StillImage"/>
    <dc:date>2025-05-13T10:59:02.185296</dc:date>
    <dc:format>image/svg+xml</dc:format>
    <dc:creator>
     <cc:Agent>
      <dc:title>Matplotlib v3.9.2, https://matplotlib.org/</dc:title>
     </cc:Agent>
    </dc:creator>
   </cc:Work>
  </rdf:RDF>
 </metadata>
 <defs>
  <style type="text/css">*{stroke-linejoin: round; stroke-linecap: butt}</style>
 </defs>
 <g id="figure_1">
  <g id="patch_1">
   <path d="M 0 432 
L 720 432 
L 720 0 
L 0 0 
z
" style="fill: #ffffff"/>
  </g>
  <g id="axes_1">
   <g id="patch_2">
    <path d="M 61.21125 395.98375 
L 703.8 395.98375 
L 703.8 33.66375 
L 61.21125 33.66375 
z
" style="fill: #eaeaf2"/>
   </g>
   <g id="matplotlib.axis_1">
    <g id="xtick_1">
     <g id="line2d_1">
      <path d="M 173.872914 395.98375 
L 173.872914 33.66375 
" clip-path="url(#pebe80f7fd6)" style="fill: none; stroke: #ffffff; stroke-linecap: round"/>
     </g>
     <g id="text_1">
      <!-- 传统历史模拟法 -->
      <g style="fill: #262626" transform="translate(135.372914 414.378281) scale(0.11 -0.11)">
       <defs>
        <path id="SimHei-4f20" d="M 5500 1975 
Q 5025 925 4700 250 
Q 4975 100 5450 -200 
Q 5300 -375 5125 -675 
Q 4700 -375 4012 12 
Q 3325 400 3050 525 
Q 3175 750 3275 950 
Q 3600 800 4275 475 
Q 4525 975 4750 1550 
L 2800 1550 
Q 2950 2000 3125 2650 
L 2575 2650 
Q 2200 2650 1925 2625 
L 1925 3075 
Q 2250 3050 2600 3050 
L 3200 3050 
Q 3300 3525 3350 3825 
L 2975 3825 
Q 2525 3825 2250 3800 
L 2250 4250 
Q 2550 4225 2950 4225 
L 3425 4225 
Q 3525 4950 3525 5225 
Q 3850 5150 4100 5125 
Q 4025 5000 3875 4225 
L 4950 4225 
Q 5350 4225 5700 4250 
L 5700 3800 
Q 5375 3825 4925 3825 
L 3825 3825 
Q 3775 3550 3675 3050 
L 5250 3050 
Q 5750 3050 6025 3075 
L 6025 2625 
Q 5725 2650 5250 2650 
L 3600 2650 
Q 3500 2250 3425 1975 
L 5500 1975 
z
M 2225 4875 
Q 2025 4675 1650 3750 
L 1650 550 
Q 1650 -25 1675 -525 
L 1125 -525 
Q 1175 -125 1175 525 
L 1175 3000 
Q 800 2400 550 2050 
Q 450 2250 200 2450 
Q 500 2800 925 3525 
Q 1350 4250 1625 5175 
Q 1850 5050 2225 4875 
z
" transform="scale(0.015625)"/>
        <path id="SimHei-7edf" d="M 5150 4300 
Q 5525 4300 5950 4325 
L 5950 3875 
Q 5550 3900 5175 3900 
L 3775 3900 
Q 3975 3750 4250 3600 
Q 4050 3450 3837 3162 
Q 3625 2875 3225 2375 
Q 3800 2375 5025 2500 
Q 4925 2625 4625 2975 
Q 4850 3100 5025 3250 
Q 5450 2800 5950 2100 
Q 5700 1950 5525 1775 
Q 5375 1975 5275 2125 
Q 4925 2100 4825 2075 
L 4825 200 
Q 4825 -100 5075 -100 
L 5325 -100 
Q 5550 -100 5625 575 
Q 5850 400 6150 325 
Q 5925 -525 5525 -525 
L 4850 -525 
Q 4350 -525 4350 0 
L 4350 2025 
Q 4000 2000 3875 1975 
Q 3900 1050 3637 462 
Q 3375 -125 2625 -700 
Q 2500 -500 2175 -375 
Q 2575 -125 2850 175 
Q 3125 475 3275 850 
Q 3425 1225 3400 1925 
Q 3025 1900 2725 1825 
Q 2650 2200 2525 2475 
Q 2825 2500 3187 2975 
Q 3550 3450 3675 3900 
L 3275 3900 
Q 2950 3900 2475 3875 
L 2475 4325 
Q 2875 4300 3250 4300 
L 5150 4300 
z
M 1875 4825 
Q 1700 4600 1500 4250 
Q 1300 3900 900 3250 
Q 1375 3275 1650 3275 
Q 1850 3625 1975 3975 
Q 2250 3800 2550 3675 
Q 2375 3500 2075 3037 
Q 1775 2575 1225 1725 
Q 1950 1800 2500 1900 
Q 2375 1600 2375 1425 
Q 2150 1400 1587 1325 
Q 1025 1250 600 1125 
Q 525 1375 425 1625 
Q 700 1700 950 2075 
Q 1200 2450 1450 2900 
Q 1225 2875 925 2837 
Q 625 2800 425 2750 
Q 325 3000 200 3225 
Q 500 3300 862 4025 
Q 1225 4750 1275 5075 
Q 1575 4925 1875 4825 
z
M 2550 825 
Q 2525 575 2550 350 
Q 1975 200 1412 37 
Q 850 -125 550 -250 
Q 450 0 275 275 
Q 900 375 1450 500 
Q 2000 625 2550 825 
z
M 4100 5275 
Q 4375 4825 4500 4575 
Q 4325 4500 4025 4350 
Q 3825 4825 3650 5075 
Q 3950 5175 4100 5275 
z
" transform="scale(0.015625)"/>
        <path id="SimHei-5386" d="M 3725 2500 
Q 3625 1775 3487 1337 
Q 3350 900 3150 562 
Q 2950 225 2687 -62 
Q 2425 -350 2075 -625 
Q 1825 -350 1500 -225 
Q 2075 75 2387 412 
Q 2700 750 2875 1125 
Q 3050 1500 3112 1787 
Q 3175 2075 3225 2500 
L 2725 2500 
Q 2125 2500 1900 2475 
L 1900 2950 
Q 2375 2925 2675 2925 
L 3250 2925 
Q 3275 3250 3275 3550 
L 3275 4275 
Q 3625 4175 3900 4150 
Q 3825 3775 3800 3512 
Q 3775 3250 3750 2925 
L 5650 2925 
Q 5600 2550 5550 1850 
Q 5500 1150 5475 687 
Q 5450 225 5375 -50 
Q 5300 -325 4987 -412 
Q 4675 -500 4300 -550 
Q 4225 -250 4050 100 
Q 4575 75 4725 125 
Q 4875 175 4912 562 
Q 4950 950 5000 1475 
Q 5050 2000 5075 2500 
L 3725 2500 
z
M 800 -675 
Q 550 -500 225 -400 
Q 525 0 662 412 
Q 800 825 900 1412 
Q 1000 2000 1000 2725 
L 1000 3950 
Q 1000 4450 950 4825 
L 4825 4825 
Q 5375 4825 5675 4850 
L 5675 4375 
Q 5425 4400 5000 4400 
L 1500 4400 
Q 1500 2800 1487 2287 
Q 1475 1775 1412 1275 
Q 1350 775 1262 450 
Q 1175 125 1062 -162 
Q 950 -450 800 -675 
z
" transform="scale(0.015625)"/>
        <path id="SimHei-53f2" d="M 3000 4225 
Q 3000 4975 2950 5250 
Q 3350 5200 3625 5175 
Q 3525 4950 3525 4225 
L 5500 4225 
Q 5475 3775 5475 3175 
Q 5475 2600 5500 2150 
L 3500 2150 
Q 3450 1750 3362 1362 
Q 3275 975 3125 700 
Q 3450 450 3875 325 
Q 4300 200 4750 150 
Q 5200 100 6175 125 
Q 5900 -125 5850 -425 
Q 5175 -425 4700 -350 
Q 4225 -275 3787 -150 
Q 3350 -25 2775 325 
Q 2100 -150 1562 -325 
Q 1025 -500 650 -575 
Q 525 -250 275 -75 
Q 750 -50 1350 125 
Q 1950 300 2325 575 
Q 1575 1250 1225 1800 
Q 1525 1825 1750 1950 
Q 2275 1300 2675 975 
Q 2825 1275 2887 1562 
Q 2950 1850 2975 2150 
L 900 2150 
Q 925 2600 925 3175 
Q 925 3775 900 4225 
L 3000 4225 
z
M 3000 2575 
L 3000 3800 
L 1450 3800 
L 1450 2575 
L 3000 2575 
z
M 4950 2575 
L 4950 3800 
L 3525 3800 
L 3525 2575 
L 4950 2575 
z
" transform="scale(0.015625)"/>
        <path id="SimHei-6a21" d="M 5700 3675 
Q 5675 3400 5675 2725 
Q 5675 2050 5700 1725 
L 4375 1725 
Q 4350 1450 4325 1200 
L 5225 1200 
Q 5750 1200 6025 1225 
L 6025 825 
Q 5725 850 5225 850 
L 4700 850 
Q 5075 375 5437 137 
Q 5800 -100 6200 -200 
Q 5975 -375 5850 -625 
Q 5275 -400 4862 25 
Q 4450 450 4300 775 
L 4225 775 
Q 4000 275 3537 -62 
Q 3075 -400 2475 -625 
Q 2350 -375 2125 -200 
Q 2775 -75 3200 200 
Q 3625 475 3775 850 
L 3325 850 
Q 2800 850 2400 825 
L 2400 1225 
Q 2800 1200 3350 1200 
L 3875 1200 
Q 3925 1475 3925 1725 
L 2750 1725 
Q 2775 2075 2775 2700 
Q 2775 3350 2750 3675 
L 5700 3675 
z
M 2175 1650 
Q 2025 1975 1675 2525 
L 1675 300 
Q 1675 -300 1700 -550 
L 1175 -550 
Q 1200 -275 1200 250 
L 1200 2225 
Q 1125 2000 962 1712 
Q 800 1425 600 1050 
Q 450 1275 200 1425 
Q 600 1825 850 2425 
Q 1100 3025 1175 3425 
L 950 3425 
Q 700 3425 400 3400 
L 400 3825 
Q 675 3800 825 3800 
L 1200 3800 
L 1200 4350 
Q 1200 4775 1175 5150 
L 1700 5150 
Q 1675 4825 1675 4425 
L 1675 3800 
Q 2075 3800 2375 3825 
L 2375 3400 
Q 2050 3425 1675 3425 
L 1675 2575 
Q 1850 2675 2000 2775 
Q 2150 2525 2287 2325 
Q 2425 2125 2550 1925 
Q 2325 1775 2175 1650 
z
M 3375 4300 
L 3175 4300 
Q 2700 4300 2425 4275 
L 2425 4675 
Q 2700 4650 3150 4650 
L 3375 4650 
Q 3375 5000 3350 5225 
L 3825 5225 
Q 3800 5000 3800 4650 
L 4550 4650 
Q 4550 4975 4525 5200 
L 5025 5200 
Q 5000 4925 5000 4650 
L 5375 4650 
Q 5650 4650 5950 4675 
L 5950 4275 
Q 5650 4300 5375 4300 
L 5000 4300 
L 5000 3850 
L 4550 3850 
L 4550 4300 
L 3800 4300 
L 3800 3875 
L 3375 3875 
L 3375 4300 
z
M 5275 2075 
L 5275 2525 
L 3200 2525 
L 3200 2075 
L 5275 2075 
z
M 5275 2875 
L 5275 3325 
L 3200 3325 
L 3200 2875 
L 5275 2875 
z
" transform="scale(0.015625)"/>
        <path id="SimHei-62df" d="M 1675 125 
Q 1675 -175 1500 -275 
Q 1325 -375 800 -500 
Q 750 -225 575 0 
Q 1225 25 1225 275 
L 1225 1875 
Q 700 1625 475 1500 
Q 375 1800 250 1975 
Q 525 2050 1225 2325 
L 1225 3550 
Q 725 3550 350 3525 
L 350 4000 
Q 700 3950 1225 3950 
Q 1225 4625 1200 5225 
L 1725 5225 
Q 1675 4550 1675 3950 
Q 2025 3950 2325 3975 
L 2325 3525 
Q 1975 3550 1675 3550 
L 1675 2475 
Q 2150 2675 2300 2800 
Q 2300 2550 2325 2325 
Q 2125 2250 1675 2050 
L 1675 125 
z
M 4950 5050 
Q 5275 5025 5500 5000 
Q 5425 4650 5450 3337 
Q 5475 2025 5250 1275 
Q 5850 550 6200 -50 
Q 5975 -225 5775 -400 
Q 5525 100 5050 800 
Q 4800 450 4437 112 
Q 4075 -225 3325 -650 
Q 3175 -450 2925 -250 
Q 3425 -25 3900 325 
Q 4375 675 4612 1050 
Q 4850 1425 4925 2150 
Q 5000 2875 4950 5050 
z
M 2500 700 
Q 2675 875 2675 1200 
L 2675 3475 
Q 2675 3925 2650 4400 
L 3175 4400 
Q 3125 3975 3125 3500 
L 3125 1175 
Q 3775 1850 4050 2200 
Q 4150 1925 4300 1725 
Q 4025 1500 2900 300 
L 2500 700 
z
M 3800 5100 
Q 4375 4025 4575 3550 
Q 4250 3400 4100 3300 
Q 3850 3875 3375 4875 
Q 3575 4950 3800 5100 
z
" transform="scale(0.015625)"/>
        <path id="SimHei-6cd5" d="M 6075 -300 
Q 5850 -425 5625 -625 
Q 5450 -300 5325 -125 
Q 4525 -175 3587 -262 
Q 2650 -350 2325 -450 
Q 2250 -150 2125 75 
Q 2450 175 2825 725 
Q 3200 1275 3500 2100 
L 2800 2100 
Q 2350 2100 1950 2075 
L 1950 2525 
Q 2350 2500 2825 2500 
L 3725 2500 
L 3725 3600 
L 3150 3600 
Q 2675 3600 2325 3575 
L 2325 4025 
Q 2725 4000 3125 4000 
L 3725 4000 
Q 3725 4700 3700 5150 
L 4250 5150 
Q 4225 4775 4225 4000 
L 4975 4000 
Q 5350 4000 5750 4025 
L 5750 3575 
Q 5350 3600 5025 3600 
L 4225 3600 
L 4225 2500 
L 5125 2500 
Q 5575 2500 6025 2525 
L 6025 2075 
Q 5575 2100 5125 2100 
L 3850 2100 
L 4100 1950 
Q 3950 1775 3625 1200 
Q 3300 625 2900 100 
Q 4000 150 5075 225 
Q 4775 675 4450 1025 
Q 4650 1175 4825 1350 
Q 5275 800 6075 -300 
z
M 300 -250 
Q 650 100 1012 625 
Q 1375 1150 1725 1725 
Q 1850 1500 2075 1375 
Q 1850 1075 1500 487 
Q 1150 -100 850 -625 
Q 650 -425 300 -250 
z
M 675 3425 
Q 1200 3100 1800 2650 
Q 1575 2500 1400 2250 
Q 925 2675 350 3050 
Q 525 3200 675 3425 
z
M 1050 4900 
Q 1550 4575 2100 4125 
Q 1900 3975 1725 3725 
Q 1250 4175 725 4525 
Q 900 4700 1050 4900 
z
" transform="scale(0.015625)"/>
       </defs>
       <use xlink:href="#SimHei-4f20"/>
       <use xlink:href="#SimHei-7edf" x="100"/>
       <use xlink:href="#SimHei-5386" x="200"/>
       <use xlink:href="#SimHei-53f2" x="300"/>
       <use xlink:href="#SimHei-6a21" x="400"/>
       <use xlink:href="#SimHei-62df" x="500"/>
       <use xlink:href="#SimHei-6cd5" x="600"/>
      </g>
     </g>
    </g>
    <g id="xtick_2">
     <g id="line2d_2">
      <path d="M 382.505625 395.98375 
L 382.505625 33.66375 
" clip-path="url(#pebe80f7fd6)" style="fill: none; stroke: #ffffff; stroke-linecap: round"/>
     </g>
     <g id="text_2">
      <!-- 时间加权法 -->
      <g style="fill: #262626" transform="translate(355.005625 414.292344) scale(0.11 -0.11)">
       <defs>
        <path id="SimHei-65f6" d="M 2525 4575 
Q 2500 3675 2500 2400 
Q 2500 1125 2525 400 
L 2000 400 
L 2000 875 
L 1000 875 
L 1000 50 
L 475 50 
Q 500 1200 500 2350 
Q 500 3525 475 4575 
L 2525 4575 
z
M 4875 3825 
Q 4875 4575 4850 5225 
L 5400 5225 
Q 5375 4575 5375 3825 
Q 5750 3825 6175 3850 
L 6175 3375 
Q 5750 3400 5375 3400 
L 5375 50 
Q 5375 -325 5075 -425 
Q 4775 -525 4300 -575 
Q 4300 -275 4025 0 
Q 4500 -50 4687 -25 
Q 4875 0 4875 300 
L 4875 3400 
Q 3625 3400 2775 3375 
L 2775 3850 
Q 3575 3825 4875 3825 
z
M 2000 1300 
L 2000 2550 
L 1000 2550 
L 1000 1300 
L 2000 1300 
z
M 2000 2975 
L 2000 4150 
L 1000 4150 
L 1000 2975 
L 2000 2975 
z
M 3550 2725 
Q 3875 2200 4175 1600 
Q 3925 1525 3650 1375 
Q 3450 1975 3075 2500 
Q 3300 2600 3550 2725 
z
" transform="scale(0.015625)"/>
        <path id="SimHei-95f4" d="M 4450 3550 
Q 4425 3075 4425 2725 
L 4425 1400 
Q 4425 1075 4450 625 
L 1925 625 
Q 1950 1075 1950 1425 
L 1950 2725 
Q 1950 3075 1925 3550 
L 4450 3550 
z
M 5800 4875 
Q 5775 4400 5775 3925 
L 5775 250 
Q 5800 -325 5462 -450 
Q 5125 -575 4725 -625 
Q 4700 -325 4525 -25 
Q 5000 -50 5137 25 
Q 5275 100 5275 350 
L 5275 4450 
L 3775 4450 
Q 3175 4450 2650 4425 
L 2650 4900 
Q 3175 4875 3775 4875 
L 5800 4875 
z
M 550 -525 
Q 600 -25 600 525 
L 600 3150 
Q 600 3675 550 4025 
L 1125 4025 
Q 1100 3650 1100 3300 
L 1100 500 
Q 1100 0 1125 -525 
L 550 -525 
z
M 3950 1025 
L 3950 1950 
L 2425 1950 
L 2425 1025 
L 3950 1025 
z
M 3950 2350 
L 3950 3150 
L 2425 3150 
L 2425 2350 
L 3950 2350 
z
M 1525 5300 
Q 1750 5000 2225 4350 
Q 1950 4225 1700 4075 
Q 1450 4575 1075 5025 
Q 1350 5225 1525 5300 
z
" transform="scale(0.015625)"/>
        <path id="SimHei-52a0" d="M 5700 4150 
Q 5675 3625 5675 3100 
L 5675 900 
Q 5675 300 5700 -350 
L 5225 -350 
L 5225 225 
L 4150 225 
L 4150 -475 
L 3675 -475 
Q 3700 25 3700 550 
L 3700 3100 
Q 3700 3600 3675 4150 
L 5700 4150 
z
M 3125 225 
Q 3050 -250 2725 -337 
Q 2400 -425 2025 -450 
Q 2025 -225 1875 125 
Q 2300 100 2475 137 
Q 2650 175 2675 425 
L 2850 3425 
L 1975 3425 
Q 1925 2450 1812 1875 
Q 1700 1300 1562 875 
Q 1425 450 1187 37 
Q 950 -375 775 -600 
Q 600 -400 275 -250 
Q 750 225 987 787 
Q 1225 1350 1312 1837 
Q 1400 2325 1425 2637 
Q 1450 2950 1475 3425 
L 1125 3425 
Q 850 3425 550 3400 
L 550 3900 
Q 825 3850 1175 3850 
L 1500 3850 
Q 1525 4375 1525 4475 
Q 1525 4600 1500 5075 
Q 1775 5050 2125 5025 
Q 2075 4825 2050 4600 
Q 2025 4375 2000 3850 
L 3350 3850 
Q 3325 3650 3325 3425 
L 3125 225 
z
M 5225 725 
L 5225 3700 
L 4150 3700 
L 4150 725 
L 5225 725 
z
" transform="scale(0.015625)"/>
        <path id="SimHei-6743" d="M 2700 4575 
Q 3250 4550 3725 4550 
L 5675 4550 
Q 5575 3500 5337 2737 
Q 5100 1975 4475 1075 
Q 4775 675 5200 425 
Q 5625 175 6175 0 
Q 5825 -275 5750 -500 
Q 5175 -225 4775 100 
Q 4375 425 4150 725 
Q 3825 350 3475 62 
Q 3125 -225 2500 -600 
Q 2400 -350 2100 -125 
Q 2475 0 2950 275 
Q 3425 550 3850 1075 
Q 3625 1375 3400 2037 
Q 3175 2700 3050 4125 
L 2700 4125 
L 2700 4575 
z
M 200 1350 
Q 575 1750 825 2275 
Q 1075 2800 1250 3450 
Q 825 3450 425 3425 
L 425 3875 
Q 875 3850 1325 3850 
Q 1325 4900 1300 5250 
L 1850 5250 
Q 1800 4950 1800 3850 
Q 2175 3850 2600 3875 
L 2600 3425 
Q 2175 3450 1800 3450 
L 1800 2525 
Q 1975 2625 2175 2775 
Q 2625 2175 2750 1875 
Q 2475 1725 2325 1575 
Q 2200 1925 1800 2375 
L 1800 525 
Q 1800 0 1825 -600 
L 1275 -600 
Q 1325 0 1325 525 
L 1325 2375 
Q 1125 1675 575 900 
Q 425 1225 200 1350 
z
M 3525 4150 
Q 3675 2850 3787 2412 
Q 3900 1975 4175 1475 
Q 4475 1925 4750 2587 
Q 5025 3250 5100 4150 
L 3525 4150 
z
" transform="scale(0.015625)"/>
       </defs>
       <use xlink:href="#SimHei-65f6"/>
       <use xlink:href="#SimHei-95f4" x="100"/>
       <use xlink:href="#SimHei-52a0" x="200"/>
       <use xlink:href="#SimHei-6743" x="300"/>
       <use xlink:href="#SimHei-6cd5" x="400"/>
      </g>
     </g>
    </g>
    <g id="xtick_3">
     <g id="line2d_3">
      <path d="M 591.138336 395.98375 
L 591.138336 33.66375 
" clip-path="url(#pebe80f7fd6)" style="fill: none; stroke: #ffffff; stroke-linecap: round"/>
     </g>
     <g id="text_3">
      <!-- 波动率加权法 -->
      <g style="fill: #262626" transform="translate(558.138336 414.292344) scale(0.11 -0.11)">
       <defs>
        <path id="SimHei-6ce2" d="M 5075 3275 
Q 5175 3600 5225 3850 
L 4325 3850 
L 4325 2750 
L 5550 2750 
Q 5400 2100 5125 1512 
Q 4850 925 4525 550 
Q 4775 350 5200 175 
Q 5625 0 6175 -100 
Q 5900 -300 5775 -600 
Q 5250 -425 4800 -175 
Q 4350 75 4200 225 
Q 3950 25 3537 -212 
Q 3125 -450 2500 -675 
Q 2375 -500 2050 -375 
Q 2525 -250 3062 25 
Q 3600 300 3850 550 
Q 3325 1300 3075 2325 
L 2825 2325 
Q 2800 1400 2487 725 
Q 2175 50 1875 -300 
Q 1700 -150 1375 -50 
Q 1750 325 1950 712 
Q 2150 1100 2262 1475 
Q 2375 1850 2387 2825 
Q 2400 3800 2350 4275 
L 3875 4275 
Q 3875 4850 3850 5200 
L 4350 5200 
Q 4325 4900 4325 4275 
L 5850 4275 
Q 5825 4125 5750 3837 
Q 5675 3550 5600 3200 
Q 5300 3250 5075 3275 
z
M 3525 2325 
Q 3800 1400 4200 925 
Q 4650 1475 4925 2325 
L 3525 2325 
z
M 1950 1700 
Q 1700 1375 1262 712 
Q 825 50 675 -200 
Q 475 50 225 275 
Q 525 525 937 1100 
Q 1350 1675 1550 2100 
L 1950 1700 
z
M 3875 2750 
L 3875 3850 
L 2850 3850 
L 2850 2750 
L 3875 2750 
z
M 925 4925 
Q 1600 4525 2000 4250 
Q 1800 4025 1675 3800 
Q 1250 4150 625 4500 
Q 775 4700 925 4925 
z
M 600 3525 
Q 1125 3250 1725 2850 
Q 1525 2675 1400 2425 
Q 925 2825 350 3100 
Q 450 3275 600 3525 
z
" transform="scale(0.015625)"/>
        <path id="SimHei-52a8" d="M 4125 5150 
Q 4425 5075 4700 5075 
Q 4650 4825 4637 4512 
Q 4625 4200 4625 3750 
L 6025 3750 
Q 6000 3425 5975 3025 
L 5850 175 
Q 5775 -325 5437 -437 
Q 5100 -550 4675 -600 
Q 4600 -300 4425 -50 
Q 4975 -75 5175 12 
Q 5375 100 5375 350 
L 5525 3325 
L 4625 3325 
Q 4575 2225 4462 1650 
Q 4350 1075 4112 587 
Q 3875 100 3150 -675 
Q 2900 -425 2700 -350 
Q 3175 25 3475 437 
Q 3775 850 3900 1287 
Q 4025 1725 4075 2200 
Q 4125 2675 4150 3325 
L 3725 3325 
Q 3450 3325 3075 3300 
L 3075 3775 
Q 3450 3750 3775 3750 
L 4150 3750 
L 4150 4450 
Q 4150 4800 4125 5150 
z
M 275 3025 
Q 650 3000 1175 3000 
L 2125 3000 
Q 2575 3000 3150 3025 
L 3150 2575 
Q 2575 2600 2150 2600 
L 1875 2600 
Q 1725 2200 1537 1750 
Q 1350 1300 1100 850 
Q 2075 950 2575 1050 
Q 2450 1350 2175 1800 
Q 2450 1950 2575 2050 
Q 2825 1600 3000 1287 
Q 3175 975 3375 525 
Q 3175 400 2925 275 
Q 2825 500 2750 650 
Q 1950 525 1462 450 
Q 975 375 625 250 
Q 525 500 375 725 
Q 700 925 962 1525 
Q 1225 2125 1350 2600 
L 1175 2600 
Q 650 2600 275 2575 
L 275 3025 
z
M 2000 4425 
Q 2425 4425 2950 4450 
L 2950 3975 
Q 2425 4000 2000 4000 
L 1400 4000 
Q 1000 4000 625 3975 
L 625 4450 
Q 975 4425 1375 4425 
L 2000 4425 
z
" transform="scale(0.015625)"/>
        <path id="SimHei-7387" d="M 3325 5150 
Q 3425 4900 3550 4525 
L 4800 4525 
Q 5250 4525 5800 4550 
L 5800 4125 
Q 5250 4175 4775 4175 
L 2800 4175 
Q 2975 4050 3300 3900 
Q 3075 3750 2875 3537 
Q 2675 3325 2475 3125 
L 3275 3125 
Q 3575 3425 3775 3775 
Q 4000 3600 4275 3425 
Q 3950 3250 3600 2875 
Q 3250 2500 2625 2000 
L 3850 2100 
Q 3725 2250 3600 2425 
Q 3750 2475 4000 2650 
Q 4250 2350 4700 1700 
Q 4475 1625 4225 1450 
Q 4175 1600 4025 1775 
Q 3700 1750 3425 1750 
L 3425 1050 
L 5150 1050 
Q 5675 1050 6100 1075 
L 6100 650 
Q 5700 675 5125 675 
L 3425 675 
L 3425 175 
Q 3425 -300 3450 -625 
L 2900 -625 
Q 2925 -300 2925 175 
L 2925 675 
L 1325 675 
Q 825 675 325 650 
L 325 1075 
Q 825 1050 1350 1050 
L 2925 1050 
L 2925 1700 
Q 2700 1675 2475 1637 
Q 2250 1600 2025 1525 
Q 1950 1775 1850 2000 
Q 2075 2025 2325 2200 
Q 2575 2375 2975 2800 
Q 2300 2725 2025 2625 
Q 1975 2875 1850 3175 
Q 2075 3175 2325 3487 
Q 2575 3800 2750 4175 
L 1700 4175 
Q 1150 4175 650 4125 
L 650 4550 
Q 1150 4525 1550 4525 
L 2975 4525 
Q 2900 4825 2800 5025 
Q 3025 5075 3325 5150 
z
M 1625 2575 
Q 1725 2400 1825 2200 
Q 1575 2050 1325 1862 
Q 1075 1675 800 1425 
Q 625 1675 475 1875 
Q 800 2025 1100 2212 
Q 1400 2400 1625 2575 
z
M 4850 2650 
Q 5125 2475 5337 2337 
Q 5550 2200 5875 1950 
Q 5675 1800 5500 1600 
Q 5300 1775 5062 1975 
Q 4825 2175 4575 2325 
Q 4725 2475 4850 2650 
z
M 5725 3525 
Q 5550 3450 5300 3262 
Q 5050 3075 4800 2825 
Q 4625 3050 4475 3175 
Q 4700 3325 4875 3487 
Q 5050 3650 5300 3925 
Q 5525 3700 5725 3525 
z
M 1050 3850 
Q 1425 3600 1775 3275 
Q 1575 3100 1425 2925 
Q 1075 3300 675 3525 
Q 875 3700 1050 3850 
z
" transform="scale(0.015625)"/>
       </defs>
       <use xlink:href="#SimHei-6ce2"/>
       <use xlink:href="#SimHei-52a8" x="100"/>
       <use xlink:href="#SimHei-7387" x="200"/>
       <use xlink:href="#SimHei-52a0" x="300"/>
       <use xlink:href="#SimHei-6743" x="400"/>
       <use xlink:href="#SimHei-6cd5" x="500"/>
      </g>
     </g>
    </g>
   </g>
   <g id="matplotlib.axis_2">
    <g id="ytick_1">
     <g id="line2d_4">
      <path d="M 61.21125 395.98375 
L 703.8 395.98375 
" clip-path="url(#pebe80f7fd6)" style="fill: none; stroke: #ffffff; stroke-linecap: round"/>
     </g>
     <g id="text_4">
      <!-- 0.0 -->
      <g style="fill: #262626" transform="translate(31.08625 400.710312) scale(0.1375 -0.1375)">
       <defs>
        <path id="SimHei-30" d="M 225 2537 
Q 250 3200 412 3587 
Q 575 3975 875 4225 
Q 1175 4475 1612 4475 
Q 2050 4475 2375 4112 
Q 2700 3750 2800 3200 
Q 2900 2650 2862 1937 
Q 2825 1225 2612 775 
Q 2400 325 1975 150 
Q 1550 -25 1125 187 
Q 700 400 525 750 
Q 350 1100 275 1487 
Q 200 1875 225 2537 
z
M 750 2687 
Q 675 2000 800 1462 
Q 925 925 1212 700 
Q 1500 475 1800 612 
Q 2100 750 2237 1162 
Q 2375 1575 2375 2062 
Q 2375 2550 2337 2950 
Q 2300 3350 2112 3675 
Q 1925 4000 1612 4012 
Q 1300 4025 1062 3700 
Q 825 3375 750 2687 
z
" transform="scale(0.015625)"/>
        <path id="SimHei-2e" d="M 1075 125 
L 500 125 
L 500 675 
L 1075 675 
L 1075 125 
z
" transform="scale(0.015625)"/>
       </defs>
       <use xlink:href="#SimHei-30"/>
       <use xlink:href="#SimHei-2e" x="50"/>
       <use xlink:href="#SimHei-30" x="100"/>
      </g>
     </g>
    </g>
    <g id="ytick_2">
     <g id="line2d_5">
      <path d="M 61.21125 322.840985 
L 703.8 322.840985 
" clip-path="url(#pebe80f7fd6)" style="fill: none; stroke: #ffffff; stroke-linecap: round"/>
     </g>
     <g id="text_5">
      <!-- 0.5 -->
      <g style="fill: #262626" transform="translate(31.08625 327.567548) scale(0.1375 -0.1375)">
       <defs>
        <path id="SimHei-35" d="M 550 1325 
Q 725 650 1150 575 
Q 1575 500 1837 662 
Q 2100 825 2212 1087 
Q 2325 1350 2312 1675 
Q 2300 2000 2137 2225 
Q 1975 2450 1725 2525 
Q 1475 2600 1162 2525 
Q 850 2450 650 2175 
L 225 2225 
Q 275 2375 700 4375 
L 2675 4375 
L 2675 3925 
L 1075 3925 
Q 950 3250 825 2850 
Q 1200 3025 1525 3012 
Q 1850 3000 2150 2862 
Q 2450 2725 2587 2487 
Q 2725 2250 2787 2012 
Q 2850 1775 2837 1500 
Q 2825 1225 2725 937 
Q 2625 650 2425 462 
Q 2225 275 1937 162 
Q 1650 50 1275 75 
Q 900 100 562 350 
Q 225 600 100 1200 
L 550 1325 
z
" transform="scale(0.015625)"/>
       </defs>
       <use xlink:href="#SimHei-30"/>
       <use xlink:href="#SimHei-2e" x="50"/>
       <use xlink:href="#SimHei-35" x="100"/>
      </g>
     </g>
    </g>
    <g id="ytick_3">
     <g id="line2d_6">
      <path d="M 61.21125 249.69822 
L 703.8 249.69822 
" clip-path="url(#pebe80f7fd6)" style="fill: none; stroke: #ffffff; stroke-linecap: round"/>
     </g>
     <g id="text_6">
      <!-- 1.0 -->
      <g style="fill: #262626" transform="translate(31.08625 254.424783) scale(0.1375 -0.1375)">
       <defs>
        <path id="SimHei-31" d="M 1400 3600 
Q 1075 3275 575 2975 
L 575 3450 
Q 1200 3875 1600 4450 
L 1900 4450 
L 1900 150 
L 1400 150 
L 1400 3600 
z
" transform="scale(0.015625)"/>
       </defs>
       <use xlink:href="#SimHei-31"/>
       <use xlink:href="#SimHei-2e" x="50"/>
       <use xlink:href="#SimHei-30" x="100"/>
      </g>
     </g>
    </g>
    <g id="ytick_4">
     <g id="line2d_7">
      <path d="M 61.21125 176.555455 
L 703.8 176.555455 
" clip-path="url(#pebe80f7fd6)" style="fill: none; stroke: #ffffff; stroke-linecap: round"/>
     </g>
     <g id="text_7">
      <!-- 1.5 -->
      <g style="fill: #262626" transform="translate(31.08625 181.282018) scale(0.1375 -0.1375)">
       <use xlink:href="#SimHei-31"/>
       <use xlink:href="#SimHei-2e" x="50"/>
       <use xlink:href="#SimHei-35" x="100"/>
      </g>
     </g>
    </g>
    <g id="ytick_5">
     <g id="line2d_8">
      <path d="M 61.21125 103.412691 
L 703.8 103.412691 
" clip-path="url(#pebe80f7fd6)" style="fill: none; stroke: #ffffff; stroke-linecap: round"/>
     </g>
     <g id="text_8">
      <!-- 2.0 -->
      <g style="fill: #262626" transform="translate(31.08625 108.139253) scale(0.1375 -0.1375)">
       <defs>
        <path id="SimHei-32" d="M 300 250 
Q 325 625 650 925 
Q 975 1225 1475 1862 
Q 1975 2500 2125 2850 
Q 2275 3200 2237 3450 
Q 2200 3700 2000 3862 
Q 1800 4025 1537 4000 
Q 1275 3975 1037 3800 
Q 800 3625 675 3275 
L 200 3350 
Q 400 3925 712 4187 
Q 1025 4450 1450 4475 
Q 1700 4500 1900 4462 
Q 2100 4425 2312 4287 
Q 2525 4150 2662 3875 
Q 2800 3600 2762 3212 
Q 2725 2825 2375 2287 
Q 2025 1750 1025 600 
L 2825 600 
L 2825 150 
L 300 150 
L 300 250 
z
" transform="scale(0.015625)"/>
       </defs>
       <use xlink:href="#SimHei-32"/>
       <use xlink:href="#SimHei-2e" x="50"/>
       <use xlink:href="#SimHei-30" x="100"/>
      </g>
     </g>
    </g>
    <g id="text_9">
     <!-- VaR（万元） -->
     <g style="fill: #262626" transform="translate(25.58625 247.82375) rotate(-90) scale(0.12 -0.12)">
      <defs>
       <path id="SimHei-56" d="M 3050 4400 
L 1800 75 
L 1300 75 
L 50 4400 
L 650 4400 
L 1525 1125 
L 1575 1125 
L 2450 4400 
L 3050 4400 
z
" transform="scale(0.015625)"/>
       <path id="SimHei-61" d="M 2875 125 
L 2275 125 
Q 2225 175 2200 262 
Q 2175 350 2175 475 
Q 2000 275 1750 175 
Q 1500 75 1225 75 
Q 825 75 550 275 
Q 275 475 275 850 
Q 275 1225 525 1450 
Q 775 1675 1300 1750 
Q 1650 1800 1912 1875 
Q 2175 1950 2175 2075 
Q 2175 2225 2062 2375 
Q 1950 2525 1575 2525 
Q 1275 2525 1137 2412 
Q 1000 2300 950 2100 
L 400 2100 
Q 450 2500 762 2737 
Q 1075 2975 1575 2975 
Q 2125 2975 2400 2725 
Q 2675 2475 2675 2025 
L 2675 650 
Q 2675 500 2725 375 
Q 2775 250 2875 125 
z
M 2175 1050 
L 2175 1550 
Q 2025 1500 1887 1462 
Q 1750 1425 1425 1375 
Q 1050 1325 937 1200 
Q 825 1075 825 900 
Q 825 750 937 637 
Q 1050 525 1275 525 
Q 1500 525 1762 650 
Q 2025 775 2175 1050 
z
" transform="scale(0.015625)"/>
       <path id="SimHei-52" d="M 3000 125 
L 2400 125 
L 1500 1975 
L 850 1975 
L 850 125 
L 275 125 
L 275 4400 
L 1525 4400 
Q 2125 4400 2500 4112 
Q 2875 3825 2875 3175 
Q 2875 2675 2625 2400 
Q 2375 2125 2050 2050 
L 3000 125 
z
M 2300 3175 
Q 2300 3525 2087 3725 
Q 1875 3925 1400 3925 
L 850 3925 
L 850 2450 
L 1550 2450 
Q 1850 2450 2075 2612 
Q 2300 2775 2300 3175 
z
" transform="scale(0.015625)"/>
       <path id="SimHei-ff08" d="M 5425 5100 
L 5700 4775 
Q 4275 3725 4325 2350 
Q 4350 1025 5675 50 
L 5400 -275 
Q 3875 825 3925 2500 
Q 3925 3875 5425 5100 
z
" transform="scale(0.015625)"/>
       <path id="SimHei-4e07" d="M 3650 -550 
Q 3550 -175 3400 25 
Q 3925 0 4137 50 
Q 4350 100 4400 225 
Q 4450 350 4487 812 
Q 4525 1275 4600 2625 
L 2675 2625 
Q 2350 550 900 -600 
Q 675 -325 400 -250 
Q 1125 200 1700 1237 
Q 2275 2275 2275 4250 
L 1525 4250 
Q 975 4250 550 4225 
L 550 4700 
Q 950 4675 1550 4675 
L 4950 4675 
Q 5500 4675 5950 4700 
L 5950 4225 
Q 5500 4250 4950 4250 
L 2800 4250 
Q 2775 3625 2725 3075 
L 5150 3075 
Q 5000 775 4950 287 
Q 4900 -200 4550 -350 
Q 4200 -500 3650 -550 
z
" transform="scale(0.015625)"/>
       <path id="SimHei-5143" d="M 4900 3175 
Q 5200 3175 5650 3200 
L 5650 2675 
Q 5200 2700 4900 2700 
L 4075 2700 
L 4075 425 
Q 4075 75 4450 75 
L 5175 75 
Q 5425 75 5525 775 
Q 5800 600 6075 550 
Q 5950 -325 5300 -375 
L 4150 -375 
Q 3575 -375 3575 225 
L 3575 2700 
L 2675 2700 
Q 2775 400 900 -600 
Q 725 -375 400 -175 
Q 2250 500 2150 2700 
L 1500 2700 
Q 1125 2700 650 2675 
L 650 3200 
Q 1125 3175 1500 3175 
L 4900 3175 
z
M 4450 4775 
Q 4675 4775 5150 4800 
L 5150 4325 
Q 4700 4350 4450 4350 
L 1875 4350 
Q 1575 4350 1200 4325 
L 1200 4800 
Q 1575 4775 1850 4775 
L 4450 4775 
z
" transform="scale(0.015625)"/>
       <path id="SimHei-ff09" d="M 1000 5100 
Q 2500 3875 2500 2500 
Q 2550 825 1025 -275 
L 750 50 
Q 2075 1025 2100 2350 
Q 2150 3725 725 4775 
L 1000 5100 
z
" transform="scale(0.015625)"/>
      </defs>
      <use xlink:href="#SimHei-56"/>
      <use xlink:href="#SimHei-61" x="50"/>
      <use xlink:href="#SimHei-52" x="100"/>
      <use xlink:href="#SimHei-ff08" x="150"/>
      <use xlink:href="#SimHei-4e07" x="250"/>
      <use xlink:href="#SimHei-5143" x="350"/>
      <use xlink:href="#SimHei-ff09" x="450"/>
     </g>
    </g>
   </g>
   <g id="patch_3">
    <path d="M 90.41983 395.98375 
L 257.325998 395.98375 
L 257.325998 94.050417 
L 90.41983 94.050417 
z
" clip-path="url(#pebe80f7fd6)" style="fill: #4c72b0; opacity: 0.8; stroke: #ffffff; stroke-linejoin: miter"/>
   </g>
   <g id="patch_4">
    <path d="M 299.052541 395.98375 
L 465.958709 395.98375 
L 465.958709 197.766857 
L 299.052541 197.766857 
z
" clip-path="url(#pebe80f7fd6)" style="fill: #55a868; opacity: 0.8; stroke: #ffffff; stroke-linejoin: miter"/>
   </g>
   <g id="patch_5">
    <path d="M 507.685252 395.98375 
L 674.59142 395.98375 
L 674.59142 229.218246 
L 507.685252 229.218246 
z
" clip-path="url(#pebe80f7fd6)" style="fill: #c44e52; opacity: 0.8; stroke: #ffffff; stroke-linejoin: miter"/>
   </g>
   <g id="patch_6">
    <path d="M 61.21125 395.98375 
L 61.21125 33.66375 
" style="fill: none; stroke: #ffffff; stroke-width: 1.25; stroke-linejoin: miter; stroke-linecap: square"/>
   </g>
   <g id="patch_7">
    <path d="M 703.8 395.98375 
L 703.8 33.66375 
" style="fill: none; stroke: #ffffff; stroke-width: 1.25; stroke-linejoin: miter; stroke-linecap: square"/>
   </g>
   <g id="patch_8">
    <path d="M 61.21125 395.98375 
L 703.8 395.98375 
" style="fill: none; stroke: #ffffff; stroke-width: 1.25; stroke-linejoin: miter; stroke-linecap: square"/>
   </g>
   <g id="patch_9">
    <path d="M 61.21125 33.66375 
L 703.8 33.66375 
" style="fill: none; stroke: #ffffff; stroke-width: 1.25; stroke-linejoin: miter; stroke-linecap: square"/>
   </g>
   <g id="text_10">
    <!-- 2.06万 -->
    <g style="fill: #262626" transform="translate(155.872914 92.550417) scale(0.12 -0.12)">
     <defs>
      <path id="SimHei-36" d="M 250 1612 
Q 275 1975 387 2225 
Q 500 2475 725 2850 
L 1750 4450 
L 2325 4450 
L 1275 2800 
Q 1950 2975 2350 2750 
Q 2750 2525 2887 2237 
Q 3025 1950 3037 1612 
Q 3050 1275 2937 950 
Q 2825 625 2537 362 
Q 2250 100 1737 75 
Q 1225 50 862 262 
Q 500 475 362 862 
Q 225 1250 250 1612 
z
M 1025 787 
Q 1250 550 1625 525 
Q 2000 500 2250 775 
Q 2500 1050 2500 1575 
Q 2500 2100 2187 2300 
Q 1875 2500 1487 2450 
Q 1100 2400 925 2075 
Q 750 1750 775 1387 
Q 800 1025 1025 787 
z
" transform="scale(0.015625)"/>
     </defs>
     <use xlink:href="#SimHei-32"/>
     <use xlink:href="#SimHei-2e" x="50"/>
     <use xlink:href="#SimHei-30" x="100"/>
     <use xlink:href="#SimHei-36" x="150"/>
     <use xlink:href="#SimHei-4e07" x="200"/>
    </g>
   </g>
   <g id="text_11">
    <!-- 1.35万 -->
    <g style="fill: #262626" transform="translate(364.505625 196.266857) scale(0.12 -0.12)">
     <defs>
      <path id="SimHei-33" d="M 250 1225 
L 700 1300 
Q 800 975 1025 762 
Q 1250 550 1587 562 
Q 1925 575 2125 837 
Q 2325 1100 2300 1437 
Q 2275 1775 2037 1962 
Q 1800 2150 1275 2225 
L 1275 2550 
Q 1800 2600 2037 2825 
Q 2275 3050 2250 3412 
Q 2225 3775 1925 3937 
Q 1625 4100 1287 3975 
Q 950 3850 750 3275 
L 300 3350 
Q 450 3800 712 4100 
Q 975 4400 1425 4450 
Q 1875 4500 2212 4337 
Q 2550 4175 2687 3837 
Q 2825 3500 2725 3100 
Q 2625 2700 2150 2400 
Q 2500 2250 2687 1950 
Q 2875 1650 2812 1162 
Q 2750 675 2375 375 
Q 2000 75 1525 87 
Q 1050 100 700 387 
Q 350 675 250 1225 
z
" transform="scale(0.015625)"/>
     </defs>
     <use xlink:href="#SimHei-31"/>
     <use xlink:href="#SimHei-2e" x="50"/>
     <use xlink:href="#SimHei-33" x="100"/>
     <use xlink:href="#SimHei-35" x="150"/>
     <use xlink:href="#SimHei-4e07" x="200"/>
    </g>
   </g>
   <g id="text_12">
    <!-- 1.14万 -->
    <g style="fill: #262626" transform="translate(573.138336 227.718246) scale(0.12 -0.12)">
     <defs>
      <path id="SimHei-34" d="M 2000 1100 
L 75 1100 
L 75 1525 
L 2100 4450 
L 2475 4450 
L 2475 1525 
L 3075 1525 
L 3075 1100 
L 2475 1100 
L 2475 150 
L 2000 150 
L 2000 1100 
z
M 2000 1525 
L 2000 3500 
L 600 1525 
L 2000 1525 
z
" transform="scale(0.015625)"/>
     </defs>
     <use xlink:href="#SimHei-31"/>
     <use xlink:href="#SimHei-2e" x="50"/>
     <use xlink:href="#SimHei-31" x="100"/>
     <use xlink:href="#SimHei-34" x="150"/>
     <use xlink:href="#SimHei-4e07" x="200"/>
    </g>
   </g>
   <g id="text_13">
    <!-- 三种VaR方法对比（99%置信水平，1日VaR） -->
    <g style="fill: #262626" transform="translate(249.505625 27.66375) scale(0.14 -0.14)">
     <defs>
      <path id="SimHei-4e09" d="M 6000 -200 
Q 5550 -175 5200 -175 
L 1300 -175 
Q 900 -175 375 -200 
L 375 350 
Q 850 325 1300 325 
L 5200 325 
Q 5575 325 6000 375 
L 6000 -200 
z
M 900 4600 
Q 1400 4575 1825 4575 
L 4600 4575 
Q 5075 4575 5475 4600 
L 5475 4075 
Q 5100 4100 4600 4100 
L 1800 4100 
Q 1375 4100 900 4075 
L 900 4600 
z
M 2075 2100 
Q 1700 2100 1275 2075 
L 1275 2625 
Q 1675 2600 2075 2600 
L 4225 2600 
Q 4600 2600 5050 2625 
L 5050 2075 
Q 4550 2100 4225 2100 
L 2075 2100 
z
" transform="scale(0.015625)"/>
      <path id="SimHei-79cd" d="M 4225 4000 
Q 4225 4975 4200 5275 
L 4725 5275 
Q 4700 5000 4700 4000 
L 6000 4000 
Q 5975 3725 5975 3250 
L 5975 1550 
Q 5975 1275 6000 925 
L 5500 925 
L 5500 1425 
L 4700 1425 
L 4700 375 
Q 4700 -275 4725 -700 
L 4200 -700 
Q 4225 -275 4225 375 
L 4225 1425 
L 3425 1425 
L 3425 825 
L 2925 825 
Q 2950 1125 2950 1500 
L 2950 3200 
Q 2950 3725 2925 4000 
L 4225 4000 
z
M 350 3250 
Q 725 3225 1225 3225 
L 1425 3225 
L 1425 4325 
Q 1175 4250 575 4125 
Q 475 4350 350 4575 
Q 900 4600 1412 4737 
Q 1925 4875 2350 5100 
Q 2500 4900 2725 4625 
Q 2475 4600 2300 4550 
Q 2125 4500 1900 4450 
L 1900 3225 
Q 2225 3225 2700 3250 
L 2700 2800 
Q 2225 2825 1900 2825 
L 1900 225 
Q 1900 -125 1925 -650 
L 1400 -650 
Q 1425 -125 1425 225 
L 1425 1875 
Q 1225 1375 1062 1075 
Q 900 775 625 350 
Q 425 625 250 850 
Q 600 1225 887 1725 
Q 1175 2225 1300 2825 
L 925 2825 
Q 575 2825 350 2800 
L 350 3250 
z
M 4225 1825 
L 4225 3600 
L 3425 3600 
L 3425 1825 
L 4225 1825 
z
M 5500 1825 
L 5500 3600 
L 4700 3600 
L 4700 1825 
L 5500 1825 
z
M 2375 2475 
Q 2450 2300 2575 2125 
Q 2700 1950 2850 1625 
Q 2625 1525 2425 1375 
Q 2300 1650 2212 1837 
Q 2125 2025 1975 2225 
Q 2125 2325 2375 2475 
z
" transform="scale(0.015625)"/>
      <path id="SimHei-65b9" d="M 425 3975 
Q 825 3950 1300 3950 
L 5025 3950 
Q 5625 3950 6000 3975 
L 6000 3475 
Q 5675 3500 5100 3500 
L 2525 3500 
Q 2525 3225 2500 2500 
L 5300 2500 
Q 5250 2175 5200 1550 
L 5050 175 
Q 5000 -275 4625 -412 
Q 4250 -550 3525 -625 
Q 3500 -300 3325 -50 
Q 3900 -75 4200 0 
Q 4500 75 4575 425 
L 4725 2050 
L 2475 2050 
Q 2375 1350 2162 875 
Q 1950 400 1575 0 
Q 1200 -400 825 -700 
Q 725 -550 375 -350 
Q 700 -175 1062 200 
Q 1425 575 1662 1050 
Q 1900 1525 1962 2100 
Q 2025 2675 2025 3500 
L 1325 3500 
Q 775 3500 425 3475 
L 425 3975 
z
M 3075 4075 
Q 2850 4575 2575 5000 
Q 2800 5125 3025 5275 
Q 3300 4850 3575 4350 
Q 3325 4250 3075 4075 
z
" transform="scale(0.015625)"/>
      <path id="SimHei-5bf9" d="M 525 4250 
Q 900 4225 1400 4225 
L 2825 4225 
Q 2575 2625 2200 1750 
Q 2825 875 3125 400 
Q 2950 275 2725 75 
Q 2200 975 1950 1300 
Q 1650 775 1350 425 
Q 1050 75 600 -350 
Q 425 -125 200 -25 
Q 625 275 975 675 
Q 1325 1075 1650 1700 
Q 1050 2425 550 2900 
Q 700 3025 900 3225 
Q 1625 2425 1875 2150 
Q 2200 3050 2300 3825 
L 1400 3825 
Q 900 3825 525 3800 
L 525 4250 
z
M 2925 3700 
Q 3525 3675 3750 3675 
L 4825 3675 
L 4825 4425 
Q 4825 4750 4775 5125 
L 5350 5125 
Q 5325 4825 5325 4375 
L 5325 3675 
Q 5575 3675 6150 3700 
L 6150 3250 
Q 5575 3275 5325 3275 
L 5325 125 
Q 5350 -350 5012 -475 
Q 4675 -600 4250 -650 
Q 4175 -350 4025 -100 
Q 4575 -100 4712 -37 
Q 4850 25 4825 325 
L 4825 3275 
L 3775 3275 
Q 3550 3275 2925 3225 
L 2925 3700 
z
M 3450 2725 
Q 3875 1975 4175 1325 
Q 3850 1200 3700 1075 
Q 3475 1750 3050 2475 
Q 3225 2550 3450 2725 
z
" transform="scale(0.015625)"/>
      <path id="SimHei-6bd4" d="M 3775 5100 
Q 3750 4575 3750 4100 
L 3750 3050 
Q 4925 3600 5475 4175 
Q 5675 3900 5900 3675 
Q 5600 3500 5037 3187 
Q 4475 2875 3750 2550 
L 3750 450 
Q 3750 100 4050 100 
L 5000 100 
Q 5175 100 5262 250 
Q 5350 400 5450 900 
Q 5650 775 6025 675 
Q 5850 0 5650 -175 
Q 5450 -350 5225 -350 
L 3900 -350 
Q 3250 -350 3250 275 
L 3250 4000 
Q 3250 4550 3225 5100 
L 3775 5100 
z
M 1275 4975 
Q 1250 4575 1250 4000 
L 1250 3150 
L 1850 3150 
Q 2325 3150 2875 3175 
L 2875 2650 
Q 2325 2675 1850 2675 
L 1250 2675 
L 1250 475 
Q 1650 650 1962 812 
Q 2275 975 2850 1275 
Q 2900 950 2950 750 
Q 2375 475 1762 175 
Q 1150 -125 925 -325 
Q 750 -100 575 200 
Q 700 300 750 600 
L 750 3950 
Q 750 4550 725 4975 
L 1275 4975 
z
" transform="scale(0.015625)"/>
      <path id="SimHei-39" d="M 800 75 
Q 1350 1000 1700 1750 
Q 1075 1650 662 1912 
Q 250 2175 162 2625 
Q 75 3075 175 3437 
Q 275 3800 487 4037 
Q 700 4275 1000 4375 
Q 1300 4475 1537 4475 
Q 1775 4475 2025 4375 
Q 2275 4275 2475 4075 
Q 2675 3875 2750 3662 
Q 2825 3450 2825 3112 
Q 2825 2775 2575 2250 
Q 2325 1725 1350 75 
L 800 75 
z
M 662 2875 
Q 700 2550 937 2337 
Q 1175 2125 1450 2150 
Q 1725 2175 1887 2300 
Q 2050 2425 2200 2725 
Q 2300 3100 2250 3362 
Q 2200 3625 1987 3800 
Q 1775 3975 1525 3975 
Q 1375 4000 1137 3900 
Q 900 3800 762 3500 
Q 625 3200 662 2875 
z
" transform="scale(0.015625)"/>
      <path id="SimHei-25" d="M 1400 3325 
Q 1400 2600 1187 2400 
Q 975 2200 775 2200 
Q 575 2200 362 2400 
Q 150 2600 150 3325 
Q 150 4050 362 4250 
Q 575 4450 775 4450 
Q 975 4450 1187 4250 
Q 1400 4050 1400 3325 
z
M 2625 4375 
L 700 75 
L 500 150 
L 2425 4450 
L 2625 4375 
z
M 2975 1200 
Q 2975 475 2762 275 
Q 2550 75 2350 75 
Q 2150 75 1937 275 
Q 1725 475 1725 1200 
Q 1725 1925 1937 2125 
Q 2150 2325 2350 2325 
Q 2550 2325 2762 2125 
Q 2975 1925 2975 1200 
z
M 1000 3325 
Q 1000 3775 950 3925 
Q 900 4075 775 4075 
Q 650 4075 600 3925 
Q 550 3775 550 3325 
Q 550 2875 600 2725 
Q 650 2575 775 2575 
Q 900 2575 950 2725 
Q 1000 2875 1000 3325 
z
M 2575 1200 
Q 2575 1650 2525 1800 
Q 2475 1950 2350 1950 
Q 2225 1950 2175 1800 
Q 2125 1650 2125 1200 
Q 2125 750 2175 600 
Q 2225 450 2350 450 
Q 2475 450 2525 600 
Q 2575 750 2575 1200 
z
" transform="scale(0.015625)"/>
      <path id="SimHei-7f6e" d="M 3600 3650 
Q 3525 3475 3475 3325 
L 4750 3325 
Q 5100 3325 5675 3350 
L 5675 2925 
Q 5125 2950 4750 2950 
L 3400 2950 
L 3350 2600 
L 5000 2600 
Q 4975 1975 4975 1550 
L 4975 -50 
Q 5575 -50 6025 -25 
L 6025 -400 
Q 5475 -375 5000 -375 
L 1400 -375 
Q 900 -375 400 -400 
L 400 -25 
Q 925 -50 1450 -50 
L 1450 1550 
Q 1450 1975 1425 2600 
L 2875 2600 
L 2925 2950 
L 1600 2950 
Q 1150 2950 650 2925 
L 650 3350 
Q 1150 3325 1600 3325 
L 2975 3325 
Q 3000 3525 3000 3700 
Q 3250 3650 3600 3650 
z
M 5575 4950 
Q 5550 4600 5550 4300 
Q 5550 4000 5575 3775 
L 900 3775 
Q 925 4075 925 4325 
Q 925 4600 900 4950 
L 5575 4950 
z
M 4575 1900 
L 4575 2250 
L 1850 2250 
L 1850 1900 
L 4575 1900 
z
M 4575 1250 
L 4575 1575 
L 1850 1575 
L 1850 1250 
L 4575 1250 
z
M 4575 -50 
L 4575 275 
L 1850 275 
L 1850 -50 
L 4575 -50 
z
M 4575 625 
L 4575 875 
L 1850 875 
L 1850 625 
L 4575 625 
z
M 3700 4100 
L 3700 4625 
L 2700 4625 
L 2700 4100 
L 3700 4100 
z
M 5075 4100 
L 5075 4625 
L 4100 4625 
L 4100 4100 
L 5075 4100 
z
M 2350 4100 
L 2350 4625 
L 1400 4625 
L 1400 4100 
L 2350 4100 
z
" transform="scale(0.015625)"/>
      <path id="SimHei-4fe1" d="M 5650 1575 
Q 5625 1275 5625 575 
Q 5625 -100 5650 -450 
L 5175 -450 
L 5175 -25 
L 3025 -25 
L 3025 -550 
L 2525 -550 
Q 2550 -175 2550 500 
Q 2550 1200 2525 1575 
L 5650 1575 
z
M 2125 4975 
Q 1975 4825 1650 3975 
L 1650 550 
Q 1650 -200 1675 -625 
L 1125 -625 
Q 1200 -175 1200 575 
L 1200 3100 
Q 900 2500 625 2100 
Q 475 2350 250 2500 
Q 525 2800 925 3562 
Q 1325 4325 1525 5175 
Q 1800 5075 2125 4975 
z
M 5175 375 
L 5175 1225 
L 3025 1225 
L 3025 375 
L 5175 375 
z
M 6075 3900 
Q 5575 3925 4100 3925 
Q 2625 3925 2100 3900 
L 2100 4325 
L 6075 4325 
L 6075 3900 
z
M 5700 3000 
Q 5275 3025 4150 3025 
Q 3025 3025 2475 3000 
L 2475 3425 
Q 2950 3400 4100 3400 
Q 5275 3400 5700 3425 
L 5700 3000 
z
M 5700 2125 
Q 5350 2150 4175 2150 
Q 3025 2150 2475 2125 
L 2475 2550 
Q 3000 2525 4175 2525 
Q 5375 2525 5700 2550 
L 5700 2125 
z
M 4025 5200 
Q 4100 5050 4175 4875 
Q 4250 4700 4325 4500 
Q 4100 4425 3875 4375 
Q 3700 4900 3575 5025 
Q 3825 5125 4025 5200 
z
" transform="scale(0.015625)"/>
      <path id="SimHei-6c34" d="M 3450 5175 
Q 3450 4800 3437 4500 
Q 3425 4200 3487 3762 
Q 3550 3325 3950 2725 
Q 4975 3575 5175 4050 
Q 5450 3800 5675 3575 
Q 5350 3350 5037 3075 
Q 4725 2800 4175 2325 
Q 4375 1900 4900 1375 
Q 5425 850 6175 625 
Q 5750 425 5675 125 
Q 4725 700 4212 1400 
Q 3700 2100 3425 2800 
L 3425 25 
Q 3450 -325 3162 -475 
Q 2875 -625 2400 -675 
Q 2375 -400 2175 -75 
Q 2575 -150 2750 -100 
Q 2925 -50 2925 225 
L 2925 4175 
Q 2925 4800 2875 5175 
L 3450 5175 
z
M 2550 3575 
Q 2425 2900 2237 2362 
Q 2050 1825 1737 1300 
Q 1425 775 750 100 
Q 575 325 225 450 
Q 925 950 1337 1600 
Q 1750 2250 1950 3125 
L 1275 3125 
Q 900 3125 425 3075 
L 425 3600 
Q 875 3575 1250 3575 
L 2550 3575 
z
" transform="scale(0.015625)"/>
      <path id="SimHei-5e73" d="M 4525 4825 
Q 4900 4825 5450 4850 
L 5450 4375 
Q 4925 4400 4525 4400 
L 3475 4400 
L 3475 2025 
L 5000 2025 
Q 5550 2025 6025 2050 
L 6025 1575 
Q 5550 1600 5000 1600 
L 3475 1600 
L 3475 450 
Q 3475 -100 3500 -600 
L 2925 -600 
Q 2950 -100 2950 450 
L 2950 1600 
L 1125 1600 
Q 775 1600 375 1575 
L 375 2050 
Q 775 2025 1175 2025 
L 2950 2025 
L 2950 4400 
L 1775 4400 
Q 1400 4400 875 4375 
L 875 4850 
Q 1400 4825 1750 4825 
L 4525 4825 
z
M 3925 2600 
Q 4500 3300 4900 4125 
Q 5150 3950 5400 3825 
Q 4775 2850 4350 2300 
Q 4150 2475 3925 2600 
z
M 1975 2350 
Q 1600 3100 1050 3725 
Q 1250 3875 1450 4050 
Q 2075 3300 2450 2725 
Q 2150 2500 1975 2350 
z
" transform="scale(0.015625)"/>
      <path id="SimHei-ff0c" d="M 875 950 
L 1775 950 
L 1775 -50 
Q 1700 -675 1150 -975 
L 900 -750 
Q 1350 -500 1350 0 
L 875 0 
L 875 950 
z
" transform="scale(0.015625)"/>
      <path id="SimHei-65e5" d="M 5375 5000 
Q 5350 3775 5350 2275 
Q 5350 775 5375 -450 
L 4800 -450 
L 4800 175 
L 1800 175 
L 1800 -575 
L 1250 -575 
Q 1275 575 1275 2125 
Q 1275 3675 1250 5000 
L 5375 5000 
z
M 4800 600 
L 4800 2375 
L 1800 2375 
L 1800 600 
L 4800 600 
z
M 4800 2800 
L 4800 4550 
L 1800 4550 
L 1800 2800 
L 4800 2800 
z
" transform="scale(0.015625)"/>
     </defs>
     <use xlink:href="#SimHei-4e09"/>
     <use xlink:href="#SimHei-79cd" x="100"/>
     <use xlink:href="#SimHei-56" x="200"/>
     <use xlink:href="#SimHei-61" x="250"/>
     <use xlink:href="#SimHei-52" x="300"/>
     <use xlink:href="#SimHei-65b9" x="350"/>
     <use xlink:href="#SimHei-6cd5" x="450"/>
     <use xlink:href="#SimHei-5bf9" x="550"/>
     <use xlink:href="#SimHei-6bd4" x="650"/>
     <use xlink:href="#SimHei-ff08" x="750"/>
     <use xlink:href="#SimHei-39" x="850"/>
     <use xlink:href="#SimHei-39" x="900"/>
     <use xlink:href="#SimHei-25" x="950"/>
     <use xlink:href="#SimHei-7f6e" x="1000"/>
     <use xlink:href="#SimHei-4fe1" x="1100"/>
     <use xlink:href="#SimHei-6c34" x="1200"/>
     <use xlink:href="#SimHei-5e73" x="1300"/>
     <use xlink:href="#SimHei-ff0c" x="1400"/>
     <use xlink:href="#SimHei-31" x="1500"/>
     <use xlink:href="#SimHei-65e5" x="1550"/>
     <use xlink:href="#SimHei-56" x="1650"/>
     <use xlink:href="#SimHei-61" x="1700"/>
     <use xlink:href="#SimHei-52" x="1750"/>
     <use xlink:href="#SimHei-ff09" x="1800"/>
    </g>
   </g>
  </g>
 </g>
 <defs>
  <clipPath id="pebe80f7fd6">
   <rect x="61.21125" y="33.66375" width="642.58875" height="362.32"/>
  </clipPath>
 </defs>
</svg>
