<?xml version="1.0" encoding="utf-8" standalone="no"?>
<!DOCTYPE svg PUBLIC "-//W3C//DTD SVG 1.1//EN"
  "http://www.w3.org/Graphics/SVG/1.1/DTD/svg11.dtd">
<svg xmlns:xlink="http://www.w3.org/1999/xlink" width="856.27875pt" height="424.350872pt" viewBox="0 0 856.27875 424.350872" xmlns="http://www.w3.org/2000/svg" version="1.1">
 <metadata>
  <rdf:RDF xmlns:dc="http://purl.org/dc/elements/1.1/" xmlns:cc="http://creativecommons.org/ns#" xmlns:rdf="http://www.w3.org/1999/02/22-rdf-syntax-ns#">
   <cc:Work>
    <dc:type rdf:resource="http://purl.org/dc/dcmitype/StillImage"/>
    <dc:date>2025-05-17T19:12:55.528789</dc:date>
    <dc:format>image/svg+xml</dc:format>
    <dc:creator>
     <cc:Agent>
      <dc:title>Matplotlib v3.9.2, https://matplotlib.org/</dc:title>
     </cc:Agent>
    </dc:creator>
   </cc:Work>
  </rdf:RDF>
 </metadata>
 <defs>
  <style type="text/css">*{stroke-linejoin: round; stroke-linecap: butt}</style>
 </defs>
 <g id="figure_1">
  <g id="patch_1">
   <path d="M 0 424.350872 
L 856.27875 424.350872 
L 856.27875 0 
L 0 0 
z
" style="fill: #ffffff"/>
  </g>
  <g id="axes_1">
   <g id="patch_2">
    <path d="M 50.2625 364.880041 
L 849.07875 364.880041 
L 849.07875 7.2 
L 50.2625 7.2 
z
" style="fill: #f8f9fa"/>
   </g>
   <g id="matplotlib.axis_1">
    <g id="xtick_1">
     <g id="line2d_1">
      <path d="M 91.149199 364.880041 
L 91.149199 7.2 
" clip-path="url(#pf5fbc7c5a3)" style="fill: none; stroke-dasharray: 1.85,0.8; stroke-dashoffset: 0; stroke: #adb5bd; stroke-opacity: 0.7; stroke-width: 0.5"/>
     </g>
     <g id="line2d_2">
      <defs>
       <path id="m14146cf071" d="M 0 0 
L 0 3.5 
" style="stroke: #6c757d; stroke-width: 0.8"/>
      </defs>
      <g>
       <use xlink:href="#m14146cf071" x="91.149199" y="364.880041" style="fill: #6c757d; stroke: #6c757d; stroke-width: 0.8"/>
      </g>
     </g>
     <g id="text_1">
      <!-- 2024-01 -->
      <g style="fill: #6c757d" transform="translate(60.21331 395.333965) rotate(-30) scale(0.1 -0.1)">
       <defs>
        <path id="SimHei-32" d="M 300 250 
Q 325 625 650 925 
Q 975 1225 1475 1862 
Q 1975 2500 2125 2850 
Q 2275 3200 2237 3450 
Q 2200 3700 2000 3862 
Q 1800 4025 1537 4000 
Q 1275 3975 1037 3800 
Q 800 3625 675 3275 
L 200 3350 
Q 400 3925 712 4187 
Q 1025 4450 1450 4475 
Q 1700 4500 1900 4462 
Q 2100 4425 2312 4287 
Q 2525 4150 2662 3875 
Q 2800 3600 2762 3212 
Q 2725 2825 2375 2287 
Q 2025 1750 1025 600 
L 2825 600 
L 2825 150 
L 300 150 
L 300 250 
z
" transform="scale(0.015625)"/>
        <path id="SimHei-30" d="M 225 2537 
Q 250 3200 412 3587 
Q 575 3975 875 4225 
Q 1175 4475 1612 4475 
Q 2050 4475 2375 4112 
Q 2700 3750 2800 3200 
Q 2900 2650 2862 1937 
Q 2825 1225 2612 775 
Q 2400 325 1975 150 
Q 1550 -25 1125 187 
Q 700 400 525 750 
Q 350 1100 275 1487 
Q 200 1875 225 2537 
z
M 750 2687 
Q 675 2000 800 1462 
Q 925 925 1212 700 
Q 1500 475 1800 612 
Q 2100 750 2237 1162 
Q 2375 1575 2375 2062 
Q 2375 2550 2337 2950 
Q 2300 3350 2112 3675 
Q 1925 4000 1612 4012 
Q 1300 4025 1062 3700 
Q 825 3375 750 2687 
z
" transform="scale(0.015625)"/>
        <path id="SimHei-34" d="M 2000 1100 
L 75 1100 
L 75 1525 
L 2100 4450 
L 2475 4450 
L 2475 1525 
L 3075 1525 
L 3075 1100 
L 2475 1100 
L 2475 150 
L 2000 150 
L 2000 1100 
z
M 2000 1525 
L 2000 3500 
L 600 1525 
L 2000 1525 
z
" transform="scale(0.015625)"/>
        <path id="SimHei-2d" d="M 2975 2125 
L 125 2125 
L 125 2525 
L 2975 2525 
L 2975 2125 
z
" transform="scale(0.015625)"/>
        <path id="SimHei-31" d="M 1400 3600 
Q 1075 3275 575 2975 
L 575 3450 
Q 1200 3875 1600 4450 
L 1900 4450 
L 1900 150 
L 1400 150 
L 1400 3600 
z
" transform="scale(0.015625)"/>
       </defs>
       <use xlink:href="#SimHei-32"/>
       <use xlink:href="#SimHei-30" x="50"/>
       <use xlink:href="#SimHei-32" x="100"/>
       <use xlink:href="#SimHei-34" x="150"/>
       <use xlink:href="#SimHei-2d" x="200"/>
       <use xlink:href="#SimHei-30" x="250"/>
       <use xlink:href="#SimHei-31" x="300"/>
      </g>
     </g>
    </g>
    <g id="xtick_2">
     <g id="line2d_3">
      <path d="M 182.686584 364.880041 
L 182.686584 7.2 
" clip-path="url(#pf5fbc7c5a3)" style="fill: none; stroke-dasharray: 1.85,0.8; stroke-dashoffset: 0; stroke: #adb5bd; stroke-opacity: 0.7; stroke-width: 0.5"/>
     </g>
     <g id="line2d_4">
      <g>
       <use xlink:href="#m14146cf071" x="182.686584" y="364.880041" style="fill: #6c757d; stroke: #6c757d; stroke-width: 0.8"/>
      </g>
     </g>
     <g id="text_2">
      <!-- 2024-03 -->
      <g style="fill: #6c757d" transform="translate(151.750695 395.333965) rotate(-30) scale(0.1 -0.1)">
       <defs>
        <path id="SimHei-33" d="M 250 1225 
L 700 1300 
Q 800 975 1025 762 
Q 1250 550 1587 562 
Q 1925 575 2125 837 
Q 2325 1100 2300 1437 
Q 2275 1775 2037 1962 
Q 1800 2150 1275 2225 
L 1275 2550 
Q 1800 2600 2037 2825 
Q 2275 3050 2250 3412 
Q 2225 3775 1925 3937 
Q 1625 4100 1287 3975 
Q 950 3850 750 3275 
L 300 3350 
Q 450 3800 712 4100 
Q 975 4400 1425 4450 
Q 1875 4500 2212 4337 
Q 2550 4175 2687 3837 
Q 2825 3500 2725 3100 
Q 2625 2700 2150 2400 
Q 2500 2250 2687 1950 
Q 2875 1650 2812 1162 
Q 2750 675 2375 375 
Q 2000 75 1525 87 
Q 1050 100 700 387 
Q 350 675 250 1225 
z
" transform="scale(0.015625)"/>
       </defs>
       <use xlink:href="#SimHei-32"/>
       <use xlink:href="#SimHei-30" x="50"/>
       <use xlink:href="#SimHei-32" x="100"/>
       <use xlink:href="#SimHei-34" x="150"/>
       <use xlink:href="#SimHei-2d" x="200"/>
       <use xlink:href="#SimHei-30" x="250"/>
       <use xlink:href="#SimHei-33" x="300"/>
      </g>
     </g>
    </g>
    <g id="xtick_3">
     <g id="line2d_5">
      <path d="M 275.749593 364.880041 
L 275.749593 7.2 
" clip-path="url(#pf5fbc7c5a3)" style="fill: none; stroke-dasharray: 1.85,0.8; stroke-dashoffset: 0; stroke: #adb5bd; stroke-opacity: 0.7; stroke-width: 0.5"/>
     </g>
     <g id="line2d_6">
      <g>
       <use xlink:href="#m14146cf071" x="275.749593" y="364.880041" style="fill: #6c757d; stroke: #6c757d; stroke-width: 0.8"/>
      </g>
     </g>
     <g id="text_3">
      <!-- 2024-05 -->
      <g style="fill: #6c757d" transform="translate(244.813704 395.333965) rotate(-30) scale(0.1 -0.1)">
       <defs>
        <path id="SimHei-35" d="M 550 1325 
Q 725 650 1150 575 
Q 1575 500 1837 662 
Q 2100 825 2212 1087 
Q 2325 1350 2312 1675 
Q 2300 2000 2137 2225 
Q 1975 2450 1725 2525 
Q 1475 2600 1162 2525 
Q 850 2450 650 2175 
L 225 2225 
Q 275 2375 700 4375 
L 2675 4375 
L 2675 3925 
L 1075 3925 
Q 950 3250 825 2850 
Q 1200 3025 1525 3012 
Q 1850 3000 2150 2862 
Q 2450 2725 2587 2487 
Q 2725 2250 2787 2012 
Q 2850 1775 2837 1500 
Q 2825 1225 2725 937 
Q 2625 650 2425 462 
Q 2225 275 1937 162 
Q 1650 50 1275 75 
Q 900 100 562 350 
Q 225 600 100 1200 
L 550 1325 
z
" transform="scale(0.015625)"/>
       </defs>
       <use xlink:href="#SimHei-32"/>
       <use xlink:href="#SimHei-30" x="50"/>
       <use xlink:href="#SimHei-32" x="100"/>
       <use xlink:href="#SimHei-34" x="150"/>
       <use xlink:href="#SimHei-2d" x="200"/>
       <use xlink:href="#SimHei-30" x="250"/>
       <use xlink:href="#SimHei-35" x="300"/>
      </g>
     </g>
    </g>
    <g id="xtick_4">
     <g id="line2d_7">
      <path d="M 368.812601 364.880041 
L 368.812601 7.2 
" clip-path="url(#pf5fbc7c5a3)" style="fill: none; stroke-dasharray: 1.85,0.8; stroke-dashoffset: 0; stroke: #adb5bd; stroke-opacity: 0.7; stroke-width: 0.5"/>
     </g>
     <g id="line2d_8">
      <g>
       <use xlink:href="#m14146cf071" x="368.812601" y="364.880041" style="fill: #6c757d; stroke: #6c757d; stroke-width: 0.8"/>
      </g>
     </g>
     <g id="text_4">
      <!-- 2024-07 -->
      <g style="fill: #6c757d" transform="translate(337.876712 395.333965) rotate(-30) scale(0.1 -0.1)">
       <defs>
        <path id="SimHei-37" d="M 850 150 
Q 1300 2050 2425 3925 
L 275 3925 
L 275 4375 
L 2950 4375 
L 2950 3950 
Q 1775 2050 1400 150 
L 850 150 
z
" transform="scale(0.015625)"/>
       </defs>
       <use xlink:href="#SimHei-32"/>
       <use xlink:href="#SimHei-30" x="50"/>
       <use xlink:href="#SimHei-32" x="100"/>
       <use xlink:href="#SimHei-34" x="150"/>
       <use xlink:href="#SimHei-2d" x="200"/>
       <use xlink:href="#SimHei-30" x="250"/>
       <use xlink:href="#SimHei-37" x="300"/>
      </g>
     </g>
    </g>
    <g id="xtick_5">
     <g id="line2d_9">
      <path d="M 463.401233 364.880041 
L 463.401233 7.2 
" clip-path="url(#pf5fbc7c5a3)" style="fill: none; stroke-dasharray: 1.85,0.8; stroke-dashoffset: 0; stroke: #adb5bd; stroke-opacity: 0.7; stroke-width: 0.5"/>
     </g>
     <g id="line2d_10">
      <g>
       <use xlink:href="#m14146cf071" x="463.401233" y="364.880041" style="fill: #6c757d; stroke: #6c757d; stroke-width: 0.8"/>
      </g>
     </g>
     <g id="text_5">
      <!-- 2024-09 -->
      <g style="fill: #6c757d" transform="translate(432.465344 395.333965) rotate(-30) scale(0.1 -0.1)">
       <defs>
        <path id="SimHei-39" d="M 800 75 
Q 1350 1000 1700 1750 
Q 1075 1650 662 1912 
Q 250 2175 162 2625 
Q 75 3075 175 3437 
Q 275 3800 487 4037 
Q 700 4275 1000 4375 
Q 1300 4475 1537 4475 
Q 1775 4475 2025 4375 
Q 2275 4275 2475 4075 
Q 2675 3875 2750 3662 
Q 2825 3450 2825 3112 
Q 2825 2775 2575 2250 
Q 2325 1725 1350 75 
L 800 75 
z
M 662 2875 
Q 700 2550 937 2337 
Q 1175 2125 1450 2150 
Q 1725 2175 1887 2300 
Q 2050 2425 2200 2725 
Q 2300 3100 2250 3362 
Q 2200 3625 1987 3800 
Q 1775 3975 1525 3975 
Q 1375 4000 1137 3900 
Q 900 3800 762 3500 
Q 625 3200 662 2875 
z
" transform="scale(0.015625)"/>
       </defs>
       <use xlink:href="#SimHei-32"/>
       <use xlink:href="#SimHei-30" x="50"/>
       <use xlink:href="#SimHei-32" x="100"/>
       <use xlink:href="#SimHei-34" x="150"/>
       <use xlink:href="#SimHei-2d" x="200"/>
       <use xlink:href="#SimHei-30" x="250"/>
       <use xlink:href="#SimHei-39" x="300"/>
      </g>
     </g>
    </g>
    <g id="xtick_6">
     <g id="line2d_11">
      <path d="M 556.464241 364.880041 
L 556.464241 7.2 
" clip-path="url(#pf5fbc7c5a3)" style="fill: none; stroke-dasharray: 1.85,0.8; stroke-dashoffset: 0; stroke: #adb5bd; stroke-opacity: 0.7; stroke-width: 0.5"/>
     </g>
     <g id="line2d_12">
      <g>
       <use xlink:href="#m14146cf071" x="556.464241" y="364.880041" style="fill: #6c757d; stroke: #6c757d; stroke-width: 0.8"/>
      </g>
     </g>
     <g id="text_6">
      <!-- 2024-11 -->
      <g style="fill: #6c757d" transform="translate(525.528352 395.333965) rotate(-30) scale(0.1 -0.1)">
       <use xlink:href="#SimHei-32"/>
       <use xlink:href="#SimHei-30" x="50"/>
       <use xlink:href="#SimHei-32" x="100"/>
       <use xlink:href="#SimHei-34" x="150"/>
       <use xlink:href="#SimHei-2d" x="200"/>
       <use xlink:href="#SimHei-31" x="250"/>
       <use xlink:href="#SimHei-31" x="300"/>
      </g>
     </g>
    </g>
    <g id="xtick_7">
     <g id="line2d_13">
      <path d="M 649.52725 364.880041 
L 649.52725 7.2 
" clip-path="url(#pf5fbc7c5a3)" style="fill: none; stroke-dasharray: 1.85,0.8; stroke-dashoffset: 0; stroke: #adb5bd; stroke-opacity: 0.7; stroke-width: 0.5"/>
     </g>
     <g id="line2d_14">
      <g>
       <use xlink:href="#m14146cf071" x="649.52725" y="364.880041" style="fill: #6c757d; stroke: #6c757d; stroke-width: 0.8"/>
      </g>
     </g>
     <g id="text_7">
      <!-- 2025-01 -->
      <g style="fill: #6c757d" transform="translate(618.591361 395.333965) rotate(-30) scale(0.1 -0.1)">
       <use xlink:href="#SimHei-32"/>
       <use xlink:href="#SimHei-30" x="50"/>
       <use xlink:href="#SimHei-32" x="100"/>
       <use xlink:href="#SimHei-35" x="150"/>
       <use xlink:href="#SimHei-2d" x="200"/>
       <use xlink:href="#SimHei-30" x="250"/>
       <use xlink:href="#SimHei-31" x="300"/>
      </g>
     </g>
    </g>
    <g id="xtick_8">
     <g id="line2d_15">
      <path d="M 739.539012 364.880041 
L 739.539012 7.2 
" clip-path="url(#pf5fbc7c5a3)" style="fill: none; stroke-dasharray: 1.85,0.8; stroke-dashoffset: 0; stroke: #adb5bd; stroke-opacity: 0.7; stroke-width: 0.5"/>
     </g>
     <g id="line2d_16">
      <g>
       <use xlink:href="#m14146cf071" x="739.539012" y="364.880041" style="fill: #6c757d; stroke: #6c757d; stroke-width: 0.8"/>
      </g>
     </g>
     <g id="text_8">
      <!-- 2025-03 -->
      <g style="fill: #6c757d" transform="translate(708.603123 395.333965) rotate(-30) scale(0.1 -0.1)">
       <use xlink:href="#SimHei-32"/>
       <use xlink:href="#SimHei-30" x="50"/>
       <use xlink:href="#SimHei-32" x="100"/>
       <use xlink:href="#SimHei-35" x="150"/>
       <use xlink:href="#SimHei-2d" x="200"/>
       <use xlink:href="#SimHei-30" x="250"/>
       <use xlink:href="#SimHei-33" x="300"/>
      </g>
     </g>
    </g>
    <g id="xtick_9">
     <g id="line2d_17">
      <path d="M 832.602021 364.880041 
L 832.602021 7.2 
" clip-path="url(#pf5fbc7c5a3)" style="fill: none; stroke-dasharray: 1.85,0.8; stroke-dashoffset: 0; stroke: #adb5bd; stroke-opacity: 0.7; stroke-width: 0.5"/>
     </g>
     <g id="line2d_18">
      <g>
       <use xlink:href="#m14146cf071" x="832.602021" y="364.880041" style="fill: #6c757d; stroke: #6c757d; stroke-width: 0.8"/>
      </g>
     </g>
     <g id="text_9">
      <!-- 2025-05 -->
      <g style="fill: #6c757d" transform="translate(801.666131 395.333965) rotate(-30) scale(0.1 -0.1)">
       <use xlink:href="#SimHei-32"/>
       <use xlink:href="#SimHei-30" x="50"/>
       <use xlink:href="#SimHei-32" x="100"/>
       <use xlink:href="#SimHei-35" x="150"/>
       <use xlink:href="#SimHei-2d" x="200"/>
       <use xlink:href="#SimHei-30" x="250"/>
       <use xlink:href="#SimHei-35" x="300"/>
      </g>
     </g>
    </g>
    <g id="text_10">
     <!-- 日期 -->
     <g style="fill: #495057" transform="translate(437.670625 415.650872) scale(0.12 -0.12)">
      <defs>
       <path id="SimHei-65e5" d="M 5375 5000 
Q 5350 3775 5350 2275 
Q 5350 775 5375 -450 
L 4800 -450 
L 4800 175 
L 1800 175 
L 1800 -575 
L 1250 -575 
Q 1275 575 1275 2125 
Q 1275 3675 1250 5000 
L 5375 5000 
z
M 4800 600 
L 4800 2375 
L 1800 2375 
L 1800 600 
L 4800 600 
z
M 4800 2800 
L 4800 4550 
L 1800 4550 
L 1800 2800 
L 4800 2800 
z
" transform="scale(0.015625)"/>
       <path id="SimHei-671f" d="M 4900 -25 
Q 5475 -100 5425 175 
L 5425 1575 
L 4325 1575 
Q 4275 975 4050 425 
Q 3825 -125 3400 -600 
Q 3225 -375 2925 -275 
Q 3350 150 3562 625 
Q 3775 1100 3812 1575 
Q 3850 2050 3850 3125 
Q 3850 4225 3825 4875 
L 5950 4875 
Q 5925 4400 5925 3725 
L 5925 50 
Q 5925 -300 5700 -425 
Q 5475 -550 5100 -600 
Q 5100 -325 4900 -25 
z
M 950 4300 
Q 950 4675 925 5125 
L 1450 5125 
Q 1425 4625 1425 4300 
L 2550 4300 
Q 2550 4775 2525 5125 
L 3075 5125 
Q 3050 4700 3050 4300 
Q 3225 4300 3500 4325 
L 3500 3900 
Q 3250 3925 3050 3925 
L 3050 1550 
Q 3250 1550 3500 1575 
L 3500 1150 
Q 3025 1175 2575 1175 
L 1225 1175 
Q 675 1175 275 1150 
L 275 1575 
Q 650 1550 950 1550 
L 950 3925 
Q 725 3925 425 3900 
L 425 4325 
Q 700 4300 950 4300 
z
M 5425 3375 
L 5425 4500 
L 4350 4500 
L 4350 3375 
L 5425 3375 
z
M 5425 1950 
L 5425 3000 
L 4350 3000 
L 4350 1950 
L 5425 1950 
z
M 1600 725 
Q 1425 650 1162 287 
Q 900 -75 650 -350 
Q 400 -175 225 -75 
Q 450 100 700 412 
Q 950 725 1100 1025 
L 1600 725 
z
M 2550 3375 
L 2550 3925 
L 1425 3925 
L 1425 3375 
L 2550 3375 
z
M 2550 1550 
L 2550 2100 
L 1425 2100 
L 1425 1550 
L 2550 1550 
z
M 2550 2475 
L 2550 3000 
L 1425 3000 
L 1425 2475 
L 2550 2475 
z
M 2850 -75 
Q 2450 525 2225 725 
Q 2375 825 2550 1025 
Q 2850 725 3250 275 
Q 3050 125 2850 -75 
z
" transform="scale(0.015625)"/>
      </defs>
      <use xlink:href="#SimHei-65e5"/>
      <use xlink:href="#SimHei-671f" x="100"/>
     </g>
    </g>
   </g>
   <g id="matplotlib.axis_2">
    <g id="ytick_1">
     <g id="line2d_19">
      <path d="M 50.2625 348.621857 
L 849.07875 348.621857 
" clip-path="url(#pf5fbc7c5a3)" style="fill: none; stroke-dasharray: 1.85,0.8; stroke-dashoffset: 0; stroke: #adb5bd; stroke-opacity: 0.7; stroke-width: 0.5"/>
     </g>
     <g id="line2d_20">
      <defs>
       <path id="m1850f33420" d="M 0 0 
L -3.5 0 
" style="stroke: #6c757d; stroke-width: 0.8"/>
      </defs>
      <g>
       <use xlink:href="#m1850f33420" x="50.2625" y="348.621857" style="fill: #6c757d; stroke: #6c757d; stroke-width: 0.8"/>
      </g>
     </g>
     <g id="text_11">
      <!-- 100 -->
      <g style="fill: #6c757d" transform="translate(28.2625 352.059357) scale(0.1 -0.1)">
       <use xlink:href="#SimHei-31"/>
       <use xlink:href="#SimHei-30" x="50"/>
       <use xlink:href="#SimHei-30" x="100"/>
      </g>
     </g>
    </g>
    <g id="ytick_2">
     <g id="line2d_21">
      <path d="M 50.2625 298.284892 
L 849.07875 298.284892 
" clip-path="url(#pf5fbc7c5a3)" style="fill: none; stroke-dasharray: 1.85,0.8; stroke-dashoffset: 0; stroke: #adb5bd; stroke-opacity: 0.7; stroke-width: 0.5"/>
     </g>
     <g id="line2d_22">
      <g>
       <use xlink:href="#m1850f33420" x="50.2625" y="298.284892" style="fill: #6c757d; stroke: #6c757d; stroke-width: 0.8"/>
      </g>
     </g>
     <g id="text_12">
      <!-- 105 -->
      <g style="fill: #6c757d" transform="translate(28.2625 301.722392) scale(0.1 -0.1)">
       <use xlink:href="#SimHei-31"/>
       <use xlink:href="#SimHei-30" x="50"/>
       <use xlink:href="#SimHei-35" x="100"/>
      </g>
     </g>
    </g>
    <g id="ytick_3">
     <g id="line2d_23">
      <path d="M 50.2625 247.947927 
L 849.07875 247.947927 
" clip-path="url(#pf5fbc7c5a3)" style="fill: none; stroke-dasharray: 1.85,0.8; stroke-dashoffset: 0; stroke: #adb5bd; stroke-opacity: 0.7; stroke-width: 0.5"/>
     </g>
     <g id="line2d_24">
      <g>
       <use xlink:href="#m1850f33420" x="50.2625" y="247.947927" style="fill: #6c757d; stroke: #6c757d; stroke-width: 0.8"/>
      </g>
     </g>
     <g id="text_13">
      <!-- 110 -->
      <g style="fill: #6c757d" transform="translate(28.2625 251.385427) scale(0.1 -0.1)">
       <use xlink:href="#SimHei-31"/>
       <use xlink:href="#SimHei-31" x="50"/>
       <use xlink:href="#SimHei-30" x="100"/>
      </g>
     </g>
    </g>
    <g id="ytick_4">
     <g id="line2d_25">
      <path d="M 50.2625 197.610962 
L 849.07875 197.610962 
" clip-path="url(#pf5fbc7c5a3)" style="fill: none; stroke-dasharray: 1.85,0.8; stroke-dashoffset: 0; stroke: #adb5bd; stroke-opacity: 0.7; stroke-width: 0.5"/>
     </g>
     <g id="line2d_26">
      <g>
       <use xlink:href="#m1850f33420" x="50.2625" y="197.610962" style="fill: #6c757d; stroke: #6c757d; stroke-width: 0.8"/>
      </g>
     </g>
     <g id="text_14">
      <!-- 115 -->
      <g style="fill: #6c757d" transform="translate(28.2625 201.048462) scale(0.1 -0.1)">
       <use xlink:href="#SimHei-31"/>
       <use xlink:href="#SimHei-31" x="50"/>
       <use xlink:href="#SimHei-35" x="100"/>
      </g>
     </g>
    </g>
    <g id="ytick_5">
     <g id="line2d_27">
      <path d="M 50.2625 147.273997 
L 849.07875 147.273997 
" clip-path="url(#pf5fbc7c5a3)" style="fill: none; stroke-dasharray: 1.85,0.8; stroke-dashoffset: 0; stroke: #adb5bd; stroke-opacity: 0.7; stroke-width: 0.5"/>
     </g>
     <g id="line2d_28">
      <g>
       <use xlink:href="#m1850f33420" x="50.2625" y="147.273997" style="fill: #6c757d; stroke: #6c757d; stroke-width: 0.8"/>
      </g>
     </g>
     <g id="text_15">
      <!-- 120 -->
      <g style="fill: #6c757d" transform="translate(28.2625 150.711497) scale(0.1 -0.1)">
       <use xlink:href="#SimHei-31"/>
       <use xlink:href="#SimHei-32" x="50"/>
       <use xlink:href="#SimHei-30" x="100"/>
      </g>
     </g>
    </g>
    <g id="ytick_6">
     <g id="line2d_29">
      <path d="M 50.2625 96.937033 
L 849.07875 96.937033 
" clip-path="url(#pf5fbc7c5a3)" style="fill: none; stroke-dasharray: 1.85,0.8; stroke-dashoffset: 0; stroke: #adb5bd; stroke-opacity: 0.7; stroke-width: 0.5"/>
     </g>
     <g id="line2d_30">
      <g>
       <use xlink:href="#m1850f33420" x="50.2625" y="96.937033" style="fill: #6c757d; stroke: #6c757d; stroke-width: 0.8"/>
      </g>
     </g>
     <g id="text_16">
      <!-- 125 -->
      <g style="fill: #6c757d" transform="translate(28.2625 100.374533) scale(0.1 -0.1)">
       <use xlink:href="#SimHei-31"/>
       <use xlink:href="#SimHei-32" x="50"/>
       <use xlink:href="#SimHei-35" x="100"/>
      </g>
     </g>
    </g>
    <g id="ytick_7">
     <g id="line2d_31">
      <path d="M 50.2625 46.600068 
L 849.07875 46.600068 
" clip-path="url(#pf5fbc7c5a3)" style="fill: none; stroke-dasharray: 1.85,0.8; stroke-dashoffset: 0; stroke: #adb5bd; stroke-opacity: 0.7; stroke-width: 0.5"/>
     </g>
     <g id="line2d_32">
      <g>
       <use xlink:href="#m1850f33420" x="50.2625" y="46.600068" style="fill: #6c757d; stroke: #6c757d; stroke-width: 0.8"/>
      </g>
     </g>
     <g id="text_17">
      <!-- 130 -->
      <g style="fill: #6c757d" transform="translate(28.2625 50.037568) scale(0.1 -0.1)">
       <use xlink:href="#SimHei-31"/>
       <use xlink:href="#SimHei-33" x="50"/>
       <use xlink:href="#SimHei-30" x="100"/>
      </g>
     </g>
    </g>
    <g id="text_18">
     <!-- 组合价值 -->
     <g style="fill: #495057" transform="translate(16.7625 210.04002) rotate(-90) scale(0.12 -0.12)">
      <defs>
       <path id="SimHei-7ec4" d="M 6125 -425 
Q 5750 -400 5225 -400 
L 3275 -400 
Q 2775 -400 2400 -425 
L 2400 50 
Q 2725 25 2950 25 
L 2950 3775 
Q 2950 4375 2900 4625 
L 5525 4625 
Q 5500 4400 5500 3775 
L 5500 25 
Q 5825 25 6125 50 
L 6125 -425 
z
M 1725 4825 
Q 1500 4550 1287 4137 
Q 1075 3725 725 3050 
Q 950 3050 1550 3075 
Q 1800 3550 1900 3975 
Q 2075 3825 2450 3675 
Q 2225 3350 1937 2875 
Q 1650 2400 1150 1625 
Q 1950 1725 2425 1775 
L 2425 1350 
Q 2100 1325 1575 1250 
Q 1050 1175 575 1050 
Q 550 1300 400 1575 
Q 675 1675 912 1975 
Q 1150 2275 1375 2725 
Q 1225 2725 950 2687 
Q 675 2650 425 2525 
Q 325 2825 225 3050 
Q 450 3300 712 3862 
Q 975 4425 1150 5075 
Q 1425 4925 1725 4825 
z
M 5025 25 
L 5025 1275 
L 3425 1275 
L 3425 25 
L 5025 25 
z
M 5025 3125 
L 5025 4225 
L 3425 4225 
L 3425 3125 
L 5025 3125 
z
M 5025 1700 
L 5025 2725 
L 3425 2725 
L 3425 1700 
L 5025 1700 
z
M 2375 175 
Q 1875 100 1375 -12 
Q 875 -125 450 -300 
Q 375 -75 250 250 
Q 925 325 1162 375 
Q 1400 425 2375 600 
L 2375 175 
z
" transform="scale(0.015625)"/>
       <path id="SimHei-5408" d="M 5050 1800 
Q 5025 1550 5025 650 
Q 5025 -250 5050 -525 
L 4525 -525 
L 4525 -50 
L 1750 -50 
L 1750 -600 
L 1250 -600 
Q 1275 -300 1275 550 
Q 1275 1425 1250 1800 
L 5050 1800 
z
M 3375 4800 
Q 4100 3925 4550 3600 
Q 5000 3275 5375 3100 
Q 5750 2925 6100 2825 
Q 5850 2550 5775 2300 
Q 5275 2525 4875 2775 
Q 4475 3025 4062 3412 
Q 3650 3800 3125 4475 
Q 2650 3800 2187 3362 
Q 1725 2925 1400 2675 
Q 1075 2425 675 2175 
Q 625 2275 275 2575 
Q 800 2825 1275 3175 
Q 1750 3525 2225 4062 
Q 2700 4600 3000 5225 
Q 3275 5050 3500 4950 
L 3375 4800 
z
M 4525 350 
L 4525 1400 
L 1750 1400 
L 1750 350 
L 4525 350 
z
M 3925 2825 
Q 4325 2825 4625 2850 
L 4625 2375 
Q 4300 2400 3950 2400 
L 2550 2400 
Q 2025 2400 1700 2375 
L 1700 2850 
Q 2175 2825 2550 2825 
L 3925 2825 
z
" transform="scale(0.015625)"/>
       <path id="SimHei-4ef7" d="M 2200 4975 
Q 2050 4725 1650 3775 
L 1650 450 
Q 1650 -225 1675 -650 
L 1175 -650 
Q 1175 -225 1200 450 
L 1200 2975 
Q 900 2425 650 2100 
Q 525 2275 225 2450 
Q 750 3025 1125 3800 
Q 1500 4575 1625 5175 
Q 1950 5025 2200 4975 
z
M 4175 4700 
Q 4850 3525 6150 2950 
Q 5925 2750 5775 2500 
Q 4725 3100 3950 4300 
Q 3300 3125 2250 2350 
Q 2125 2525 1900 2725 
Q 2825 3325 3250 4050 
Q 3675 4775 3750 5150 
Q 4150 4950 4325 4900 
L 4175 4700 
z
M 3475 2650 
Q 3400 2075 3325 1087 
Q 3250 100 2325 -675 
Q 2175 -450 1925 -300 
Q 2850 350 2912 1262 
Q 2975 2175 2950 2700 
Q 3275 2650 3475 2650 
z
M 5075 2700 
Q 5050 2150 5050 1725 
L 5050 150 
Q 5050 -225 5075 -650 
L 4550 -650 
Q 4575 -225 4575 175 
L 4575 1875 
Q 4575 2150 4550 2700 
L 5075 2700 
z
" transform="scale(0.015625)"/>
       <path id="SimHei-503c" d="M 3675 4450 
L 3675 5100 
Q 3975 5075 4350 5050 
Q 4225 4875 4200 4450 
L 5125 4450 
Q 5550 4450 5875 4475 
L 5875 4025 
Q 5525 4050 5125 4050 
L 4175 4050 
L 4125 3500 
L 5400 3500 
Q 5375 3200 5375 2700 
L 5375 150 
Q 5875 150 6100 175 
L 6100 -275 
Q 5775 -250 5200 -250 
L 2850 -250 
Q 2275 -250 1900 -275 
L 1900 175 
Q 2125 150 2600 150 
L 2600 2700 
Q 2600 3175 2575 3500 
L 3600 3500 
L 3650 4050 
L 3200 4050 
Q 2575 4050 2225 4025 
L 2225 4475 
Q 2550 4450 3200 4450 
L 3675 4450 
z
M 2225 4900 
Q 2025 4675 1650 3750 
L 1650 450 
Q 1650 -75 1675 -550 
L 1150 -550 
Q 1175 -125 1175 375 
L 1175 2950 
Q 875 2450 625 2150 
Q 425 2425 250 2575 
Q 500 2825 937 3537 
Q 1375 4250 1625 5150 
Q 1975 4975 2225 4900 
z
M 4925 2650 
L 4925 3150 
L 3075 3150 
L 3075 2650 
L 4925 2650 
z
M 4925 150 
L 4925 625 
L 3075 625 
L 3075 150 
L 4925 150 
z
M 4925 1000 
L 4925 1450 
L 3075 1450 
L 3075 1000 
L 4925 1000 
z
M 4925 1825 
L 4925 2275 
L 3075 2275 
L 3075 1825 
L 4925 1825 
z
" transform="scale(0.015625)"/>
      </defs>
      <use xlink:href="#SimHei-7ec4"/>
      <use xlink:href="#SimHei-5408" x="100"/>
      <use xlink:href="#SimHei-4ef7" x="200"/>
      <use xlink:href="#SimHei-503c" x="300"/>
     </g>
    </g>
   </g>
   <g id="line2d_33">
    <path d="M 86.57233 348.621857 
L 92.674822 343.006615 
L 94.200445 343.806005 
L 95.726068 341.142193 
L 97.251691 341.660595 
L 101.82856 347.216334 
L 103.354184 336.381118 
L 104.879807 339.352843 
L 106.40543 338.268042 
L 107.931053 336.73349 
L 112.507922 329.890832 
L 114.033545 330.194001 
L 115.559168 339.7123 
L 117.084791 341.526786 
L 118.610414 335.802257 
L 123.187284 336.723664 
L 124.712907 337.433134 
L 126.23853 327.568636 
L 127.764153 318.801319 
L 129.289776 312.656902 
L 133.866645 309.466729 
L 135.392268 305.693728 
L 136.917892 315.162225 
L 138.443515 322.601656 
L 139.969138 312.588387 
L 144.546007 312.843978 
L 146.07163 306.964497 
L 147.597253 303.537365 
L 149.122876 295.463521 
L 165.90473 288.503785 
L 167.430353 286.31153 
L 168.955976 288.116851 
L 170.4816 276.611551 
L 172.007223 272.306937 
L 176.584092 285.604221 
L 178.109715 283.045425 
L 179.635338 285.432617 
L 181.160961 283.782097 
L 182.686584 277.672617 
L 187.263453 266.089359 
L 188.789077 260.771213 
L 190.3147 258.697365 
L 191.840323 254.013133 
L 193.365946 247.020042 
L 197.942815 253.744428 
L 199.468438 266.058658 
L 200.994061 265.520514 
L 202.519684 263.343079 
L 204.045307 263.877908 
L 208.622177 266.372323 
L 210.1478 269.288593 
L 211.673423 264.792812 
L 213.199046 250.370225 
L 214.724669 255.053305 
L 219.301538 254.524407 
L 220.827161 251.630319 
L 222.352785 252.714343 
L 223.878408 249.499407 
L 225.404031 236.98849 
L 229.9809 232.097914 
L 231.506523 229.716197 
L 233.032146 222.836396 
L 240.660262 213.321824 
L 242.185885 215.431244 
L 243.711508 213.355234 
L 245.237131 214.635847 
L 246.762754 200.008936 
L 251.339623 197.733155 
L 252.865246 206.761522 
L 254.390869 197.525641 
L 255.916493 199.567366 
L 257.442116 203.009122 
L 262.018985 221.258056 
L 263.544608 235.882582 
L 265.070231 224.611936 
L 266.595854 226.794472 
L 268.121477 225.048056 
L 272.698347 227.040774 
L 274.22397 225.397435 
L 283.377708 224.392656 
L 284.903331 220.437002 
L 286.428954 218.488511 
L 287.954577 216.279827 
L 289.480201 204.74111 
L 294.05707 202.172791 
L 295.582693 203.452904 
L 297.108316 199.064578 
L 298.633939 189.517846 
L 300.159562 187.300373 
L 304.736431 173.105758 
L 306.262055 174.503589 
L 307.787678 172.225282 
L 309.313301 181.490988 
L 310.838924 191.559436 
L 315.415793 176.943386 
L 316.941416 178.203757 
L 318.467039 176.987471 
L 319.992662 188.605291 
L 321.518285 186.836319 
L 326.095155 194.655643 
L 327.620778 190.005419 
L 329.146401 195.878969 
L 330.672024 182.013812 
L 332.197647 176.781083 
L 338.300139 196.319795 
L 339.825763 185.315317 
L 341.351386 183.418191 
L 342.877009 182.3673 
L 347.453878 185.610723 
L 348.979501 177.150042 
L 350.505124 175.225617 
L 352.030747 168.668923 
L 353.55637 172.455592 
L 358.13324 184.813218 
L 359.658863 186.199857 
L 361.184486 178.796418 
L 362.710109 179.117265 
L 364.235732 164.003842 
L 368.812601 156.504811 
L 370.338224 153.765899 
L 371.863847 149.82921 
L 373.38947 150.768733 
L 374.915094 148.203684 
L 379.491963 139.990635 
L 381.017586 129.078935 
L 382.543209 139.463997 
L 384.068832 137.48366 
L 385.594455 155.600772 
L 390.171324 135.421818 
L 391.696948 133.090494 
L 394.748194 141.377447 
L 396.273817 163.537575 
L 400.850686 173.213667 
L 402.376309 171.720126 
L 403.901932 175.724368 
L 405.427555 196.514188 
L 406.953178 195.738586 
L 411.530048 178.705856 
L 413.055671 187.186833 
L 414.581294 177.00591 
L 416.106917 170.098826 
L 417.63254 189.196374 
L 422.209409 231.092888 
L 423.735032 224.64665 
L 425.260656 222.823373 
L 426.786279 227.226975 
L 428.311902 214.273228 
L 432.888771 207.281147 
L 434.414394 199.346506 
L 435.940017 193.82138 
L 437.46564 183.567106 
L 438.991263 165.723203 
L 443.568133 162.430533 
L 445.093756 158.980541 
L 446.619379 163.069146 
L 448.145002 163.057917 
L 449.670625 167.538878 
L 454.247494 167.694787 
L 455.773117 169.119025 
L 457.29874 172.352828 
L 458.824364 193.254562 
L 460.349987 193.095617 
L 464.926856 190.982427 
L 466.452479 195.179085 
L 467.978102 219.372365 
L 469.503725 217.55871 
L 471.029348 216.501289 
L 475.606218 226.350234 
L 477.131841 223.169584 
L 478.657464 228.212076 
L 480.183087 214.498744 
L 481.70871 205.411465 
L 489.336825 204.504423 
L 490.862448 198.074792 
L 492.388072 195.26312 
L 496.964941 184.892736 
L 498.490564 169.222427 
L 500.016187 163.38721 
L 501.54181 144.805608 
L 503.067433 157.620329 
L 507.644302 133.255874 
L 519.849287 129.398832 
L 521.37491 161.354917 
L 522.900533 134.260117 
L 524.426156 137.174457 
L 529.003026 119.617555 
L 530.528649 122.575943 
L 532.054272 113.89233 
L 533.579895 114.808618 
L 535.105518 112.972961 
L 539.682387 113.106645 
L 541.20801 111.674671 
L 542.733633 109.445647 
L 544.259257 119.860714 
L 545.78488 120.54695 
L 550.361749 113.420864 
L 551.887372 118.559208 
L 553.412995 104.739664 
L 554.938618 114.478018 
L 556.464241 117.139615 
L 561.041111 117.902102 
L 562.566734 114.779846 
L 565.61798 92.366221 
L 567.143603 97.107054 
L 571.720472 100.85765 
L 573.246095 111.831853 
L 574.771718 112.067882 
L 576.297341 122.328469 
L 577.822965 128.626258 
L 582.399834 115.582119 
L 583.925457 107.44117 
L 585.45108 100.813011 
L 586.976703 97.918504 
L 588.502326 102.886352 
L 593.079195 104.866831 
L 594.604819 109.064963 
L 596.130442 99.602854 
L 597.656065 105.239168 
L 599.181688 100.047487 
L 603.758557 102.519998 
L 605.28418 87.347072 
L 606.809803 83.790081 
L 609.861049 78.509676 
L 614.437919 69.592713 
L 615.963542 69.771955 
L 617.489165 65.802491 
L 619.014788 56.084155 
L 620.540411 64.963438 
L 625.11728 56.132669 
L 626.642903 50.492405 
L 628.168527 41.074344 
L 629.69415 63.122963 
L 631.219773 74.570369 
L 635.796642 51.699026 
L 637.322265 53.691369 
L 638.847888 45.624331 
L 640.373511 45.884524 
L 641.899134 47.605124 
L 646.476004 52.323999 
L 648.001627 55.28362 
L 651.052873 60.028598 
L 652.578496 65.463027 
L 657.155365 56.133098 
L 658.680988 58.931693 
L 660.206611 58.025759 
L 663.257858 66.171122 
L 667.834727 81.506166 
L 669.36035 72.224136 
L 670.885973 71.459112 
L 672.411596 57.576517 
L 673.937219 57.994048 
L 678.514089 53.322893 
L 680.039712 56.085692 
L 681.565335 58.584388 
L 684.616581 51.136525 
L 689.19345 57.792564 
L 702.924058 52.40677 
L 704.449681 52.566689 
L 705.975304 51.758133 
L 710.552173 49.198043 
L 712.077797 38.699863 
L 713.60342 39.805656 
L 715.129043 34.60086 
L 716.654666 30.122061 
L 721.231535 37.775302 
L 722.757158 29.523404 
L 724.282781 30.176088 
L 725.808404 33.980891 
L 727.334027 43.224453 
L 731.910897 51.517578 
L 733.43652 60.789253 
L 734.962143 60.556583 
L 736.487766 56.903088 
L 738.013389 77.255949 
L 742.590258 70.02683 
L 744.115881 73.080874 
L 745.641504 62.66912 
L 747.167128 65.612037 
L 748.692751 74.493285 
L 753.26962 77.770895 
L 754.795243 94.535974 
L 756.320866 92.290245 
L 757.846489 88.707064 
L 759.372112 75.768495 
L 763.948982 72.744172 
L 765.474605 66.568562 
L 767.000228 62.588602 
L 768.525851 56.040242 
L 770.051474 61.470668 
L 774.628343 50.660947 
L 776.153966 43.156815 
L 777.679589 43.715255 
L 779.205212 48.303297 
L 780.730836 44.443907 
L 785.307705 55.468066 
L 786.833328 45.675684 
L 788.358951 43.984947 
L 789.884574 45.815067 
L 795.987066 122.063853 
L 797.51269 96.546457 
L 799.038313 95.622068 
L 800.563936 50.875095 
L 802.089559 48.120346 
L 806.666428 36.67772 
L 808.192051 36.771133 
L 809.717674 29.416775 
L 811.243297 24.145848 
L 812.76892 23.458184 
L 812.76892 23.458184 
" clip-path="url(#pf5fbc7c5a3)" style="fill: none; stroke: #9d69b1; stroke-opacity: 0.9; stroke-width: 2.5; stroke-linecap: square"/>
   </g>
   <g id="patch_3">
    <path d="M 50.2625 364.880041 
L 50.2625 7.2 
" style="fill: none; stroke: #6c757d; stroke-width: 0.8; stroke-linejoin: miter; stroke-linecap: square"/>
   </g>
   <g id="patch_4">
    <path d="M 50.2625 364.880041 
L 849.07875 364.880041 
" style="fill: none; stroke: #6c757d; stroke-width: 0.8; stroke-linejoin: miter; stroke-linecap: square"/>
   </g>
   <g id="legend_1">
    <g id="line2d_34">
     <path d="M 77.038825 30.516101 
L 89.038825 30.516101 
L 101.038825 30.516101 
" style="fill: none; stroke: #9d69b1; stroke-opacity: 0.9; stroke-width: 2.5; stroke-linecap: square"/>
    </g>
    <g id="text_19">
     <!-- 组合价值 -->
     <g style="fill: #495057" transform="translate(110.638825 34.716101) scale(0.12 -0.12)">
      <use xlink:href="#SimHei-7ec4"/>
      <use xlink:href="#SimHei-5408" x="100"/>
      <use xlink:href="#SimHei-4ef7" x="200"/>
      <use xlink:href="#SimHei-503c" x="300"/>
     </g>
    </g>
   </g>
  </g>
 </g>
 <defs>
  <clipPath id="pf5fbc7c5a3">
   <rect x="50.2625" y="7.2" width="798.81625" height="357.680041"/>
  </clipPath>
 </defs>
</svg>
